<?xml version="1.0" encoding="utf-8"?>
<!-- Generator: Adobe Illustrator 27.5.0, SVG Export Plug-In . SVG Version: 6.00 Build 0)  -->
<svg version="1.1" xmlns="http://www.w3.org/2000/svg" xmlns:xlink="http://www.w3.org/1999/xlink" x="0px" y="0px"
	width="600" height="600" viewBox="70 240 200 200" style="enable-background:new 0 0 500 500;" xml:space="preserve">
<g id="BACKGROUND">
	<g>
		<path d="M248.328,306.566c-0.02-0.129-0.064-0.253-0.144-0.364c-0.855-0.94-2.352-1.088-3.472-1.638
			c-1.378-0.426-2.726-1.111-4.113-1.532c1.438-2.794,2.826-5.615,4.234-8.423c0.922-1.753,1.827-3.515,2.754-5.266
			c0.138-0.12,0.256-0.28,0.34-0.507c0.285-1.536-1.758-1.563-2.777-1.944c-19.602-5.173-39.219-10.367-59.203-13.866
			c-5.154-0.924-10.311-1.839-15.501-2.533c-1.985-0.226-3.989-0.535-5.991-0.38c-0.399,0.033-0.808,0.137-1.151,0.34
			c-0.734,0.257-1.182,1.165-1.711,1.708c-10.871,13.029-21.51,26.24-31.456,39.99c-8.106,11.252-16.071,22.605-24.395,33.697
			c-2.251,3.234-4.602,5.634-6.512,8.934c-0.004,0.019,0.003,0.037,0.001,0.056c-0.348,0.236-0.611,0.563-0.731,1.035
			c0,0.013,0.008,0.024,0.008,0.039c-1.208,3.41-0.748,7.215-0.884,10.781c0.131,2.029,0.181,4.181,1.171,6.007
			c0.574,0.986,1.534,1.672,2.457,2.31c3.335,2.094,6.991,3.607,10.508,5.358c5.299,2.729,10.68,5.298,16.061,7.864
			c-1.48,2.947-2.779,5.917-3.85,8.641c-0.162,0.623,0.549,0.91,1.055,0.728c2.026-0.475,4.007-1.139,6.045-1.562
			c0.356-0.319,1.681,1.246,2.664,2.806c0.467,0.668,0.867,1.392,1.331,2.058c0.048,0.226,0.206,0.442,0.307,0.643
			c0.155,0.25,0.331,0.583,0.665,0.588c0.196,0,0.379-0.122,0.459-0.301c0.237-0.605,0.301-0.722,0.586-1.379
			c0.833-1.973,1.768-4.157,2.75-6.384c7.913,3.828,15.978,7.335,23.977,10.988c9.357,4.042,18.344,8.997,27.95,12.435
			c0.856,0.421,1.679-0.276,1.646-1.004c4.51-10.106,9.15-20.162,14.551-29.832c8.673-16.996,17.788-33.765,26.533-50.725
			c4.396-8.528,8.697-17.106,12.806-25.775c0.286-0.852,1.091-1.773,1.168-2.668C248.58,307.18,248.52,306.828,248.328,306.566
			 M134.067,310.277c8.726-11.603,19.66-24.586,29.571-36.458c0.391-0.522,0.877-0.993,1.176-1.571
			c3.883-0.095,9.533,0.917,14.532,1.741c22.109,3.36,43.781,8.944,65.231,15.188c0.244,0.039,0.523,0.116,0.813,0.194
			c-0.47,0.948-0.935,1.9-1.391,2.856c-0.116,0.079-0.225,0.184-0.315,0.335c-9.443,18.824-19.879,37.124-30.146,55.504
			c-5.629,10.552-10.909,21.29-16.258,31.987c-1.458,2.958-2.913,5.919-4.39,8.869c-0.587,1.291-1.436,2.515-1.709,3.919
			c-0.145,0.235-0.311,0.493-0.482,0.777c-1.117-0.447-2.953-1.344-4.467-2.057c-9.402-4.43-19-8.44-28.358-12.969
			c-16.421-7.959-32.962-15.727-49.912-22.502c-1.281-0.438-4.089-1.516-6.332-1.681c-0.091-0.051-0.199-0.077-0.316-0.093
			C112.035,340.191,123.199,325.312,134.067,310.277 M183.612,406.131c-0.016,0.062-0.023,0.127-0.024,0.189
			c-0.005,0.025-0.007,0.045-0.013,0.07c-0.146-0.052-0.29-0.109-0.437-0.159c-0.163-0.097-0.347-0.17-0.504-0.225
			c-0.602-0.152-1.227-0.576-1.846-0.697c-0.011-0.005-0.022-0.01-0.032-0.014c-0.002,0.003-0.004,0.007-0.005,0.008
			c-0.008-0.001-0.018-0.001-0.026-0.003c-3.804-1.587-8.006-3.528-12.017-5.194c-8.775-3.879-17.517-7.831-26.293-11.707
			c0.298-0.628,0.596-1.25,0.895-1.858c0.516-1.075,1.129-2.111,1.73-3.129c0.777,0.301,1.58,0.583,2.445,0.827
			c0.338-0.025,0.44-0.523,0.139-0.684c-2.958-1.307-5.938-2.571-8.972-3.689c-2.252-0.844-4.327-1.406-6.199-2.599
			c0.159,0.112-0.122-0.107-0.221-0.071c-0.34-0.011-0.53,0.443-0.281,0.677c0.489,0.345,1.005,0.64,1.534,0.91
			c-1.028,1.402-2.009,2.901-2.938,4.457c-5.349-2.196-10.734-4.351-15.934-6.604c-4.271-1.844-9.787-3.968-11.235-7.645
			c-0.751-1.854-0.713-3.324-0.657-5.432c0.109-1.665,0.388-3.612,1.004-4.973c0.334-0.616,0.491-0.84,0.897-1.219
			c6.773,2.412,12.214,5.085,19.037,8.095c9.938,4.239,19.788,8.683,29.493,13.434c10.623,5.096,21.445,9.754,32.127,14.72
			c-0.434,3.441-1.087,8.416-1.56,11.807c-0.01,0.271-0.045,0.487-0.083,0.676c-0.008,0.031-0.023,0.052-0.029,0.089
			C183.612,406.134,183.625,406.048,183.612,406.131 M186.074,394.216c-0.001-0.072,0.008-0.147,0.019-0.223
			c1.011,0.473,2.03,0.932,3.038,1.41c0.15,0.078,0.282,0.138,0.417,0.199c-1.722,2.915-3.272,5.92-4.803,8.935
			C185.175,401.326,185.694,397.674,186.074,394.216 M118.917,381.917c-3.203-1.604-5.95-2.674-8.737-3.931
			c-3.861-2.092-8.058-4.549-9.358-6.136c-1.287-1.975-1.191-3.824-1.099-6.866c0.189-3.041,0.192-5.547,0.873-7.825
			c0.085-0.434,0.198-0.365,0.316-0.676c0.401-0.022,1.518,0.114,2.686,0.515c-1.584,1.797-1.807,4.503-2.023,6.821
			c-0.155,2.637,0.197,5.478,2.037,7.511c2.587,2.72,6.36,3.824,9.647,5.456c5.687,2.573,11.284,4.854,16.819,7.26
			c-0.494,0.854-0.972,1.717-1.435,2.591C125.4,385.066,122.159,383.488,118.917,381.917 M135.964,400.646
			c-0.306-0.578-0.655-1.132-1.008-1.682c-0.861-1.268-1.642-2.657-2.812-3.668c-0.255-0.213-0.557-0.392-0.898-0.379
			c-1.245,0.217-2.452,0.628-3.676,0.939c-0.633,0.173-1.774,0.485-2.423,0.649c0.283-0.67,0.702-1.874,1.067-2.628
			c2.141-5.154,4.737-10.122,7.984-14.667c0.022-0.022,0.03-0.044,0.048-0.065c1.611,0.721,3.33,1.236,4.961,1.884
			c1.847,0.657,3.457,1.426,5.167,2.121c-1.64,2.477-2.842,5.219-4.137,7.888C138.74,394.207,137.164,397.352,135.964,400.646
			 M206.748,384.41c-4.681,8.979-9.673,18.682-13.204,27.34c-0.538,1.174-1.004,2.382-1.58,3.537
			c-10.98-4.323-22.438-9.965-33.913-14.973c-5.87-2.539-11.68-5.214-17.461-7.949c0.452-1.007,0.91-2.009,1.373-3.002
			c8.917,4.056,17.806,8.167,26.795,12.061c4.141,1.732,7.983,3.442,11.915,5.007c0.06,0.031,0.124,0.051,0.186,0.074
			c0.033,0.013,0.066,0.028,0.098,0.038c0.567,0.285,1.134,0.569,1.733,0.777c0.104,0.04,0.216,0.044,0.325,0.029
			c0.21,0.083,0.432,0.166,0.663,0.246c0.382,0.184,0.997,0.203,1.058-0.334c0.03-0.143-0.02-0.281-0.107-0.392
			c1.79-3.523,3.557-7.06,5.614-10.439c0.072-0.163,0.184-0.319,0.291-0.48c0.793,0.173,1.295-0.042,1.692-0.54
			c0.267-0.073,0.508-0.24,0.646-0.51c1.648-3.129,3.299-6.572,4.799-9.901c4.459-8.96,8.785-17.991,13.316-26.917
			c4.456-9.075,9.57-17.797,14.495-26.619c4.585-8.372,8.892-16.895,13.463-25.276c0.214-0.4,0.42-0.802,0.631-1.204
			c2.119,0.675,4.187,1.496,6.273,2.259C233.37,333.244,219.819,358.71,206.748,384.41"/>
		<path d="M206.076,355.933c-4.371,8.15-8.916,16.208-13.548,24.21c-4.054-2.113-8.913-1.589-12.882,1.485
			c-0.528,0.411-1.08,0.827-1.535,1.322c-7.529-3.566-15.201-6.832-22.79-10.264c-6.34-2.658-12.399-5.911-18.683-8.683
			c-6.853-2.833-13.779-5.707-20.456-9.208c-0.345-0.133-0.68-0.361-1.031-0.497c0.461-0.903,0.671-2.434,0.8-3.361
			c0.314-2.666-1.181-5.637-3.758-6.6c3.702-5.301,7.544-10.505,11.385-15.708c0.191-0.257,0.416-0.493,0.588-0.759
			c0.133-0.272-0.258-0.55-0.471-0.318c-4.262,5.568-8.505,11.213-12.54,16.922c-0.041,0.215,0.093,0.418,0.27,0.531
			c0.048,0.039,0.345,0.157,0.478,0.208c1.031,0.439,1.65,1.04,2.119,1.716c1.226,1.749,1.305,3.474,0.816,5.473
			c-0.118,0.635-0.438,1.243-0.521,1.874c0.005,0.064,0.033,0.117,0.065,0.169c-0.079,0.189-0.048,0.425,0.159,0.537
			c10.734,5.233,21.694,9.353,32.277,14.801c10.48,4.879,21.106,9.446,31.541,14.42c0.003-0.114,0.028-0.225,0.064-0.33
			c0.017-0.014,0.041-0.019,0.057-0.035c2.001-2.11,4.374-3.449,7.291-3.993c1.418-0.333,4.318,0.225,5.63,0.827
			c0.418,0.123,0.799,0.495,1.247,0.439c0.101-0.028,0.176-0.091,0.235-0.168c0.106-0.007,0.213-0.053,0.298-0.154
			c0.835-1.267,1.552-2.616,2.313-3.928c3.499-5.955,6.679-12.084,9.972-18.153c0.415-0.882,1.069-1.75,1.268-2.69
			C206.661,355.723,206.224,355.659,206.076,355.933"/>
		<path d="M238.534,296.475c-0.005-0.02-0.023-0.029-0.031-0.046c-0.008-0.034-0.009-0.066-0.024-0.096
			c-0.007-0.021-0.002-0.044-0.011-0.065c-0.506-0.683-1.785-1.174-2.067-1.549c-0.92-0.809-1.282-1.281-1.825-2.123
			c-0.905-1.34-0.938-2.706-1.994-4.193c-0.348-0.331-0.85-0.351-1.292-0.477c-3.062-0.684-6.143-1.299-9.175-2.113
			c-7.753-1.999-15.463-4.189-23.305-5.813c-6.143-1.301-12.396-1.953-18.287-2.828c-2.567-0.329-5.141-1.002-7.701-1.159
			c-0.104,0.039-0.174,0.112-0.218,0.195c-0.043-0.012-0.087-0.024-0.138-0.023c-0.19-0.005-0.314,0.092-0.388,0.22
			c-0.243,0.186-0.448,0.441-0.695,0.624c-2.712,2.375-7.033,4.339-10.453,3.679c-0.262-0.072-0.523-0.224-0.801-0.148
			c-0.446,0.203-0.679,0.705-0.983,1.07c-4.507,6.255-9.344,11.879-13.891,18.244c-0.234,0.453-0.792,0.829-0.795,1.348
			c0.079,0.301,0.523,0.371,0.676,0.088c4.609-6.416,10.201-13.178,14.563-18.986c0.23-0.282,0.456-0.568,0.695-0.843
			c3.475,0.905,7.158-0.664,10.049-2.549c0.844-0.63,1.777-1.236,2.457-2.031c0.002-0.002,0.002-0.003,0.002-0.005
			c0.033,0.007,0.063,0.018,0.101,0.016c8.349,1.413,17.486,2.289,26.233,4.149c10.185,2.198,20.128,5.375,30.307,7.595
			c0.742,0.185,1.495,0.329,2.237,0.515c0.01,0.011,0.022,0.02,0.031,0.032c0.227,0.388,0.928,2.633,1.613,3.809
			c0.739,1.262,1.792,2.317,2.963,3.184c0.319,0.222,0.631,0.492,0.978,0.682c-2.459,4.6-4.91,9.208-7.379,13.803
			c-0.044,0.027-0.085,0.062-0.118,0.118c-2.775,5.108-5.483,10.255-8.368,15.302c-0.22,0.562-1.224,1.521-0.342,1.919
			c0.736,0.097,0.884-0.962,1.255-1.419c1.146-2.033,2.201-4.115,3.244-6.202c3.888-6.701,7.304-13.705,11.069-20.48
			c0.552-1.041,1.171-2.044,1.758-3.066C238.551,296.737,238.568,296.601,238.534,296.475"/>
		<path d="M184.48,403.884c-1.377-0.491-2.746-1.002-4.104-1.548c-9.479-3.926-19.171-7.26-28.848-10.654
			c5.759,2.747,11.62,5.274,17.408,7.962c5.046,2.361,10.036,4.864,15.281,6.765C184.263,405.575,184.362,404.733,184.48,403.884"/>
		<path d="M184.512,403.652c0.127-0.913,0.263-1.833,0.364-2.765c-3.623-1.36-7.24-2.735-10.839-4.163
			c-8.793-3.035-17.721-5.748-26.3-9.371c7.542,4.017,15.471,7.26,23.347,10.56C174.695,399.495,179.709,401.707,184.512,403.652"/>
		<path d="M185.013,398.132c-0.009-0.402,0.039-0.768,0.118-1.115c0-0.009-0.005-0.017-0.007-0.027
			c-0.286-1.381-0.078-2.34,0.542-3.562c0.071-0.139,0.134-0.283,0.2-0.422c-10.277-4.354-20.17-8.309-29.337-12.019
			c-6.952-2.813-12.717-5.583-21.294-8.239c10.118,4.628,19.535,10.647,29.582,15.417c-5.521-2.149-11.069-4.236-16.684-6.138
			c8.697,3.872,17.166,8.257,25.846,12.167c-8.266-2.888-16.633-5.478-24.812-8.608c5.326,2.669,10.483,4.757,15.713,7.063
			c6.544,3.032,13.249,5.674,20,8.201C184.976,399.951,185.038,399.045,185.013,398.132"/>
		<path d="M102.197,359.86c10.125,3.839,20.321,7.496,30.352,11.571c-7.244-4-14.828-7.317-22.244-10.974
			c-2.261-1.097-4.558-2.116-6.864-3.114C103.233,358.265,102.796,359.14,102.197,359.86"/>
		<path d="M111.125,372.07c5.599,1.889,11.148,3.92,16.753,5.791c-5.356-2.44-10.641-5.059-15.973-7.567
			c5.699,1.695,11.356,3.528,16.926,5.648c-7.465-3.426-14.881-7.054-22.499-10.148c6.245,2.179,12.501,4.327,18.803,6.342
			c4.969,1.564,9.695,3.819,14.692,5.285c-4.943-1.992-9.566-4.691-14.48-6.752c-7.96-3.44-15.265-6.645-23.024-9.775
			c0.032,0.737-0.13,1.488-0.516,2.169c-0.004,0.007-0.011,0.013-0.015,0.02c0.038,0.1,0.09,0.199,0.116,0.297
			c0.181,0.657,0.183,1.615-0.078,2.363c0.015,0.041,0.032,0.078,0.047,0.12c0.229,0.638,0.229,1.296,0.093,1.928
			c0.905,1.026,1.358,2.109,1.635,3.342c0.134,0.102,0.277,0.187,0.399,0.309c0.292,0.272,0.496,0.593,0.648,0.945
			c8.388,2.785,16.799,5.511,25.056,8.673c-5.679-2.838-11.394-5.602-17.142-8.3C112.085,372.529,111.605,372.3,111.125,372.07"/>
		<path d="M189.238,394.011c0.031-0.07,0.07-0.142,0.095-0.212c-0.525-1.231-2.446,3.346-2.799,3.83
			c0.494-0.656,1.185-1.397,1.776-2.152c-0.877,1.657-1.566,3.435-2.049,5.233c1.087-2.095,2.589-3.964,3.654-6.069
			C190.063,394.219,189.598,393.858,189.238,394.011"/>
		<path d="M186.176,397.286c0.744-1.326,1.76-2.508,2.47-3.844
			C188.2,391.685,186.261,396.798,186.176,397.286"/>
		<path d="M143.472,382.572c-0.107-0.468-0.567-0.802-1.087-0.554c-0.076-0.308-0.327-0.564-0.689-0.557
			c-0.202,0.006-0.392,0.098-0.543,0.232c0.06-0.572-0.693-0.909-1.099-0.5c0.213-0.785-0.762-1.311-1.331-0.894
			c-0.118-0.137-0.297-0.212-0.479-0.22c-0.265-0.467-1.014-0.46-1.371,0.134c-0.109-0.251-0.363-0.426-0.646-0.391
			c-0.125-0.068-0.321-0.121-0.423-0.087c-0.048-0.679-0.77-1.246-1.488-0.827c-3.092,3.941-5.773,10.838-8.057,16.184
			c1.836-3.114,4.347-6.842,6.492-10.119c-0.849,1.588-1.613,3.219-2.196,4.925c1.19-2.288,2.764-4.333,4.313-6.389
			c-1.61,2.705-3.14,5.463-4.421,8.332c1.251-2.079,2.719-4.023,4.183-5.967c-0.806,1.595-1.553,3.218-2.198,4.885
			c1.048-1.892,2.264-3.686,3.489-5.472c-1.359,2.826-2.845,6.206-3.993,8.464c1.635-2.51,4.255-6.518,6.086-9.323
			c-1.054,1.92-1.957,3.93-2.896,5.903c1.463-2.199,3.221-4.476,4.691-6.572c-0.131,0.23-0.268,0.456-0.396,0.686
			c-1.596,2.906-3.252,5.809-4.295,8.971c1.181-2.267,2.857-4.705,4.438-6.927c-1.466,2.865-2.796,6.163-3.743,9.085
			c0.935-2.075,2.403-4.578,3.841-6.846c-1.508,3.126-2.699,6.408-3.74,9.724c2.053-4.833,5.787-10.517,8.26-14.156
			C145.082,383.497,144.393,382.208,143.472,382.572"/>
		<path d="M242.517,312.815c-0.422,0.702-0.832,1.409-1.25,2.113c0.415-1.034,0.81-2.075,1.183-3.121
			c-3.181,5.33-6.077,10.825-8.755,16.424c-5.144,9.451-9.914,19.101-14.261,28.951
			C227.652,342.862,235.855,327.411,242.517,312.815"/>
		<path d="M241.519,308.926c-0.827,1.439-1.667,2.873-2.503,4.306c0.083-0.217,0.17-0.438,0.242-0.643
			c-1.951,3.348-4.17,6.528-6.276,9.779c2.137-4.213,4.047-8.429,5.344-11.699c-5.099,8.832-10.704,17.358-15.75,26.22
			c-2.764,4.95-4.815,10.26-7.501,15.251c4.063-6.312,7.697-12.89,11.877-19.128c-1.967,3.834-3.827,7.724-5.566,11.657
			c2.361-4.238,5.226-8.172,7.671-12.362c0.31-0.528,0.635-1.088,0.966-1.66c-1.878,4.12-3.747,8.245-5.678,12.341
			C231.18,332.246,237.276,320.943,241.519,308.926"/>
		<path d="M207.292,378.894c-0.845,1.683-1.675,3.392-2.491,5.113c2.308-4.835,4.368-9.778,5.954-14.913
			c-2.323,5.209-5.249,10.115-7.818,15.201c-2.834,5.676-5.832,13.088-7.873,18.212c3.282-6.033,6.651-12.06,9.624-18.263
			c-2.709,5.72-5.234,11.593-7.403,17.364c3.497-7.053,7.466-13.865,10.873-20.962c3.058-6.327,5.281-12.626,8.256-18.841
			C212.918,367.24,210.173,373.12,207.292,378.894"/>
		<path d="M189.09,411.108c6.826-12.239,12.779-25,17.352-38.254
			C200.628,385.207,192.934,398.999,189.09,411.108"/>
		<path d="M194.308,396.56c2.412-4.295,4.567-8.73,6.484-13.267
			C198.024,387.382,195.993,391.986,194.308,396.56"/>
		<path d="M195.121,391.536c1.323-2.101,2.349-4.363,3.58-6.509
			C197.061,386.887,196.031,389.309,195.121,391.536"/>
		<path d="M158.513,397.005c-4.882-2.078-9.922-3.758-14.817-5.803c10.031,5.524,20.685,10.312,31.463,13.928
			C169.684,402.276,164.195,399.427,158.513,397.005"/>
		<path d="M180.053,407.088c0.252,0.132,0.56,0.257,0.808,0.327
			C180.604,407.281,180.333,407.169,180.053,407.088"/>
		<path d="M148.621,395.357c1.827,0.9,3.901,1.833,5.752,2.359
			C152.546,396.733,150.629,395.894,148.621,395.357"/>
		<path d="M184.04,410.434c0.688,0.375,1.53,0.682,2.23,0.879
			C185.558,410.942,184.808,410.658,184.04,410.434"/>
		<path d="M158.096,399.637c6.647,3.894,13.847,6.579,21.093,9.115
			C172.441,405.147,165.291,402.123,158.096,399.637"/>
		<path d="M143.325,393.239c0.572,0.313,1.17,0.573,1.79,0.778
			C144.571,393.67,143.914,393.398,143.325,393.239"/>
		<path d="M111.957,359.792c-1.141-4.564-2.487-9.071-3.683-13.62c0.524,4.373,1.14,8.747,1.932,13.084
			C110.789,359.437,111.372,359.614,111.957,359.792"/>
		<path d="M112.221,359.871c1.371,0.412,2.744,0.819,4.114,1.239c-0.23-2.091-0.467-4.185-0.732-6.274
			c-0.86-0.482-0.781-1.402-0.264-1.996c-0.07-0.521-0.129-1.045-0.205-1.566c-0.201-1.427-0.407-2.835-0.612-4.234
			c-0.331-0.563-0.695-1.11-1.108-1.575c-0.056,0.002-0.114,0.002-0.169,0.006c-0.265,0.013-0.515-0.092-0.726-0.246
			c0.194,1.486,0.404,2.968,0.63,4.449c-0.72-3.04-1.5-6.067-2.273-9.095c-0.267,0.426-0.535,0.851-0.809,1.266
			c0.239,1.61,0.471,3.221,0.732,4.831c-0.347-1.448-0.707-2.893-1.069-4.336c-0.33,0.489-0.664,0.974-1.01,1.45
			c0.557,3.675,1.267,7.323,2.23,10.922C111.364,356.432,111.775,358.156,112.221,359.871"/>
		<path d="M111.95,338.856c0.087,1.533,0.205,3.063,0.364,4.59c0.021-0.024,0.041-0.053,0.062-0.075
			c0.169-0.169,0.429-0.303,0.682-0.343c0.101-0.176,0.234-0.325,0.391-0.456c0.093-0.205,0.207-0.405,0.332-0.599
			c-0.237-1.622-0.466-3.236-0.688-4.85C112.697,337.691,112.313,338.265,111.95,338.856"/>
		<path d="M109.725,359.107c-0.649-3.725-1.364-7.436-2.268-11.109c-0.147-0.657-0.308-1.309-0.475-1.959
			c-0.214,0.258-0.419,0.522-0.641,0.777c-1.338,1.542-2.675,3.028-3.885,4.648c0.402,1.844,0.819,3.688,1.249,5.522
			C105.686,357.787,107.699,358.471,109.725,359.107"/>
		<path d="M102.712,356.628c-0.24-1.517-0.464-3.036-0.69-4.553c-0.172,0.241-0.352,0.476-0.517,0.726
			c-0.16,0.243-0.35,0.565-0.563,0.925c0.182,0.892,0.388,1.781,0.603,2.665C101.941,356.436,102.33,356.515,102.712,356.628"/>
		<path d="M123.021,363.411c0.5,0.2,0.996,0.408,1.491,0.621c-0.036-0.577-0.072-1.156-0.11-1.745
			c0.113,0.619,0.234,1.236,0.352,1.853c0.692,0.306,1.379,0.633,2.06,0.977c-0.094-0.419-0.185-0.839-0.279-1.257
			c-0.019-1.316-0.04-2.631-0.076-3.943c-1.272-0.563-2.542-1.133-3.808-1.713c0.066,1.076,0.13,2.153,0.203,3.227
			C122.903,362.09,122.959,362.751,123.021,363.411"/>
		<path d="M129.607,366.535c-0.05-0.292-0.098-0.583-0.147-0.875c-0.104-1.517-0.203-3.036-0.302-4.554
			c-0.762-0.335-1.522-0.671-2.284-1.007c0.202,1.797,0.425,3.589,0.664,5.379C128.222,365.839,128.913,366.188,129.607,366.535"/>
		<path d="M132.318,367.868c-0.347-1.955-0.71-3.908-1.083-5.857c-0.656-0.284-1.309-0.571-1.964-0.856
			c0.246,1.879,0.525,3.754,0.819,5.624C130.829,367.145,131.572,367.508,132.318,367.868"/>
		<path d="M137.244,370.214c-0.33-2.014-0.659-4.033-0.993-6.026c-0.269-0.116-0.536-0.235-0.805-0.35
			c0.024,0.285,0.039,0.571,0.065,0.857c-0.079-0.313-0.163-0.623-0.243-0.935c-1.184-0.513-2.37-1.026-3.554-1.542
			c0.161,1.914,0.397,3.82,0.732,5.712C134.041,368.698,135.645,369.452,137.244,370.214"/>
		<path d="M139.363,371.231c-0.519-2.122-1.039-4.242-1.556-6.365c-0.513-0.223-1.025-0.447-1.537-0.668
			c0.328,2.025,0.68,4.046,1.067,6.061C138.014,370.58,138.689,370.904,139.363,371.231"/>
		<path d="M141.344,372.206c-0.36-2.09-0.722-4.178-1.093-6.262c-0.325-0.143-0.65-0.288-0.975-0.431
			c0.23,2.032,0.501,4.055,0.819,6.071C140.513,371.789,140.927,371.999,141.344,372.206"/>
		<path d="M144.381,373.762c-0.675-2.386-1.36-4.77-2.014-7.164c-0.276,0.05-0.576,0.029-0.883-0.108
			c-0.214-0.095-0.428-0.189-0.642-0.283c0.45,2.175,0.959,4.338,1.494,6.493C143.024,373.048,143.704,373.404,144.381,373.762"/>
		<path d="M150.226,377.182c-0.577-2.533-1.159-5.062-1.736-7.579c-0.499-0.235-0.997-0.471-1.493-0.711
			c0.409,2.405,0.902,4.794,1.464,7.168C149.06,376.428,149.647,376.803,150.226,377.182"/>
		<path d="M144.596,373.874c0.963,0.514,1.917,1.036,2.855,1.582c0.296,0.17,0.583,0.347,0.871,0.523
			c-0.707-2.491-1.418-4.979-2.112-7.473c-0.928-0.453-1.85-0.918-2.769-1.392c0.257,1.939,0.557,3.871,0.936,5.791
			C144.444,373.231,144.524,373.552,144.596,373.874"/>
		<path d="M161.801,384.482c-0.038-0.222-0.079-0.444-0.118-0.665c0.089,0.246,0.18,0.489,0.272,0.734
			c1.107,0.52,2.259,0.99,3.478,1.383c2.204,0.707,4.405,1.458,6.602,2.226c-0.332-0.965-0.649-1.937-0.995-2.896
			c-0.739-2.103-1.512-4.195-2.286-6.287c-1.411-0.637-2.823-1.272-4.229-1.926c-1.349-0.628-2.696-1.267-4.042-1.905
			c0.07,0.61,0.141,1.224,0.224,1.833c-0.178-0.429-0.352-0.858-0.54-1.282c-0.056-0.264-0.121-0.526-0.18-0.788
			c-1.536-0.731-3.076-1.457-4.623-2.17c0.116,0.554,0.221,1.108,0.349,1.658c-0.175-0.576-0.343-1.155-0.513-1.732
			c-0.65-0.298-1.299-0.596-1.951-0.887c0.529,2.336,1.081,4.666,1.702,6.977c-0.823-2.422-1.615-4.85-2.388-7.287
			c-1.334-0.594-2.663-1.203-3.984-1.824c0.687,2.678,1.456,5.337,2.301,7.967C154.517,380.037,157.873,382.606,161.801,384.482"/>
		<path d="M176.695,389.821c-0.958-2.83-1.918-5.656-2.874-8.486c-1.103-0.535-2.209-1.058-3.323-1.565
			c0.583,2.952,1.383,5.854,2.382,8.692C174.153,388.913,175.43,389.359,176.695,389.821"/>
		<path d="M179.126,390.798c-0.502-2.463-1.052-5.015-1.645-7.572c-0.326-0.085-0.63-0.24-0.851-0.459
			c-0.056-0.057-0.099-0.12-0.146-0.181c-0.164-0.037-0.332-0.093-0.501-0.18c-0.363-0.189-0.734-0.362-1.099-0.545
			c0.784,2.855,1.794,5.648,2.92,8.39C178.253,390.43,178.693,390.613,179.126,390.798"/>
		<path d="M184.445,392.957c-0.218-0.656-0.43-1.314-0.656-1.968c-1.086-3.144-2.254-6.256-3.452-9.357
			c-0.402,0.335-0.779,0.711-1.122,1.135c-0.323,0.4-0.833,0.554-1.338,0.522c0.752,2.704,1.584,5.383,2.483,8.04
			C181.717,391.926,183.049,392.496,184.445,392.957"/>
		<path d="M184.946,388.587c0.518,1.671,1.094,3.326,1.693,4.972c0.42,0.089,0.847,0.173,1.288,0.233
			c1.532,0.209,2.879,0.77,4.045,1.57c0.24-0.628,0.478-1.256,0.728-1.88c-0.143-0.475-0.28-0.952-0.426-1.425
			c0.161,0.412,0.335,0.822,0.503,1.231c0.061-0.153,0.119-0.31,0.181-0.464c-0.235-1.654-0.522-3.331-0.881-5.016
			c0.45,1.247,0.938,2.48,1.425,3.714c0.65-1.547,1.328-3.085,2.032-4.615c-0.012-0.037-0.026-0.076-0.038-0.114
			c0.012,0.037,0.026,0.074,0.04,0.111c0.422-0.92,0.85-1.835,1.286-2.747c-0.115-0.744-0.227-1.486-0.356-2.227
			c-0.145-2.171-0.337-4.389-0.565-6.593c-0.791,1.326-1.544,2.709-2.379,4.001c-0.024,0.038-0.055,0.067-0.081,0.102
			c0.478,2.087,1.03,4.157,1.678,6.202c-0.651-1.943-1.354-3.869-2.086-5.781c-0.67,0.513-1.599,0.576-2.326,0.015
			c-0.186-0.144-0.318-0.309-0.428-0.484c-0.122,0.002-0.242-0.004-0.353-0.041c-0.178-0.06-0.341-0.132-0.489-0.222
			c-0.171-0.003-0.344-0.008-0.519-0.005c-0.134,0.005-0.266,0.006-0.398,0.008c0.415,2.012,0.892,4.012,1.446,5.99
			c-0.711-1.998-1.453-3.986-2.204-5.971c-0.262,0.008-0.524,0.017-0.788,0.04c-1.009,0.097-1.941,0.215-2.913,0.51
			c-0.723,0.219-1.414,0.491-2.064,0.829c0.72,4.255,1.812,8.434,3.538,12.413C185.382,391.635,185.183,390.151,184.946,388.587"/>
		<path d="M207.981,356.502c-0.079-1.296-0.189-2.586-0.31-3.878c-0.481,0.946-0.954,1.895-1.407,2.853
			c-0.742,1.571-1.41,3.165-2.263,4.679c-0.137,0.241-0.27,0.504-0.408,0.777c-0.025,0.21-0.081,0.429-0.187,0.659
			c-0.397,0.854-0.851,1.695-1.415,2.451c-0.026,0.034-0.056,0.064-0.081,0.1c-0.259,0.687-0.571,1.35-0.958,1.912
			c0.349,2.439,0.748,4.872,1.215,7.292c0.904-1.807,1.813-3.615,2.725-5.42c0.065-1.674,0.133-3.357,0.197-5.052
			c0.151,1.226,0.325,2.448,0.506,3.668c0.862-1.7,1.732-3.397,2.606-5.09C208.149,359.803,208.081,358.15,207.981,356.502"/>
		<path d="M200.551,366.57c-0.7,1.392-1.375,2.798-2.094,4.17c-0.705,1.344-1.447,2.693-2.218,4.005
			c0.458,2.457,0.978,4.902,1.582,7.33c0.569-1.168,1.144-2.33,1.722-3.491c-0.037-0.418-0.07-0.838-0.109-1.257
			c0.064,0.353,0.138,0.703,0.208,1.058c0.299-0.6,0.597-1.2,0.896-1.796c0.103-3.301,0.157-6.749,0.163-10.204
			c-0.041,0.05-0.08,0.107-0.124,0.157C200.571,366.553,200.558,366.559,200.551,366.57"/>
		<path d="M213.168,349.899c-0.017-2.4-0.057-4.831-0.123-7.24c-0.621,1.139-1.243,2.277-1.871,3.414
			c-0.871,1.578-1.737,3.159-2.577,4.753c0.276,2.472,0.701,4.923,1.337,7.338c0.235-0.448,0.472-0.893,0.71-1.337
			c-0.025-0.859-0.049-1.716-0.072-2.574c0.141,0.624,0.298,1.246,0.446,1.869c0.786-1.468,1.59-2.927,2.398-4.381
			c-0.026-0.187-0.042-0.373-0.066-0.56C213.295,350.753,213.227,350.327,213.168,349.899"/>
		<path d="M213.266,342.256c0.369,2.496,0.788,4.985,1.281,7.461c0.34-0.601,0.666-1.208,1.01-1.806
			c0.281-0.487,0.558-0.977,0.838-1.465c-0.049-3.083-0.148-6.339-0.316-9.461C215.16,338.755,214.219,340.508,213.266,342.256"/>
		<path d="M239.878,286.524c-0.382-0.122-0.762-0.251-1.145-0.374c-0.033,5.073,0.269,10.136,1.164,15.117
			c0.455-0.86,0.915-1.712,1.372-2.557c0.053-1.772,0.118-3.546,0.145-5.32c0.076,1.495,0.179,2.985,0.312,4.475
			c0.125-0.234,0.254-0.47,0.379-0.703c0.514-0.956,1.026-1.988,1.557-3.04c-0.002-0.035-0.002-0.07-0.004-0.105
			c0.006,0.025,0.014,0.049,0.019,0.073c0.564-1.115,1.152-2.251,1.792-3.353c-0.052-0.811-0.112-1.625-0.172-2.437
			C243.46,287.747,241.643,287.085,239.878,286.524"/>
		<path d="M134.539,307.37c-2.895,3.548-5.878,6.997-8.6,10.684c-1.325,1.793-2.559,3.656-3.812,5.5
			c-0.688,1.011-1.358,2.045-2.097,3.02c-0.528,1.999-1.629,3.817-2.872,5.487c0.074,1.6,0.146,3.203,0.231,4.803
			c0.284-0.399,0.581-0.794,0.866-1.195c1.045-1.478,2.095-2.952,3.173-4.407c0.004-0.259,0.015-0.514,0.015-0.774
			c0.026,0.21,0.063,0.421,0.09,0.631c0.781-1.049,1.571-2.087,2.395-3.103c0.062-0.076,0.149-0.12,0.229-0.175
			c0.329-1.624,0.631-3.262,0.891-4.77c0.007,1.23,0.045,2.457,0.101,3.684c0.23-0.243,0.471-0.478,0.733-0.681
			c0.019-0.015,0.04-0.026,0.059-0.041c0.134-0.192,0.263-0.38,0.388-0.553c0.531-0.732,1.036-1.485,1.541-2.232
			c0.179-0.262,0.365-0.518,0.545-0.78c0.487-3.181,1.065-6.401,1.682-9.647c-0.319,2.68-0.516,5.374-0.584,8.073
			c0.566-0.795,1.141-1.583,1.721-2.367c0.775-1.047,1.556-2.088,2.335-3.131c0.74-3.159,1.447-6.323,2.076-9.393
			C135.272,306.458,134.91,306.916,134.539,307.37"/>
		<path d="M116.203,333.297c-0.485,0.603-0.995,1.185-1.503,1.771c0.017,0.229,0.03,0.458,0.048,0.687
			c-0.042-0.195-0.09-0.389-0.134-0.585c-0.318,0.371-0.633,0.741-0.933,1.125c0.22,1.621,0.434,3.232,0.651,4.855
			c0.407-0.609,0.817-1.212,1.257-1.799c0.57-0.756,1.113-1.529,1.663-2.298c-0.098-1.569-0.202-3.139-0.303-4.708
			C116.703,332.668,116.454,332.986,116.203,333.297"/>
		<path d="M119.722,362.2c-0.095-0.561-0.188-1.122-0.284-1.684c0.135,0.429,0.272,0.852,0.409,1.277
			c0.028,0.16,0.059,0.319,0.087,0.479c0.779,0.267,1.553,0.552,2.326,0.847c-0.242-1.784-0.478-3.581-0.716-5.424
			c-1.71-0.792-3.41-1.602-5.096-2.437c0.321,2.044,0.699,4.132,1.099,6.23C118.273,361.717,119,361.953,119.722,362.2"/>
		<path d="M167.341,270.623C167.795,270.587,166.562,270.762,167.341,270.623
			c-0.09,0.007-0.241,0.021-0.498,0.051c-0.151,0.016-0.305,0.032-0.458,0.036c-0.071,0.002-0.107,0.002-0.128,0.001
			c-0.196,0.027-0.391,0.051-0.585,0.077c0.019-0.002-0.023,0.006-0.143,0.023c-0.246,0.039-0.492,0.07-0.738,0.095
			c-0.156,0.013-0.311,0.019-0.466,0.028c-0.155,0.008-0.312,0.025-0.467,0.039c-0.064,0.085-0.134,0.168-0.211,0.238
			c0.014-0.018,0.028-0.036,0.041-0.052c-0.043,0.051-0.084,0.104-0.133,0.149c-0.046,0.043-0.102,0.076-0.152,0.114
			c-0.426,0.585-0.918,1.107-1.517,1.524c-0.131,0.091-0.263,0.184-0.402,0.263c-0.089,0.05-0.185,0.09-0.28,0.131
			c-1.559,2.465-3.451,4.674-5.391,6.85c-0.183,0.477-0.376,0.95-0.548,1.432c-0.339,0.992-0.64,1.993-0.926,2.999
			c0.176-1.125,0.352-2.25,0.533-3.374c-0.977,1.095-1.946,2.196-2.865,3.336c-0.831,1.03-1.634,2.084-2.424,3.146
			c-0.989,3.038-1.847,6.117-2.522,9.235c0.184-1.464,0.342-2.929,0.447-4.405c0.068-0.759,0.142-1.533,0.218-2.301
			c-1.402,1.941-2.787,3.89-4.23,5.8c-2.426,3.216-4.943,6.357-7.48,9.485c-0.577,2.752-1.011,5.533-1.313,8.332
			c1.097-1.47,2.189-2.946,3.264-4.434c0.1-0.397,0.205-0.791,0.302-1.189c-0.033,0.298-0.056,0.599-0.088,0.898
			c1.778-2.466,3.622-4.874,5.495-7.264c0.256-0.926,0.519-1.848,0.756-2.777c-0.078,0.681-0.128,1.368-0.188,2.053
			c0.379-0.483,0.751-0.972,1.135-1.453c1.218-1.526,2.414-3.027,3.832-4.377c0.114-0.109,0.238-0.206,0.354-0.31
			c0.447-0.954,1.17-1.734,1.855-2.581c0.87-1.074,1.635-2.23,2.513-3.3c0.86-1.046,1.691-2.116,2.546-3.164l0.017-0.044
			c-0.002,0.01-0.002,0.018-0.004,0.028c0.024-0.029,0.046-0.058,0.07-0.087c0.452-0.552,0.912-1.102,1.34-1.672
			c0.107-0.143,0.285-0.412,0.428-0.593l-0.005,0.146c0.069-0.162,0.137-0.324,0.207-0.488c0.068-0.116,0.155-0.225,0.247-0.331
			c0.218-0.715,0.432-1.429,0.635-2.149c-0.068,0.562-0.113,1.122-0.168,1.685c0.021-0.016,0.042-0.034,0.065-0.049
			c0.086-0.719,0.59-1.362,1.452-1.253c0.521,0.067,1.04,0.137,1.561,0.187c0.074-0.74,0.133-1.483,0.16-2.227
			c0.376-1.558,0.735-3.118,1.061-4.686c0.021-0.104,0.042-0.219,0.063-0.326c-0.07,1.596-0.1,3.194-0.047,4.793
			c0.028,0.806,0.088,1.646,0.164,2.501c0.982-0.034,1.779-0.342,2.652-0.785c0.163-0.082,0.319-0.18,0.482-0.265
			c0.252-1.893,0.479-3.874,0.636-6.188c0.067-1.198,0.102-2.397,0.124-3.595C167.505,270.594,167.415,270.609,167.341,270.623"/>
		<path d="M170.501,270.697c-0.664-0.16-1.475-0.188-2.228-0.318c-0.189,0.081-0.385,0.149-0.593,0.183
			c0.013,3.041,0.15,6.08,0.425,9.109c1.019-0.581,2.024-1.187,2.999-1.836c0.439-0.292,0.877-0.656,1.364-0.891
			c0.085-0.806,0.17-1.614,0.238-2.42c0.081-0.962,0.147-1.973,0.208-2.997C172.121,271.218,171.334,270.898,170.501,270.697"/>
		<path d="M191.348,274.799c-0.34-0.064-0.68-0.132-1.02-0.194c-1.285-0.229-2.571-0.433-3.86-0.628
			c-0.022,0.941-0.03,1.885-0.011,2.828c-0.094-0.998-0.203-1.956-0.327-2.878c-1.563-0.235-3.129-0.459-4.693-0.685
			c0.006,0.511,0.002,1.023,0.015,1.534c-0.068-0.522-0.14-1.043-0.217-1.562c-1.444-0.21-2.89-0.425-4.331-0.665
			c-0.167-0.028-0.336-0.056-0.502-0.085c-0.172,1.209-0.314,2.423-0.408,3.642c-0.104-1.185-0.223-2.367-0.386-3.548
			c-0.01-0.085-0.019-0.163-0.029-0.246c-0.647-0.127-1.288-0.277-1.907-0.5c-0.242-0.086-0.481-0.179-0.719-0.272
			c0.025,1.729,0.106,3.456,0.235,5.181c0.055-0.008,0.109-0.019,0.166-0.021c0.879-0.039,1.844,0.27,2.706,0.41
			c0.843,0.137,1.672,0.227,2.489,0.35c0-0.008,0.001-0.016,0.002-0.025c0.001,0.009,0.002,0.018,0.003,0.026
			c0.75,0.113,1.49,0.262,2.218,0.501c0.609,0.095,1.227,0.178,1.857,0.224c0.339,0.028,0.679,0.053,1.021,0.08
			c0.042-0.515,0.091-1.03,0.129-1.547c0.063,0.5,0.137,1.034,0.218,1.574c1.596,0.128,3.224,0.281,4.82,0.55
			c0.048-0.719,0.099-1.438,0.141-2.158c0.078,0.748,0.175,1.49,0.276,2.234c0.94,0.171,1.867,0.387,2.768,0.664
			c-0.042-0.351-0.085-0.697-0.129-1.031C191.721,277.389,191.543,276.119,191.348,274.799"/>
		<path d="M192.3,279.65c0.793,0.078,1.581,0.174,2.369,0.275c0.003-0.192,0.009-0.384,0.009-0.576
			c0.03,0.197,0.067,0.392,0.102,0.589c0.978,0.126,1.952,0.273,2.925,0.434c-0.035-0.213-0.067-0.426-0.104-0.637
			c-0.229-1.285-0.482-2.566-0.745-3.846c-1.607-0.34-3.219-0.658-4.834-0.963c0.004,0.284,0.003,0.568,0.011,0.853
			C192.094,277.072,192.188,278.362,192.3,279.65"/>
		<path d="M202.77,281.393c-0.197-1.358-0.417-2.712-0.68-4.061c-0.02-0.102-0.041-0.206-0.062-0.309
			c-1.379-0.312-2.762-0.618-4.145-0.914c0.043,1.445,0.126,2.889,0.247,4.331C199.686,280.707,201.232,281.029,202.77,281.393"/>
		<path d="M205.026,281.949c2.768,0.746,5.518,1.552,8.277,2.325c-0.046-0.204-0.087-0.41-0.133-0.614
			c-0.329-1.437-0.684-2.869-1.047-4.299c-2.889-0.672-5.778-1.351-8.67-2.014c0.118,1.456,0.306,2.904,0.531,4.346
			C204.331,281.781,204.679,281.855,205.026,281.949"/>
		<path d="M217.431,285.395c2.075,0.534,4.16,1.024,6.253,1.48c0.975,0.215,1.979,0.386,2.98,0.573
			c-0.149-1.704-0.319-3.407-0.551-5.104c-0.425-0.078-0.85-0.155-1.277-0.236c-2.576-0.494-5.142-1.038-7.703-1.608
			c-0.026-0.005-0.052-0.011-0.078-0.016c0.005,0.102,0.006,0.205,0.012,0.309c-0.018-0.104-0.038-0.215-0.057-0.319
			c-1.193-0.267-2.387-0.537-3.579-0.811c0.111,1.601,0.277,3.196,0.491,4.786C215.088,284.773,216.257,285.093,217.431,285.395"/>
		<path d="M238.69,300.19c-0.021-0.169-0.048-0.335-0.07-0.502c-0.117-4.742-0.335-9.463-0.667-13.79
			c-0.51-0.166-1.019-0.33-1.527-0.498c-0.002,0.029-0.005,0.06-0.007,0.09c-0.006-0.034-0.011-0.064-0.016-0.098
			c-1.058-0.347-2.116-0.695-3.171-1.05c0.027,1.159,0.058,2.317,0.116,3.473c-0.126-1.236-0.267-2.428-0.419-3.575
			c-0.199-0.067-0.397-0.135-0.596-0.201c-0.068,0.726-0.147,1.451-0.205,2.178c-0.061-0.775-0.135-1.548-0.215-2.32
			c-0.905-0.306-1.813-0.608-2.717-0.919c-0.25-0.086-0.498-0.172-0.747-0.257c-0.367-0.05-0.73-0.103-1.095-0.162
			c0.014,0.9,0.027,1.801,0.052,2.704c-0.046,0.769-0.07,1.541-0.104,2.313c0.977,0.192,1.948,0.408,2.879,0.714
			c0.773,0.256,1.537,0.677,1.964,1.402c0.402,0.68,0.547,1.511,0.931,2.212c0.819,1.499,2.053,2.852,3.433,3.854
			c1.15,0.834,0.888,2.341,0.034,2.978c-0.173,0.501-0.471,0.941-0.868,1.271c-0.111,0.208-0.219,0.413-0.312,0.604
			c-0.177,0.366-0.358,0.728-0.537,1.091c0.397,2.459,0.847,4.908,1.341,7.35c0.831-2.052,1.803-4.077,2.831-6.068
			C238.902,302.053,238.801,301.12,238.69,300.19"/>
		<path d="M221.553,326.331c0.066,0.354,0.022,0.748-0.2,1.159c-1.521,2.813-3.165,5.561-4.677,8.381
			c0.34,2.621,0.759,5.233,1.294,7.821c1.121-1.966,2.24-3.93,3.355-5.897c0.171-3.862,0.3-7.755,0.379-11.611
			C221.664,326.242,221.6,326.278,221.553,326.331"/>
		<path d="M234.643,314.462c-0.07-3.784-0.171-7.783-0.328-11.768c-0.237,0.45-0.475,0.901-0.739,1.342
			c-0.832,1.376-1.669,2.749-2.493,4.128c-0.237,0.469-0.475,0.936-0.713,1.402c-0.912,1.794-1.803,3.688-2.896,5.422
			c-0.525,1.153-1.038,2.315-1.578,3.469c-1.158,2.472-2.53,4.898-3.924,7.245c-0.01,0.018-0.024,0.033-0.036,0.048
			c-0.011,0.022-0.022,0.044-0.032,0.067c0.305,2.931,0.721,5.855,1.247,8.76c0.851-1.503,1.706-3.005,2.559-4.507
			c-0.004-0.241-0.006-0.483-0.011-0.723c0.033,0.185,0.071,0.371,0.106,0.557c0.647-1.135,1.297-2.268,1.947-3.4
			c0.085-2.941,0.046-6.317-0.098-9.697c0.404,2.502,0.868,4.996,1.372,7.481c0.456-0.791,0.907-1.586,1.366-2.376
			c0.052-0.089,0.102-0.18,0.155-0.267c-0.023-1.164-0.057-2.325-0.106-3.486c0.117,0.379,0.225,0.757,0.347,1.133
			c-0.048-1.241-0.101-2.526-0.157-3.83c0.275,1.503,0.57,3.005,0.877,4.505c0.733-1.287,1.467-2.578,2.206-3.877
			c-0.029-0.575-0.052-1.149-0.082-1.724c0.099,0.438,0.21,0.875,0.317,1.31C234.176,315.272,234.411,314.868,234.643,314.462"/>
		<path d="M181.319,339.638c-1.139,0.067-2.237-0.449-3.365-0.965c-3.413-1.597-5.535-3.354-7.138-6.646
			c-1.781-4.223-0.963-10.983,2.691-14.451c1.412-1.512,2.332-2.388,4.211-3.218c-0.376,0.131,0.408-0.147,0.567-0.187
			c0.127-0.02,0.247-0.075,0.355-0.147c0.018,0.004,0.032,0.013,0.051,0.014c0.283,0.055,0.477-0.166,0.511-0.407
			c0.004-0.012,0.007-0.021,0.01-0.032c0.034-0.061,0.054-0.126,0.062-0.196c0.016-0.051,0.023-0.105,0.019-0.16
			c0.046-0.221-0.052-0.479-0.298-0.536c-2.231-0.443-4.539,0.029-6.702,0.609c-4.754,1.318-8.815,4.734-11.191,9.027
			c-2.261,4.2-1.189,9.563,1.735,13.168c3.275,4.181,8.63,6.032,13.821,5.975c1.495,0,3.083,0.148,4.493-0.426
			c0.1-0.057,0.164-0.138,0.208-0.227c0.064-0.011,0.129-0.018,0.191-0.037C182.153,340.576,181.959,339.619,181.319,339.638
			 M177.189,340.238c-3.66-0.029-6.447-0.494-9.424-2.204c-4.599-2.458-7.422-7.904-6.455-12.728
			c1.116-4.645,5.65-8.891,9.992-10.537c1.739-0.636,3.476-1.071,5.103-1.225c-1.062,0.539-2.011,1.289-2.854,2.123
			c-1.403,1.422-2.733,2.966-3.618,4.771c-0.685,1.517-0.993,3.175-1.222,4.815c-0.753,5.299,1.548,10.391,6.103,13.232
			c1.117,0.637,2.268,1.271,3.473,1.75C177.91,340.246,177.536,340.25,177.189,340.238"/>
		<path d="M179.752,340.244c-0.497-0.029-0.971-0.122-1.432-0.253c-0.044-0.07-0.092-0.138-0.171-0.181
			c-0.368-0.105-0.549-0.112-0.721-0.123c-0.81-0.325-1.588-0.749-2.379-1.179c0.173-0.159,0.152-0.473-0.085-0.588
			c-1.216-0.908-3.058-2.461-4.171-3.965c-0.275-0.338-0.648-0.915-0.988-1.378c-0.013-0.025-0.029-0.049-0.04-0.075
			c-1.123-2.073-1.738-4.589-1.867-7.083c-0.042-1.347-0.072-2.704,0.381-3.958c-1.237,2.908-1.004,6.278-0.285,9.293
			c0.08,0.355,0.189,0.699,0.305,1.042c-1.185-2.29-1.903-4.881-1.975-7.571c-0.279,4.303,0.807,8.832,3.609,12.139
			c-0.58-0.5-1.099-1.007-1.508-1.511c-1.948-2.62-3.222-5.465-3.455-8.732c-0.122,3.376,0.843,6.84,2.799,9.606
			c0.434,0.552,0.908,1.074,1.415,1.568c-2.059-1.961-3.962-4.553-4.857-7.109c-0.66-1.718-1.051-3.433-0.847-5.263
			c-0.657,3.771,0.646,7.622,2.767,10.753c-1.32-1.288-2.39-2.663-3.12-4.453c-0.554-1.298-1.285-3.507-1.252-5.215
			c-0.205,3.893,1.137,7.929,3.874,10.741c0.985,0.986,2.118,2.097,3.514,2.384c0.002,0,0.003,0,0.003,0
			c0.894,0.752,1.894,1.362,3.028,1.693c0.44,0.133,0.835-0.345,0.667-0.748c0.576,0.314,1.166,0.598,1.768,0.84
			c0.415,0.212,0.98,0.058,1.021-0.395c0.53,0.177,1.077,0.298,1.646,0.335c0.029,0,0.057,0.002,0.086,0.004
			c0.065,0.151,0.199,0.27,0.414,0.267c0.343,0.006,0.487-0.293,0.445-0.558c0.064-0.12,0.076-0.256,0.048-0.393
			C178.84,340.248,179.294,340.277,179.752,340.244"/>
		<path d="M177.109,313.024c-0.157-0.079-0.347-0.025-0.514,0.005c-0.421,0.132-0.834,0.295-1.234,0.485
			c-0.091,0.029-0.182,0.064-0.274,0.096c-0.028-0.29-0.285-0.552-0.604-0.508c-1.516,0.272-2.898,1.038-4.161,1.936
			c-0.047-0.055-0.11-0.106-0.205-0.143c-0.964,0.086-1.984,1.028-2.689,1.667c-0.19,0.184-0.371,0.379-0.55,0.573
			c-0.373-0.037-0.635,0.367-0.929,0.552c-0.572,0.487-1.093,1.034-1.54,1.64c-1.232,1.761-2.34,3.795-2.444,5.983
			c0.207-1.355,0.846-2.447,1.563-3.62c0.426-0.654,0.841-1.248,1.31-1.814c-0.684,1.154-1.236,2.392-1.659,3.671
			c1.021-2.097,2.311-4.006,3.891-5.555c-1.468,1.757-2.525,3.846-2.753,6.152c0.746-3.808,3.662-6.653,6.781-8.409
			c-2.349,1.767-4.179,4.241-4.959,7.056c1.047-2.688,2.933-4.688,5.166-6.158c-1.109,1.174-2.078,2.488-2.917,3.865
			c1.901-2.43,4.19-4.513,6.734-5.783c0.255-0.097,0.507-0.202,0.762-0.289c0.14-0.04,0.259-0.116,0.354-0.204
			c0.197-0.078,0.391-0.164,0.591-0.23C177.326,313.903,177.658,313.297,177.109,313.024"/>
		<path d="M178.026,379.9c4.174-1.879,8.795-2.724,13.301-2.876
			C186.737,376.456,181.87,377.211,178.026,379.9"/>
		<path d="M181.125,376.852c1.661-0.397,3.408-0.777,5.012-1.249
			C184.427,375.815,182.693,376.101,181.125,376.852"/>
		<path d="M115.435,343.307c1.726,2.444,2.074,5.425,2.512,8.529c0.063,0.329,0.131,1.261,0.126,0.516
			C118.166,349.166,118.011,345.563,115.435,343.307"/>
		<path d="M118.537,344.816c0.492,1.139,0.8,2.408,1.184,3.576
			C119.561,347.144,119.315,345.839,118.537,344.816"/>
		<path d="M158.656,332.99c-0.295-0.379-0.715-0.941-1.01-1.35c0.218,0.38,0.44,0.759,0.669,1.132
			c3.218,5.515,8.51,10.158,15.058,10.837C167.26,342.026,162.523,337.946,158.656,332.99"/>
		<path d="M159.019,335.593c1.985,4.039,5.835,7.401,9.893,8.789
			C164.984,342.24,161.929,339.22,159.019,335.593"/>
		<path d="M159.861,341.086c1.831,1.68,3.855,3.388,6.04,4.461
			C163.912,344.13,162.087,342.46,159.861,341.086"/>
		<path d="M162.846,315.442c-0.519,0.36-1.189,0.832-1.612,1.146c0.473-0.284,0.951-0.561,1.431-0.834
			c5.42-2.987,11.505-5.049,17.755-4.747C174.265,309.807,167.903,311.945,162.846,315.442"/>
		<path d="M167.383,311.242c3.311-0.658,6.679-1.558,9.961-1.945
			C173.935,309.049,170.569,310.249,167.383,311.242"/>
		<path d="M170.47,309.006c1.542-0.356,3.048-0.841,4.571-1.259
			C173.466,307.899,171.927,308.479,170.47,309.006"/>
		<path d="M173.419,278.797c0.04-0.03,0.078-0.062,0.113-0.099
			C173.498,278.721,173.417,278.793,173.419,278.797"/>
		<path d="M161.69,284.282c0.746,0.065,1.504,0.118,2.241-0.046
			C163.2,284.231,162.373,284.232,161.69,284.282"/>
		<path d="M169.351,280.453c-1.846,0.996-3.663,1.815-5.609,2.374c3.459-0.556,7.079-1.99,9.241-4.864
			C171.925,278.997,170.705,279.752,169.351,280.453"/>
		<path d="M165.96,283.801c2.624-0.718,5.189-1.737,7.294-3.504
			C170.932,281.639,168.345,282.718,165.96,283.801"/>
		<path d="M168.061,284.865c1.636-0.493,3.235-1.09,4.755-1.871
			C171.181,283.449,169.579,284.179,168.061,284.865"/>
		<path d="M230.644,290.397c1.149,2.761,2.461,5.757,5.123,7.367
			C233.561,295.75,232.209,292.967,230.644,290.397"/>
		<path d="M229.908,292.071c1.047,2.152,2.204,4.381,4.175,5.828
			C232.594,296.198,231.236,293.922,229.908,292.071"/>
		<path d="M229.492,293.958c0.695,1.209,1.444,2.403,2.463,3.37
			C231.199,296.19,230.318,294.948,229.492,293.958"/>
	</g>
</g>
</svg>
