<?xml version="1.0" encoding="utf-8"?>
<!-- Generator: Adobe Illustrator 27.5.0, SVG Export Plug-In . SVG Version: 6.00 Build 0)  -->
<svg version="1.1" xmlns="http://www.w3.org/2000/svg" xmlns:xlink="http://www.w3.org/1999/xlink" x="0px" y="0px"
	width="300" height="300" viewBox="-15 20 250 250" style="enable-background:new 0 0 500 500;" xml:space="preserve">
<g id="objects">	
	<g>
		<g>
			<g>
				<g>
					<path d="M130.272,147.587c-0.448-1.253-1.769-1.671-2.983-1.314c-1.411,0.414-2.377,1.668-2.842,3.012
						c-0.642,1.856-0.497,3.994-0.537,5.928c-0.049,2.325-0.066,4.651-0.061,6.976c0.008,4.463-0.142,9.063,0.257,13.537
						c-0.403,1.684-0.301,3.786-0.487,5.314c-0.691,5.698-1.693,11.349-2.95,16.948c-0.165,0.737,0.674,1.372,1.325,0.946
						c3.527-2.308,4.17-6.954,5.048-10.767c1.28-5.553,2.162-11.196,2.91-16.842C129.986,171.071,130.858,149.227,130.272,147.587z
						 M125.308,179.07c0.068-1.21,0.185-2.401,0.496-3.406c0.096-0.311,0.243-0.606,0.42-0.892
						C125.915,176.204,125.613,177.637,125.308,179.07z M127.238,173.957c-0.113-0.051-0.235-0.073-0.354-0.067
						c0.121-0.139,0.245-0.277,0.374-0.413C127.253,173.637,127.246,173.798,127.238,173.957z"/>
					<path d="M121.544,149.837c-0.577-1.399-2.196-1.342-3.472-0.999c-1.592,0.427-3.016,1.507-3.772,2.982
						c-0.99,1.932-0.608,4.284-0.521,6.368c0.111,2.658,0.221,5.316,0.336,7.974c0.224,5.167,0.289,10.38,0.736,15.539
						c-0.473,1.72-0.351,3.949-0.545,5.548c-0.06,0.491-0.125,0.981-0.189,1.471c0.034,3.363-0.192,6.728-0.653,10.003
						c-0.299,2.12-0.709,4.455-1.783,6.356c0.273,0.218,0.662,0.285,1,0.064c3.527-2.308,4.17-6.954,5.048-10.767
						c1.28-5.553,2.162-11.196,2.91-16.842c0.023-0.178-0.009-0.329-0.073-0.458c0.633-4.252,0.868-8.626,1.158-12.881
						c0.179-2.625,0.34-5.256,0.404-7.886C122.177,154.307,122.327,151.735,121.544,149.837z M115.995,185.281
						c0.068-1.21,0.184-2.401,0.496-3.406c0.096-0.311,0.243-0.606,0.42-0.892C116.602,182.415,116.3,183.848,115.995,185.281z
						 M117.925,180.168c-0.113-0.051-0.235-0.073-0.353-0.067c0.121-0.139,0.245-0.277,0.374-0.413
						C117.94,179.848,117.933,180.008,117.925,180.168z"/>
					<path d="M87.869,197.987c-0.819-3.645-1.526-7.313-2.113-11.001c-0.173-2.311-0.31-4.624-0.458-6.936
						c-0.341-5.328-0.683-10.657-1.024-15.985c-0.171-2.664-0.335-5.329-0.513-7.993c-0.162-2.417-0.147-4.937-0.598-7.319
						c-0.321-1.697-1.139-3.485-2.757-4.298c-0.547-0.275-1.158-0.403-1.752-0.378c-0.797-0.195-1.642-0.109-2.361,0.386
						c-1.31,0.901-1.597,2.582-1.46,4.058c0.212,2.285,0.816,4.574,1.219,6.833c0.912,5.118,1.512,10.35,2.654,15.425
						c-0.097,0.143-0.15,0.326-0.121,0.546c0.748,5.646,1.63,11.289,2.91,16.842c0.879,3.812,1.521,8.459,5.048,10.767
						C87.195,199.359,88.034,198.723,87.869,197.987z M81.3,173.957c-0.008-0.16-0.015-0.32-0.021-0.48
						c0.129,0.136,0.254,0.274,0.374,0.413C81.535,173.884,81.413,173.907,81.3,173.957z M82.313,174.772
						c0.177,0.286,0.324,0.582,0.42,0.892c0.312,1.005,0.428,2.196,0.496,3.406C82.925,177.637,82.623,176.204,82.313,174.772z"/>
					<path d="M97.182,204.198c-1.257-5.599-2.259-11.25-2.95-16.948c-0.165-1.36-0.102-3.174-0.37-4.744
						c0.197-2.252-0.076-4.639-0.121-6.883c-0.05-2.483-0.101-4.966-0.151-7.449c-0.097-4.78-0.016-9.602-0.302-14.374
						c-0.082-1.369-0.388-2.898-1.691-3.619c-0.836-0.463-1.809-0.389-2.647-0.002c-0.601-0.114-1.216-0.146-1.882-0.102
						c-0.331,0.022-0.614,0.239-0.626,0.594c-0.311,8.997,0.042,18.01,0.981,26.963c0.442,4.211,0.945,8.441,1.845,12.582
						c0.439,2.021,0.981,4.022,1.684,5.968c0.218,0.603,0.442,1.225,0.687,1.841c0.712,2.793,1.771,5.519,4.217,7.12
						C96.508,205.57,97.348,204.934,97.182,204.198z M92.047,181.875c0.311,1.005,0.428,2.196,0.496,3.406
						c-0.305-1.433-0.606-2.866-0.916-4.298C91.804,181.269,91.951,181.564,92.047,181.875z M90.613,180.168
						c-0.008-0.16-0.015-0.32-0.021-0.48c0.129,0.136,0.254,0.274,0.374,0.413C90.848,180.095,90.726,180.118,90.613,180.168z"/>
					<path d="M67.874,118.071c0.422-2.561,1.339-4.793,3.289-6.543c0.227-0.204,0.56,0.089,0.353,0.327
						c-3.349,3.844-3.514,9.572-3.228,14.427c0.009,0.159-0.205,0.173-0.26,0.042C66.984,123.83,67.443,120.686,67.874,118.071z"/>
					<path d="M138.559,111.39c5.139,3.582,4.207,14.623,1.271,19.235c-0.126,0.198-0.46,0.099-0.399-0.151
						c1.526-6.222,3.562-13.266-1.112-18.746C138.181,111.566,138.346,111.242,138.559,111.39z"/>
					<path d="M85.66,128.029c1.102,0.863,1.789,2.056,2.251,3.367c0.53,1.501,1.041,3.339,1.112,4.93
						c0.008,0.193-0.266,0.28-0.366,0.111c-0.679-1.143-0.75-2.559-1.057-3.836c-0.396-1.649-0.951-3.124-2.083-4.417
						C85.428,128.083,85.552,127.945,85.66,128.029z"/>
					<path d="M116.567,137.569c1.786-7.129,5.223-13.898,9.434-19.88c0.107-0.152,0.365-0.024,0.261,0.139
						c-4.013,6.247-6.776,12.848-9.005,19.906C117.121,138.163,116.455,138.018,116.567,137.569z"/>
					<path d="M118.497,136.053c1.216-3.406,2.909-6.476,4.95-9.446c0.096-0.14,0.332-0.022,0.238,0.127
						c-1.858,2.966-3.32,6.198-4.523,9.477C119.012,136.618,118.348,136.469,118.497,136.053z"/>
					<path d="M113.886,90.852c1.253,0.337,2.24,1.118,3.108,2.069c0.19,0.208,1.308,1.542,0.421,1.578
						c-0.046,0.002-0.091-0.047-0.076-0.094c0.167-0.504-1.324-1.647-1.66-1.919c-0.614-0.497-1.275-0.946-1.904-1.425
						C113.675,90.986,113.773,90.822,113.886,90.852z"/>
					<path d="M92.895,91.105c1.411-1.187,2.849-1.582,4.652-1.708c0.205-0.014,0.202,0.283,0.008,0.312
						c-1.513,0.224-3.144,1.152-4.244,2.19c-0.521,0.492-0.979,1.047-1.343,1.665c-0.281,0.477-0.413,0.834-0.853,1.158
						c-0.104,0.076-0.297,0.014-0.321-0.119C90.561,93.305,91.984,91.87,92.895,91.105z"/>
					<path d="M69.945,154.924c-0.144-0.458-0.274-0.919-0.398-1.382c0.066,0.507,0.142,1.01,0.235,1.507
						C69.835,155.006,69.889,154.964,69.945,154.924z"/>
					<path d="M63.02,142.364c0.012-0.169,0.285-0.25,0.322-0.052c0.348,1.885,0.461,3.8,0.726,5.698
						c0.304,2.174,0.896,4.334,1.019,6.524c0.012,0.212-0.274,0.231-0.347,0.056C63.289,151.1,62.755,146.097,63.02,142.364z"/>
					<path d="M146.112,140.716c-0.021-0.147,0.216-0.181,0.256-0.042c0.476,1.68,0.299,3.298,0.093,5.012
						c-0.275,2.291-0.49,4.673-1.237,6.864c-0.061,0.18-0.367,0.184-0.358-0.037C145.017,148.635,146.652,144.592,146.112,140.716z"
						/>
					<path d="M97.453,61.826c0.059-0.344,0.554-0.208,0.517,0.123c-0.398,3.59-0.47,7.27-0.337,10.878
						c0.123,3.331,0.808,6.607,0.956,9.922c0.022,0.493-0.69,0.592-0.842,0.137C95.561,76.32,96.302,68.517,97.453,61.826z"/>
					<path d="M89.476,63.699c0.004-0.357,0.545-0.375,0.557-0.015c0.183,5.414,1.45,10.427,2.385,15.715
						c0.093,0.523-0.6,0.754-0.799,0.243C89.697,74.717,89.412,68.926,89.476,63.699z"/>
					<path d="M84.911,63.694c0.017-0.207,0.314-0.225,0.329-0.009c0.168,2.4,0.421,4.792,0.955,7.142
						c0.47,2.068,1.338,4.006,1.81,6.06c0.06,0.259-0.278,0.432-0.433,0.199C85.125,73.413,84.566,67.993,84.911,63.694z"/>
					<path d="M75.17,58.051c0.047-0.123,0.104-0.24,0.165-0.354c-0.004-0.045-0.01-0.089-0.013-0.134
						c-0.022-0.283-0.455-0.274-0.443,0.012c0.016,0.369,0.041,0.743,0.071,1.118C75.016,58.477,75.088,58.263,75.17,58.051z"/>
					<path d="M88.513,32.203c4.908-2.318,9.528-1.921,14.698-0.957c0.301,0.056,0.185,0.495-0.108,0.456
						c-5.154-0.683-10.077-0.647-14.757,1.87c-3.97,2.135-6.977,5.352-9.566,8.98c-0.08,0.112-0.259,0-0.227-0.121
						C79.777,37.764,84.32,34.184,88.513,32.203z"/>
					<path d="M91.884,98.68c-0.114-0.056-0.222,0.1-0.108,0.171c0.927,0.579,1.684,1.313,2.314,2.205
						c0.585,0.827,0.962,1.77,1.53,2.602c0.047,0.069,0.169,0.038,0.145-0.055C95.258,101.641,93.713,99.572,91.884,98.68z"/>
					<path d="M95.226,99.925c-0.31-0.45-0.644-0.896-1.049-1.265c-0.041-0.037-0.121,0.007-0.085,0.061
						c0.319,0.47,0.668,0.916,0.963,1.404c0.262,0.433,0.449,0.955,0.775,1.337c0.061,0.072,0.165,0.001,0.151-0.081
						C95.893,100.865,95.519,100.35,95.226,99.925z"/>
					<path d="M96.719,99.855c-0.229-0.502-0.473-1.014-0.798-1.461c-0.044-0.06-0.156-0.001-0.13,0.069
						c0.184,0.488,0.426,0.954,0.626,1.437c0.191,0.461,0.288,1.055,0.631,1.423c0.048,0.052,0.13,0.016,0.135-0.051
						C97.223,100.806,96.909,100.272,96.719,99.855z"/>
					<path d="M97.465,97.959c-0.041-0.055-0.141-0.001-0.119,0.063c0.186,0.55,0.416,1.079,0.554,1.645
						c0.124,0.505,0.119,1.045,0.303,1.528c0.037,0.098,0.203,0.076,0.225-0.022C98.645,100.189,98.051,98.744,97.465,97.959z"/>
					<path d="M99.841,99.35c-0.034-0.437-0.032-0.875-0.038-1.314c-0.002-0.141-0.234-0.197-0.26-0.042
						c-0.124,0.723-0.244,1.865,0.181,2.51c0.039,0.06,0.153,0.07,0.171-0.017C99.971,100.114,99.871,99.727,99.841,99.35z"/>
					<path d="M101.361,97.896c0.007-0.115-0.175-0.148-0.202-0.033c-0.194,0.828-0.365,1.931-0.088,2.754
						c0.025,0.075,0.157,0.104,0.175,0.005c0.075-0.419,0.024-0.848,0.035-1.272C101.293,98.865,101.331,98.381,101.361,97.896z"/>
					<path d="M102.613,97.986c-0.166,0.455-0.271,0.921-0.34,1.4c-0.059,0.414-0.155,0.856,0.002,1.253
						c0.023,0.059,0.126,0.063,0.153,0.006c0.157-0.335,0.135-0.701,0.178-1.064c0.06-0.51,0.162-1.014,0.252-1.519
						C102.888,97.901,102.671,97.827,102.613,97.986z"/>
					<path d="M104.286,97.427c-0.495,1.041-0.889,2.598-0.499,3.726c0.019,0.056,0.116,0.077,0.13,0.004
						c0.106-0.527,0.07-1.07,0.131-1.605c0.08-0.694,0.275-1.352,0.466-2.021C104.551,97.4,104.349,97.293,104.286,97.427z"/>
					<path d="M106.454,97.283c-0.502,0.6-0.752,1.421-0.992,2.157c-0.278,0.851-0.528,1.735-0.522,2.635
						c0.001,0.096,0.134,0.118,0.165,0.027c0.271-0.783,0.415-1.604,0.659-2.396c0.241-0.783,0.658-1.547,0.807-2.349
						C106.583,97.296,106.505,97.221,106.454,97.283z"/>
					<path d="M108.437,97.272c-1.086,1.586-2.042,3.559-2.368,5.464c-0.014,0.083,0.09,0.115,0.125,0.038
						c0.815-1.804,1.532-3.611,2.442-5.375C108.706,97.265,108.524,97.145,108.437,97.272z"/>
					<path d="M111.145,97.52c-1.516,1.768-2.908,4.395-3.319,6.702c-0.012,0.068,0.084,0.13,0.122,0.056
						c0.56-1.105,0.947-2.288,1.491-3.402c0.548-1.122,1.234-2.162,1.815-3.264C111.29,97.544,111.202,97.454,111.145,97.52z"/>
					<path d="M114.44,98.194c-2.755,2.144-4.96,5.497-6.225,8.718c-0.02,0.051,0.061,0.088,0.087,0.04
						c0.865-1.602,1.757-3.194,2.821-4.675c1.029-1.433,2.264-2.671,3.384-4.026C114.542,98.21,114.477,98.166,114.44,98.194z"/>
					<path d="M135.732,107.317c-5.865-1.694-11.211,3.916-14.57,7.888c-0.065,0.077,0.028,0.187,0.109,0.118
						c2.198-1.875,3.983-4.233,6.402-5.853c2.525-1.692,5.085-1.88,8.026-1.946C135.814,107.52,135.851,107.351,135.732,107.317z"/>
					<path d="M130.03,106.346c-2.332,0.583-4.654,2.459-6.207,4.235c-0.061,0.07,0.028,0.174,0.1,0.108
						c0.976-0.879,1.972-1.728,3.069-2.455c0.992-0.657,2.09-1.116,3.089-1.751C130.15,106.44,130.116,106.325,130.03,106.346z"/>
					<path d="M81.119,110.371c-1.199-1.583-3.924-2.714-5.888-2.526c-0.074,0.007-0.108,0.118-0.023,0.14
						c0.985,0.261,1.963,0.401,2.911,0.804c1.07,0.455,1.872,1.167,2.834,1.781C81.085,110.655,81.205,110.484,81.119,110.371z"/>
					<path d="M80.886,108c-0.736-0.853-2.428-1.169-3.499-1.147c-0.075,0.001-0.102,0.117-0.022,0.136
						c0.589,0.138,1.183,0.264,1.755,0.462c0.568,0.197,1.089,0.573,1.671,0.7C80.879,108.171,80.948,108.073,80.886,108z"/>
					<path d="M81.387,106.94c-0.517-0.281-1.114-0.463-1.668-0.655c-0.091-0.032-0.157,0.108-0.071,0.156
						c0.512,0.285,1.045,0.61,1.598,0.807C81.426,107.312,81.558,107.033,81.387,106.94z"/>
					<path d="M139.233,122.987c-0.016-0.13-0.191-0.085-0.208,0.022c-0.25,1.574-0.288,3.147-0.627,4.713
						c-0.257,1.187-0.738,2.331-0.879,3.534c-0.014,0.116,0.153,0.153,0.21,0.064C139.089,129.193,139.543,125.46,139.233,122.987z"
						/>
					<path d="M136.629,127.055c-0.078,0.626-0.212,1.24-0.353,1.854c-0.1,0.433-0.289,0.849-0.235,1.294
						c0.01,0.08,0.136,0.12,0.188,0.057c0.33-0.393,0.382-0.965,0.474-1.459c0.107-0.574,0.148-1.159,0.188-1.741
						C136.902,126.892,136.649,126.891,136.629,127.055z"/>
					<path d="M100.377,228.868c0-0.168-0.254-0.176-0.262-0.007c-0.124,2.873-0.515,6.109-0.043,8.95
						c0.029,0.173,0.263,0.12,0.283-0.03C100.746,234.918,100.374,231.768,100.377,228.868z"/>
					<path d="M98.72,231.301c-0.006-0.178-0.273-0.188-0.278-0.007c-0.063,1.932-0.321,3.943-0.111,5.869
						c0.033,0.307,0.478,0.217,0.508-0.053C99.047,235.206,98.782,233.211,98.72,231.301z"/>
					<path d="M114.989,233.346c-3.629,0.654-6.854,3.546-9.502,5.926c-0.118,0.106,0.047,0.282,0.166,0.18
						c1.465-1.252,3.155-2.338,4.826-3.299c1.512-0.869,3.207-1.459,4.657-2.416C115.334,233.608,115.234,233.302,114.989,233.346z"
						/>
					<path d="M150.875,214.419c-3.161,5.111-9.555,8.564-14.822,11.167c-5.358,2.648-11.149,4.133-16.56,6.64
						c-0.218,0.101-0.042,0.426,0.175,0.328c6.166-2.8,12.758-4.097,18.758-7.374c2.569-1.404,5.028-2.992,7.382-4.731
						c2.157-1.593,4.585-3.209,5.591-5.789C151.52,214.35,151.045,214.145,150.875,214.419z"/>
					<path d="M159.645,201.851c-0.614,0.703-0.907,1.694-1.332,2.521c-0.443,0.862-1.02,1.654-1.418,2.536
						c-0.13,0.288,0.292,0.498,0.497,0.312c0.753-0.686,1.279-1.639,1.743-2.535c0.417-0.804,0.924-1.741,0.885-2.664
						C160.013,201.85,159.782,201.694,159.645,201.851z"/>
					<path d="M76.228,227.87c-4.743-5.435-10.722-10.145-16.309-14.689c-0.224-0.183-0.544,0.199-0.327,0.392
						c5.423,4.82,10.693,10.112,16.486,14.477C76.188,228.133,76.313,227.968,76.228,227.87z"/>
					<path d="M53.893,205.029c-0.472-0.847-1.295-1.509-1.889-2.279c-0.719-0.933-1.358-1.935-1.874-2.994
						c-0.09-0.185-0.347-0.035-0.275,0.147c0.428,1.088,0.927,2.113,1.601,3.072c0.575,0.818,1.284,1.831,2.216,2.26
						C53.801,205.294,53.977,205.18,53.893,205.029z"/>
					<path d="M136.149,187.697c-3.944,3.177-7.486,6.859-11.401,10.09c-3.924,3.239-8.093,7.345-13.107,8.651
						c-0.002,0.014-0.001,0.027-0.005,0.042c-0.025,0.12-0.06,0.231-0.093,0.343c4.387,0.055,8.532-4.387,11.685-6.948
						c4.513-3.665,9.395-7.465,13.196-11.881C136.592,187.799,136.356,187.531,136.149,187.697z"/>
					<path d="M92.124,204.172c-1.07-1.173-2.677-1.989-3.948-2.95c-1.448-1.095-2.89-2.199-4.296-3.347
						c-0.033-0.027-0.08,0.029-0.048,0.058c1.405,1.297,2.769,2.64,4.248,3.854c1.15,0.944,2.46,2.179,3.898,2.621
						C92.114,204.449,92.219,204.277,92.124,204.172z"/>
					<path d="M73.718,64.149c-1.504-3.854-2.063-7.357-1.762-11.485c0.011-0.154-0.24-0.2-0.272-0.044
						c-0.801,3.86-0.144,8.222,1.833,11.636C73.592,64.386,73.77,64.283,73.718,64.149z"/>
					<path d="M110.692,37.561c-2.874,0.345-5.805,1.899-8.32,3.248c-0.116,0.063-0.023,0.23,0.095,0.179
						c2.706-1.175,5.677-1.898,8.311-3.2C110.912,37.722,110.821,37.545,110.692,37.561z"/>
					<path d="M167.545,195.466c-1.116-0.926-3.007-1.083-4.374-1.406c-1.76-0.416-3.517-0.835-5.237-1.395
						c-3.706-1.206-6.592-3.078-9.318-5.846c-1.974-2.004-4.2-4.22-7.029-4.748c-0.362-0.41-0.729-0.812-1.11-1.198
						c0.419-6.052,0.938-12.097,1.562-18.132c4.482-4.581,6.387-12.573,6.969-18.635c0.22-2.291,0.463-5.451-1.762-6.941
						c-0.333-0.223-0.709-0.377-1.087-0.465c0.617-2.13,0.896-4.485,0.775-6.671c-0.063-1.139-0.307-2.317-1.328-2.775
						c0.171-1.705-0.086-3.627-0.176-4.903c-0.13-1.836-0.251-3.833-0.721-5.691c-0.026-0.231-0.057-0.461-0.093-0.688
						c-0.629-3.971-3.882-7.589-6.657-10.321c-5.099-5.019-11.249-8.244-17.846-10.034c0.059-1.734-0.407-3.118-1.203-4.248
						c0.541-1.235,0.802-2.582,0.715-3.932c-0.011-0.175-0.025-0.362-0.044-0.552c0.9,0.417,1.895,0.765,2.556,0.334
						c0.539-0.353,0.759-1.207,0.871-2.083c0.46,0.678,0.918,1.356,1.374,2.037c0.744,1.111,1.438,2.439,2.354,3.418
						c1.648,1.762,3.429-0.459,4.503-1.72c3.057-3.588,5.416-8.477,5.571-13.257c0.006-0.171-0.05-0.317-0.141-0.436
						c0.213,0.075,0.431,0.143,0.66,0.196c0.4,0.093,0.937-0.088,1.028-0.548c2.209-11.184-1.538-22.967-9.637-30.884
						c0.587,0.079,1.334-0.503,0.909-1.139c-0.415-0.62-0.867-1.216-1.348-1.789c-0.546-1.414-2.426-2.557-3.55-3.354
						c-0.401-0.303-0.81-0.598-1.23-0.874c-1.907-1.317-3.974-2.53-6.147-3.267c-1.93-0.654-3.966-0.63-5.975-0.409
						c-0.782,0.008-1.563,0.061-2.34,0.166c1.643-0.848,3.359-1.557,5.159-2.123c0.506-0.159,0.692-1.017,0.12-1.234
						c-7.637-2.905-16.545-3.802-24.241-0.831c-1.823,0.157-3.813,1.4-5.402,2.081c-1.405,0.602-3.008,1.173-4.41,1.958
						c-1.936,0.662-3.74,1.724-5.409,2.949c-1.698,1.136-3.36,2.502-4.612,4.091c-1.795,1.925-3.361,4.07-4.632,6.36
						c-3.841,6.926-4.776,15.147-1.973,22.619c1.266,3.376,3.237,6.397,5.827,8.864c-1.713-0.106-3.373-0.53-4.951-1.306
						c-0.616-0.303-1.319,0.254-0.997,0.926c4.668,9.752,15.333,14.994,25.691,12.853c-0.944,1.612-1.37,3.608-2.022,5.632
						c-0.067,0.21-0.062,0.395-0.012,0.556c-2.878,0.805-5.726,1.794-8.33,3.191c-3.71,1.99-6.651,5.087-9.328,8.279
						c-2.417,2.883-4.886,5.815-5.207,9.711c-0.057,0.68-0.075,1.37-0.064,2.066c-0.161,2.066,0.001,4.23,0.28,6.23
						c-0.212,0.048-0.424,0.129-0.629,0.203c-0.528,0.191-1.047,0.421-1.514,0.735c-0.137,0.092-0.268,0.218-0.385,0.36
						c-0.025,0.007-0.05,0.015-0.072,0.031c-0.422,0.305-0.519,0.81-0.476,1.336c-0.346,1.113-0.186,2.34,0.069,3.478
						c0.333,1.486,0.707,2.962,1.093,4.437c-3.143,3.096-2.674,8.755-2.027,12.748c0.426,2.631,1.203,5.216,2.292,7.649
						c0.083,0.187,0.171,0.38,0.258,0.575c0.736,2.008,1.708,3.926,3.015,5.699c0.241,0.328,0.612,0.367,0.908,0.245
						c0.285,5.576,0.248,11.195,0.57,16.768c-0.113,0.022-0.219,0.086-0.28,0.214c-0.147,0.305-0.3,0.605-0.457,0.901
						c-4.669,2.216-8.014,6.495-12.119,9.526c-2.525,1.865-5.336,3.351-8.297,4.392c-1.759,0.618-4.903,1.055-4.676,3.471
						c-0.001,0.008-0.003,0.015-0.004,0.023c-0.467,6.719,1.664,13.36,6.139,18.425c4.91,5.557,11.509,9.953,17.548,14.188
						c6.551,4.592,13.365,8.808,20.399,12.62c6.504,3.525,13.282,6.686,18.425,12.158c0.389,0.414,1.289,0.422,1.637-0.064
						c9.04-12.625,24.863-15.987,37.49-23.699c10-6.108,21.946-15.763,23.928-28.081c0.975-1.429,1.273-3.286,1.312-4.986
						C168.705,198.141,168.683,196.41,167.545,195.466z M163.71,198.507c0.234-0.691,0.646-1.636,0.687-2.48
						c0.508,0.114,1.031,0.227,1.491,0.429c0.504,0.221,0.787,0.576,0.948,1c-0.042,0.112-0.037,0.24-0.029,0.368
						c0.029,0.491,0.03,0.733-0.348,1.112c-0.686,0.688-1.744,1.006-2.701,0.926c-0.139-0.072-0.281-0.14-0.419-0.213
						C163.475,199.255,163.59,198.86,163.71,198.507z M148.063,188.292c2.082,2.151,4.367,3.791,7.133,4.956
						c2.516,1.059,5.188,1.745,7.829,2.435c-0.294,0.766-0.361,1.739-0.565,2.444c-0.082,0.285-0.19,0.585-0.297,0.893
						c-3.796-2.075-7.405-4.478-10.766-7.222c-2.349-1.918-4.562-3.995-6.679-6.166c-0.498-0.511-0.977-1.054-1.452-1.605
						C145.06,185.14,146.536,186.714,148.063,188.292z M143.58,186.734c2.066,2.261,4.311,4.352,6.678,6.295
						c3.577,2.937,7.427,5.496,11.49,7.684c-1.126,3.065-2.497,6.006-4.157,8.77c-3.325-2.873-7.153-5.247-10.572-8.007
						c-3.525-2.846-6.871-5.896-10.073-9.1c0.647-0.685,1.26-1.4,1.847-2.142C140.417,189.107,141.983,187.863,143.58,186.734z
						 M160.846,207.012c0.324,0.304,0.709,0.677,1.047,1.093c-0.745,1.344-1.521,2.662-2.363,3.957
						c-0.445-0.012-0.882-0.056-1.273-0.099c-0.075-0.008-0.143-0.001-0.205,0.018C159.093,210.395,160.029,208.737,160.846,207.012
						z M143.391,227.413c0.219,0.076,0.443,0.138,0.669,0.19c-0.213,0.132-0.427,0.262-0.642,0.389
						C143.427,227.798,143.419,227.604,143.391,227.413z M143.174,226.143c1.898-1.153,3.717-2.428,5.436-3.817
						c0.235,0.631,0.235,1.316,0.043,1.949c-1.005,0.836-2.044,1.626-3.114,2.361C144.736,226.683,143.913,226.49,143.174,226.143z
						 M134.609,228.366c-6.07,2.648-12.372,4.719-18.45,7.349c-3.932,1.701-8.588,3.501-11.616,6.732
						c0.013-4.409,0.06-8.818,0.154-13.226c0.129-6.059,0.716-12.279,0.441-18.346c5.813,0.057,11.572-1.546,16.355-4.952
						c2.996-2.134,5.616-4.754,8.272-7.284c0.141-0.135,0.29-0.269,0.433-0.404c1.025-0.567,1.948-1.339,2.833-2.134
						c2.612,3.732,6.324,6.357,9.914,9.089c3.783,2.879,7.521,6.245,11.624,8.686c-0.894,1.146-1.848,2.253-2.874,3.311
						C146.887,222.146,140.898,225.623,134.609,228.366z M137.423,230.685c0.14,0.064,0.282,0.123,0.426,0.179
						c-0.145,0.067-0.29,0.134-0.436,0.2C137.426,230.938,137.428,230.812,137.423,230.685z M137.17,229.306
						c1.037-0.483,2.064-0.986,3.08-1.515c0.587-0.306,1.167-0.625,1.741-0.953c0.397,0.564,0.389,1.287,0.106,1.909
						c-0.887,0.486-1.79,0.946-2.702,1.388C138.612,230.041,137.828,229.701,137.17,229.306z M131.537,231.736
						c1.511-0.611,3.013-1.243,4.499-1.911c0.011,0.019,0.021,0.039,0.034,0.058c0.401,0.564,0.304,1.254-0.042,1.807
						c-0.766,0.342-1.533,0.681-2.3,1.021C132.938,232.618,132.184,232.22,131.537,231.736z M132.203,233.394
						c-0.169,0.076-0.337,0.154-0.506,0.231c0.023-0.156,0.036-0.314,0.038-0.473C131.888,233.238,132.044,233.319,132.203,233.394z
						 M124.416,234.514c2.01-0.777,4.025-1.544,6.029-2.34c0.004,0.01,0.006,0.02,0.011,0.03c0.327,0.691,0.237,1.423-0.099,2.045
						c-1.032,0.489-2.052,0.998-3.052,1.539C126.257,235.685,125.254,235.154,124.416,234.514z M125.93,236.56
						c-0.549,0.322-1.09,0.657-1.622,1.006c0.117-0.565,0.15-1.163,0.139-1.747C124.912,236.115,125.412,236.37,125.93,236.56z
						 M121.362,239.167c-1.401-0.013-2.961-0.902-4.167-1.738c1.784-0.772,3.588-1.498,5.397-2.207
						c0.252-0.099,0.503-0.196,0.755-0.294C123.477,236.473,123.498,239.186,121.362,239.167z M114.401,241.855
						c-1.427,0.775-3.223,0.217-4.129-1.052c0.869-0.488,1.759-0.94,2.634-1.381c1.018-0.513,2.049-0.997,3.088-1.463
						C116.341,239.434,115.798,241.097,114.401,241.855z M108.107,244.963c-0.943,0.737-2.181,0.868-3.278,0.521
						c1.126-1.754,2.735-3.047,4.499-4.129C109.604,242.672,109.211,244.1,108.107,244.963z M134.413,194.849
						c-0.001-0.001-0.002-0.002-0.003-0.004c0.372-0.337,0.738-0.678,1.099-1.024c3.329,3.339,6.815,6.511,10.495,9.462
						c3.316,2.66,6.926,5.583,10.832,7.408c-0.435,0.675-0.895,1.335-1.367,1.987C148.919,206.316,139.748,202.427,134.413,194.849z
						 M145.261,137.723c0.005,0,0.009,0.001,0.013,0c0.1,0.035,0.205,0.035,0.307,0.011c1.402,0.224,2.175,2.891,2.19,4.124
						c0.013,1.163-0.168,2.397-0.328,3.534c-0.268,1.904-0.68,3.788-1.219,5.634c-0.856,2.93-2.042,6.286-3.89,8.958
						c0.072-0.663,0.138-1.327,0.213-1.99c0.571-5.053,1.216-10.097,1.903-15.136C144.679,141.168,144.979,139.45,145.261,137.723z
						 M141.861,113.219c2.873,5.073,0.507,12.541-0.697,17.875c-0.035,0.153-0.024,0.286,0.014,0.403
						c-8.129,4.049-17.382,6.391-26.517,7.432c0.809-1.189,1.171-2.666,1.684-4.02c0.627-1.649,1.253-3.297,1.879-4.946
						c1.283-3.378,2.491-6.818,4.197-10.013c1.645-3.079,3.806-6.018,6.801-7.905c3.603-2.269,7.229-2.261,11.18-1.092
						C140.93,111.685,141.42,112.44,141.861,113.219z M139.001,109.172c-5.835-2.475-12.715,2.062-16.136,6.708
						c-2.495,3.389-4.037,7.325-5.561,11.215c-0.899,2.296-1.793,4.594-2.69,6.891c-0.649,1.662-1.605,3.312-1.585,5.113
						c-1.524,0.148-3.042,0.264-4.548,0.343c1.311-8.185,3.305-16.416,7.632-23.575c2.283-3.777,5.498-8.069,9.707-9.788
						c4.21-1.718,7.756-0.221,11.498,1.259C137.903,107.928,138.464,108.541,139.001,109.172z M125.976,99.493
						c2.491,1.134,4.874,2.512,7.092,4.162c0.358,0.267,0.712,0.545,1.065,0.826c-2.229-0.624-4.609-0.767-6.67-0.402
						c-4.595,0.811-8.134,4.41-10.859,7.972c-6.053,7.911-8.594,17.813-10.195,27.479c-0.426,0.014-0.854,0.031-1.277,0.039
						c-0.12,0.002-0.24,0.002-0.36,0.004c0.905-4.342,0.91-8.933,1.653-13.326c0.736-4.344,1.709-8.648,2.91-12.887
						c1.204-4.25,2.661-8.673,6.054-11.708C118.565,98.81,122.239,98.656,125.976,99.493z M86.795,32.186
						c7.55-4.608,17.004-4.393,25.197-1.684c-2.615,0.98-5.062,2.255-7.363,3.848c-0.593,0.191-1.067,0.452-1.346,1.031
						c-0.034,0.053-0.058,0.109-0.076,0.166c-0.001,0.002-0.002,0.004-0.003,0.007c-0.001,0.002,0,0.004-0.001,0.006
						c-0.142,0.475,0.219,1.05,0.812,0.859c3.048-0.981,6.209-1.548,9.385-1.713c5.286,0.718,10.254,3.186,13.724,7.387l-0.878-0.14
						c-0.866-0.138-0.949,1.031-0.44,1.447c8.684,7.122,12.992,19.095,11.123,30.127c-0.501-0.199-0.96-0.469-1.393-0.844
						c-0.524-0.454-1.401-0.235-1.431,0.538c-0.103,2.72-0.67,5.375-1.701,7.896c-0.512,1.251-1.146,2.454-1.87,3.594
						c-0.514,0.809-1.108,1.535-1.591,2.343c-3.479-3.034-6.647-6.441-9.414-10.191c-0.477-0.647-1.704-0.21-1.365,0.626
						c0.814,2.007,1.425,4.042,1.84,6.147c-1.627-1.078-3.254-2.157-4.881-3.236c-0.164-0.109-0.342-0.117-0.508-0.07
						c-0.121-0.012-0.235,0.037-0.285,0.146c-0.231,0.19-0.369,0.502-0.267,0.796c0.671,1.927,1.342,3.853,2.014,5.78
						c-1.183,0.929-3.93-0.194-5.2-0.435c-1.114-6.248,0.467-13.212,4.946-17.864c4.078-4.234,12.355-7.69,17.485-3.175
						c0.165,0.145,0.393-0.1,0.232-0.251c-5.259-4.929-13.464-2.65-18.321,1.768c-3.004,2.733-5.004,6.471-5.938,10.403
						c-0.513,2.162-1.495,6.544-0.236,8.87c-0.724-0.074-1.449-0.121-2.176-0.144c0.225-6.149-0.435-12.209,1.513-18.205
						c1.717-5.287,5.367-10.341,10.713-12.365c0.272-0.103,0.15-0.524-0.133-0.436c-12.707,3.971-14.911,19.453-13.691,30.991
						c-0.304,0.004-0.609,0.01-0.914,0.02c-0.187,0.006-0.374,0.018-0.561,0.026c-0.261-0.014-0.522-0.029-0.784-0.039
						c0.035-0.067,0.059-0.139,0.067-0.216c0.406-4.068-0.058-8.323,0.013-12.419c0.068-3.844-0.716-9.23,1.384-12.614
						c0.178-0.287-0.276-0.519-0.458-0.244c-2.131,3.217-2.022,7.624-2.211,11.342c-0.232,4.57-0.678,9.586,0.095,14.118
						c-1.853-0.017-3.721,0.115-5.542,0.443c-1.23,0.013-2.458-0.021-3.688-0.059c-0.212-0.076-0.422-0.157-0.628-0.249
						c0.002-0.015,0.002-0.031-0.003-0.048c-0.853-2.608-2.911-4.358-4.544-6.481c-2.473-3.217-3.868-6.798-5.257-10.571
						c-0.035-0.096-0.123-0.12-0.191-0.093c-0.005,0.142-0.024,0.28-0.051,0.416c0.95,6.877,5.658,11.308,9.62,16.57
						c-0.306-0.16-0.603-0.338-0.89-0.537c-0.591-0.411-1.123-0.943-1.738-1.319c-4.001-5.18-10.445-8.566-14.036-14.183
						c-4.75-7.429-6.178-16.612-3.944-25.097c1.503,2.839,2.992,5.684,4.488,8.526c0.38,0.722,1.308,0.118,1.19-0.546
						C75.225,44.714,79.8,36.456,86.795,32.186z M118.639,95.244c-8.947-2.12-18.624-1.695-27.583,0.432
						c-0.588,0.14-1.18,0.285-1.773,0.435c0.34-1.223,0.618-2.6,1.097-3.769c0.108-0.176,0.215-0.351,0.318-0.527
						c0.234-0.399,0.466-0.796,0.707-1.185c1.005-1.147,2.341-1.583,3.99-2.012c2.864-0.745,5.879-0.872,8.823-0.673
						c3.067,0.208,6.213,0.736,9.17,1.589c1.925,0.556,3.518,1.319,4.446,3.15C118.245,93.497,118.419,94.376,118.639,95.244z
						 M75.497,73.198c-0.157-0.182-0.319-0.358-0.469-0.546c-3.05-3.824-5.083-8.432-5.863-13.26
						c-0.133-0.826-0.206-1.633-0.249-2.431c0.45,3.833,1.53,7.598,3.281,11.088C73.124,69.898,74.244,71.602,75.497,73.198z
						 M65.682,78.69c1.806,0.613,3.689,0.871,5.639,0.738c0.728-0.05,0.957-0.866,0.4-1.314c-5.67-4.561-8.627-11.893-8.363-19.098
						c0.271-7.413,3.966-14.417,9.272-19.483c1.032-0.986,2.13-1.929,3.29-2.778c0.763-0.456,1.549-0.874,2.352-1.254
						c1.264-0.598,2.564-1.008,3.88-1.416c-4.351,4.147-7.078,9.896-7.04,15.894c-1.251-2.342-2.502-4.683-3.74-7.032
						c-0.21-0.399-0.679-0.348-0.959-0.095c-0.079,0.014-0.154,0.055-0.211,0.147c-4.733,7.589-3.224,18.744,0.757,26.301
						c1.924,3.653,4.551,6.895,7.751,9.508c3.836,3.134,8.414,5.409,10.923,9.85C80.396,90.894,70.561,86.922,65.682,78.69z
						 M89.092,98.159c0.683-0.187,1.364-0.369,2.038-0.543c5.007-1.295,10.17-2.096,15.35-2.127
						c0.259-0.002,0.518,0.006,0.777,0.009c2.477,0.088,4.945,0.383,7.352,0.986c1.123,0.281,2.53,1.036,3.856,1.329
						c-0.514,0.151-1.022,0.334-1.521,0.568c-3.929,1.846-6.353,5.645-7.889,9.559c-1.985,5.057-3.192,10.522-4.203,15.845
						c-0.949,4.994-2.253,10.689-1.823,15.792c-0.567-0.005-1.131-0.027-1.696-0.045c0.205-9.419,0.263-19.32-2.892-28.322
						c-1.573-4.487-5.218-10.587-10.167-12.57C88.541,98.472,88.813,98.31,89.092,98.159z M77.739,103.039
						c2.244-1.645,4.829-2.801,7.5-3.715c3.196,1.21,5.906,2.517,8.164,5.482c2.311,3.034,3.622,6.714,4.529,10.383
						c1.962,7.939,1.83,16.139,1.5,24.251c-0.915-0.056-1.825-0.138-2.733-0.232c-0.486-4.721-1.146-9.423-1.997-14.093
						c-0.845-4.64-1.829-9.394-4.273-13.495c-2.54-4.26-8.207-8.443-13.43-8.017C77.245,103.41,77.492,103.221,77.739,103.039z
						 M74.443,105.852c3.145-0.948,6.006-1.066,9.215,0.896c3.584,2.192,5.839,5.863,7.189,9.751
						c1.713,4.929,2.603,10.224,3.219,15.508c-0.507-1.413-1.074-2.752-1.509-3.865c-1.424-3.647-3.03-7.36-5.459-10.459
						c-2.003-2.556-4.491-4.707-7.301-6.334c-2.152-1.246-5.077-2.684-7.769-2.92C72.799,107.534,73.607,106.666,74.443,105.852z
						 M68.192,113.634c0.855-1.376,1.846-2.77,2.931-4.118c2.659,1.055,5.458,1.552,8.016,3.068c2.91,1.725,5.492,4.096,7.407,6.888
						c2.185,3.185,3.634,6.884,4.865,10.526c0.564,1.669,1.056,3.363,1.435,5.083c0.279,1.266,0.345,2.537,0.743,3.725
						c-0.6-0.093-1.199-0.197-1.798-0.308c-0.406-5.393-3.206-10.56-6.207-14.94c-2.618-3.821-6.258-9.397-10.964-10.728
						c-0.112-0.032-0.171,0.136-0.071,0.188c4.861,2.521,8.077,7.123,10.992,11.634c2.793,4.321,4.466,8.825,5.74,13.75
						c-2.589-0.502-5.155-1.176-7.702-2.052c-5.054-1.739-10.02-3.787-14.951-5.887c-0.003-0.105-0.015-0.214-0.049-0.329
						C67.087,125.071,65.189,118.464,68.192,113.634z M64.939,158.243c-1.13-2.632-1.803-5.439-2.203-8.341
						c-0.455-3.303-1.53-8.283,0.356-11.367c0.558,2.095,1.118,4.191,1.602,6.303c0.199,0.867,0.39,1.735,0.576,2.605
						c0.517,3.288,0.949,6.59,1.295,9.9c-0.092,1.066-0.114,2.26,0.037,3.376C66.047,159.897,65.457,159.088,64.939,158.243z
						 M66.511,143.737c-0.816-4.39-1.598-8.96-3.062-13.212c6.476,2.777,12.986,5.569,19.641,7.877
						c7.329,2.542,14.861,3.512,22.603,3.322c7.487-0.184,14.949-1.277,22.17-3.271c5.366-1.482,12.076-3.243,16.645-6.917
						c-1.122,4.195-1.512,8.773-2.126,12.984c-0.511,3.505-0.967,7.018-1.398,10.533c-0.04,0.084-0.087,0.164-0.131,0.246
						c-0.061,0.839-0.28,1.697-0.586,2.478c0.338-3.319,0.353-6.67,0.035-9.991c-0.113-1.185,0.062-3.417-1.04-4.215
						c-1.14-0.824-2.776,0.307-3.544,1.158c-2.344,2.595-2.715,6.898-2.827,10.221c-0.083,2.438,0.06,4.876,0.115,7.313
						c0.025,1.139,0.037,2.279,0,3.418c-0.032,0.977-0.253,2.044-0.117,3.027c-0.303,1.608-0.23,3.505-0.401,4.914
						c-0.691,5.698-1.693,11.349-2.95,16.948c-0.165,0.737,0.674,1.372,1.326,0.946c3.527-2.308,4.17-6.954,5.048-10.767
						c0.995-4.317,1.748-8.688,2.386-13.073c0.105-0.377,0.207-0.752,0.309-1.115c0.566-2.014,1.001-4.061,1.324-6.128
						c0.033-0.211,0.059-0.424,0.089-0.636c0.099,0.205,0.183,0.419,0.234,0.655c0.023,0.105,0.04,0.215,0.055,0.325
						c-0.065,0.601-0.132,1.202-0.197,1.803c-0.072,0.141-0.084,0.287-0.046,0.424c-0.578,5.436-1.073,10.88-1.486,16.33
						c-0.136,0.026-0.25,0.142-0.189,0.307c0.04,0.109,0.095,0.214,0.139,0.322c-0.21,2.802-0.403,5.606-0.568,8.411
						c-0.074,0.092-0.147,0.185-0.222,0.275c-2.647,1.802-4.939,4.321-7.273,6.48c-2.832,2.62-5.555,5.412-8.594,7.797
						c-2.624,2.059-5.513,3.562-8.577,4.496c-0.524,0.104-1.051,0.196-1.581,0.271c-2.339,0.333-4.727,0.396-7.083,0.251
						c-2.381-0.147-4.753-0.517-7.075-1.064c-1.484-0.35-2.936-0.828-4.413-1.192c-2.876-1.359-5.566-3.145-8.07-5.252
						c-2.751-2.314-5.383-4.775-8.053-7.18c-1.301-1.172-2.613-2.333-3.893-3.528c-0.93-0.868-1.717-1.893-2.647-2.748
						c-0.589-8.493-0.847-17.025-1.584-25.508c0.18,0.127,0.361,0.252,0.542,0.378c0.236,1.426,0.492,2.847,0.784,4.259
						c0.739,5.538,1.611,11.07,2.866,16.516c0.879,3.813,1.521,8.459,5.048,10.767c0.651,0.426,1.491-0.21,1.326-0.946
						c-1.257-5.599-2.259-11.25-2.95-16.948c-0.179-1.479-0.089-3.497-0.448-5.152c0.111-1.662-0.219-3.474-0.342-5.052
						c-0.16-2.055-0.354-4.107-0.582-6.155c-0.5-4.507-1.163-8.999-2.001-13.456c-0.266-1.414-0.568-2.971-1.75-3.926
						c-0.979-0.79-2.354-0.96-3.364-0.132c-1.22,1-1.239,2.676-1.049,4.108c0.294,2.222,0.682,4.436,1.026,6.651
						c0.475,3.06,0.892,6.142,1.395,9.206c-0.252-0.687-0.426-1.394-0.515-2.124c-0.062-0.044-0.124-0.087-0.185-0.132
						c-0.037-0.382-0.068-0.764-0.108-1.145C68.089,153.346,67.401,148.523,66.511,143.737z M136.127,166.061
						c-0.005,0.16-0.013,0.32-0.021,0.48c-0.113-0.051-0.235-0.073-0.354-0.067C135.873,166.335,135.998,166.197,136.127,166.061z
						 M135.093,167.356c-0.31,1.432-0.611,2.866-0.916,4.298c0.068-1.21,0.185-2.401,0.496-3.406
						C134.769,167.937,134.916,167.642,135.093,167.356z M95.778,240.075c2.099,1.052,4.013,2.375,5.541,4.245
						c-0.965,1.258-2.77,1.89-4.262,1.189c-1.531-0.719-2.183-2.572-1.768-4.138c0.215-0.328,0.38-0.693,0.476-1.089
						C95.783,240.21,95.786,240.14,95.778,240.075z M91.747,236.285c-6.256-2.268-12.076-4.708-17.589-8.5
						c-5.301-3.647-10.099-7.998-14.565-12.616c-0.507-0.525-1.003-1.053-1.493-1.583c5.916-6.281,12.42-11.607,19.163-16.959
						c2.283,2.098,4.563,4.206,6.959,6.169c5.281,4.324,11.346,7.262,18.195,7.936c0.438,0.043,0.877,0.076,1.315,0.1
						c-0.851,5.864-0.775,12.02-0.952,17.913c-0.143,4.743-0.235,9.487-0.284,14.232c-0.111-0.021-0.226-0.014-0.331,0.025
						C99.742,239.595,95.747,237.735,91.747,236.285z M94.936,239.669c-0.056,0.04-0.108,0.093-0.152,0.163
						c-0.201,0.317-0.356,0.656-0.471,1.006c-0.732,1.022-2.163,1.52-3.364,0.954c-1.508-0.711-1.999-2.716-1.33-4.163
						C91.426,238.253,93.232,238.887,94.936,239.669z M88.616,237.284c-0.884,1.525-2.79,2.646-4.532,1.843
						c-1.321-0.609-1.974-2.217-1.507-3.541c0.113-0.175,0.212-0.359,0.294-0.552c0.877,0.399,1.763,0.778,2.661,1.13
						C86.542,236.56,87.576,236.924,88.616,237.284z M76.404,231.605c-0.958,0.857-2.635,1.732-3.663,0.577
						c-0.725-0.814-0.532-2.071-0.241-3.125C73.774,229.947,75.076,230.799,76.404,231.605z M61.981,224.043
						c-0.153-0.976,0.271-2.006,0.761-2.915c1.348,1.251,2.729,2.466,4.143,3.639c-0.706,0.418-1.65,0.926-2.539,1.056
						C63.555,225.221,62.755,224.634,61.981,224.043z M63.313,225.763c-0.372-0.118-0.707-0.36-0.974-0.774
						c-0.055-0.086-0.102-0.173-0.145-0.261C62.566,225.07,62.938,225.417,63.313,225.763z M47.844,206.227
						c-0.426,0.411-0.794,0.87-1.021,1.37c-0.244-0.627-0.46-1.262-0.657-1.903C46.672,206,47.25,206.18,47.844,206.227z
						 M45.667,203.895c-0.126-0.5-0.245-1.003-0.358-1.511c0.016-1.106,0.65-1.966,1.498-2.67c0.541,1.896,1.329,3.702,2.287,5.426
						C47.805,205.608,46.325,205.089,45.667,203.895z M49.601,206.018c0.882,1.476,1.881,2.892,2.944,4.251
						c-1.565,0.486-3.515,0.889-4.616-0.571C46.806,208.207,48.387,206.84,49.601,206.018z M51.935,211.411
						c-0.614,0.841-1.093,1.796-1.079,2.763c-0.742-0.864-1.44-1.766-2.07-2.735C49.752,211.733,50.879,211.641,51.935,211.411z
						 M53.317,211.232c0.878,1.072,1.789,2.109,2.707,3.113c0.23,0.251,0.461,0.502,0.694,0.752
						c-1.346,0.699-3.401,1.331-4.425,0.234C51.09,214.041,52.345,212.316,53.317,211.232z M54.882,209.852
						c3.457-1.891,6.593-5.334,9.517-7.886c3.086-2.694,6.571-5.372,9.311-8.47c0.62,0.506,1.215,0.994,1.734,1.465
						c0.263,0.239,0.524,0.48,0.787,0.72c-7.056,4.593-13.526,10.487-19.414,16.477C56.152,211.4,55.503,210.634,54.882,209.852z
						 M57.626,216.064c1.315,1.385,2.665,2.742,4.05,4.062c-1.31,0.816-2.953,1.548-4.239,0.477
						C55.969,219.38,56.726,217.457,57.626,216.064z M72.873,167.936c0.129,0.137,0.254,0.274,0.374,0.413
						c-0.119-0.006-0.241,0.016-0.354,0.067C72.886,168.256,72.879,168.096,72.873,167.936z M73.907,169.231
						c0.177,0.286,0.324,0.581,0.42,0.892c0.311,1.005,0.428,2.196,0.496,3.406C74.519,172.096,74.217,170.663,73.907,169.231z
						 M69.476,190.304c0.678,0.404,1.33,0.84,1.976,1.284c0.366,0.332,0.743,0.655,1.119,0.971
						c-3.062,2.266-5.826,5.078-8.725,7.521c-1.88,1.585-3.773,3.155-5.681,4.707c-1.45,1.179-3.093,2.273-4.357,3.662
						c-2.079-2.818-3.828-5.837-5.079-9.244c3.726-0.949,7.118-3.045,10.089-5.61c1.749-1.51,4.185-3.484,6.134-5.726
						c0.475,0.456,1.169,0.642,1.767,0.939C67.658,189.273,68.579,189.77,69.476,190.304z M46.769,196.675
						c1.149-0.394,2.277-0.851,3.374-1.37c2.278-1.078,4.423-2.429,6.395-3.997c3.033-2.411,5.674-5.215,8.867-7.327
						c-1.98,2.904-4.469,5.375-7.175,7.763c-4.137,3.65-9.026,6.41-14.672,6.065C44.473,197.188,45.87,196.983,46.769,196.675z
						 M52.533,218.699c-5.605-5.005-8.86-11.44-8.696-18.953c0.633,0.023,1.258,0.005,1.875-0.043
						c-0.41,0.418-0.748,0.883-0.974,1.392c-0.014,0.017-0.022,0.037-0.028,0.061c-0.339,0.802-0.402,1.714-0.034,2.732
						c0.116,0.322,0.278,0.61,0.469,0.87c0.331,1.501,0.838,3.001,1.497,4.443c0.047,0.203,0.121,0.41,0.228,0.622
						c0.104,0.206,0.222,0.388,0.35,0.554c1.723,3.268,4.226,6.133,7.187,7.871c0.124,0.072,0.276-0.092,0.166-0.199
						c-0.402-0.395-0.802-0.789-1.196-1.184c0.932,0.103,1.977-0.12,2.901-0.471c-0.792,1.6-1.084,3.484,0.336,4.854
						c1.429,1.379,3.284,0.947,4.882,0.132c-0.27,0.619-0.478,1.265-0.546,1.908c-0.102,0.016-0.187,0.16-0.092,0.242
						c0.024,0.021,0.048,0.042,0.072,0.063c-0.025,0.754,0.159,1.496,0.682,2.176c0.763,0.994,1.8,1.215,2.865,1.058
						c0.337,0.301,0.677,0.596,1.021,0.885c-0.046,0.428,0,0.842,0.176,1.213C61.118,225.744,56.653,222.377,52.533,218.699z
						 M65.69,226.876c-0.108-0.088-0.215-0.175-0.324-0.261c0.167-0.053,0.333-0.112,0.497-0.177
						C65.799,226.582,65.741,226.728,65.69,226.876z M67.708,225.441c0.657,0.532,1.321,1.056,1.993,1.569
						c0.543,0.414,1.091,0.822,1.644,1.223c-0.869,0.71-1.951,1.097-3.103,1.001c-0.535-0.585-1.118-1.139-1.73-1.669
						C66.608,226.753,67.214,226.051,67.708,225.441z M70.612,232.282c-1.024-0.682-2.047-1.371-3.068-2.069
						c1.266,0.302,2.644-0.005,3.774-0.674c-0.24,1.344-0.165,2.766,0.965,3.662c1.083,0.858,2.434,0.669,3.585,0.068
						c-0.116,1.04,0.182,2.118,0.851,2.917C74.662,234.919,72.624,233.622,70.612,232.282z M77.362,232.175
						c1.479,0.864,2.991,1.667,4.537,2.405c-0.107,0.176-0.201,0.357-0.272,0.544c-0.76,1.073-2.307,1.598-3.5,0.896
						C76.795,235.238,76.563,233.399,77.362,232.175z M138.567,233.079c-11.603,6.092-25.268,9.892-33.588,20.629
						c-4.481-4.401-10.035-7.345-15.558-10.272c-3.665-1.942-7.277-3.978-10.829-6.113c0.976,0.211,1.99-0.025,2.814-0.564
						c0.113,1.307,0.874,2.57,2.069,3.212c1.617,0.869,3.496,0.395,4.836-0.721c0.062,1.454,0.788,2.858,2.186,3.528
						c1.17,0.561,2.525,0.401,3.58-0.244c0.059,1.653,0.93,3.269,2.5,4.021c1.899,0.91,4.143,0.234,5.458-1.276
						c0.152,0.223,0.3,0.451,0.441,0.688c-0.006,0.939-0.015,1.878-0.017,2.818c-0.004,1.348,2.095,1.286,2.088-0.055
						c-0.004-0.825-0.004-1.65-0.005-2.475c1.249,0.459,2.681,0.377,3.849-0.375c1.236-0.795,1.922-2.19,1.967-3.614
						c1.115,0.873,2.64,1.197,4.012,0.705c-1.304,0.942-2.56,1.955-3.807,2.971c-1.956,1.592-4.168,3.089-5.534,5.244
						c-0.081,0.127,0.103,0.233,0.192,0.122c1.629-2.018,4.12-3.587,6.131-5.197c2.055-1.645,4.185-3.199,6.179-4.917
						c0.098-0.084-0.018-0.247-0.131-0.184c-0.474,0.266-0.935,0.55-1.392,0.843c0.77-0.874,1.168-2.059,1.115-3.234
						c1.56,1.034,3.668,2.106,5.28,1.448c0.827-0.338,1.333-0.928,1.636-1.634c0.954-0.563,1.926-1.094,2.911-1.6
						c0.901,0.156,1.823,0.079,2.688-0.37c0.749-0.389,1.347-1.011,1.71-1.736c0.683-0.311,1.368-0.618,2.053-0.924
						c0.927,0.194,1.877,0.092,2.712-0.525c0.417-0.309,0.747-0.702,0.973-1.139c0.661-0.306,1.32-0.617,1.973-0.935
						c1.162,0.202,2.342,0.03,3.261-0.823c0.404-0.375,0.71-0.859,0.897-1.382c0.678-0.397,1.346-0.812,2.003-1.247
						c1.073,0.03,2.137-0.249,3.018-0.947c0.816-0.647,1.352-1.574,1.55-2.562c0.66-0.574,1.309-1.165,1.946-1.771
						c0.272,0.013,0.545,0.02,0.819,0.016c0.639-0.009,1.314-0.04,1.896-0.303C149.571,226.641,143.865,230.298,138.567,233.079z
						 M149.711,222.234c0.356,0.066,0.714,0.119,1.073,0.161c-0.301,0.282-0.606,0.559-0.914,0.832
						C149.857,222.892,149.806,222.558,149.711,222.234z M154.571,220.413c-0.22,0.664-0.916,0.941-1.761,1.016
						c0.654-0.65,1.294-1.314,1.921-1.987C154.718,219.775,154.675,220.101,154.571,220.413z M154.811,216.546
						c-0.154,0.577-0.132,1.184-0.103,1.789c-0.936,1.065-1.912,2.103-2.926,3.102c-0.632-0.038-1.275-0.141-1.82-0.246
						c2.932-2.551,5.541-5.445,7.716-8.645c-0.001,0.143,0.043,0.287,0.135,0.398c0.21,0.252,0.393,0.551,0.525,0.87
						c-0.36,0.503-0.732,1.002-1.12,1.498c-0.334,0.427-0.676,0.85-1.022,1.272c-0.148-0.06-0.29-0.144-0.416-0.259
						C155.476,216.048,154.931,216.095,154.811,216.546z M158.542,215.061c-0.031,0.288-0.121,0.569-0.29,0.827
						c-0.232,0.353-0.601,0.611-1.005,0.729c0.226-0.265,0.45-0.531,0.672-0.796C158.126,215.571,158.334,215.317,158.542,215.061z
						 M155.505,221.197c0.441-0.843,0.311-1.904,0.286-2.915c0.149-0.166,0.298-0.333,0.445-0.5c0.989,0.222,2.077-0.08,2.794-0.901
						c0.779-0.892,0.86-2.057,0.53-3.117c0.136-0.179,0.271-0.36,0.406-0.542c0.933-0.024,1.856-0.2,2.593-0.684
						C160.668,215.677,158.238,218.568,155.505,221.197z M162.537,210.791c-0.36,0.681-0.972,1.017-1.666,1.168
						c0.607-0.879,1.186-1.783,1.717-2.711C162.779,209.752,162.808,210.278,162.537,210.791z M163.933,210.015
						c-0.018-0.692-0.298-1.355-0.697-1.966c0.214-0.416,0.42-0.835,0.61-1.259c0.617-0.172,1.199-0.435,1.708-0.848
						C165.121,207.339,164.575,208.697,163.933,210.015z M164.483,205.227c0.222-0.605,0.418-1.216,0.579-1.831
						c0.082-0.315-0.383-0.569-0.547-0.251c-0.446,0.866-0.888,1.721-1.332,2.567c-0.668,0.172-1.349,0.261-1.882,0.309
						c0.662-1.502,1.239-3.05,1.716-4.646c0.851,0.437,1.711,0.859,2.578,1.266c0.002,0.009,0.003,0.016,0.006,0.025
						C166.028,203.935,165.421,204.729,164.483,205.227z M164.941,200.462c0.703-0.045,1.38-0.272,1.994-0.71
						c0.037-0.027,0.076-0.057,0.116-0.092c-0.021,0.583-0.092,1.154-0.187,1.721C166.218,201.085,165.578,200.777,164.941,200.462z
						"/>
					<path d="M93.585,85.628c-0.922-2.308-2.501-4.417-4.167-6.237c-0.116-0.127-0.29,0.046-0.192,0.178
						c1.496,2.007,2.653,4.148,3.905,6.301C93.301,86.163,93.706,85.93,93.585,85.628z"/>
					<path d="M94.821,82.931c-0.324-0.581-0.706-1.153-1.169-1.633c-0.143-0.149-0.387,0.023-0.293,0.208
						c0.292,0.579,0.623,1.137,0.911,1.719c0.285,0.577,0.453,1.237,0.798,1.777c0.185,0.289,0.593,0.127,0.548-0.207
						C95.527,84.144,95.137,83.498,94.821,82.931z"/>
					<path d="M96.82,83.254c-0.372-0.766-0.861-1.46-1.404-2.114c-0.139-0.167-0.44,0.04-0.314,0.223
						c0.479,0.696,0.856,1.445,1.125,2.247c0.187,0.557,0.202,1.283,0.684,1.656c0.091,0.071,0.262,0.032,0.314-0.071
						C97.535,84.591,97.096,83.822,96.82,83.254z"/>
					<path d="M106.448,88.554c-1.946-0.447-4.354-0.2-6.332-0.048c-0.208,0.016-0.224,0.312-0.009,0.329
						c1.978,0.153,4.392,0.402,6.334-0.046C106.554,88.764,106.569,88.582,106.448,88.554z"/>
					<path d="M117.981,69.583c-3.008,2.65-5.178,7.14-5.215,11.194c-0.001,0.154,0.234,0.252,0.311,0.095
						c1.841-3.753,1.977-7.867,5.23-10.935C118.534,69.723,118.213,69.379,117.981,69.583z"/>
				</g>
				<path d="M109.224,169.482c-0.076-4.798-0.294-9.591-0.602-14.379c-0.06-0.929-0.16-1.744-0.558-2.366
					c-0.108-0.865-0.303-1.743-0.77-2.266c-0.76-0.85-2.436-0.614-3.443-0.609c-1.643,0.007-3.278,0.157-4.902,0.4
					c-0.318,0.048-0.495,0.326-0.523,0.619c-0.086,0.072-0.142,0.176-0.133,0.312c0.515,8.71,0.492,17.399,0.464,26.12
					c-0.014,4.27-0.008,8.542,0.138,12.81c0.073,2.132,0.18,4.262,0.339,6.39c0.125,1.678,0.173,3.447,0.759,5.043
					c0.912,2.486,4.04,4.669,6.43,2.52c2.263-2.036,1.915-6.311,2.108-9.029C109.134,186.543,109.358,178.007,109.224,169.482z
					 M106.042,151.56c-0.454-0.119-0.913-0.228-1.377-0.325C105.193,151.235,105.703,151.302,106.042,151.56z"/>
				<path d="M140.232,136.266c-1.707,0.27-3.406,1.437-5.028,2.06c-1.885,0.724-3.816,1.329-5.775,1.818
					c-3.851,0.963-7.861,1.486-11.83,1.568c-0.179,0.004-0.189,0.277-0.007,0.279c4.056,0.063,8.018-0.349,11.965-1.314
					c1.985-0.486,3.937-1.098,5.847-1.826c1.562-0.596,3.727-1.2,4.925-2.405C140.406,136.369,140.336,136.249,140.232,136.266z"/>
				<path d="M138.494,139.064c-1.99,0.099-4.044,1.094-5.934,1.674c-0.284,0.087-0.187,0.523,0.108,0.453
					c1.921-0.453,4.201-0.627,5.964-1.545C138.893,139.509,138.81,139.048,138.494,139.064z"/>
				<path d="M131.754,74.065c-0.071-0.234-0.377-0.188-0.409,0.043c-0.229,1.618-0.296,3.196-0.856,4.756
					c-0.56,1.56-1.459,2.832-2.467,4.123c-0.182,0.233,0.17,0.472,0.374,0.312C130.901,81.336,132.72,77.221,131.754,74.065z"/>
				<path d="M124.244,45.902c-0.237-0.116-0.462,0.23-0.222,0.351c3.751,1.888,6.367,5.379,7.992,9.179
					c1.936,4.529,2.117,9.401,3.281,14.119c0.049,0.199,0.354,0.172,0.359-0.037C135.858,60.726,132.707,50.03,124.244,45.902z"/>
				<path d="M116.185,36.318c-0.319-0.132-0.466,0.376-0.155,0.51c1.466,0.634,2.98,1.291,4.395,2.038
					c0.611,0.322,1.233,0.685,1.728,1.174c0.468,0.463,0.749,1.062,1.207,1.531c0.134,0.138,0.35,0.044,0.367-0.138
					C124.012,38.389,118.167,37.14,116.185,36.318z"/>
				<path d="M83.253,76.434c-1.066-2.082-2.541-3.965-3.646-6.04c-0.537-1.008-1.039-2.032-1.536-3.06
					c-0.683-1.416-1.592-2.884-1.233-4.516c0.086-0.389-0.497-0.577-0.6-0.183c-0.627,2.413,1.071,4.966,2.122,7.038
					c1.205,2.376,2.526,5.207,4.551,7.004C83.084,76.831,83.369,76.66,83.253,76.434z"/>
				<path d="M126.56,81.961c-0.743-1.043-1.896-1.837-2.78-2.768c-0.981-1.032-1.858-2.148-2.65-3.331
					c-0.239-0.357-0.835-0.051-0.598,0.319c0.8,1.249,1.687,2.434,2.69,3.529c0.879,0.96,1.894,2.1,3.125,2.591
					C126.562,82.385,126.664,82.107,126.56,81.961z"/>
				<path d="M157.516,200.286c-1.137-0.898-2.596-1.456-3.825-2.24c-1.183-0.755-2.329-1.577-3.421-2.458
					c-2.343-1.892-4.451-4.05-6.284-6.439c-0.087-0.113-0.288,0.027-0.205,0.146c1.743,2.508,3.757,4.797,6.087,6.776
					c1.094,0.93,2.242,1.789,3.445,2.573c1.204,0.786,2.573,1.78,3.983,2.122C157.599,200.84,157.75,200.471,157.516,200.286z"/>
				<path d="M65.346,190.413c-1.793,1.669-3.341,3.538-5.246,5.107c-1.043,0.858-2.128,1.665-3.254,2.412
					c-1.21,0.804-2.513,1.817-4.006,1.957c-0.356,0.033-0.311,0.536,0.051,0.493c2.542-0.306,4.923-2.334,6.879-3.871
					c2.101-1.651,4.425-3.572,5.924-5.807C65.839,190.486,65.535,190.237,65.346,190.413z"/>
				<path d="M69.137,191.274c-0.654-0.491-1.394-0.717-2.205-0.73c-0.196-0.003-0.256,0.297-0.057,0.348
					c0.656,0.17,1.295,0.472,1.84,0.875c0.515,0.381,0.81,0.992,1.336,1.337c0.112,0.074,0.272-0.011,0.273-0.146
					C70.327,192.246,69.666,191.671,69.137,191.274z"/>
				<path d="M144.048,186.954c-3.174,2.412-6.37,4.796-9.559,7.188c-1.535,1.151-3.062,2.313-4.588,3.476
					c-1.612,1.229-3.443,2.38-4.841,3.852c-0.186,0.196,0.025,0.522,0.279,0.393c1.709-0.87,3.25-2.215,4.795-3.343
					c1.611-1.177,3.223-2.354,4.825-3.544c1.96-1.455,3.919-2.912,5.881-4.365c-0.055,0.05-0.11,0.1-0.164,0.148
					c-0.556,0.495-1.113,0.99-1.669,1.484c-0.327,0.29,0.134,0.786,0.46,0.497c0.558-0.493,1.116-0.986,1.674-1.479
					c0.503-0.444,1.078-0.876,1.411-1.469c0.095-0.17-0.075-0.335-0.245-0.264c0,0-0.001,0-0.001,0.001
					c0.816-0.603,1.631-1.209,2.45-1.809C145.293,187.325,144.58,186.55,144.048,186.954z"/>
				<path d="M192.602,55.281c0.26-0.701-0.729-1.32-1.247-0.781c-6.76,7.034-16.897,9.801-26.299,6.934
					c-8.528-2.6-13.925-9.765-19.281-16.398c-4.24-5.251-8.724-10.332-14.999-13.147c-5.572-2.499-11.337-2.943-17.038-1.683
					c-2.321,0.1-4.593,0.494-6.684,1.283c0.335-0.346,0.678-0.683,1.032-1.021c0.15-0.143-0.069-0.379-0.219-0.236
					c-0.655,0.626-1.3,1.22-2.015,1.776c-0.224,0.175,0,0.51,0.245,0.46c1.006-0.206,2.003-0.395,2.999-0.558
					c0.025,0.163,0.157,0.298,0.372,0.239c1.08-0.295,2.165-0.515,3.251-0.683c1.175-0.087,2.36-0.115,3.569-0.053
					c3.106,0.16,6.178,0.791,9.114,1.814c5.863,2.045,11.141,5.733,14.962,10.639c3.842,4.932,6.227,11.077,6.76,17.304
					c0.598,6.983-1.74,13.396-3.087,20.138c-0.903,4.518-1.138,9.448,0.485,13.744c-0.683-1.096-1.123-2.346-1.251-3.686
					c-0.067-0.698-0.939-1.085-1.378-0.419c-3.614,5.487-0.388,11.406,1.376,17.102c-2.557-2.681-5.797-4.65-9.159-6.271
					c-4.48-2.16-8.993-4.016-13.239-6.569c0.133-1.137-0.233-2.478-0.52-3.468c-0.376-1.3-0.947-2.939-2.092-3.746
					c-0.128-0.09-0.256,0.047-0.243,0.173c0.145,1.367,0.902,2.717,1.198,4.077c0.141,0.645,0.151,1.356,0.201,2.052
					c-0.092-0.06-0.186-0.118-0.278-0.179c-0.601-0.398-1.363,0.476-0.822,0.987c7.229,6.84,18.885,7.414,25.01,15.607
					c-0.196-0.053-0.391-0.109-0.587-0.16c-1.559-0.408-2.188,1.782-0.721,2.368c11.516,4.599,25.619,10.314,22.585,25.673
					c-0.21,1.063,0.76,1.99,1.804,1.483c11.656-5.66,7.383-24.947,3.868-35.202c6.63,0.735,12.39,3.929,16.654,9.199
					c0.695,0.859,2.233,0.251,2.213-0.833c-0.211-11.734-4.599-22.463-12.674-30.87c5.439-2.296,10.126-5.634,14.06-10.131
					c0.625-0.714,0.119-1.802-0.87-1.631c-3.21,0.555-6.374,0.732-9.579,0.577C185.905,67.351,190.134,61.943,192.602,55.281z
					 M176.946,71.082c-0.813,0.443-0.422,1.499,0.381,1.615c3.423,0.494,6.71,0.529,10.06,0.154
					c-3.623,3.703-7.855,6.437-12.853,8.216c-0.663,0.236-1.048,1.044-0.494,1.623c7.094,7.406,11.422,16.896,12.354,27.02
					c-4.845-4.682-11.102-7.335-17.992-7.616c-0.767-0.031-1.612,0.812-1.313,1.618c2.911,7.84,8.441,25.871,0.39,32.682
					c1.265-13.388-9.784-21.163-21.702-24.96c-0.001-0.019,0.005-0.036,0.002-0.056c-0.714-5.58-5.56-12.097-3.544-17.793
					c0.804,2.552,2.544,4.711,5.004,5.979c0.751,0.387,1.541-0.475,0.963-1.157c-4.517-5.329-3.656-12.84-2.164-19.138
					c1.564-6.602,3.308-12.909,2.402-19.753c-0.625-4.721-2.25-9.175-4.665-13.12c2.953,3.674,5.802,7.444,9.284,10.637
					c10.356,9.496,25.954,9.876,36.562,1.182C186.793,63.69,182.47,68.072,176.946,71.082z"/>
				<path d="M142.246,53.85c-0.088-0.277-0.51-0.185-0.445,0.106c1.228,5.454,0.807,10.94-0.006,16.419
					c-0.776,5.225-2.055,10.569-1.478,15.87c0.029,0.263,0.408,0.185,0.434-0.045c0.622-5.529,1.427-11.02,2.139-16.537
					C143.569,64.402,143.876,58.97,142.246,53.85z"/>
				<path d="M139.551,101.757c-0.507-1.507-1.097-2.929-1.299-4.521c-0.208-1.644-0.138-3.314-0.007-4.961
					c0.296-3.728,0.877-7.482,0.808-11.229c-0.005-0.282-0.443-0.385-0.514-0.083c-0.9,3.873-1.292,7.991-1.603,11.951
					c-0.154,1.969-0.258,4.402,0.379,6.466c-1.936-1.071-4.418-1.024-6.452-1.997c-3.218-1.54-5.622-4.632-8.944-5.964
					c-0.166-0.066-0.26,0.154-0.169,0.27c1.04,1.325,2.617,2.343,3.936,3.378c1.403,1.1,2.8,2.325,4.378,3.171
					c2.395,1.284,5.233,1.188,7.692,2.254c0.295,0.594,0.67,1.14,1.158,1.604C139.16,102.33,139.68,102.14,139.551,101.757z"/>
				<path d="M83.945,86.473c-1.067-0.286-2.211-0.139-3.305-0.273c-1.275-0.156-2.54-0.498-3.731-0.979
					c-2.438-0.986-4.469-2.644-6.091-4.694c-0.246-0.311-0.78,0.066-0.568,0.404c1.479,2.365,3.659,4.16,6.191,5.31
					c2.05,0.931,5.408,1.981,7.568,0.902C84.289,87.004,84.249,86.554,83.945,86.473z"/>
				<path d="M84.491,84.841c-0.674-0.291-1.395-0.273-2.113-0.385c-0.87-0.137-1.714-0.382-2.521-0.733
					c-1.603-0.698-2.869-1.798-4.021-3.094c-0.223-0.251-0.665,0.05-0.486,0.346c0.987,1.631,2.507,2.889,4.215,3.716
					c1.392,0.674,3.485,1.492,4.988,0.774C84.844,85.325,84.74,84.948,84.491,84.841z"/>
				<path d="M139.155,43.157c-1.914-1.646-4.277-2.474-6.599-3.361c-0.324-0.124-0.466,0.379-0.155,0.51
					c2.024,0.859,4.124,1.817,5.805,3.263c0.765,0.658,1.462,1.424,1.974,2.299c0.47,0.802,0.62,1.733,1.091,2.521
					c0.125,0.208,0.489,0.214,0.553-0.054C142.275,46.443,140.486,44.301,139.155,43.157z"/>
				<path d="M144.112,72.233c-0.444,1.804-0.793,3.621-1.011,5.465c-0.211,1.79-0.486,3.753-0.147,5.536
					c0.036,0.188,0.358,0.215,0.392,0.012c0.28-1.64,0.178-3.353,0.318-5.012c0.167-1.974,0.462-3.936,0.861-5.876
					C144.581,72.091,144.18,71.96,144.112,72.233z"/>
				<path d="M133.656,42.755c-0.298-0.152-0.538,0.231-0.276,0.436c1.442,1.134,2.72,2.401,3.672,3.981
					c0.845,1.402,1.143,2.961,1.784,4.438c0.103,0.237,0.422,0.107,0.446-0.105C139.671,48.067,136.534,44.221,133.656,42.755z"/>
				<path d="M132.632,37.902c-1.097-1.17-2.759-1.922-4.193-2.594c-1.505-0.706-3.07-1.241-4.669-1.686
					c-0.32-0.089-0.47,0.399-0.15,0.494c1.686,0.503,3.318,1.155,4.892,1.942c1.331,0.666,2.543,1.606,3.913,2.176
					C132.616,38.314,132.762,38.041,132.632,37.902z"/>
				<path d="M80.492,133.081c-2.154-1.019-4.574-1-6.652-2.334c-2.054-1.319-3.434-3.65-3.056-6.126
					c0.022-0.145-0.207-0.173-0.249-0.04c-1.685,5.308,5.394,9.165,9.844,8.868C80.552,133.437,80.69,133.175,80.492,133.081z"/>
				<path d="M131.522,133.744c-1.752,0.343-3.456,1.047-5.159,1.575c-0.223,0.069-0.138,0.428,0.084,0.354
					c1.706-0.562,3.514-0.982,5.152-1.725C131.717,133.895,131.64,133.721,131.522,133.744z"/>
			</g>
			<path d="M144.33,209.048c-2.289-1.603-4.422-3.284-6.392-5.275c-1.885-1.906-3.618-3.962-5.348-6.008
				c-0.142-0.168-0.387,0.062-0.25,0.231c3.351,4.138,6.983,8.835,11.915,11.17C144.334,209.203,144.405,209.1,144.33,209.048z"/>
		</g>
		<path d="M160.714,114.803c-3.337-2.644-6.79-5.11-10.908-6.349c-0.257-0.077-0.374,0.312-0.121,0.398
			c3.634,1.242,6.646,3.505,9.646,5.836c1.639,1.273,3.219,2.544,4.338,4.32c0.915,1.452,1.53,3.065,2.37,4.558
			c0.086,0.152,0.332,0.066,0.29-0.11C165.459,119.869,163.591,117.082,160.714,114.803z"/>
		<path d="M164.659,116.407c-1.517-2.109-3.146-4.029-5.267-5.547c-0.165-0.118-0.39,0.144-0.231,0.278
			c3.219,2.704,6.98,6.934,7.793,11.151c0.032,0.164,0.302,0.182,0.337,0.01C167.75,120.082,165.867,118.086,164.659,116.407z"/>
		<path d="M163.883,111.439c-0.161-0.182-0.417,0.066-0.273,0.252c1.104,1.422,2.081,2.928,2.896,4.534
			c0.726,1.431,1.095,3.069,1.933,4.42c0.087,0.139,0.344,0.112,0.336-0.079C168.641,117.309,165.953,113.792,163.883,111.439z"/>
		<path d="M167.817,111.89c-0.13-0.257-0.519-0.048-0.394,0.21c1.145,2.358,1.679,4.766,2.17,7.319
			c0.028,0.145,0.256,0.121,0.257-0.027C169.857,116.766,168.988,114.214,167.817,111.89z"/>
		<path d="M168.507,126.043c0.006,1.288-0.01,2.562,0.141,3.844c0.018,0.156,0.241,0.109,0.257-0.027
			c0.15-1.266,0.132-2.53,0.137-3.803C169.044,125.713,168.506,125.697,168.507,126.043z"/>
		<path d="M172.112,84.868c-0.198-0.229-0.537,0.088-0.344,0.318c2.182,2.593,4.358,5.207,6.231,8.037
			c1.907,2.881,2.986,5.863,4.188,9.071c0.039,0.105,0.234,0.116,0.22-0.023C181.757,95.616,176.269,89.688,172.112,84.868z"/>
		<path d="M172.03,87.83c-0.135-0.126-0.339,0.056-0.213,0.197c1.688,1.884,3.212,3.865,4.383,6.116
			c1.058,2.034,1.563,4.273,2.556,6.317c0.073,0.149,0.329,0.096,0.322-0.076C178.881,95.785,175.268,90.859,172.03,87.83z"/>
		<path d="M170.682,66.105c-4.017-0.535-7.895-0.946-11.675-2.518c-3.751-1.561-7.295-3.937-10.114-6.87
			c-0.33-3.82-1.287-7.515-3.308-10.59c-0.409-0.622-1.304-0.286-1.2,0.454c0.725,5.17,2.489,10.015,2.66,15.294
			c0.18,5.551-1.317,10.924-2.351,16.329c-1.282,6.699-2.338,15.377,2.388,21.031c0.488,0.584,1.257-0.105,1.01-0.718
			c-1.95-4.84-3.065-9.095-2.583-14.373c0.451-4.942,1.87-9.732,2.673-14.617c0.605-3.681,1.033-7.85,0.784-11.919
			c5.392,5.7,13.737,10.174,21.755,8.864C170.943,66.435,170.875,66.13,170.682,66.105z"/>
		<path d="M170.029,67.698c-5.249-0.266-10.353,0.562-14.523-3.404c-0.191-0.181-0.47,0.075-0.3,0.278
			c3.49,4.179,9.883,4.497,14.851,3.397C170.211,67.935,170.183,67.706,170.029,67.698z"/>
		<path d="M172.836,70.364c-4.769,1.195-9.116,2.013-14.002,0.796c-0.199-0.049-0.293,0.253-0.093,0.306
			c4.589,1.206,9.876,1.442,14.197-0.833C173.083,70.557,172.998,70.324,172.836,70.364z"/>
		<path d="M182.67,63.732c-2.954,1.813-5.558,3.42-9.126,3.708c-0.258,0.021-0.275,0.427-0.011,0.409
			c3.315-0.224,7.066-1.237,9.35-3.816C183.014,63.886,182.864,63.613,182.67,63.732z"/>
		<path d="M150.364,72.707c0.071-0.326-0.407-0.482-0.503-0.153c-1.212,3.74-1.846,7.684-1.998,11.61
			c-0.121,3.116-0.023,6.572,1.793,9.233c0.152,0.223,0.601,0.121,0.49-0.185C147.707,86.5,148.87,79.523,150.364,72.707z"/>
		<path d="M150.909,79.861c0.03-0.222-0.349-0.286-0.393-0.064c-0.794,4.069-1.217,8.775,0.186,12.762
			c0.078,0.221,0.464,0.232,0.447-0.047C150.897,88.196,150.312,84.203,150.909,79.861z"/>
		<path d="M144.623,97.947c-0.069-0.248-0.417-0.157-0.383,0.091c0.481,3.547,0.858,7.911,2.341,11.184
			c0.072,0.159,0.319,0.089,0.322-0.076C146.971,105.553,145.584,101.388,144.623,97.947z"/>
		<path d="M172.26,93.959c-0.465-0.903-1.036-2.413-2.298-2.033c-0.192,0.058-0.126,0.34,0.072,0.304
			c1.272-0.234,2.307,3.111,2.739,4.004c0.572,1.179,1.047,2.485,1.877,3.506c0.11,0.136,0.331,0.004,0.292-0.156
			C174.469,97.635,173.175,95.737,172.26,93.959z"/>
		<path d="M171.772,97.411c-0.447-0.67-0.918-1.324-1.403-1.965c-0.146-0.193-0.486,0.045-0.348,0.248
			c0.466,0.689,0.906,1.392,1.315,2.117c0.362,0.643,0.634,1.43,1.147,1.963c0.188,0.195,0.511,0.019,0.457-0.244
			C172.783,98.768,172.198,98.051,171.772,97.411z"/>
		<path d="M179.358,76.193c-0.969,0.707-1.774,1.646-2.71,2.404c-1.026,0.831-2.12,1.556-3.244,2.247
			c-0.288,0.177-0.058,0.62,0.248,0.466c2.141-1.077,4.766-2.758,6-4.871C179.769,76.239,179.529,76.068,179.358,76.193z"/>
	</g>
</g>
</svg>
