<svg viewBox="10 10 80 80" xmlns="http://www.w3.org/2000/svg" version="1.1" fill="#1e293b">
    <g>
        <path d="m50.441 12.746-0.18359-0.13672h0.003907c-0.13281-0.097656-0.3125-0.097656-0.44531 0l-0.17969 0.13281-24.195 45.988c-0.42969 0.81641-0.49609 1.7695-0.1875 2.6367 0.30859 0.86328 0.96484 1.5625 1.8125 1.918l21.691 9.1914h-0.003906c0.82031 0.34766 1.7461 0.34766 2.5664 0l21.637-9.1875c0.84375-0.35937 1.5-1.0547 1.8086-1.9219 0.30859-0.86328 0.24219-1.8164-0.18359-2.6289z"/>
        <path d="m12.992 62.641 36.547 24.824v-11.395c0-1.3164-0.78906-2.5078-2.0039-3.0234l-23.941-10.145c-0.40625-0.17188-0.83984-0.26172-1.2812-0.26172z"/>
        <path d="m47.773 14.137-36.941 27.656c-0.09375 0.070312-0.14844 0.17969-0.14844 0.29297l0.015625 18.797-0.003907 0.003907c0 0.12109 0.0625 0.23828 0.16406 0.30469l0.66016 0.44922h9.2773c1.2188 0 2.3398-0.67578 2.9062-1.7539z"/>
        <path d="m50.539 76.07v11.395l36.488-24.824h-9.3242c-0.44141 0-0.87891 0.089844-1.2852 0.26172l-23.879 10.145c-1.2109 0.51172-2 1.7031-2 3.0234z"/>
        <path d="m89.152 41.789-36.848-27.648 24.008 45.742c0.56641 1.082 1.6875 1.7578 2.9102 1.7578h9.2734l0.65625-0.44922v0.003906c0.10547-0.070312 0.16406-0.1875 0.16406-0.30859l-0.015625-18.797v-0.003906c0-0.11719-0.054687-0.22656-0.14844-0.29688z"/>
    </g>
</svg>