<?xml version="1.0" encoding="utf-8"?>
<svg version="1.1" xmlns="http://www.w3.org/2000/svg" xmlns:xlink="http://www.w3.org/1999/xlink" x="0px" y="0px"
	width="300" height="300" viewBox="5 5 110 110" xml:space="preserve" preserveAspectRatio="none" fill="#1a1d29">
<g id="OBJECTS">
	<g>
		<path d="M57.924,6.575c0.253,0.073,0.511,0.224,0.781,0.047c0.048,0,0.096,0,0.144,0
			c0.164-0.014,0.303,0.019,0.372,0.201c-0.087,0.012-0.177,0.005-0.249,0.038c-0.162,0.074-0.18,0.404-0.018,0.444
			c0.424,0.102,0.815,0.338,1.266,0.326c0.355-0.01,0.688,0.076,1.005,0.221c0.163,0.075,0.325,0.067,0.492,0.068
			c0.1,0,0.16-0.039,0.149-0.15c-0.014-0.133-0.307-0.501-0.426-0.49c-0.446,0.042-0.813-0.213-1.222-0.308
			c-0.1-0.023-0.239-0.058-0.257-0.172c-0.077-0.484-0.423-0.534-0.812-0.537c-0.154-0.001-0.317,0.04-0.459-0.047
			c-0.21-0.129-0.44-0.089-0.666-0.094c-0.117-0.003-0.215,0.029-0.245,0.16C57.746,6.416,57.809,6.541,57.924,6.575z"/>
		<path d="M13.54,103.306c0.033-0.109,0.076-0.196-0.058-0.27c-0.128-0.071-0.199-0.027-0.254,0.089v0
			c-0.179-0.046-0.196-0.139-0.031-0.21c0.175-0.076,0.262-0.207,0.307-0.37c0.052-0.193-0.056-0.288-0.241-0.204
			c-0.09,0.041-0.149,0.056-0.22-0.015c-0.072-0.071-0.126-0.147-0.078-0.253c0.029-0.065,0.064-0.129,0.092-0.195
			c0.055-0.132-0.003-0.246-0.103-0.313c-0.097-0.065-0.174,0.031-0.244,0.096c-0.097,0.09-0.167,0.201-0.247,0.304
			c-0.145,0.188-0.115,0.326,0.08,0.438c0.176,0.101,0.205,0.244,0.149,0.424c-0.043,0.138-0.099,0.263-0.211,0.365
			c-0.14,0.126-0.183,0.276-0.045,0.437c0.011,0.101,0.047,0.174,0.155,0.088c0.119-0.095,0.227-0.204,0.342-0.309
			c0.005,0.167,0.115,0.23,0.284,0.22C13.422,103.617,13.488,103.477,13.54,103.306z"/>
		<path d="M87.982,109.186c-0.155-0.107-0.266-0.051-0.352,0.098c-0.062,0.108-0.022,0.347-0.228,0.274
			c-0.132-0.047-0.305-0.08-0.395-0.226c-0.037-0.061-0.07-0.13-0.123-0.174c-0.107-0.089-0.269-0.037-0.254,0.06
			c0.044,0.284-0.166,0.392-0.303,0.558c-0.148,0.18-0.111,0.285,0.135,0.335c0.117,0.024,0.183,0.039,0.212,0.181
			c0.058,0.289,0.333,0.37,0.551,0.159c0.172-0.165,0.302-0.373,0.587-0.346c0.06,0.006,0.136-0.054,0.128-0.105
			c-0.044-0.293,0.227-0.386,0.37-0.579C88.193,109.335,88.088,109.259,87.982,109.186z M87.249,109.68
			c0.052,0.056,0.096,0.164,0.201,0.139c-0.173,0.118-0.274,0.175-0.353,0.197c0.088-0.027,0.153-0.098,0.148-0.225
			c0.012-0.167-0.104-0.167-0.21-0.175c0.039,0.002,0.083,0.002,0.144,0.003C87.204,109.636,87.227,109.656,87.249,109.68z
			 M87.04,110.026c-0.015,0.001-0.029,0.002-0.044,0.001C87.011,110.028,87.026,110.027,87.04,110.026z M87.051,110.025
			c0.01-0.001,0.021-0.003,0.031-0.006C87.071,110.021,87.061,110.023,87.051,110.025z M87.808,109.874
			c-0.01-0.244,0.127-0.337-0.092-0.242c-0.037,0.026-0.071,0.05-0.103,0.073c0.017-0.023,0.031-0.048,0.043-0.076
			c0.02,0.001,0.039,0.002,0.061,0.003c0.028-0.169,0.044-0.276,0.048-0.324c0.064-0.107,0.153-0.042,0.423,0.166
			C87.935,109.537,87.798,109.631,87.808,109.874z"/>
		<path d="M105.099,113.887c-0.251-0.139-0.554-0.107-0.649,0.141c-0.079,0.204-0.175,0.257-0.368,0.295
			c-0.256,0.05-0.295,0.164-0.155,0.38c0.085,0.13,0.146,0.246,0.072,0.396c-0.024,0.048-0.018,0.102,0.02,0.132
			c0.169,0.135,0.369,0.07,0.554,0.063c0.177-0.007,0.179-0.155,0.187-0.294c0.015-0.236-0.059-0.482,0.07-0.706
			c0.024,0,0.048,0,0.072-0.001c0.048,0,0.096,0.001,0.144-0.001c0.107-0.004,0.183-0.048,0.208-0.16
			C105.286,113.998,105.199,113.943,105.099,113.887z"/>
		<path d="M9.671,86.539c0.334-0.255,0.621-0.576,1.046-0.705c0.104-0.032,0.234-0.149,0.186-0.309
			c-0.044-0.147-0.18-0.13-0.305-0.144c-0.318,0.049-0.539,0.3-0.823,0.424c-0.171,0.075-0.292,0.274-0.422,0.428
			c-0.092,0.109-0.051,0.227,0.037,0.321C9.484,86.654,9.574,86.614,9.671,86.539z"/>
		<path d="M8.292,45.886c0.124-0.18,0.185-0.386,0.227-0.599c0.032-0.106,0.005-0.198-0.103-0.231
			C8.302,45.021,8.18,44.997,8.1,45.134c-0.104,0.177-0.153,0.375-0.22,0.566c-0.042,0.118-0.095,0.237,0.046,0.313
			C8.083,46.097,8.203,46.015,8.292,45.886z"/>
		<path d="M107.04,12.582c0.065,0.024,0.141,0.019,0.23,0.029c0.078-0.01,0.184,0.001,0.264-0.039
			c0.514-0.255,0.548-0.563,0.114-0.934c-0.184-0.157-0.364-0.138-0.406,0.082c-0.029,0.153-0.082,0.147-0.192,0.169
			c-0.205,0.042-0.333,0.172-0.347,0.395C106.689,12.528,106.893,12.526,107.04,12.582z"/>
		<path d="M111.432,94.544c-0.069,0.066-0.137,0.134-0.212,0.193c-0.295,0.231-0.349,0.493-0.162,0.807
			c0.12,0.202,0.339,0.224,0.493,0.049c0.185-0.211,0.169-0.279-0.165-0.613c0.105-0.062,0.19-0.101,0.262-0.156
			c0.088-0.066,0.118-0.148,0.026-0.241C111.602,94.509,111.53,94.451,111.432,94.544z"/>
		<path d="M81.279,110.641c-0.072-0.031-0.163-0.019-0.2-0.022c-0.141,0.004-0.238-0.008-0.325,0.041
			c-0.068,0.038-0.179,0.014-0.198,0.123c-0.019,0.112,0.064,0.175,0.139,0.23c0.188,0.136,0.401,0.143,0.613,0.081
			c0.125-0.037,0.25-0.098,0.238-0.267C81.535,110.657,81.377,110.684,81.279,110.641z"/>
		<path d="M8.312,25.149c0.18-0.102,0.369-0.151,0.579-0.162c0.15-0.008,0.259-0.114,0.283-0.28
			c-0.039-0.134-0.143-0.158-0.254-0.128c-0.252,0.066-0.502,0.141-0.75,0.222c-0.103,0.034-0.156,0.122-0.106,0.228
			C8.11,25.126,8.175,25.226,8.312,25.149z"/>
		<path d="M107.456,15.294c-0.038,0.15,0.08,0.178,0.186,0.201c0.218,0.048,0.436,0.093,0.656,0.132
			c0.066,0.012,0.15,0.018,0.185-0.063c0.042-0.096-0.017-0.161-0.093-0.204c-0.207-0.116-0.422-0.212-0.662-0.236
			C107.59,15.105,107.49,15.158,107.456,15.294z"/>
		<path d="M92.006,110.593c-0.124,0.071-0.235,0.167-0.363,0.229c-0.087,0.043-0.245,0.001-0.198,0.174
			c0.035,0.128,0.156,0.13,0.217,0.129c0.255,0.006,0.417-0.102,0.575-0.208c0.108-0.073,0.176-0.198,0.096-0.309
			C92.255,110.499,92.115,110.53,92.006,110.593z"/>
		<path d="M114.273,86.259c-0.196-0.164,0.01-0.247,0.073-0.359c0.105,0.012,0.197-0.023,0.286-0.073
			c0.119-0.07,0.29-0.093,0.283-0.283c-0.007-0.197-0.181-0.194-0.31-0.238c-0.191-0.065-0.307-0.224-0.45-0.35
			c-0.132-0.115-0.17-0.204-0.014-0.339c0.174-0.15,0.241-0.333,0.154-0.579c-0.057-0.161-0.043-0.339,0.065-0.513
			c0.271-0.435-0.077-1.206-0.591-1.293c-0.262-0.044-0.402-0.188-0.501-0.399c-0.037-0.08-0.066-0.151-0.15-0.187
			c-0.007-0.082,0.043-0.145,0.072-0.216c0.164-0.079,0.245-0.225,0.285-0.39c0.04-0.167,0.136-0.272,0.292-0.331
			c0.256-0.157,0.268-0.228,0.072-0.432c-0.024-0.024-0.048-0.048-0.072-0.072c-0.105-0.269-0.337-0.094-0.504-0.144
			c-0.072,0-0.144-0.001-0.216-0.001c-0.072,0-0.145,0.001-0.217,0.001c0.072,0,0.144-0.001,0.217-0.001
			c-0.015-0.092-0.219-0.163-0.011-0.281c0.293-0.165,0.307-0.312,0.067-0.529c-0.155-0.139-0.368-0.223-0.39-0.476
			c-0.005-0.051-0.098-0.102-0.147-0.071c-0.216,0.141-0.418,0.056-0.628-0.009c-0.066-0.021-0.145-0.006-0.189,0.069
			c-0.071,0.043-0.066,0.114-0.073,0.184c-0.045,0.455-0.131,0.512-0.575,0.392c-0.027-0.081-0.125-0.174,0.045-0.218
			c0.125-0.032,0.243-0.12,0.23-0.241c-0.035-0.318,0.153-0.319,0.384-0.355c0.388-0.06,0.507-0.171,0.488-0.442
			c-0.023-0.322,0.079-0.574,0.293-0.805c0.124-0.134,0.177-0.272,0.051-0.476c-0.106-0.172-0.228-0.313-0.35-0.464
			c-0.102-0.127,0.065-0.379-0.016-0.576c-0.014-0.033-0.03-0.065-0.045-0.097c0.002-0.138-0.028-0.29,0.144-0.361
			c0.085-0.113,0.21-0.203,0.214-0.364c0.025-0.047,0.05-0.093,0.076-0.14c0-0.048-0.001-0.096-0.001-0.145
			c0,0.048,0,0.096,0.001,0.145c0.047-0.008,0.1-0.01,0.122-0.061c0.162-0.373,0.013-0.624-0.452-0.728
			c-0.107-0.024-0.19-0.052-0.202-0.161c-0.013-0.117,0.093-0.123,0.172-0.139c0.296-0.058,0.358-0.268,0.361-0.529
			c0.002-0.205-0.036-0.418-0.098-0.595c-0.076-0.219-0.153-0.505-0.427-0.584c-0.142-0.041-0.187-0.09-0.204-0.233
			c-0.025-0.211-0.163-0.352-0.384-0.353c-0.19,0-0.305-0.073-0.411-0.229c-0.194-0.287-0.343-0.286-0.587-0.029
			c-0.107,0.113-0.208,0.194-0.269-0.035c-0.021-0.142-0.121-0.291,0.103-0.383c0.147-0.06,0.151-0.239,0.171-0.372
			c0.018-0.117-0.065-0.219-0.183-0.28c-0.117-0.061-0.173,0.003-0.233,0.086c-0.134,0.183-0.329,0.182-0.517,0.138
			c-0.117-0.027-0.229-0.058-0.349-0.055c-0.023-0.183,0.088-0.194,0.235-0.225c0.307-0.064,0.4-0.402,0.197-0.64
			c-0.051-0.183-0.09-0.396-0.328-0.402c-0.196-0.005-0.387,0.281-0.392,0.537c-0.002,0.082-0.016,0.171,0.07,0.227
			c-0.033,0.068,0.132,0.202-0.07,0.215c-0.126-0.183-0.268-0.22-0.427-0.041c-0.021,0.023-0.036,0.092-0.064,0.059
			c-0.22-0.263-0.393,0.01-0.585,0.046c-0.251,0.046-0.362-0.029-0.362-0.292c0-0.245-0.104-0.488-0.008-0.737
			c0.025-0.064,0.009-0.158-0.054-0.198c-0.254-0.164-0.216-0.431-0.255-0.673c-0.013-0.08-0.08-0.167,0.012-0.226
			c0.073-0.047,0.167-0.037,0.235,0.026c0.137,0.126,0.251,0.096,0.371-0.028c0.166-0.172,0.293-0.063,0.422,0.064
			c0.219,0.216,0.438,0.366,0.784,0.417c0.303,0.045,0.679,0.212,0.796,0.603c0.022,0.073,0.044,0.153,0.121,0.159
			c0.103,0.007,0.096-0.089,0.093-0.157c-0.005-0.122,0.066-0.199,0.141-0.279c0.094-0.1,0.072-0.204,0.035-0.331
			c-0.14-0.477-0.218-0.95-0.035-1.449c0.129-0.352,0.242-0.736,0.09-1.114c-0.209-0.518-0.264-1.051-0.231-1.602
			c0.013-0.215,0.003-0.432,0.002-0.648c0-0.083,0.012-0.171-0.071-0.228c0.035-0.498-0.139-0.932-0.414-1.331
			c-0.167-0.243-0.251-0.482-0.068-0.759c0.091-0.138,0.104-0.338,0.02-0.445c-0.155-0.199-0.231-0.427-0.347-0.639
			c-0.152-0.277-0.159-0.288,0.153-0.357c0.438-0.097,0.581-0.255,0.502-0.652c-0.063-0.319-0.012-0.673-0.279-0.938
			c0.41-0.122,0.629-0.369,0.554-0.67c-0.117-0.47-0.274-0.929-0.412-1.394c-0.032-0.106-0.099-0.158-0.209-0.161
			c-0.093-0.002-0.17,0.033-0.202,0.119c-0.127,0.344-0.375,0.604-0.597,0.883c-0.179,0.031-0.301-0.085-0.404-0.191
			c-0.152-0.158-0.329-0.243-0.542-0.275c0.559-0.066,0.556-0.067,0.732-0.602c0.016-0.049,0.07-0.091,0.073-0.154
			c0.07-0.108,0.025-0.206-0.044-0.287c-0.073-0.086-0.11-0.177-0.099-0.288c0.046-0.026,0.091-0.053,0.137-0.079
			c0.226-0.03,0.359-0.187,0.425-0.378c0.062-0.179-0.107-0.259-0.223-0.362c-0.158-0.141-0.177-0.595-0.02-0.776
			c0.201-0.232,0.26-0.495,0.256-0.785c0.111-0.174,0.108-0.377,0.141-0.57c0.021-0.123-0.006-0.239-0.142-0.295v0
			c-0.089-0.135-0.176-0.271-0.359-0.29c-0.284-0.412-0.716-0.429-1.153-0.432c-0.053-0.262-0.38-0.083-0.477-0.315
			c0.116-0.075,0.249-0.034,0.372-0.044c0.154-0.013,0.316,0.035,0.461-0.038c0.326-0.164,0.591-0.133,0.775,0.211
			c0.048,0.09,0.154,0.144,0.182,0.038c0.07-0.255,0.194-0.09,0.308-0.074c0.12,0.018,0.253,0.021,0.305-0.121
			c0.039-0.108,0.037-0.22-0.125-0.233c-0.048,0-0.096-0.001-0.144-0.001c-0.008-0.402-0.145-0.607-0.423-0.569
			c-0.375,0.052-0.783-0.086-1.124,0.183c-0.026,0.021-0.067-0.001-0.088-0.047c0.017-0.126,0.133-0.185,0.214-0.267
			c0.095-0.098,0.154-0.214,0.206-0.334c0.147-0.337,0.084-0.512-0.249-0.669c-0.172-0.081-0.281-0.18-0.194-0.385
			c0.048,0,0.095,0,0.143,0c0.031,0.223,0.174,0.289,0.382,0.29c0.239,0.002,0.431-0.112,0.628-0.219
			c0.226-0.117,0.358-0.327,0.27-0.549c-0.122-0.31-0.109-0.599-0.06-0.913c0.072-0.461-0.132-0.681-0.605-0.7
			c-0.084-0.003-0.168-0.002-0.252-0.003c-0.01-0.143-0.091-0.208-0.229-0.216c-0.124-0.007-0.178-0.079-0.206-0.2
			c-0.093-0.399-0.15-0.438-0.574-0.449c0.049-0.118,0.146-0.154,0.261-0.141c0.138,0.015,0.257-0.044,0.38-0.083
			c0.119-0.038,0.206-0.123,0.217-0.257c0.012-0.145-0.08-0.192-0.2-0.251c-0.156-0.077-0.342-0.116-0.459-0.257
			c-0.121-0.145-0.271-0.17-0.447-0.165c-0.298,0.009-0.596,0.008-0.894,0c-0.208-0.005-0.319,0.072-0.302,0.291
			c-0.002,0.131-0.098,0.129-0.192,0.153c-0.145,0.038-0.303,0.079-0.314,0.278c-0.309,0.018-0.614-0.164-0.639-0.413
			c-0.025-0.247-0.091-0.505,0.063-0.74c0.066-0.112,0.178-0.206,0.146-0.359c0.104-0.007,0.161-0.057,0.127-0.164
			c-0.057-0.18-0.218-0.182-0.385-0.204c0.2-0.079,0.312-0.259,0.498-0.331c0.208-0.082,0.292-0.236,0.264-0.455v0
			c0.293-0.103,0.552-0.056,0.771,0.172c0.016,0.017,0.037,0.031,0.057,0.043c0.326,0.188,0.634,0.098,0.803-0.232
			c0.147-0.288,0.112-0.383-0.26-0.706c-0.004-0.105,0.046-0.175,0.142-0.215c0.229-0.258,0.277-0.528,0.123-0.855
			c-0.116-0.245-0.218-0.505-0.196-0.792c0.015-0.204-0.013-0.396-0.1-0.593c-0.134-0.302-0.078-0.427,0.191-0.63
			c0.047-0.036,0.091-0.079,0.128-0.126c0.098-0.128,0.115-0.273,0.009-0.394c-0.091-0.104-0.209-0.095-0.309,0.017
			c-0.056,0.063-0.13,0.074-0.185,0.005c-0.041-0.052-0.103-0.121-0.055-0.192c0.048-0.07,0.136-0.089,0.218-0.113
			c0.454-0.134,0.537-0.245,0.537-0.701c0-0.144-0.016-0.29,0.003-0.431c0.039-0.288-0.046-0.512-0.292-0.671
			c-0.047-0.121-0.17-0.231-0.135-0.361c0.074-0.27,0.127-0.516-0.18-0.68c-0.017-0.009-0.018-0.064-0.013-0.096
			c0.059-0.384,0.129-0.769,0.485-1.004c0.187-0.123,0.265-0.262,0.155-0.474c-0.027-0.052-0.058-0.112-0.058-0.167
			c0.008-0.61,0.021-1.22,0.033-1.829c0.017-0.131-0.045-0.226-0.132-0.318c-0.114-0.121-0.128-0.25,0.011-0.371
			c0.47,0.442,0.636,0.431,0.849-0.046c0.066-0.148,0.132-0.315-0.01-0.43c-0.145-0.118-0.305-0.092-0.435,0.075
			c-0.097,0.126-0.174,0.093-0.211-0.063c-0.084-0.351-0.22-0.388-0.505-0.145c-0.068-0.005-0.171,0.017-0.185-0.058
			c-0.034-0.173-0.099-0.308-0.218-0.45c-0.097-0.116-0.05-0.301,0.187-0.285c0.197-0.027,0.397-0.048,0.577-0.144
			c0.089-0.137,0.251-0.168,0.378-0.249c0.116-0.074,0.294-0.076,0.267-0.274c-0.028-0.199-0.162-0.278-0.355-0.271
			c-0.143-0.199-0.231-0.198-0.434,0.002c-0.001,0.023-0.001,0.047-0.002,0.07c-0.141-0.002-0.209-0.077-0.215-0.215
			c0.049-0.12,0.143-0.24,0-0.36c-0.302-0.038-0.241-0.336-0.36-0.504c-0.07-0.172-0.222-0.142-0.36-0.144
			c-0.029-0.174,0.086-0.388-0.144-0.504c-0.149-0.112-0.354-0.032-0.503-0.145c0.002-0.106-0.01-0.21,0.057-0.31
			c0.146-0.22,0.117-0.455,0.018-0.681c-0.101-0.231-0.14-0.399,0.193-0.468c0.182-0.038,0.345-0.431,0.299-0.602
			c-0.063-0.237-0.26-0.169-0.415-0.169c-0.214,0-0.316-0.099-0.386-0.296c-0.083-0.232-0.171-0.524-0.451-0.554
			c-0.311-0.034-0.285-0.208-0.233-0.393c0.074-0.263-0.073-0.315-0.271-0.343c-0.138-0.02-0.29,0.042-0.434-0.08
			c0.346,0.067,0.428-0.175,0.531-0.397c0.035-0.075,0.107-0.136,0.129-0.212c0.034-0.119,0.083-0.137,0.203-0.112
			c0.327,0.07,0.606-0.035,0.832-0.281c0.268,0.01,0.533-0.213,0.806-0.008c0.022,0.017,0.097-0.012,0.13-0.04
			c0.162-0.137,0.331-0.122,0.499-0.025c0.179,0.103,0.373,0.069,0.562,0.07c0.188,0.001,0.276-0.116,0.222-0.281
			c-0.06-0.183,0.003-0.226,0.156-0.316c0.169-0.099,0.397-0.28,0.334-0.494c-0.096-0.325-0.118-0.717-0.548-0.896
			c0.304-0.043,0.304-0.043,0.576-0.318c0.035-0.006,0.075-0.004,0.105-0.021c0.223-0.12,0.271-0.438,0.564-0.49
			c0.06-0.01,0.049-0.12,0.023-0.194c-0.06-0.167-0.167-0.249-0.353-0.235c-0.152,0.011-0.317-0.038-0.277-0.221
			c0.068-0.315-0.136-0.225-0.251-0.169c-0.139,0.067-0.254,0.149-0.448,0.056c0.202-0.146,0.226-0.329,0.206-0.527
			c0.193-0.025,0.378-0.114,0.393-0.308c0.022-0.291-0.1-0.58-0.063-0.88c0.006-0.052-0.083-0.073-0.13-0.108
			c-0.19-0.138-0.429-0.126-0.632-0.218c-0.093-0.16-0.122-0.397-0.303-0.456c-0.231-0.076-0.044-0.178-0.058-0.264
			c0.037-0.117,0.16-0.135,0.237-0.205c0.153-0.14,0.197-0.553,0.042-0.603c-0.359-0.117-0.244-0.398-0.277-0.631
			c0.023-0.001,0.047-0.001,0.07-0.002c0.201-0.117,0.454,0,0.65-0.143c0.024,0,0.048,0,0.071-0.001
			c0.232-0.079,0.165-0.217,0.072-0.361c-0.047-0.141-0.183-0.14-0.291-0.181c-0.38-0.143-0.633-0.402-0.852-0.75
			c-0.184-0.293-0.227-0.62-0.371-0.916c-0.071-0.147-0.159-0.278-0.323-0.306c-0.553-0.094-0.963,0.272-0.974,0.856l0,0
			c-0.156-0.007-0.28,0.027-0.288,0.217c-0.001,0.047-0.001,0.094-0.002,0.141c-0.22,0.071-0.434,0.134-0.636-0.058
			c-0.054-0.052-0.154-0.055-0.232-0.082c-0.328-0.114-0.655-0.125-1.005-0.082c-0.571,0.07-1.124-0.175-1.704-0.156
			c-0.194,0.006-0.405-0.108-0.614-0.154c-0.117-0.026-0.3-0.07-0.351-0.214c-0.1-0.279-0.341-0.384-0.576-0.428
			c-0.356-0.066-0.715-0.127-1.073-0.179c-0.273-0.04-0.545-0.025-0.762-0.231c-0.099-0.094-0.224-0.07-0.342-0.071
			c-0.371-0.002-0.743,0.002-1.114-0.005c-0.065-0.001-0.14,0.046-0.193-0.084c-0.138-0.338-0.619-0.531-0.966-0.43
			c-0.156,0.045-0.3,0.105-0.484,0.044c-0.277-0.092-0.354-0.023-0.392,0.272c-0.013,0.101-0.012,0.195-0.145,0.202
			c-0.084-0.001-0.165,0.003-0.238,0.058c-0.203,0.153-0.429,0.126-0.597-0.02c-0.243-0.211-0.641-0.227-0.754-0.606
			c-0.018-0.061-0.127-0.108-0.204-0.136c-0.249-0.092-0.416,0.01-0.438,0.277c-0.014,0.171-0.036,0.281-0.251,0.218
			c-0.169-0.049-0.336,0.036-0.487,0.088c-0.202,0.069-0.395,0.064-0.552-0.036c-0.334-0.214-0.563-0.026-0.806,0.156
			c-0.384-0.025-0.518-0.213-0.358-0.503c0.153-0.002,0.308,0.012,0.458-0.008c0.308-0.04,0.421-0.218,0.335-0.497
			c-0.025-0.103-0.052-0.205-0.073-0.308c-0.017-0.085-0.041-0.179-0.144-0.166c-0.09,0.012-0.146,0.125-0.122,0.188
			c0.053,0.136-0.062,0.192-0.094,0.285c-0.048,0-0.096,0-0.144,0c-0.007-0.087-0.174-0.126-0.078-0.242
			c0.084-0.102,0.012-0.137-0.061-0.19c-0.245-0.179-0.332-0.168-0.43,0.124c-0.06,0.179-0.143,0.222-0.271,0.104
			c-0.247-0.227-0.239-0.235-0.339,0.109c-0.01,0.034-0.03,0.064-0.046,0.096c-0.919-0.075-1.82,0.21-2.738,0.145
			c-0.217-0.029-0.43,0.014-0.658-0.08c-0.16-0.066-0.398,0.061-0.608,0.06c-0.01,0-0.021,0.107-0.031,0.164l0,0
			c-0.175,0-0.351,0-0.527,0c-0.41,0-0.41,0-0.266-0.36l0,0c0.061-0.035,0.139-0.063,0.088-0.159c-0.1-0.188-0.272-0.268-0.47-0.27
			c-0.363-0.004-0.711,0.09-1.033,0.246c-0.16,0.078-0.355,0.169-0.325,0.421c0.01,0.086-0.069,0.128-0.147,0.117
			c-0.246-0.033-0.49,0.09-0.722-0.209c-0.182-0.236-0.2-0.236,0.069-0.302c0.17-0.042,0.281-0.174,0.212-0.352
			c-0.119-0.311-0.468-0.339-0.701-0.069c-0.144,0-0.288-0.005-0.431,0.001c-0.176,0.007-0.231-0.064-0.203-0.24
			c0.063-0.398-0.091-0.59-0.451-0.464c-0.325,0.114-0.625,0.063-0.938,0.053c-0.357-0.012-0.711-0.002-1.07-0.054
			c-0.372-0.053-0.766-0.065-1.142,0.018c-0.226,0.05-0.424,0.069-0.583-0.133c-0.058-0.073-0.127-0.099-0.22-0.056
			c-0.171,0.079-0.375,0.059-0.53,0.193c-0.087,0.075-0.173,0.052-0.289,0.005c-0.226-0.092-0.46-0.137-0.726-0.062
			c-0.302,0.085-0.62,0.144-0.951,0.053c-0.124-0.034-0.314,0.007-0.393,0.181C72.217,8.828,71.965,8.805,71.822,9
			c-0.072,0.001-0.155-0.022-0.213,0.006c-0.452,0.219-0.892,0.103-1.353,0.013c-0.289-0.057-0.66-0.145-0.902,0.059
			c-0.419,0.353-0.952,0.063-1.36,0.36c0.17-0.485,0.099-0.533-0.281-0.654c-0.096-0.002-0.191-0.003-0.287-0.005
			c-0.206-0.078-0.369,0.169-0.577,0.077c-0.102,0.035-0.159,0.158-0.286,0.146c-0.072-0.001-0.166-0.021-0.204,0.039
			c-0.095,0.148-0.206,0.16-0.362,0.11c-0.087-0.028-0.196-0.026-0.286-0.003c-0.537,0.138-1.07-0.04-1.531-0.201
			c-0.558-0.194-0.999,0.084-1.493,0.092c-0.031,0-0.06,0.068-0.09,0.105c-0.156,0.078-0.33,0.137-0.463-0.007
			c-0.146-0.158-0.288-0.131-0.45-0.063c-0.122,0.051-0.248,0.084-0.383,0.068c-0.295-0.142-0.611-0.152-0.929-0.142
			c-0.105,0.003-0.162,0.057-0.221,0.147c-0.236,0.363-0.584,0.544-1.014,0.573c-0.147-0.018-0.215,0.162-0.362,0.145
			c-0.112-0.064-0.204-0.178-0.355-0.147c-0.113-0.213-0.377-0.119-0.526-0.258c-0.046-0.043-0.131-0.005-0.154-0.112
			c-0.086-0.407-0.188-0.438-0.576-0.235c-0.219,0.115-0.444,0.181-0.712,0.119c-0.297-0.068-0.612-0.063-0.919-0.089
			c-0.074-0.175-0.23-0.149-0.371-0.142c-0.169,0.008-0.289-0.031-0.386-0.194c-0.082-0.137-0.191-0.284-0.377-0.31
			c-0.466-0.064-0.901-0.252-1.394-0.241c-0.388,0.009-0.749-0.027-1.031,0.283c-0.18-0.095-0.143-0.379-0.357-0.394
			c-0.298-0.021-0.626-0.078-0.891,0.018C50.49,8.25,50.36,8.193,50.191,8.087c-0.267-0.168-0.473-0.137-0.67,0.109
			c-0.102,0.127-0.224,0.16-0.378,0.158c-0.384-0.006-0.769,0.008-1.152-0.007c-0.132-0.005-0.261,0.114-0.38,0.029
			c-0.163-0.116-0.314-0.145-0.438,0.025c-0.115,0.158-0.106,0.333,0.007,0.501c0.056,0.084,0.156,0.168,0.057,0.284
			c-0.11,0.128-0.252,0.131-0.394,0.073c-0.086-0.035-0.149-0.12-0.257-0.111c-0.384,0.033-0.768,0.042-1.153,0.001
			c-0.116-0.012-0.232,0.003-0.352,0.038c-0.403,0.119-0.809,0.242-1.223,0.306c-0.192,0.03-0.387,0.147-0.609,0.056
			c0.071-0.167,0.331-0.324,0.07-0.516c-0.16-0.118-0.491-0.014-0.602,0.16c-0.198,0.309,0.129,0.331,0.261,0.451
			c-0.057,0.1-0.174,0.12-0.2,0.223c-0.024,0.001-0.047,0.001-0.071,0.001c-0.395-0.067-0.667,0.233-0.962,0.39
			c-0.216,0.116-0.456,0.378-0.427,0.761c-0.161-0.164-0.322-0.128-0.475-0.146c-0.437-0.051-0.873,0.142-1.309,0.004
			c-0.26-0.164-0.525-0.176-0.801-0.036c-0.132,0.067-0.281,0.027-0.422,0.035c-0.399,0.066-0.815-0.055-1.208,0.122
			c-0.137,0.062-0.245,0.028-0.207-0.191c0.069-0.391-0.048-0.498-0.449-0.511c-0.231-0.007-0.478,0.074-0.686-0.109
			c-0.058-0.051-0.137-0.031-0.197,0.019c-0.281,0.229-0.614,0.392-0.859,0.668c-0.274-0.016-0.528,0.075-0.79,0.124
			c-0.329,0.062-0.598,0.171-0.845,0.387c-0.204,0.178-0.445,0.187-0.728,0.069c0.111-0.107,0.21-0.188,0.249-0.313
			c0.037-0.119,0.01-0.186-0.123-0.189c-0.071-0.049-0.142-0.098-0.213-0.147c-0.033-0.217-0.206-0.316-0.36-0.432
			c-0.069-0.028-0.117-0.076-0.145-0.145c-0.177-0.141-0.398,0.063-0.576-0.072c-0.168-0.008-0.332-0.022-0.433,0.164
			c-0.033,0.062-0.103,0.04-0.144-0.02c-0.24-0.114-0.48-0.114-0.721,0c-0.107,0.085-0.144,0.239-0.287,0.288
			c-0.156-0.224-0.345-0.195-0.505-0.028c-0.197,0.205-0.394,0.369-0.702,0.325c-0.05-0.007-0.108,0.041-0.163,0.064
			c-0.075-0.031-0.148-0.092-0.232-0.07c-0.258,0.067-0.339-0.108-0.418-0.291l0,0c-0.052-0.135-0.164-0.152-0.288-0.144
			c-0.12,0-0.24,0-0.36,0c-0.558,0.03-1.123-0.073-1.676,0.074c-0.352,0.094-0.698,0.07-1.059,0.023
			c-0.259-0.034-0.569-0.156-0.798,0.119c-0.388,0.298-1.701,0.318-1.952,0.029c-0.092,0.201-0.458,0.27-0.669,0.118
			c-0.144-0.104-0.241-0.33-0.473-0.126c-0.221,0.194-0.313-0.248-0.531-0.121c-0.083,0.049-0.199,0.003-0.271,0.078
			c-0.088,0.092-0.219,0.088-0.317,0.16c-0.161,0.119-0.338,0.118-0.499,0.009c-0.141-0.096-0.253-0.022-0.392-0.002
			c-0.36,0.053-0.716,0.31-1.096,0.073c-0.141-0.006-0.266,0.029-0.36,0.142c-0.075,0.001-0.136,0.03-0.189,0.083
			c-0.204,0.203-0.438,0.307-0.73,0.379c-0.325,0.08-0.701,0.12-0.954,0.402c-0.072,0.048-0.144,0.097-0.216,0.145
			c-0.108,0.038-0.032,0.174-0.115,0.228c-0.177-0.237-0.346-0.272-0.351-0.116c-0.008,0.251-0.21,0.392-0.254,0.61l0,0
			c-0.235,0.074-0.496,0.021-0.722,0.143c-0.224,0.115-0.424,0.186-0.661-0.026c-0.147-0.131-0.36,0.029-0.354,0.242
			c0.006,0.222-0.058,0.326-0.31,0.373c-0.473,0.089-0.94,0.234-1.198,0.707c-0.092-0.002-0.155,0.051-0.217,0.111
			c-0.098,0.096-0.205,0.208-0.107,0.34c0.09,0.12,0.218,0.03,0.326-0.018c0.584-0.254,1.162-0.525,1.756-0.753
			c0.214-0.082,0.448-0.146,0.668-0.214c0.276-0.085,0.435-0.081,0.573,0.167c0.003,0.006,0.023,0.006,0.035,0.005
			c0.268-0.013,0.556,0.076,0.787-0.142c0.096-0.001,0.144,0.048,0.144,0.144c0,0.024,0,0.048,0,0.072
			c0.028,0.211,0.157,0.296,0.36,0.289c0.024,0.024,0.048,0.048,0.071,0.072c-0.012,0.082,0.111,0.223-0.1,0.219
			c-0.093-0.002-0.151,0.058-0.187,0.141c-0.082,0.076-0.151,0.177-0.288,0.144c-0.16-0.071-0.307-0.164-0.433-0.288
			c-0.124-0.008-0.235,0.009-0.288,0.144c-0.121,0.116-0.317,0.011-0.432,0.144l0,0c-0.128,0.028-0.259,0.049-0.361,0.144
			c-0.123,0.124-0.311,0.14-0.419,0.311c-0.186,0.295-0.328,0.314-0.658,0.169c-0.169-0.074-0.317-0.075-0.356,0.138
			c-0.032,0.173-0.075,0.26-0.279,0.204c-0.093-0.026-0.157,0.112-0.111,0.172c0.174,0.222-0.014,0.34-0.132,0.442
			c-0.367,0.316-0.623,0.682-0.643,1.183c-0.003,0.087-0.035,0.18-0.101,0.223c-0.205,0.133-0.326,0.349-0.514,0.494
			c-0.279,0.216-0.382,0.507-0.391,0.845c-0.142,0.115-0.152,0.273-0.141,0.437c0.019,0.246-0.196,0.412-0.221,0.644
			c-0.069,0.027-0.117,0.075-0.143,0.144c-0.133,0.152-0.085,0.267,0.072,0.361c0.024,0.048,0.048,0.095,0.072,0.143
			c-0.072,0.256-0.168,0.508-0.208,0.769c-0.043,0.276,0.075,0.34,0.327,0.237c0.222-0.09,0.459-0.143,0.67-0.345
			c-0.01,0.215-0.066,0.322-0.234,0.367c-0.144,0.038-0.293,0.129-0.297,0.28c-0.007,0.322-0.173,0.417-0.461,0.438
			c-0.136,0.01-0.228,0.13-0.222,0.284c0.007,0.177,0.131,0.206,0.277,0.206c0.191-0.001,0.383,0.016,0.559-0.093
			c0.065-0.04,0.171-0.103,0.205,0.018c0.029,0.104-0.079,0.127-0.164,0.145c-0.116,0.024-0.234,0.046-0.348,0.078
			c-0.127,0.036-0.255,0.074-0.317,0.21c-0.378,0.062-0.378,0.56-0.745,0.648c-0.06,0.014-0.195,0.105-0.135,0.214
			c0.069,0.125,0.18,0.046,0.284,0.015c0.569-0.168,1.094-0.463,1.687-0.564c0.174-0.03,0.397-0.054,0.421-0.313
			c0.076-0.181,0.2-0.135,0.316-0.055c0.177,0.123,0.325,0.276,0.404,0.484c-0.198,0.138-0.354,0.32-0.517,0.494
			c-0.147,0.157,0.061,0.512-0.301,0.564c-0.12-0.509-0.2-0.557-0.548-0.331c-0.273,0.006-0.416,0.149-0.434,0.418
			c-0.01,0.138-0.059,0.266-0.161,0.349C8.803,25.638,8.484,26.02,8.02,26.19c-0.23,0.084-0.426,0.209-0.62,0.346
			c-0.092,0.066-0.241,0.094-0.214,0.252c0.026,0.146,0.151,0.208,0.273,0.261c0.154,0.067,0.289,0.047,0.434-0.054
			c0.4-0.279,0.844-0.481,1.274-0.708c0.175-0.092,0.294-0.097,0.327,0.136c0.004,0.031,0.035,0.06,0.058,0.087
			c0.166,0.195,0.147,0.36-0.089,0.476c-0.168,0.082-0.247,0.216-0.272,0.392c-0.137,0.068-0.222,0.209-0.39,0.244
			c-0.098,0.02-0.193,0.117-0.175,0.242c0.02,0.129,0.113,0.21,0.242,0.23c0.082,0.013,0.167,0.005,0.251,0.006
			c0.124,0.008,0.235-0.01,0.289-0.143c0.121-0.073,0.239-0.151,0.364-0.216c0.078-0.041,0.18-0.127,0.252-0.021
			c0.079,0.116-0.034,0.192-0.11,0.263c-0.145,0.135-0.331,0.226-0.434,0.406c-0.113,0.18-0.226,0.304-0.486,0.228
			c-0.229-0.067-0.461,0.106-0.533,0.281c-0.127,0.311-0.252,0.241-0.433,0.093c0.16-0.144,0.399-0.304,0.234-0.521
			c-0.144-0.189-0.394-0.083-0.586,0.036c-0.01,0.006-0.018,0.016-0.028,0.022c-0.226,0.128-0.416,0.308-0.639,0.446
			c-0.203,0.126-0.407,0.305-0.501,0.548c-0.078,0.201,0.209,0.117,0.225,0.257c0.001,0.012,0.007,0.024,0.005,0.035
			c-0.038,0.3,0.186,0.305,0.488,0.325c-0.437,0.323-0.397,0.673-0.24,1.05c0.097,0.234,0.301,0.326,0.494,0.16
			c0.242-0.209,0.535-0.366,0.705-0.653c0.048-0.003,0.106,0.01,0.142-0.013c0.51-0.328,1.073-0.547,1.627-0.781
			c0.46-0.195,0.955-0.289,1.466-0.538c-0.112,0.266-0.25,0.375-0.457,0.393c-0.095,0.008-0.189-0.005-0.275,0.059
			c-0.297,0.22-0.607,0.42-0.894,0.657c-0.401,0.332-0.584,0.832-0.981,1.162c-0.123,0.102-0.192,0.283-0.062,0.454
			c0.049,0.064,0.04,0.099-0.041,0.123c-0.145,0.044-0.263,0.231-0.446,0.053c-0.099-0.096-0.208-0.011-0.207,0.088
			c0.002,0.198-0.163,0.286-0.233,0.433c-0.096,0.181-0.277,0.289-0.387,0.465c-0.131,0.209-0.201,0.375,0.052,0.54
			c0.125,0.081,0.143,0.208,0.09,0.35c-0.045,0.122-0.078,0.249-0.116,0.374c-0.181,0.291-0.142,0.615-0.142,0.933
			c0,0.136,0.08,0.25,0.198,0.269c0.178,0.029,0.222,0.106,0.246,0.277c0.031,0.222,0.273,0.381,0.4,0.281
			c0.181-0.143,0.407-0.18,0.588-0.33c0.567-0.468,1.254-0.718,1.931-0.975c0.29-0.11,0.538,0.069,0.761,0.223
			c0.099,0.069,0.094,0.224-0.012,0.315c-0.097,0.083-0.198,0.185-0.347,0.158c-0.234-0.041-0.391,0.084-0.517,0.252
			c-0.11,0.148-0.261,0.237-0.399,0.349c-0.198,0.16-0.449,0.302-0.401,0.626c0,0.024,0,0.048,0,0.072
			c-0.134,0.053-0.151,0.164-0.145,0.288c-0.14,0.073-0.234,0.199-0.34,0.308c-0.242,0.247-0.235,0.376,0.066,0.544
			c0.125,0.07,0.115,0.115,0.068,0.213c-0.035,0.074-0.055,0.154-0.082,0.232c-0.139,0.008-0.214,0.077-0.213,0.22
			c-0.001,0.046-0.003,0.093-0.004,0.139c-0.023,0.001-0.046,0.002-0.069,0.004c-0.426,0.531-0.62,1.135-0.574,1.816
			c0.005,0.076,0.036,0.166,0.106,0.17c0.335,0.021,0.233,0.222,0.167,0.396c-0.044,0.117,0.002,0.183,0.086,0.241
			c0.096,0.066,0.158-0.006,0.213-0.067c0.139-0.153,0.297-0.275,0.491-0.35c0.511-0.196,0.927,0.061,0.947,0.598
			c0.006,0.166,0.074,0.302,0.142,0.437c0.171,0.339,0.224,0.648-0.124,0.918c-0.071,0.055-0.107,0.156-0.158,0.235
			c-0.192,0.219-0.218,0.392-0.02,0.475c0.24,0.1,0.02,0.167,0.02,0.246c-0.168,0.192-0.336,0.384-0.504,0.577
			c-0.179,0.179-0.308,0.393-0.43,0.611c-0.165,0.294-0.082,0.448,0.245,0.452c0.472,0.006,0.53,0.062,0.569,0.399
			c0.017,0.143-0.067,0.194-0.13,0.271c-0.127,0.157-0.277,0.298-0.391,0.464c-0.186,0.272-0.068,0.481,0.198,0.628
			c0.238,0.132,0.44,0.231,0.71,0.14c0.066-0.022,0.15,0.049,0.173,0.11c0.196,0.515,0.515,0.52,0.917,0.239
			c0.071-0.05,0.16-0.055,0.222,0.032c0.104,0.148-0.069,0.106-0.109,0.15c-0.148,0.161-0.244,0.543-0.131,0.661
			c0.158,0.163,0.337,0.116,0.521,0.011c0.198-0.114,0.142,0.066,0.159,0.156c-0.206,0.098-0.219,0.325-0.33,0.484
			c-0.157,0.226-0.082,0.342,0.114,0.454c-0.024,0.072-0.048,0.144-0.072,0.216c-0.378,0.196-0.765,0.362-1.205,0.257
			c-0.134-0.032-0.314-0.086-0.34,0.066c-0.057,0.337-0.346,0.572-0.35,0.931c-0.14-0.02-0.268-0.035-0.394-0.058
			c-0.245-0.045-0.352,0.031-0.375,0.28c-0.007,0.071,0.002,0.144-0.002,0.215c-0.011,0.185,0.035,0.366,0.235,0.381
			c0.203,0.016,0.276-0.15,0.271-0.342c0.115-0.064,0.212-0.141,0.216-0.288c0.04,0.029,0.067,0.065,0.069,0.118
			c0.004,0.144-0.001,0.319,0.158,0.364c0.171,0.048,0.226-0.131,0.307-0.245c0.144-0.206,0.337-0.366,0.523-0.532
			c0.077-0.069,0.223-0.102,0.216,0.025c-0.019,0.337-0.04,0.746-0.301,0.944c-0.416,0.316-0.552,0.791-0.841,1.174
			c-0.118,0.157-0.095,0.369-0.008,0.548c0.085,0.174,0.227,0.227,0.418,0.155c0.071-0.027,0.099,0.041,0.104,0.106
			c0.007,0.081-0.015,0.171,0.074,0.225c0.073,0.124,0.361,0.036,0.309,0.229c-0.086,0.315,0.099,0.658-0.138,0.955
			c-0.142,0.178-0.106,0.4-0.066,0.62c0.06,0.333,0.231,0.675-0.028,1.008c-0.041,0.052-0.041,0.15-0.132,0.13
			c-0.348-0.077-0.52,0.176-0.696,0.384c-0.337,0.396-0.843,0.652-1.004,1.197c-0.011,0.037-0.075,0.056-0.11,0.089
			c-0.318,0.305-0.409,0.716-0.508,1.119c-0.036,0.145,0.065,0.256,0.198,0.305c0.125,0.046,0.2-0.053,0.265-0.139
			c0.063-0.084,0.091-0.198,0.145-0.202c0.455,0.173,0.397,0.544,0.42,0.885c0.001,0.018,0.031,0.034,0.047,0.052
			c0.075,0.111,0.19,0.059,0.289,0.071c0.182-0.07,0.355-0.084,0.504,0.072c0.023,0.209-0.12,0.346-0.217,0.504
			c-0.227,0.117-0.116,0.331-0.144,0.505c-0.175,0.178-0.333,0.37-0.638,0.235c-0.171-0.076-0.29,0.049-0.371,0.197
			C8.86,62.808,8.808,63.042,8.6,63.164c-0.107,0.062-0.195,0.121-0.203,0.266c-0.008,0.145,0.065,0.235,0.193,0.307
			c-0.154,0.112-0.284,0.196-0.401,0.294c-0.154,0.129-0.361,0.236-0.405,0.435c-0.042,0.188-0.154,0.313-0.249,0.46
			c-0.173,0.03-0.388-0.086-0.504,0.145v0c-0.102,0.069-0.074,0.203-0.145,0.288l0,0c-0.155,0.131-0.304,0.478-0.226,0.609
			c0.103,0.175,0.015,0.245-0.106,0.344c-0.184,0.151-0.329,0.359-0.209,0.594c0.095,0.187,0.182,0.34,0.116,0.561
			c-0.058,0.194,0.113,0.268,0.257,0.331c0.081,0.036,0.171,0.124,0.257,0.016c0.093-0.117,0.064-0.247,0.015-0.374
			c-0.009-0.022-0.014-0.046-0.024-0.067c-0.101-0.211-0.046-0.363,0.172-0.453c0.149,0.275,0.462,0.404,0.758,0.314
			c0.164-0.02,0.117,0.172,0.216,0.216h0c-0.028,0.042-0.065,0.071-0.118,0.065c-0.402-0.049-0.405-0.051-0.531,0.317
			c-0.028,0.083-0.073,0.108-0.15,0.124c-0.324,0.067-0.508,0.294-0.641,0.576c-0.105,0.129-0.207,0.231-0.408,0.224
			c-0.269-0.01-0.302,0.052-0.155,0.292c0.081,0.133,0.078,0.214,0.001,0.341c-0.128,0.211-0.233,0.437-0.337,0.661
			c-0.057,0.122-0.082,0.265,0.029,0.364c0.118,0.106,0.261,0.089,0.392-0.002c0.039-0.027,0.078-0.053,0.118-0.079l0,0
			c0.172-0.02,0.269-0.115,0.288-0.289c0.005-0.146,0.101-0.225,0.216-0.288c0.124,0.008,0.235-0.01,0.289-0.143
			c0.045-0.013,0.092-0.021,0.135-0.04c0.067-0.028,0.127-0.153,0.203-0.041c0.055,0.081-0.019,0.155-0.079,0.215
			c-0.143,0.144-0.306,0.272-0.424,0.433c-0.2,0.274-0.499,0.471-0.628,0.8c-0.031,0.076-0.114,0.163-0.055,0.231
			c0.175,0.201,0.015,0.311-0.112,0.395c-0.295,0.195-0.515,0.495-0.863,0.616c-0.056,0.02-0.105,0.064-0.098,0.133
			c0.009,0.084,0.071,0.12,0.146,0.132c0.059,0.009,0.119,0.009,0.179,0.006c0.199-0.009,0.258,0.06,0.179,0.259
			c-0.04,0.102-0.122,0.215-0.05,0.34c0.127,0.22,0.055,0.425-0.046,0.627c-0.14,0.21,0.041,0.298,0.159,0.399
			c0.174,0.149,0.349,0.093,0.52-0.019c0.132-0.087,0.187-0.181,0.135-0.354c-0.089-0.301-0.017-0.471,0.277-0.588
			c0.224-0.089,0.236-0.197,0.133-0.375c-0.017-0.055-0.066-0.131-0.046-0.163c0.243-0.377,0.106-0.728-0.07-1.069
			c-0.087-0.168-0.05-0.286,0.066-0.412c0.16-0.174,0.357-0.313,0.483-0.518c0.461-0.313,0.95-0.592,1.299-1.043
			c0.099-0.128,0.192-0.102,0.296,0.004c0.113,0.116,0.241,0.295,0.416,0.197c0.314-0.176,0.197,0.077,0.223,0.194v0
			c-0.117,0.129-0.222,0.259-0.073,0.433c0.028,0.062,0.084,0.071,0.143,0.073c-0.047,0.134-0.225,0.19-0.215,0.359
			c-0.12,0.096-0.24,0.192-0.36,0.289c-0.098-0.005-0.18,0.021-0.266,0.081c-0.244,0.171-0.266,0.412-0.238,0.671
			c0.026,0.238-0.013,0.4-0.3,0.456c-0.162,0.032-0.347,0.087-0.47,0.241c-0.083,0.104-0.131,0.206-0.061,0.326
			c0.069,0.12,0.171,0.076,0.284,0.057c0.205-0.034,0.421-0.098,0.619,0.041c-0.123-0.007-0.235,0.011-0.288,0.144
			c-0.12,0.001-0.24-0.002-0.36,0.003c-0.147,0.005-0.259,0.106-0.205,0.229c0.149,0.338-0.074,0.443-0.3,0.562
			c-0.249,0.102-0.45,0.263-0.424,0.551c0.024,0.258,0.179,0.463,0.429,0.565c0.281,0.115,0.478-0.038,0.657-0.228
			c0.048-0.052,0.09-0.11,0.134-0.165c0.624,0.055,1.219-0.201,1.848-0.173c0.185,0.008,0.399,0.056,0.585-0.008
			c0.696-0.238,1.402-0.039,2.102-0.093c-0.019,0.034-0.037,0.051-0.057,0.053c-0.394,0.038-0.42,0.058-0.452,0.446
			c-0.01,0.12-0.081,0.149-0.167,0.126c-0.114-0.03-0.22-0.089-0.329-0.136c-0.144-0.223-0.333-0.171-0.524-0.082
			c-0.062,0.029-0.128,0.123-0.169,0.111c-0.404-0.122-0.337,0.195-0.389,0.403c-0.155,0.055-0.279,0.048-0.378-0.116
			c-0.071-0.118-0.224-0.144-0.347-0.136c-0.098,0.007-0.127,0.132-0.133,0.226c-0.015,0.218,0.133,0.256,0.304,0.242
			c0.265-0.023,0.315,0.117,0.241,0.326c-0.052,0.145-0.055,0.252,0.098,0.324h0c0.1,0.126,0.24,0.051,0.361,0.072
			c0.08,0.08,0.123,0.175-0.034,0.186c-0.079,0.006-0.147-0.016-0.229,0.032c-0.196,0.115-0.347,0.052-0.467-0.14
			c-0.111-0.178-0.268-0.3-0.495-0.294c-0.459-0.086-0.874,0.207-1.332,0.153c-0.127-0.015-0.204,0.116-0.278,0.207
			c-0.049,0.061-0.121,0.142-0.058,0.224c0.072,0.093,0.167,0.069,0.253,0.001c0.134-0.105,0.213-0.114,0.275,0.089
			c0.052,0.171,0.208,0.17,0.262-0.001c0.049-0.156,0.139-0.213,0.274-0.235c0.056-0.009,0.123-0.012,0.145,0.067
			c0.016,0.06-0.228,0.478-0.284,0.508c-0.283,0.151-0.562-0.009-0.843-0.004c-0.024,0-0.048,0-0.072,0
			C7.578,76.801,7.292,76.991,7,77.102c-0.185,0.071-0.336,0.234-0.552,0.219c-0.218-0.015-0.319,0.123-0.336,0.296
			c-0.016,0.17,0.055,0.331,0.27,0.354c0.548,0.052,1.064-0.007,1.511-0.378c0.133-0.11,0.303-0.057,0.471-0.033
			c-0.023,0.07-0.024,0.113-0.047,0.135c-0.223,0.224-0.077,0.4,0.056,0.596c0.153,0.226,0.3,0.028,0.441,0.004
			c0.112-0.019,0.226-0.088,0.315-0.164c0.257-0.216,0.534-0.406,0.841-0.53c0.403-0.163,0.77-0.445,1.237-0.422
			c0.005,0.419,0.004,0.417-0.412,0.512c-0.069,0.016-0.15,0.038-0.195,0.085c-0.093,0.1-0.33,0.109-0.282,0.273
			c0.035,0.121,0.235,0.124,0.378,0.138c0.136,0.013,0.345-0.072,0.385,0.092c0.038,0.156-0.179,0.192-0.297,0.264
			c-0.136,0.083-0.309,0.203-0.232,0.352c0.096,0.184,0.266,0.059,0.397-0.031c0.012-0.008,0.041,0.007,0.075,0.014
			c-0.151,0.398-0.328,0.772-0.732,0.973c-0.108,0.053-0.222,0.186-0.346-0.024c-0.07-0.118-0.277-0.098-0.36-0.02
			C9.302,80.079,8.9,80.21,8.687,80.564c-0.095,0.114-0.164,0.266-0.342,0.068c-0.139-0.153-0.279-0.031-0.343,0.099
			c-0.186,0.376-0.426,0.712-0.689,1.035c-0.098,0.121-0.109,0.259,0.004,0.386c0.016,0.22-0.136,0.377-0.209,0.564
			c-0.029,0.074-0.099,0.146-0.026,0.231c0.072,0.084,0.173,0.078,0.267,0.063c0.056-0.009,0.105-0.052,0.16-0.073
			c0.295-0.11,0.575-0.286,0.74-0.529c0.179-0.264,0.473-0.324,0.685-0.529c0.441-0.427,0.93-0.817,1.453-1.151
			c0.177-0.113,0.332-0.227,0.326-0.472c-0.002-0.115,0.075-0.241,0.203-0.145c0.152,0.114,0.342,0.137,0.498,0.227
			c-0.128,0.315-0.409,0.422-0.636,0.588c-0.654,0.251-1.091,0.766-1.535,1.271c-0.328,0.373-0.516,0.859-0.939,1.154
			c-0.165,0.115-0.256,0.262-0.143,0.453c0.074,0.126,0.363,0.107,0.518-0.025c0.317-0.27,0.685-0.477,0.955-0.804
			c0.055-0.067,0.129-0.151,0.247-0.049c-0.114,0.112-0.212,0.242-0.223,0.397c-0.016,0.22-0.128,0.362-0.289,0.496
			c-0.218,0.182-0.357,0.407-0.249,0.711c-0.148,0.129-0.398,0.167-0.424,0.402c-0.032,0.29-0.197,0.353-0.444,0.318
			c-0.203-0.029-0.379,0.033-0.528,0.162c-0.144,0.124-0.212,0.291-0.153,0.476c0.065,0.203,0.229,0.175,0.385,0.124
			c0.171-0.055,0.206,0.045,0.227,0.181c0.011,0.072-0.111,0.206,0.08,0.207c0.129,0.001,0.201-0.072,0.206-0.199
			c0.005-0.121,0.063-0.239,0.161-0.257c0.229-0.042,0.352-0.221,0.46-0.371c0.144-0.2,0.307-0.33,0.536-0.392
			c0.125,0.001,0.292-0.019,0.269-0.161c-0.053-0.342,0.2-0.416,0.406-0.536c0.137-0.08,0.255-0.174,0.332-0.315l0,0
			c0.185-0.014,0.27-0.154,0.361-0.287c0.215-0.066,0.422-0.144,0.614-0.267c0.17-0.11,0.629,0.005,0.728,0.173
			c0.034,0.057,0.021,0.117-0.037,0.154c-0.07,0.044-0.137,0.079-0.232,0.047c-0.255-0.085-0.45-0.032-0.498,0.27
			c-0.022,0.138-0.121,0.123-0.215,0.127c-0.151,0.008-0.265,0.098-0.274,0.234c-0.014,0.191-0.118,0.365-0.085,0.56
			c0.023,0.025,0.047,0.049,0.07,0.074c0.196,0.273,0.389,0.294,0.651,0.07c0.192-0.054,0.385-0.107,0.503-0.289
			c0.314-0.145,0.603,0.063,0.913,0.01c-0.043,0.378-0.318,0.543-0.482,0.782c-0.414,0.307-0.774,0.687-1.262,0.895
			c-0.134,0.057-0.268,0.176-0.244,0.364c0.023,0.187,0.235,0.05,0.334,0.201c-0.745,0.406-1.483,0.81-2.07,1.424
			C8.961,88.786,8.881,88.9,8.9,89.362c0.009,0.222,0.106,0.31,0.314,0.281c0.389-0.055,0.782-0.12,1.12-0.33
			c0.148-0.092,0.288-0.098,0.443-0.097c0.026,0.069,0.075,0.117,0.144,0.143c-0.083,0.155-0.231,0.186-0.388,0.219
			c-0.266,0.056-0.531,0.127-0.759,0.284c-0.17,0.116-0.325,0.324-0.526,0.039c-0.019-0.027-0.101-0.04-0.132-0.022
			c-0.361,0.206-0.757,0.368-0.96,0.773c-0.052,0.104-0.009,0.165,0.071,0.205c0.216,0.108,0.137,0.214,0.001,0.315
			c-0.135,0.1-0.258,0.219-0.157,0.387c0.074,0.124,0.067,0.212,0.007,0.326c-0.06,0.115-0.07,0.24,0.053,0.32
			c0.138,0.09,0.218-0.024,0.301-0.111c0.276-0.29,0.47-0.331,0.847-0.174c0.131,0.055,0.252,0.026,0.382-0.015
			c0.549-0.17,1.045-0.459,1.562-0.697c0.21-0.097,0.405-0.118,0.618-0.116c0.092,0.001,0.203-0.022,0.226,0.115
			c0.027,0.158-0.107,0.157-0.198,0.204c-0.107,0.055-0.229,0.038-0.338,0.108c-0.427,0.274-0.778,0.643-1.186,0.94
			c-0.105-0.001-0.177,0.047-0.216,0.144c-0.146-0.017-0.214,0.162-0.36,0.145c-0.191-0.011-0.4,0.07-0.462-0.255
			c-0.023-0.118-0.153-0.351-0.34-0.374c-0.221-0.027-0.079,0.275-0.238,0.336c-0.02,0.008-0.035,0.032-0.048,0.052
			c-0.085,0.13-0.11,0.259,0.006,0.386c0.14,0.148,0.361,0.008,0.504,0.144c-0.048,0.253-0.004,0.291,0.259,0.292
			c0.155,0.001,0.311-0.182,0.465-0.002c0,0.07-0.001,0.141-0.001,0.211c0.174,0.247,0.342,0.505,0.71,0.447
			c0.023-0.004,0.054,0.039,0.08,0.06c-0.048,0-0.095,0-0.143,0.001c-0.124-0.007-0.236,0.01-0.288,0.144
			c-0.049,0.034-0.093,0.081-0.147,0.101c-0.49,0.183-0.782,0.48-0.768,1.055c0.008,0.304,0.098,0.459,0.378,0.322
			c0.266-0.131,0.281,0.021,0.32,0.195c0.056,0.253,0.18,0.327,0.428,0.267c0.09-0.022,0.137-0.144,0.29-0.087
			c-0.035,0.234-0.078,0.454-0.367,0.519c-0.197,0.044-0.36,0.148-0.461,0.316c-0.106,0.176-0.199,0.252-0.392,0.104
			c-0.145-0.111-0.212-0.022-0.218,0.137c-0.005,0.125,0.013,0.236,0.117,0.322c0.07,0.058,0.179,0.087,0.171,0.21
			c0.138,0.315,0.191,0.338,0.504,0.216c0.043-0.15,0.245-0.139,0.29-0.287c0.11,0.009,0.281-0.017,0.14,0.176
			c-0.093,0.128-0.059,0.264-0.07,0.399c-0.206,0.082-0.367,0.224-0.487,0.406c-0.128,0.193-0.13,0.42-0.06,0.62
			c0.071,0.207,0.287,0.117,0.444,0.124c0.153,0.006,0.307,0.021,0.462-0.028c0.146-0.046,0.294,0.01,0.392,0.108
			c0.136,0.137,0.291,0.155,0.459,0.138c0.236-0.025,0.444,0.013,0.594,0.218c0.25,0.021,0.515-0.079,0.549-0.294
			c0.058-0.374,0.252-0.302,0.475-0.238c0.154,0.044,0.308,0.02,0.462,0.027c0.169,0.007,0.257,0.066,0.159,0.242
			c-0.102,0.185-0.063,0.341,0.083,0.481c0.001,0.047,0.001,0.095,0.002,0.142c0.032,0.218-0.139,0.318-0.264,0.44
			c-0.131,0.127-0.245,0.258-0.286,0.443c-0.017,0.075-0.032,0.177,0.048,0.179c0.411,0.009,0.248,0.219,0.166,0.419
			c-0.03,0.073-0.03,0.165-0.022,0.247c0.015,0.154,0.061,0.246,0.253,0.151c0.18-0.089,0.382-0.132,0.574-0.195
			c0.055,0.141-0.01,0.222-0.09,0.269c-0.181,0.106-0.236,0.293-0.324,0.46c-0.105,0.198,0.073,0.421-0.057,0.615
			c-0.149,0.388-0.084,0.499,0.297,0.504c0.117,0.002,0.234,0,0.351,0l0,0c-0.048,0.134-0.227,0.19-0.216,0.36
			c-0.221,0.396-0.532,0.737-0.717,1.156c-0.05,0.095-0.099,0.19-0.149,0.284c-0.142,0.05-0.18,0.204-0.286,0.29
			c-0.122,0.128-0.201,0.265-0.092,0.441c0.107,0.172,0.257,0.028,0.364,0.055c0.207,0.053,0.53-0.006,0.606,0.174
			c0.133,0.315,0.35,0.258,0.579,0.267c0.122,0.005,0.251-0.025,0.384,0.031c-0.064,0.231-0.352,0.195-0.399,0.401
			c-0.024,0.048-0.048,0.096-0.072,0.144c-0.133,0.343-0.091,0.406,0.287,0.431c0.344-0.294,0.743-0.502,1.132-0.727
			c0.225-0.131,0.436-0.291,0.615-0.482c0.126-0.134,0.266-0.236,0.444-0.285c0.096-0.027,0.199-0.144,0.285-0.012
			c0.078,0.12,0.12,0.26,0.021,0.401c-0.073,0.104-0.173,0.151-0.292,0.19c-0.162,0.054-0.353,0.05-0.457,0.241
			c-0.039,0.073-0.15,0.101-0.258,0.054c-0.206-0.089-0.327,0.028-0.377,0.209c-0.062,0.226-0.22,0.358-0.396,0.488
			c-0.115,0.085-0.238,0.173-0.317,0.288c-0.203,0.296-0.534,0.45-0.76,0.717c-0.024,0-0.048,0-0.072,0
			c-0.147,0.136-0.411,0.222-0.216,0.504c0.024,0,0.047,0.001,0.071,0.001c0.062,0.105,0.184,0.195-0.011,0.313
			c-0.109,0.066-0.096,0.214-0.003,0.314c0.083,0.089,0.159,0.044,0.246-0.024c0.178-0.138,0.178,0.014,0.202,0.136
			c0.053,0.27,0.169,0.33,0.422,0.23c0.057-0.022,0.092-0.119,0.179-0.052c-0.008,0.047-0.013,0.094-0.025,0.139
			c-0.083,0.324,0.256,0.645,0.006,0.973c-0.023,0.03,0.021,0.083,0.055,0.122c0.285,0.32,0.539,0.339,0.864,0.058
			c0.228-0.196,0.367-0.173,0.522,0.099c0.081,0.142,0.211,0.229,0.349,0.193c0.167-0.044,0.338-0.017,0.494-0.064
			c0.187-0.057,0.411-0.065,0.52-0.276c0.117-0.124,0.323-0.157,0.363-0.358c0.124-0.094,0.254-0.144,0.419-0.152
			c0.356-0.015,0.698-0.102,0.975-0.348c0.161-0.143,0.352-0.223,0.55-0.294c0.239,0.004,0.342-0.085,0.236-0.332
			c-0.038-0.088-0.002-0.165,0.08-0.214c0.054-0.033,0.116-0.04,0.173-0.017c0.129,0.054,0.029,0.14,0.022,0.212
			c-0.027,0.313,0.046,0.387,0.336,0.268c0.363-0.15,0.715-0.297,1.122-0.209c0.176,0.038,0.274-0.092,0.306-0.238
			c0.049-0.227,0.195-0.236,0.389-0.274c0.443-0.088,0.875-0.012,1.313,0.003c0.296,0.01,0.557,0.052,0.805,0.23
			c0.342,0.245,0.659,0.193,0.899-0.136c0.111-0.152,0.242-0.227,0.419-0.229c0.585-0.006,1.165-0.114,1.753-0.077
			c0.182,0.011,0.354,0.019,0.517,0.115c0.33,0.196,0.679,0.116,1.006,0.01c0.182-0.059,0.24-0.252,0.186-0.451
			c-0.02-0.075-0.101-0.136-0.045-0.244c0.184,0.028,0.341-0.062,0.499-0.146c0.121-0.065,0.246-0.097,0.379-0.055
			c0.089,0.028,0.131,0.106,0.147,0.19c0.02,0.1-0.079,0.121-0.136,0.13c-0.179,0.029-0.322,0.062-0.32,0.297
			c0.001,0.237,0.128,0.321,0.328,0.402c0.459,0.185,0.816,0.475,0.908,1.007c0.036,0.206,0.165,0.315,0.393,0.212
			c0.052-0.023,0.117-0.015,0.176-0.022c0.305-0.024,0.614,0.043,0.919-0.051c0.137-0.042,0.246,0.005,0.144,0.183
			c-0.136,0.237,0.064,0.336,0.203,0.414c0.261,0.147,0.939-0.018,1.186-0.257l0.036,0h0.036c0.126,0.003,0.236-0.01,0.283-0.16
			c0.108-0.35,0.439-0.468,0.716-0.471c0.652-0.008,1.295-0.122,1.96-0.042c0.715,0.087,1.457,0.081,2.18-0.055
			c0.16-0.03,0.241-0.061,0.29,0.156c0.054,0.234,0.215,0.253,0.374,0.069c0.119-0.138,0.261-0.138,0.419-0.148
			c0.683-0.047,1.358,0.101,2.04,0.081c0.194-0.006,0.382-0.094,0.563-0.065c0.35,0.058,0.703-0.021,1.049,0.059h0
			c0.233,0.116,0.48,0.203,0.74,0.167c0.354-0.048,0.714,0.014,1.066-0.089c0.174-0.051,0.354,0.009,0.514,0.108
			c0.135,0.084,0.287,0.148,0.442,0.081c0.199-0.086,0.345-0.05,0.464,0.129c0.112,0.169,0.259,0.123,0.282-0.029
			c0.048-0.315,0.275-0.252,0.43-0.207c0.441,0.127,0.871,0.144,1.312,0.023c0.099-0.027,0.201,0,0.308,0.028
			c0.231,0.059,0.474,0.123,0.712,0.006c0.079,0.107,0.195,0.069,0.297,0.071c0.334,0.004,0.667,0.002,1.001,0.002
			c0.783,0.051,1.568-0.087,2.352,0.133c0.787,0.221,1.616,0.05,2.426,0.139c0.735,0.08,1.486,0.008,2.23,0.022
			c0.22,0.004,0.419-0.101,0.638-0.077c0.453,0.05,0.454,0.048,0.526-0.382c0.18,0.244,0.475,0.206,0.713,0.264
			c0.325,0.079,0.665,0.096,1.011-0.054c0.461-0.2,0.95-0.312,1.452-0.074c0.139,0.066,0.3,0.054,0.444-0.045
			c0.195-0.133,0.419-0.057,0.63-0.062c0.18-0.004,0.168,0.173,0.234,0.278c0.098,0.158,0.256,0.164,0.415,0.142
			c0.146-0.02,0.253-0.114,0.254-0.259c0.001-0.198,0.098-0.311,0.273-0.303c0.338,0.017,0.661-0.092,0.998-0.086
			c0.852,0.014,1.704,0.005,2.556,0.005c0.495,0.135,0.996,0.081,1.494,0.039c0.295-0.025,0.588-0.16,0.882-0.103
			c0.336,0.065,0.633,0.044,0.908-0.169c0.058-0.045,0.138-0.076,0.203-0.036c0.322,0.2,0.678,0.104,1.02,0.123
			c0.192,0.011,0.357-0.019,0.533-0.145c0.194-0.139,0.496-0.157,0.671,0.008c0.274,0.258,0.545,0.242,0.858,0.149
			c0.361-0.107,0.751-0.162,1.096-0.045c0.357,0.121,0.66,0.077,1.008,0.001c0.59-0.129,1.24-0.35,1.56,0.484
			c0.066,0.172,0.296,0.166,0.328,0.009c0.045-0.222,0.178-0.224,0.346-0.267c0.287-0.074,0.571-0.055,0.855-0.027
			c0.099,0.01,0.194,0.055,0.256-0.044c0.231-0.367,0.59-0.357,0.954-0.337c0.136,0.399,0.196,0.409,0.593,0.29
			c0.251-0.075,0.533-0.045,0.729-0.279c0.03-0.036,0.137-0.01,0.209-0.011c0.179-0.001,0.359-0.013,0.536,0.003
			c0.213,0.019,0.371-0.055,0.49-0.226c0.13-0.187-0.118-0.246-0.166-0.426c0.282,0,0.529,0.01,0.774-0.004
			c0.171-0.01,0.358,0.07,0.513-0.068c0.123-0.007,0.197-0.065,0.212-0.193c0.036-0.304-0.291-0.182-0.4-0.35
			c0.441,0.009,0.857-0.069,1.268-0.18c0.074,0.046,0.167,0.062,0.218,0.143c0.119,0.199,0.238,0.196,0.358,0.001
			c0.049-0.046,0.099-0.093,0.148-0.139c0.047-0.001,0.094-0.003,0.141-0.004c0.152-0.032,0.247,0.078,0.359,0.145
			c0,0.024,0,0.048,0.001,0.072c0.06,0.316,0.294,0.227,0.479,0.183c0.142-0.034,0.197,0.016,0.25,0.124
			c0.07,0.142-0.033,0.199-0.127,0.248c-0.081,0.042-0.241,0.048-0.213,0.15c0.095,0.343-0.136,0.246-0.308,0.268
			c-0.246,0.032-0.354,0.183-0.273,0.354c0.054,0.114,0.146,0.185,0.283,0.186c0.122,0.001,0.26,0.014,0.294-0.136
			c0.039-0.171,0.128-0.186,0.28-0.162c0.071,0.011,0.189-0.029,0.225-0.085c0.11-0.173,0.187-0.182,0.361-0.055
			c0.127,0.093,0.346,0.052,0.441-0.098c0.097-0.153-0.022-0.237-0.15-0.197c0,0.003,0,0.006,0,0.009
			c-0.001-0.002-0.001-0.005-0.002-0.007c0.001-0.001,0.001-0.001,0.002-0.002c-0.049-0.224,0.143-0.177,0.187-0.276
			c0.092-0.007,0.227,0.022,0.238-0.099c0.011-0.119-0.107-0.171-0.22-0.186c-0.047-0.006-0.096-0.004-0.144-0.005
			c-0.193-0.002-0.229-0.123-0.236-0.287c-0.008-0.185,0.088-0.226,0.244-0.216c0.072,0.005,0.145,0,0.191-0.071
			c0.224,0.024,0.232-0.275,0.431-0.287c0.124,0.195,0.29,0.341,0.505,0.432c0.137,0.148,0.351,0.227,0.475,0.097
			c0.156-0.163,0.276-0.268,0.52-0.297c0.186-0.022,0.27-0.279,0.34-0.506c0.245,0.182,0.513,0.114,0.771,0.132
			c0.171,0.012,0.353,0.028,0.272,0.286c-0.12,0.123-0.102,0.265,0.032,0.328c0.269,0.127,0.149,0.315,0.105,0.487
			c-0.054,0.211-0.239,0.116-0.364,0.117c-0.265,0.001-0.432,0.105-0.494,0.366c-0.134,0.2-0.1,0.381,0.071,0.537
			c0.184,0.168,0.372,0.34,0.65,0.184c0.184-0.292,0.463-0.309,0.771-0.294c0.25,0.012,0.488,0.121,0.742,0.078
			c0.148,0.449,0.416,0.642,0.887,0.65c0.257,0.004,0.533-0.026,0.592,0.339c0.011,0.071,0.103,0.09,0.178,0.093
			c0.463,0.193,0.592,0.172,0.866-0.144c0.403-0.032,0.418-0.06,0.214-0.402c-0.012-0.02-0.031-0.038-0.038-0.06
			c-0.012-0.034-0.017-0.076,0.026-0.09c0.031-0.01,0.095-0.012,0.098-0.002c0.054,0.16,0.244,0.267,0.173,0.478
			c-0.053,0.158-0.061,0.34-0.308,0.295c-0.097-0.018-0.159,0.036-0.166,0.141c-0.164,0.215-0.017,0.326,0.144,0.433
			c0.048,0.083,0.141,0.1,0.215,0.145c0.011,0.484,0.36,0.639,0.88,0.382c0.046,0.078,0.084,0.164,0.141,0.235
			c0.096,0.119,0.221,0.131,0.354,0.063c0.127-0.064,0.224-0.156,0.176-0.309c-0.087-0.275,0.029-0.473,0.243-0.609
			c0.213-0.136,0.483-0.057,0.719,0.19c0.192,0.201,0.427,0.097,0.644,0.117c0.141,0.012,0.223-0.066,0.231-0.213
			c0.015-0.177,0.191-0.194,0.289-0.288c0.024,0,0.048,0,0.071,0c0.251,0.258,0.487,0.451,0.918,0.385
			c0.406-0.062,0.852-0.028,1.24,0.21c0.108,0.066,0.243,0.098,0.37,0.122c0.221,0.041,0.427,0.19,0.668,0.107
			c0.089,0.328,0.454,0.249,0.632,0.444c-0.006,0.007-0.017,0.028-0.034,0.041c-0.146,0.106-0.155,0.233-0.054,0.371
			c0.068,0.093,0.172,0.165,0.278,0.103c0.159-0.091,0.088-0.25,0.059-0.383c-0.013-0.063-0.123-0.121-0.053-0.185
			c0.267-0.249,0.148-0.533,0.074-0.802c-0.038-0.136,0.012-0.364-0.171-0.391c-0.229-0.035-0.133,0.239-0.236,0.339
			c-0.013,0.013-0.041,0.011-0.079,0.021c-0.014-0.247,0.032-0.535-0.289-0.621c-0.233-0.062-0.428-0.28-0.729-0.078
			c-0.161,0.108-0.106-0.092-0.073-0.185c0.384-0.057,0.769,0.033,1.153-0.001c0.202-0.009,0.42,0.048,0.577-0.143h0
			c0.345-0.174,0.449-0.419,0.303-0.819c-0.085-0.234,0.011-0.312,0.211-0.332c0.154-0.015,0.301-0.009,0.438,0.102
			c0.124,0.1,0.256,0.21,0.45,0.225c-0.297,0.008-0.452,0.158-0.521,0.421c-0.039,0.151-0.157,0.2-0.305,0.186
			c-0.171,0.02-0.198,0.155-0.212,0.284c-0.014,0.129-0.016,0.262-0.002,0.392c0.022,0.194-0.108,0.459,0.09,0.565
			c0.23,0.123,0.393-0.141,0.582-0.244c0.08-0.044,0.119-0.112,0.119-0.204c-0.005-0.106,0.024-0.22-0.06-0.309
			c-0.085-0.09-0.035-0.164,0.042-0.204c0.209-0.11,0.359-0.341,0.672-0.228c0.242,0.087,0.423-0.152,0.357-0.412
			c-0.023-0.302-0.285-0.266-0.476-0.32c-0.005-0.119,0.033-0.196,0.129-0.246c0.333-0.174,0.358-0.287,0.154-0.617
			c-0.142-0.231-0.286-0.451-0.33-0.741c-0.057-0.371-0.394-0.572-0.731-0.507c-0.087,0.017-0.188,0.108-0.242-0.028
			c-0.044-0.109,0.051-0.18,0.126-0.233c0.125-0.089,0.282-0.145,0.287-0.335c0.164-0.178-0.072-0.267-0.1-0.4
			c0.104-0.064,0.238,0.012,0.315-0.078c0.222-0.258,0.41-0.148,0.606,0.033c0.141,0.131,0.267,0.109,0.326-0.081
			c0.052-0.169,0.135-0.297,0.294-0.387c0.092-0.051,0.17-0.138,0.126-0.269c-0.081-0.243-0.761-0.565-0.997-0.463
			c-0.186,0.081-0.377,0.158-0.543,0.27c-0.31,0.208-0.623,0.287-0.977,0.111c0.116-0.062,0.256-0.022,0.368-0.1
			c0.112-0.078,0.252-0.156,0.212-0.301c-0.063-0.232,0.079-0.386,0.155-0.568c0.15-0.162,0.205-0.403,0.427-0.504
			c0.238-0.108,0.241-0.258,0.073-0.436c0.148-0.096,0.293-0.197,0.444-0.286c0.088-0.052,0.187-0.126,0.283-0.003
			c0.073,0.139,0.228,0.263,0.039,0.434c-0.146,0.132-0.179,0.284,0.005,0.42c0.191,0.141,0.377,0.11,0.507-0.086
			c0.045-0.068,0.069-0.178,0.167-0.164c0.364,0.055,0.276-0.181,0.255-0.377c-0.044-0.412-0.39-0.663-0.542-1.017
			c0.013-0.135-0.013-0.264-0.072-0.383c-0.119-0.242-0.063-0.429,0.143-0.596c0.098-0.079,0.222-0.162,0.213-0.315
			c-0.01-0.148,0.054-0.255,0.162-0.341c0.129-0.103,0.16-0.247,0.124-0.389c-0.052-0.207,0.018-0.297,0.213-0.37
			c0.191-0.071,0.218-0.3,0.055-0.34c-0.293-0.072-0.513-0.185-0.645-0.472c-0.034-0.073-0.206-0.047-0.258-0.164
			c-0.077-0.173-0.215-0.221-0.399-0.246c-0.313-0.042-0.412-0.2-0.35-0.518c0.027-0.137-0.03-0.235-0.094-0.331
			c-0.148-0.221-0.358-0.337-0.636-0.307c0.188-0.57,0.188-0.57,0.534-0.346c0.002,0.092,0.039,0.167,0.124,0.202
			c0.286,0.12,0.588,0.214,0.895,0.218c0.257,0.004,0.444-0.193,0.545-0.413c0.07-0.152,0.057-0.344-0.193-0.369
			c-0.202-0.116-0.401-0.201-0.642-0.089c-0.119,0.055-0.235,0.007-0.294-0.127c0.326-0.149,0.383-0.299,0.187-0.562
			c-0.076-0.103-0.133-0.199-0.115-0.324c0.038-0.266-0.092-0.513-0.08-0.779c0.007-0.15-0.056-0.222-0.22-0.099
			c-0.182,0.136-0.34,0.069-0.338-0.121c0.002-0.161,0.138-0.179,0.251-0.201c0.224-0.044,0.404-0.123,0.472-0.371
			c0.036-0.132,0.132-0.155,0.247-0.06c0.135,0.113,0.24,0.068,0.316-0.077c0.325-0.263,0.388-0.567,0.192-0.93
			c-0.044-0.082-0.095-0.151-0.066-0.264c0.128-0.495,0.445-0.889,0.697-1.317c0.052-0.088,0.147-0.161,0.239-0.212
			c0.471-0.264,0.518-0.597,0.126-0.974c-0.052-0.05-0.126-0.096-0.054-0.172c0.047-0.049,0.114-0.093,0.191-0.073
			c0.032,0.009,0.065,0.033,0.088,0.06c0.149,0.174,0.255,0.128,0.346-0.058c0.027-0.055,0.08-0.088,0.168-0.049
			c-0.017,0.497,0.472,0.59,0.736,0.872c0.046,0.049,0.163,0.032,0.22-0.055c0.277-0.121,0.151-0.241,0-0.362
			c-0.023-0.149,0.058-0.247,0.158-0.34c0.078-0.073,0.154-0.147,0.207-0.245c0.225-0.418,0.226-0.417,0.644-0.352
			c0.264,0.009,0.566-0.075,0.686,0.283c0.002,0.005,0.022,0.005,0.034,0.007c0.097,0.175,0.193,0.175,0.29-0.001
			c0.126-0.016,0.23,0.044,0.338,0.094c0.136,0.063,0.288,0.103,0.395-0.022c0.108-0.127,0.113-0.315,0.005-0.429
			c-0.197-0.208-0.083-0.283,0.094-0.391c0.17-0.104,0.317-0.294,0.226-0.475c-0.115-0.228-0.042-0.435-0.049-0.651
			c0-0.192,0-0.384-0.001-0.577c0.005-0.047-0.008-0.12,0.017-0.136c0.264-0.179,0.216-0.412,0.128-0.656c0-0.024,0-0.048,0-0.072
			c-0.02-0.164,0.172-0.117,0.216-0.216c0.157-0.094,0.206-0.209,0.072-0.36C114.771,86.463,114.56,86.286,114.273,86.259z
			 M93.083,109.538c0.053-0.118,0.139-0.152,0.24-0.14c-0.076-0.007-0.113,0.027-0.022,0.143c0.062,0.001,0.112,0,0.124,0.011
			c-0.04-0.007-0.082-0.009-0.123-0.01c0,0,0-0.001-0.001-0.001c-0.018,0-0.036-0.001-0.055-0.002
			c-0.018-0.001-0.037-0.002-0.055-0.004c-0.147-0.016-0.107,0.075-0.106,0.147c0,0.012,0.003,0.022,0.004,0.034
			c-0.144,0.097-0.038,0.199,0.076,0.283C93.008,109.884,92.866,109.735,93.083,109.538z M93.414,109.938
			c-0.014,0.003-0.029,0.005-0.044,0.005C93.386,109.943,93.4,109.941,93.414,109.938z M93.439,109.929
			c-0.004,0.002-0.007,0.003-0.011,0.004C93.432,109.932,93.436,109.93,93.439,109.929z M93.355,109.403c0.001,0,0.001,0,0.002,0
			C93.357,109.403,93.356,109.403,93.355,109.403z M10.551,96.995c0.003-0.025,0.001-0.051-0.007-0.073
			C10.552,96.943,10.554,96.969,10.551,96.995c-0.003,0.062-0.113,0.219-0.236,0.361C10.438,97.214,10.548,97.057,10.551,96.995z
			 M11.787,85.178c-0.053,0.019-0.106,0.034-0.159,0.045C11.681,85.212,11.734,85.197,11.787,85.178L11.787,85.178z M7.895,85.467
			c0.001,0.001,0.002,0.002,0.002,0.002l0,0L7.895,85.467z M8.917,74.418c0.162-0.027,0.326-0.046,0.492-0.05
			c0-0.024,0-0.048,0-0.072l0,0c0,0.024,0,0.048,0,0.072C9.243,74.372,9.079,74.391,8.917,74.418z M79.877,9.441
			c-0.136-0.026-0.273-0.086-0.413-0.158c0-0.093,0-0.187,0-0.28l0,0c0,0.093,0,0.187,0,0.28
			C79.603,9.355,79.741,9.415,79.877,9.441z M106.784,108.314c-0.102,0.007-0.219-0.025-0.298,0.051
			C106.564,108.289,106.682,108.321,106.784,108.314c0.241,0.01,0.43,0.14,0.521,0.327
			C107.214,108.454,107.024,108.325,106.784,108.314z M107.312,108.657c0.016,0.036,0.029,0.074,0.038,0.113
			C107.341,108.73,107.328,108.692,107.312,108.657z M90.588,94.526c0.028-0.048,0.099-0.046,0.159-0.05
			c0.021,0,0.043,0.001,0.065,0.003c-0.021-0.002-0.044-0.002-0.064-0.003C90.687,94.48,90.616,94.477,90.588,94.526z
			 M72.775,104.919c0.002-0.016,0.002-0.033,0.002-0.048C72.777,104.887,72.777,104.903,72.775,104.919z M32.015,51.713
			c-0.023,0.013-0.051,0.019-0.081,0.022C31.964,51.732,31.992,51.726,32.015,51.713z M66.933,79.252
			c-0.027-0.025-0.064-0.042-0.12-0.043C66.869,79.211,66.907,79.227,66.933,79.252z M66.378,11.384
			c0.001,0.002,0.002,0.003,0.004,0.005C66.381,11.387,66.379,11.386,66.378,11.384z M65.346,87.411
			c0.01,0.031,0.034,0.052,0.075,0.057v0C65.38,87.463,65.356,87.442,65.346,87.411z M46.521,102.445
			c0.07,0.047,0.077,0.144,0.076,0.238c0,0.084,0,0.172-0.067,0.205c0.067-0.033,0.067-0.121,0.067-0.205
			C46.598,102.589,46.591,102.491,46.521,102.445z M45.113,12.106c-0.292,0.36-0.6,0.475-1.016,0.238
			c-0.162-0.092-0.374-0.019-0.563-0.03c-0.097-0.006-0.208-0.007-0.218-0.13c-0.009-0.105,0.103-0.126,0.175-0.144
			c0.139-0.033,0.235-0.106,0.296-0.232c0.237-0.201,0.5-0.256,0.793-0.143C44.704,11.869,44.817,12.084,45.113,12.106z
			 M49.127,102.21c0.011,0.006,0.02,0.013,0.028,0.021C49.147,102.223,49.138,102.216,49.127,102.21z M51.701,107.174
			c0.068,0.012,0.083,0.071,0.083,0.139c-0.002,0.032-0.008,0.059-0.02,0.08c0.012-0.021,0.018-0.048,0.02-0.08
			C51.784,107.244,51.769,107.185,51.701,107.174z M51.759,107.399c-0.003,0.004-0.006,0.009-0.009,0.013
			C51.753,107.408,51.756,107.404,51.759,107.399z M48.976,12.531c0.052,0.135,0.164,0.151,0.288,0.145
			c0.072,0.096,0.144,0.192,0.216,0.289c0,0.071-0.001,0.141-0.001,0.212c-0.068,0.012-0.138,0.019-0.204,0.035
			c-0.361,0.09-0.469,0.051-0.659-0.247c-0.088-0.051-0.066-0.139-0.071-0.218c0.016-0.151-0.028-0.311,0.026-0.468
			C48.741,12.353,48.797,12.538,48.976,12.531L48.976,12.531z M47.318,9.504L47.318,9.504c0.006-0.011,0.013-0.02,0.021-0.028
			C47.331,9.484,47.324,9.493,47.318,9.504z M40.798,109.187L40.798,109.187c0.066,0.013,0.104,0.049,0.091,0.12
			C40.902,109.236,40.864,109.2,40.798,109.187z M38.301,14.017c-0.071,0.112-0.068,0.216-0.044,0.338
			c0.013,0.065,0.22,0.007,0.083,0.142c-0.099,0.096-0.215,0.153-0.356,0.118c-0.111-0.027-0.156-0.112-0.132-0.215
			c0.024-0.107,0.029-0.212,0.018-0.319c-0.009-0.093-0.063-0.154-0.156-0.171c-0.108-0.02-0.191,0.004-0.197,0.136
			c-0.069,0.042-0.138,0.084-0.233,0.142c0.007-0.125,0.014-0.224,0.016-0.323c0.005-0.19,0.138-0.269,0.284-0.232
			c0.19,0.049,0.377,0.037,0.565,0.054C38.394,13.709,38.438,13.803,38.301,14.017z M38.203,18.786
			c0.002,0.003,0.003,0.006,0.005,0.009C38.207,18.792,38.205,18.789,38.203,18.786z M38.124,18.666
			c0.009,0.012,0.018,0.024,0.027,0.036C38.142,18.69,38.133,18.677,38.124,18.666z M37.927,18.514
			c-0.112-0.004-0.202,0.022-0.241,0.107C37.725,18.536,37.815,18.51,37.927,18.514c0.046,0.002,0.102,0.043,0.157,0.103
			C38.029,18.557,37.973,18.516,37.927,18.514z M38.109,18.647c0.003,0.004,0.007,0.008,0.01,0.012
			C38.116,18.655,38.113,18.651,38.109,18.647z M38.251,18.887c0.012,0.03,0.021,0.06,0.025,0.087
			C38.272,18.946,38.263,18.917,38.251,18.887z M37.855,105.201c-0.007,0.007-0.017,0.009-0.022,0.007
			C37.842,105.207,37.85,105.206,37.855,105.201z M38.301,104.671c0.01-0.002,0.018-0.002,0.027-0.003
			C38.32,104.669,38.311,104.669,38.301,104.671z M38.335,104.668c0.01,0,0.019,0.002,0.027,0.006
			C38.354,104.671,38.345,104.669,38.335,104.668z M36.343,19.127c-0.002-0.015-0.001-0.026-0.002-0.039
			c0.061-0.002,0.12-0.004,0.178-0.001C36.44,19.085,36.368,19.097,36.343,19.127c0.119,0.032,0.198,0.039,0.257,0.008
			c-0.058,0.031-0.137,0.024-0.174,0.03c-0.094-0.006-0.187,0.012-0.245-0.022C36.235,19.174,36.311,19.149,36.343,19.127z
			 M37.66,105.575c-0.068,0.128-0.151,0.169-0.245,0.123c0.071,0.033,0.119-0.002,0.103-0.125c-0.031-0.003-0.055-0.009-0.067-0.018
			c0.021,0.009,0.043,0.014,0.067,0.017c0,0,0,0.001,0,0.001c0.022,0.002,0.046,0.003,0.072,0.003
			c0.139,0.002,0.062-0.096,0.065-0.143c0-0.008,0-0.014-0.001-0.021c0.266-0.126,0.461-0.216,0.414-0.31
			c0.128-0.004,0.226-0.013,0.301-0.026C38.115,105.217,37.838,105.324,37.66,105.575z M38.599,104.88
			c0.006,0.129-0.053,0.201-0.201,0.19C38.56,105.035,38.601,104.971,38.599,104.88z M36.858,13.954
			c0.069,0.096,0.139,0.191,0.246,0.339c-0.282,0.046-0.474,0.189-0.694,0.271c-0.087,0.032-0.137,0.008-0.187-0.05
			c-0.084-0.098,0.024-0.115,0.07-0.152c0.129-0.101,0.178-0.252,0.249-0.389C36.64,13.783,36.743,13.792,36.858,13.954z
			 M36.363,14.045c0.022-0.042,0.043-0.085,0.065-0.127C36.407,13.96,36.385,14.002,36.363,14.045
			c-0.072,0.048-0.144,0.096-0.216,0.144C36.219,14.141,36.291,14.093,36.363,14.045z M33.716,21.153
			c0.007-0.004,0.012-0.01,0.017-0.015C33.728,21.143,33.722,21.148,33.716,21.153z M33.736,21.135
			c0.011-0.013,0.019-0.03,0.024-0.049C33.755,21.105,33.747,21.121,33.736,21.135z M72.663,86.34
			c0.016-0.058,0.088-0.072,0.151-0.078c0.065,0.001,0.13,0.009,0.147,0.073c-0.017-0.064-0.082-0.073-0.147-0.073
			C72.751,86.267,72.679,86.281,72.663,86.34z M72.761,104.784c0.009,0.026,0.014,0.053,0.015,0.082
			C72.775,104.837,72.77,104.809,72.761,104.784z M80.477,12.044c0.04,0.002,0.082,0.009,0.127,0.021
			C80.559,12.052,80.517,12.045,80.477,12.044z M80.351,12.059c0.019-0.006,0.038-0.01,0.058-0.012
			C80.389,12.049,80.369,12.054,80.351,12.059z M84.649,108.773c0,0,0.001,0.001,0.001,0.001
			C84.649,108.774,84.649,108.774,84.649,108.773z M84.619,108.732c-0.063-0.102-0.006-0.173,0.177-0.202
			c0-0.024,0-0.048,0.001-0.071c0,0.015,0,0.03,0.035,0.079c-0.046,0.009-0.08,0.035-0.083,0.098
			C84.613,108.622,84.578,108.663,84.619,108.732z M84.788,108.77c-0.021-0.021-0.036-0.056-0.041-0.11
			C84.752,108.712,84.767,108.746,84.788,108.77z M95.133,94.716c-0.001-0.02-0.008-0.036-0.028-0.044
			C95.125,94.68,95.133,94.696,95.133,94.716z M95.133,94.72c0,0.004,0,0.008-0.001,0.012C95.133,94.728,95.133,94.724,95.133,94.72
			z M95.104,94.857c-0.001,0.005-0.001,0.01-0.001,0.015v0C95.103,94.868,95.103,94.863,95.104,94.857z M95.101,94.898
			c-0.003,0.034-0.002,0.071-0.004,0.106C95.099,94.969,95.098,94.932,95.101,94.898z M106.348,51.662L106.348,51.662
			c-0.028-0.026-0.055-0.053-0.083-0.079C106.293,51.609,106.32,51.636,106.348,51.662z M111.105,78.013
			c-0.082,0.036-0.163-0.055-0.165-0.126c-0.002-0.102,0.103-0.039,0.159-0.058C111.082,77.894,111.174,77.983,111.105,78.013z
			 M103.228,20.993c0.051,0.033,0.09,0.075,0.123,0.123C103.318,21.069,103.279,21.026,103.228,20.993
			c-0.017-0.011-0.036-0.021-0.056-0.029l0,0C103.192,20.973,103.211,20.982,103.228,20.993z M104.902,49.209
			c0.024-0.001,0.049,0,0.073,0.002C104.951,49.209,104.927,49.208,104.902,49.209z M105.087,49.219
			c0.025,0.002,0.049,0.003,0.074,0.003C105.136,49.222,105.111,49.221,105.087,49.219z M100.362,86.928
			c0,0.018,0.001,0.035,0.001,0.053v0C100.363,86.964,100.362,86.946,100.362,86.928z M100.362,87.413
			C100.362,87.413,100.362,87.413,100.362,87.413c-0.017,0.083-0.052,0.165-0.083,0.248
			C100.309,87.578,100.345,87.495,100.362,87.413z M101.163,19.502c-0.005-0.085,0.067-0.117,0.147-0.121
			c0.252-0.015,0.501-0.01,0.727,0.127c0.031,0.018,0.056,0.045,0.087,0.063c0.563,0.32,0.571,0.34,0.362,0.966
			c-0.015,0.045-0.026,0.091-0.043,0.162c0,0,0,0,0,0.001c-0.161-0.164-0.282-0.273-0.505-0.143
			c-0.117,0.068-0.317,0.027-0.406-0.113c-0.095-0.147-0.155-0.181-0.235-0.006c-0.038,0.083-0.096,0.102-0.172,0.069
			c-0.087-0.038-0.135-0.124-0.105-0.205C101.114,20.042,101.179,19.782,101.163,19.502z M101.372,23.774
			c-0.005-0.009-0.011-0.017-0.017-0.024C101.361,23.757,101.367,23.765,101.372,23.774c0.144,0,0.287,0,0.431-0.001
			C101.659,23.774,101.516,23.774,101.372,23.774z M103.303,54.756c0.079-0.017,0.134-0.063,0.15-0.153
			C103.437,54.693,103.382,54.739,103.303,54.756z M110.791,85.762c0.031,0,0.063-0.003,0.095-0.008l0,0
			C110.854,85.76,110.822,85.762,110.791,85.762z M107.537,85.457c-0.006,0-0.012,0.001-0.02,0
			C107.525,85.458,107.531,85.457,107.537,85.457C107.537,85.457,107.537,85.457,107.537,85.457z M107.571,85.452
			c0.007-0.002,0.014-0.006,0.02-0.009c0.016-0.005,0.006,0.006-0.024,0.012C107.568,85.453,107.57,85.453,107.571,85.452z
			 M103.968,90.083c-0.001-0.025-0.001-0.051-0.002-0.076C103.966,90.033,103.967,90.058,103.968,90.083L103.968,90.083z
			 M107.46,85.62c0-0.001,0.001-0.003,0.002-0.004c0.004,0.001,0.009-0.001,0.014-0.001C107.47,85.615,107.465,85.618,107.46,85.62z
			 M106.168,71.083c0.032-0.005,0.063-0.014,0.093-0.026C106.231,71.069,106.2,71.078,106.168,71.083z M112.63,85.519
			c-0.006-0.017-0.011-0.034-0.016-0.051c0.001-0.025,0.001-0.05,0.002-0.076c-0.001,0.025-0.001,0.05-0.002,0.076
			C112.619,85.485,112.624,85.502,112.63,85.519z M111.175,82.366c0-0.022-0.001-0.044-0.004-0.064
			c-0.01-0.081-0.04-0.143-0.081-0.193c0.042,0.05,0.071,0.112,0.081,0.193C111.174,82.322,111.175,82.343,111.175,82.366
			c0.021,0.012,0.044,0.024,0.066,0.035C111.218,82.39,111.196,82.378,111.175,82.366z M100.26,87.71
			c-0.023,0.066-0.041,0.132-0.042,0.198C100.22,87.842,100.237,87.776,100.26,87.71z M103.401,86.805
			c0.01,0.004,0.016,0.011,0.02,0.02C103.417,86.816,103.41,86.809,103.401,86.805c-0.009-0.004-0.022-0.006-0.038-0.005
			C103.379,86.799,103.391,86.801,103.401,86.805z M109.813,76.219c0.021-0.016,0.04-0.033,0.06-0.052
			c0.01-0.03,0.018-0.059,0.023-0.089c-0.005,0.03-0.013,0.059-0.023,0.089C109.853,76.186,109.834,76.203,109.813,76.219
			c-0.041,0.032-0.085,0.061-0.129,0.09C109.728,76.28,109.772,76.251,109.813,76.219z M107.471,73.504
			c-0.071,0.003-0.153,0-0.17,0.077C107.318,73.504,107.4,73.508,107.471,73.504c0.045,0.002,0.093,0.004,0.123,0.028
			C107.564,73.508,107.516,73.506,107.471,73.504z M106.605,48.155c-0.022-0.014-0.045-0.027-0.068-0.039
			C106.56,48.128,106.583,48.14,106.605,48.155z M106.705,48.278c-0.015-0.043-0.039-0.074-0.069-0.099
			C106.666,48.204,106.69,48.235,106.705,48.278L106.705,48.278z M104.866,49.211c-0.012,0.001-0.024,0.003-0.036,0.005l0,0
			C104.842,49.214,104.854,49.212,104.866,49.211z M103.488,19.826c-0.056,0.029-0.104,0.059-0.144,0.089
			C103.384,19.884,103.432,19.855,103.488,19.826c0.056-0.029,0.119-0.058,0.19-0.088l0,0
			C103.606,19.768,103.543,19.797,103.488,19.826z M101.651,87.719c-0.192,0.045-0.102,0.243-0.16,0.363
			c-0.127-0.007-0.121-0.136-0.188-0.198c-0.141-0.13-0.27-0.197-0.477-0.101c-0.383,0.177-0.387,0.161-0.392-0.276
			c-0.003-0.217-0.003-0.434,0.097-0.631c0.055-0.107,0.123-0.214,0.27-0.076c0.212,0.199,0.531,0.178,0.708,0.075
			c0.357-0.206,0.622-0.065,0.89,0.1c0.219,0.135,0.425,0.22,0.692,0.234c0.262,0.014,0.424,0.235,0.511,0.482
			c0.02,0.056,0.018,0.117,0.077,0.152c0.096,0.072,0.192,0.144,0.288,0.216c0.168,0.141,0.336,0.073,0.504,0
			c0.072,0,0.144,0,0.216,0c0.074,0.059,0.148,0.12,0.223,0.178c0.251,0.195,0.263,0.284,0.084,0.556
			c-0.113,0.172-0.218,0.311-0.376,0.035c-0.039-0.068-0.121-0.151-0.207-0.078c-0.191,0.162-0.412,0.083-0.621,0.102
			c-0.071,0.007-0.159-0.022-0.213,0.01c-0.318,0.188-0.578,0.181-0.855-0.11c-0.212-0.222-0.582-0.291-0.636-0.671
			c-0.006-0.044-0.033-0.095-0.067-0.123C101.907,87.865,101.841,87.675,101.651,87.719z M110.667,87.774L110.667,87.774
			c-0.003,0.045-0.006,0.084-0.009,0.118C110.661,87.858,110.664,87.819,110.667,87.774z M103.812,25.175
			c0.026-0.016,0.041-0.046,0.044-0.083c-0.015-0.048-0.031-0.108-0.073-0.126c0.043,0.019,0.058,0.079,0.074,0.126
			C103.853,25.129,103.838,25.159,103.812,25.175z M105.48,20.098c0.241,0.072,0.481,0.143,0.722,0.215
			c0.023,0.001,0.047,0.001,0.071,0.002c-0.023-0.001-0.047-0.002-0.071-0.002C105.961,20.242,105.72,20.17,105.48,20.098z
			 M99.314,108.88C99.314,108.88,99.314,108.88,99.314,108.88c-0.091-0.012-0.106-0.079-0.1-0.152
			C99.209,108.801,99.223,108.868,99.314,108.88z M99.122,87.16c-0.049,0.03-0.115,0.038-0.187,0.036
			c-0.026-0.001-0.054,0-0.08-0.002c0.026,0.002,0.054,0.001,0.08,0.002C99.007,87.199,99.074,87.191,99.122,87.16z M98.642,108.172
			c-0.14-0.004-0.206,0.074-0.244,0.171C98.436,108.245,98.502,108.168,98.642,108.172c0.089,0.003,0.18,0.061,0.247,0.141
			C98.822,108.233,98.731,108.175,98.642,108.172z M98.75,87.164c0.025,0.021,0.061,0.028,0.099,0.03
			C98.811,87.191,98.775,87.184,98.75,87.164z M98.488,87.413c-0.016,0.008-0.032,0.016-0.048,0.024
			C98.457,87.429,98.472,87.421,98.488,87.413c0.008-0.007,0.015-0.013,0.023-0.02C98.503,87.4,98.496,87.407,98.488,87.413z
			 M98.345,87.485c0.013,0.077,0.038,0.142,0.075,0.19C98.383,87.627,98.358,87.562,98.345,87.485L98.345,87.485z M98.984,108.506
			c0.006,0.03,0.01,0.06,0.008,0.089C98.994,108.565,98.99,108.535,98.984,108.506z M98.533,87.374
			c0.015-0.013,0.03-0.026,0.045-0.037C98.563,87.348,98.548,87.361,98.533,87.374z M107.714,93.395
			c-0.112-0.095-0.152-0.185-0.121-0.253c-0.015,0.046,0.023,0.09,0.122,0.105c0.001-0.027,0.006-0.048,0.012-0.061
			c-0.007,0.018-0.01,0.039-0.011,0.061c0,0,0,0,0,0c-0.001,0.013-0.001,0.028,0,0.043c0.003,0.043-0.044,0.125,0.069,0.107
			c0.012-0.002,0.024-0.003,0.037-0.004c0.057,0.14,0.14,0.218,0.108,0.363C107.97,93.568,107.82,93.494,107.714,93.395z
			 M113.483,87.802c0-0.042-0.005-0.083-0.018-0.121C113.478,87.719,113.483,87.76,113.483,87.802z M113.482,87.844
			c0.076,0.037,0.126,0.05,0.159,0.047c0.019-0.002,0.032-0.011,0.039-0.024c-0.007,0.014-0.02,0.022-0.039,0.024
			C113.608,87.895,113.557,87.881,113.482,87.844L113.482,87.844z M107.266,55.198c-0.231-0.001-0.338,0.027-0.343,0.105
			C106.928,55.225,107.035,55.197,107.266,55.198c0.183-0.017,0.363,0.07,0.548,0.059C107.63,55.268,107.449,55.18,107.266,55.198z
			 M104.726,41.441C104.726,41.441,104.726,41.441,104.726,41.441c0.081,0.011,0.102,0.063,0.102,0.126
			C104.827,41.504,104.806,41.452,104.726,41.441z M105.274,38.975c0.04-0.001,0.07-0.013,0.091-0.033
			C105.344,38.963,105.315,38.974,105.274,38.975z M105.369,38.94c0.021-0.022,0.032-0.054,0.033-0.096
			c0.003-0.06-0.015-0.107-0.059-0.13c0.045,0.023,0.062,0.069,0.059,0.13C105.401,38.886,105.39,38.918,105.369,38.94z
			 M108.001,70.621c0.001-0.025,0.001-0.049,0.002-0.074c0.054-0.092,0.105-0.185,0.163-0.274c-0.058,0.089-0.109,0.183-0.163,0.274
			C108.003,70.572,108.002,70.596,108.001,70.621z M108.658,51.924c0.018,0.02,0.035,0.04,0.053,0.059
			C108.693,51.964,108.675,51.944,108.658,51.924z M106.977,28.546c0.03-0.001,0.059,0.001,0.089,0.005
			C107.037,28.547,107.007,28.545,106.977,28.546z M106.214,15.933c0.064-0.01,0.129-0.015,0.195-0.016
			C106.343,15.919,106.278,15.923,106.214,15.933z M10.995,57.648L10.995,57.648c-0.057,0.052-0.119,0.071-0.183,0.076
			C10.876,57.719,10.938,57.7,10.995,57.648z M16.953,13.477C16.953,13.477,16.953,13.477,16.953,13.477
			c-0.003-0.062-0.05-0.071-0.096-0.07C16.903,13.405,16.95,13.415,16.953,13.477z M30.47,25.074c0.071,0,0.142-0.005,0.213,0.001
			C30.612,25.069,30.541,25.074,30.47,25.074c-0.083,0-0.165-0.002-0.248,0C30.304,25.072,30.387,25.074,30.47,25.074z
			 M10.851,94.765c0.072-0.024,0.144-0.049,0.215-0.073c0.144-0.107,0.288-0.111,0.432,0.001l0,0
			c-0.144-0.112-0.288-0.109-0.432-0.001C10.994,94.716,10.922,94.74,10.851,94.765z M8.68,66.384
			c0.022-0.014,0.047-0.019,0.075-0.02C8.727,66.365,8.702,66.37,8.68,66.384z M8.651,66.411c-0.017,0.022-0.03,0.055-0.036,0.1l0,0
			C8.621,66.466,8.633,66.434,8.651,66.411z M10.634,60.89c0.096-0.024,0.192-0.048,0.288-0.072
			C10.825,60.841,10.73,60.865,10.634,60.89L10.634,60.89z M8.542,66.583L8.542,66.583c-0.023,0.001-0.047,0.001-0.07,0.002
			C8.495,66.584,8.518,66.583,8.542,66.583z M20.665,16.148c0.012-0.068,0.072-0.081,0.14-0.081
			c0.043,0.002,0.077,0.012,0.099,0.034c-0.022-0.021-0.056-0.032-0.099-0.034C20.738,16.067,20.677,16.08,20.665,16.148z
			 M23.533,18.992c-0.107,0.013-0.156,0.115-0.196,0.215c-0.003,0.073,0.03,0.137,0.089,0.147c-0.059-0.01-0.093-0.074-0.089-0.147
			C23.377,19.106,23.426,19.004,23.533,18.992z M24.702,85.322c0.038-0.001,0.077-0.008,0.106-0.024
			C24.779,85.313,24.74,85.32,24.702,85.322c-0.056,0-0.111-0.009-0.135-0.052C24.591,85.313,24.646,85.321,24.702,85.322z
			 M24.829,85.283c-0.003,0.002-0.006,0.004-0.009,0.006C24.823,85.287,24.826,85.285,24.829,85.283z M15.277,76.098
			c0.042,0,0.086,0.002,0.128-0.001C15.363,76.099,15.319,76.097,15.277,76.098c-0.024,0-0.048,0.001-0.071,0
			C15.229,76.098,15.253,76.098,15.277,76.098z M15.068,76.074c0.043,0.019,0.09,0.023,0.137,0.024
			C15.158,76.097,15.111,76.093,15.068,76.074z M18.086,46.053c-0.048,0.001-0.095,0.018-0.117,0.051
			C17.99,46.071,18.038,46.054,18.086,46.053c0.046,0.002,0.074,0.018,0.091,0.043C18.16,46.071,18.131,46.055,18.086,46.053z
			 M18.187,46.116C18.187,46.116,18.187,46.116,18.187,46.116C18.187,46.116,18.187,46.116,18.187,46.116z M18.191,46.13
			c0.003,0.011,0.005,0.023,0.006,0.035C18.196,46.153,18.194,46.141,18.191,46.13z M14.98,100.379
			c-0.123,0.082-0.238,0.241-0.239,0.361c0.007,0.069-0.015,0.154,0.054,0.194c-0.069-0.041-0.047-0.125-0.055-0.194
			C14.742,100.62,14.857,100.461,14.98,100.379z M25.784,33.432c0.096,0.001,0.193-0.01,0.237-0.082
			C25.976,33.421,25.88,33.432,25.784,33.432c-0.025,0-0.05,0-0.074-0.002C25.734,33.431,25.759,33.431,25.784,33.432z
			 M25.685,33.428c-0.015-0.002-0.029-0.004-0.043-0.008C25.656,33.423,25.67,33.426,25.685,33.428z M11.138,57.576
			c0.063-0.05,0.076-0.11,0.076-0.172C11.214,57.466,11.201,57.526,11.138,57.576L11.138,57.576z M9.768,58.843
			c0.03-0.034,0.056-0.071,0.075-0.113c-0.019-0.003-0.036-0.003-0.052,0c0.016-0.002,0.033-0.003,0.052,0
			C9.823,58.772,9.797,58.809,9.768,58.843c-0.02,0.023-0.041,0.044-0.063,0.065C9.726,58.887,9.748,58.865,9.768,58.843z
			 M9.805,58.962c-0.043,0.03-0.08,0.071-0.108,0.126l0,0C9.725,59.033,9.762,58.993,9.805,58.962z M8.846,64.383
			c0.022-0.229,0.268-0.331,0.463-0.196c0.155,0.108,0.272,0.109,0.422,0.023c0.163-0.094,0.446-0.181,0.503-0.068
			c0.102,0.205-0.207,0.226-0.316,0.35c-0.023,0.026-0.05,0.05-0.075,0.075c-0.515,0.234-0.916,0.66-1.476,0.832
			c-0.236,0.072-0.458,0.255-0.64,0.45c-0.058,0.062-0.144,0.131-0.215,0.049c-0.079-0.091,0.028-0.159,0.09-0.196
			c0.226-0.135,0.387-0.307,0.456-0.572c0.033-0.125,0.152-0.212,0.27-0.277C8.602,64.811,8.814,64.721,8.846,64.383z M8.039,66.872
			c0.012-0.001,0.025-0.002,0.038-0.002C8.064,66.871,8.051,66.871,8.039,66.872L8.039,66.872z M10.656,71.766
			c0.03,0.006,0.065,0.007,0.096,0.009c0.091-0.007,0.199,0.015,0.228-0.091c-0.03,0.106-0.137,0.085-0.228,0.091
			C10.722,71.773,10.687,71.772,10.656,71.766z M11.499,89.432c0.288-0.072,0.576-0.145,0.864-0.217
			C12.075,89.287,11.787,89.359,11.499,89.432L11.499,89.432z M9.941,94.844c-0.009-0.002-0.019-0.004-0.028-0.007
			c0.04-0.041,0.085-0.068,0.131-0.085c-0.047,0.017-0.091,0.043-0.131,0.085C9.922,94.84,9.931,94.842,9.941,94.844z
			 M20.94,109.323c0.014-0.001,0.027-0.001,0.041-0.001C20.967,109.322,20.954,109.322,20.94,109.323
			c-0.035,0.013-0.064,0.032-0.088,0.055C20.876,109.354,20.905,109.336,20.94,109.323z M9.336,34.585L9.336,34.585L9.336,34.585
			c0.051-0.022,0.102-0.045,0.154-0.068C9.439,34.539,9.388,34.562,9.336,34.585z M10.867,57.652
			c0.022,0.001,0.043,0.002,0.065,0.002C10.91,57.654,10.888,57.653,10.867,57.652z M9.049,73.595
			c0.024-0.002,0.045,0.005,0.063,0.018C9.095,73.6,9.073,73.593,9.049,73.595z M14.671,102.837
			c0.047-0.074,0.073-0.142,0.074-0.198C14.744,102.695,14.718,102.763,14.671,102.837L14.671,102.837z M19.341,105.796
			c-0.024,0.077-0.121,0.184-0.207,0.238C19.221,105.98,19.318,105.873,19.341,105.796z M94.383,109.54c0.359,0,0.718,0,1.077,0
			c0.029-0.005,0.055-0.007,0.08-0.008c-0.024,0.001-0.051,0.003-0.08,0.008l0,0C95.101,109.54,94.742,109.54,94.383,109.54
			c-0.025,0-0.049-0.001-0.074-0.001C94.333,109.54,94.358,109.54,94.383,109.54z M107.644,109.541L107.644,109.541l-0.002-0.002
			L107.644,109.541z M107.497,94.908c-0.024,0.001-0.047,0.001-0.071,0.001C107.45,94.909,107.474,94.909,107.497,94.908
			c0.071,0.002,0.137-0.004,0.198-0.026C107.635,94.904,107.568,94.91,107.497,94.908z M108.411,70.136
			c0.124,0.177,0.299,0.333,0.096,0.556c-0.192,0.132-0.296,0.042-0.361-0.144C108.217,70.404,108.387,70.325,108.411,70.136z
			 M108.86,52.273c0.014-0.048,0.013-0.108,0.006-0.174c-0.049-0.02-0.09-0.052-0.127-0.088c0.038,0.036,0.078,0.068,0.127,0.088
			C108.873,52.165,108.874,52.225,108.86,52.273z M108.577,51.667c0.035,0.061,0.076,0.115,0.124,0.163
			C108.653,51.783,108.612,51.729,108.577,51.667L108.577,51.667z M106.63,28.597c0.027,0.007,0.053,0.01,0.075,0.008l0,0
			C106.683,28.607,106.657,28.604,106.63,28.597c-0.028-0.007-0.057-0.017-0.087-0.031C106.573,28.58,106.602,28.59,106.63,28.597z
			 M106.275,28.383c-0.026-0.024-0.049-0.049-0.069-0.074C106.226,28.334,106.249,28.359,106.275,28.383z M105.118,26.731
			c-0.017-0.007-0.033-0.015-0.048-0.024C105.085,26.716,105.101,26.724,105.118,26.731L105.118,26.731z M106.704,15.92
			c-0.066-0.001-0.132-0.003-0.197-0.004C106.573,15.916,106.638,15.918,106.704,15.92c0-0.025,0-0.05,0.001-0.075
			C106.705,15.87,106.704,15.895,106.704,15.92z M14.596,13.609c-0.113,0.033-0.222,0.081-0.335,0.116
			C14.374,13.691,14.483,13.642,14.596,13.609c0.024-0.023,0.048-0.047,0.071-0.07C14.644,13.563,14.62,13.586,14.596,13.609z
			 M15.116,14.054c0.051,0.033,0.1,0.07,0.15,0.104c0.017,0.011,0.034,0.022,0.051,0.032c0.026,0.017,0.052,0.032,0.076,0.043
			c0.05,0.024,0.098,0.036,0.142,0.037c-0.045-0.001-0.093-0.014-0.142-0.037c-0.025-0.012-0.05-0.026-0.076-0.043
			c-0.017-0.01-0.035-0.021-0.051-0.032C15.216,14.124,15.168,14.086,15.116,14.054z M9.838,37.179L9.838,37.179
			c0.001-0.096,0.003-0.191,0.004-0.287C9.841,36.987,9.84,37.083,9.838,37.179z M9.48,38.477c0.001-0.015,0.002-0.029,0.004-0.043
			C9.482,38.447,9.481,38.462,9.48,38.477c0.004,0.032-0.001,0.06-0.011,0.085C9.479,38.536,9.484,38.508,9.48,38.477
			c-0.047,0.025-0.095,0.049-0.142,0.074l0,0C9.385,38.526,9.433,38.501,9.48,38.477z M6.629,68.732
			c0.057-0.07,0.119-0.137,0.184-0.203c0.022-0.051,0.054-0.09,0.098-0.119c-0.044,0.028-0.076,0.068-0.098,0.119
			C6.748,68.595,6.686,68.663,6.629,68.732c-0.086,0.105-0.161,0.215-0.217,0.336C6.468,68.948,6.543,68.837,6.629,68.732z
			 M5.876,73.575c-0.025,0.024-0.05,0.048-0.075,0.073h0C5.827,73.623,5.851,73.599,5.876,73.575z M9.191,71.196
			c0.025-0.027,0.049-0.055,0.072-0.083c0.071-0.084,0.14-0.171,0.215-0.251c-0.075,0.079-0.144,0.166-0.215,0.251
			C9.24,71.142,9.216,71.169,9.191,71.196c-0.07,0.012-0.135,0.031-0.193,0.06C9.056,71.228,9.121,71.208,9.191,71.196z
			 M9.177,84.605c0.03-0.024,0.06-0.049,0.088-0.075c0.008-0.004,0.017-0.009,0.025-0.015c-0.009,0.005-0.017,0.01-0.025,0.015
			C9.237,84.556,9.207,84.581,9.177,84.605c-0.045,0.036-0.091,0.072-0.135,0.109C9.086,84.678,9.132,84.642,9.177,84.605z
			 M8.956,84.79c-0.028,0.026-0.054,0.053-0.078,0.082C8.902,84.843,8.928,84.816,8.956,84.79z M11.067,85.108
			c0.024-0.008,0.047-0.022,0.07-0.033C11.114,85.086,11.091,85.099,11.067,85.108L11.067,85.108z M14.095,103.199
			c0.001,0.006,0.002,0.013,0.003,0.02C14.097,103.211,14.096,103.205,14.095,103.199c-0.001-0.025-0.001-0.05-0.002-0.075
			C14.094,103.149,14.094,103.174,14.095,103.199z M83.458,109.93c-0.107,0.011-0.214,0.025-0.32,0.043
			c-0.074,0.07-0.132,0.123-0.181,0.158c-0.025,0.018-0.047,0.031-0.068,0.039c0.021-0.009,0.044-0.022,0.068-0.039
			c0.049-0.035,0.107-0.087,0.181-0.158C83.245,109.955,83.351,109.941,83.458,109.93c0.107-0.011,0.214-0.019,0.321-0.024
			C83.672,109.912,83.565,109.919,83.458,109.93z M89.873,109.747c0.02,0,0.038-0.003,0.055-0.007
			C89.912,109.745,89.893,109.747,89.873,109.747z M89.912,109.465c0.061-0.009,0.081,0.015,0.089,0.037
			C89.988,109.476,89.967,109.457,89.912,109.465z M100.262,111.185c-0.188-0.11-0.398-0.046-0.598-0.059
			c-0.074-0.005-0.176,0.008-0.191,0.071c-0.08,0.325-0.486,0.236-0.618,0.507c-0.05,0.103-0.228,0.131-0.282-0.029
			c-0.069-0.204-0.216-0.192-0.373-0.191c-0.132-0.165,0.063-0.21,0.107-0.313c0.066-0.157,0.102-0.193,0.271-0.09
			c0.216,0.132,0.362-0.102,0.414-0.231c0.166-0.406,0.565-0.278,0.84-0.421c0.084-0.043,0.141,0.071,0.215,0.106
			c0.126,0.059,0.223,0.191,0.387,0.157c0.045,0.114,0.197,0.189,0.114,0.349C100.485,111.163,100.441,111.29,100.262,111.185z
			 M100.814,111.907c0.032,0.006,0.064,0.01,0.097,0.011C100.878,111.917,100.846,111.913,100.814,111.907z M101.01,111.916
			L101.01,111.916c0.019,0.004,0.037,0.006,0.055,0.006C101.047,111.923,101.029,111.921,101.01,111.916z M101.876,110.98
			c0.38-0.024,0.513-0.156,0.433-0.433c-0.09-0.266-0.167-0.52-0.41-0.722c-0.158-0.131-0.281-0.231-0.488-0.217
			c-0.18,0.013-0.257-0.087-0.256-0.263c0.002-0.258-0.042-0.522,0.213-0.714c0.143-0.109,0.032-0.328,0.149-0.462l0,0
			c0.033-0.015,0.073-0.051,0.096-0.042c0.577,0.221,1.177,0.074,1.765,0.112c0.125,0.008,0.241,0.01,0.3,0.145
			c0.11,0.14,0.202,0.301,0.336,0.415c0.162,0.138,0.051,0.322,0.121,0.469c0.001,0.003-0.052,0.042-0.083,0.048
			c-0.047,0.009-0.105,0.002-0.109-0.056c-0.005-0.07,0.029-0.147,0.012-0.212c-0.044-0.169-0.114-0.307-0.335-0.306
			c-0.229,0-0.292,0.131-0.299,0.317c-0.005,0.125-0.014,0.23-0.137,0.307c-0.106,0.066-0.106,0.195-0.072,0.295
			c0.061,0.178,0.075,0.375,0.205,0.526h0c-0.005,0.141,0.028,0.267,0.144,0.36c0.025,0.056,0.059,0.112,0.119,0.125
			c0.312,0.067,0.254,0.272,0.212,0.48c-0.109,0.019-0.136-0.053-0.144-0.1c-0.044-0.261-0.212-0.301-0.443-0.293
			c-0.398,0.015-0.407,0.017-0.298,0.436c-0.349,0-0.691,0-1.032,0c-0.024-0.024-0.048-0.049-0.071-0.073
			C101.805,111.064,101.814,111.009,101.876,110.98z M106.055,110.69c-0.122,0.037-0.243,0.069-0.366,0.094
			c-0.122,0.025-0.245,0.044-0.368,0.054c0.123-0.01,0.246-0.029,0.368-0.054C105.812,110.759,105.933,110.727,106.055,110.69
			c0.049-0.1,0.107-0.195,0.142-0.295C106.162,110.495,106.104,110.59,106.055,110.69z M106.221,110.309
			c0.006-0.029,0.008-0.06,0.008-0.091C106.23,110.249,106.227,110.279,106.221,110.309z M107.688,109.537
			c0.03,0,0.062,0.004,0.093,0.007C107.75,109.541,107.718,109.537,107.688,109.537z M107.572,97.862
			c-0.016-0.032-0.033-0.063-0.049-0.095C107.539,97.799,107.555,97.83,107.572,97.862c0.131,0.088,0.277,0.126,0.426,0.157
			C107.848,97.989,107.702,97.951,107.572,97.862z"/>
		<path d="M10.054,50.137c-0.007-0.108-0.062-0.179-0.173-0.194c-0.103-0.015-0.197,0.011-0.237,0.115
			C9.551,50.3,9.442,50.539,9.413,50.8c-0.021,0.191,0.114,0.291,0.258,0.18c0.201-0.155,0.448-0.304,0.383-0.619
			C10.055,50.28,10.058,50.208,10.054,50.137z"/>
		<path d="M107.772,33.017c0.111,0.083,0.198,0.014,0.236-0.068c0.089-0.192,0.152-0.396,0.21-0.551
			c-0.007-0.156-0.046-0.242-0.161-0.253c-0.115-0.011-0.188,0.06-0.19,0.167c-0.002,0.172-0.035,0.325-0.146,0.463
			C107.646,32.867,107.681,32.949,107.772,33.017z"/>
		<path d="M113.719,91.907c-0.204,0.002-0.312-0.103-0.399-0.271c-0.031-0.061-0.13-0.04-0.2-0.043
			c-0.065-0.144-0.21-0.206-0.332-0.257c-0.182-0.076-0.391-0.072-0.499,0.14c-0.085,0.167-0.056,0.373,0.123,0.427
			c0.191,0.058,0.35,0.209,0.562,0.196c0.139,0.305,0.423-0.037,0.6,0.131c0.026,0.025,0.114-0.002,0.167-0.022
			c0.058-0.022,0.089-0.078,0.09-0.141C113.831,91.988,113.788,91.906,113.719,91.907z"/>
		<path d="M49.881,5.287c0.122-0.016,0.185-0.094,0.178-0.226c-0.008-0.154-0.201-0.388-0.329-0.378
			c-0.136,0.01-0.175,0.106-0.174,0.227C49.562,5.088,49.742,5.305,49.881,5.287z"/>
		<path d="M53.102,6.332c0.128,0.004,0.258-0.019,0.257-0.174c-0.001-0.154-0.078-0.274-0.261-0.257
			c-0.14-0.002-0.294,0.005-0.288,0.182C52.815,6.243,52.939,6.326,53.102,6.332z"/>
		<path d="M64.434,8.2c0.131-0.005,0.203-0.108,0.202-0.209c-0.002-0.175-0.148-0.243-0.277-0.288
			c-0.122,0.005-0.214,0.026-0.227,0.147C64.118,7.976,64.317,8.205,64.434,8.2z"/>
		<path d="M8.313,87.728c-0.142,0.02-0.276,0.09-0.273,0.276c0.002,0.102,0.005,0.197,0.195,0.199
			c0.11-0.032,0.248-0.12,0.279-0.278C8.536,87.818,8.427,87.712,8.313,87.728z"/>
		<path d="M108.151,96.495c-0.004,0.145,0.082,0.212,0.239,0.213c0.151-0.017,0.191-0.124,0.189-0.272
			c-0.002-0.137-0.096-0.203-0.2-0.202C108.229,96.234,108.155,96.35,108.151,96.495z"/>
		<path d="M108.971,28.964c0.15-0.004,0.3-0.058,0.296-0.227c-0.004-0.157-0.167-0.131-0.283-0.134
			c-0.15-0.003-0.26,0.048-0.255,0.22C108.734,28.987,108.863,28.956,108.971,28.964z"/>
		<path d="M7.246,85.858c-0.006-0.102,0.027-0.229-0.134-0.24c-0.225-0.016-0.211,0.181-0.274,0.318
			c-0.013,0.117,0.06,0.181,0.165,0.169C7.137,86.09,7.256,86.029,7.246,85.858z"/>
		<path d="M110.855,69.109c0.089-0.017,0.257,0.032,0.22-0.129c-0.03-0.13-0.173-0.215-0.321-0.23
			c-0.119-0.012-0.223,0.044-0.218,0.172C110.545,69.126,110.711,69.105,110.855,69.109z"/>
		<path d="M110.117,93.825c-0.128,0-0.247,0.004-0.236,0.16c0.011,0.158,0.114,0.284,0.259,0.295
			c0.1,0.008,0.163-0.121,0.169-0.241C110.317,93.89,110.26,93.81,110.117,93.825z"/>
		<path d="M104.98,44.32c-0.008,0.105,0.044,0.194,0.157,0.198c0.183,0.006,0.197-0.131,0.199-0.274
			c-0.007-0.111,0.007-0.276-0.154-0.257C105.025,44.006,104.991,44.177,104.98,44.32z"/>
		<path d="M8.614,86.881c0.173-0.022,0.246-0.179,0.264-0.331c0.013-0.116-0.1-0.14-0.211-0.144
			c-0.157,0.016-0.201,0.124-0.194,0.271C8.478,86.777,8.499,86.896,8.614,86.881z"/>
		<path d="M109.399,55.174c0.2-0.034,0.246-0.261,0.258-0.455c0.007-0.115,0.026-0.255-0.134-0.289
			c-0.124-0.026-0.292,0.224-0.297,0.423C109.233,54.993,109.208,55.206,109.399,55.174z"/>
		<path d="M77.596,110.475c-0.089,0.014-0.245,0.019-0.26,0.15c-0.014,0.123,0.109,0.201,0.243,0.208
			c0.139,0.007,0.248-0.073,0.268-0.193C77.87,110.497,77.738,110.48,77.596,110.475z"/>
		<path d="M4.854,70.12c-0.152,0.011-0.204,0.106-0.2,0.244c0.002,0.083-0.005,0.18,0.142,0.15
			c0.196-0.005,0.338-0.084,0.311-0.188C5.075,70.201,5.003,70.109,4.854,70.12z"/>
		<path d="M54.082,6.472c0.102,0.012,0.218-0.028,0.199-0.146c-0.026-0.159-0.218-0.164-0.311-0.273
			c-0.083,0.023-0.149,0.061-0.152,0.141C53.813,6.368,53.923,6.454,54.082,6.472z"/>
		<path d="M111.945,92.03c-0.126,0.01-0.19,0.083-0.192,0.208c-0.002,0.138,0.102,0.195,0.205,0.194
			c0.131-0.002,0.197-0.109,0.219-0.236C112.148,92.071,112.067,92.02,111.945,92.03z"/>
		<path d="M9.764,75.664c-0.001-0.123-0.061-0.201-0.188-0.21c-0.14-0.01-0.228,0.052-0.234,0.202
			c-0.005,0.132,0.082,0.156,0.188,0.153C9.633,75.806,9.754,75.828,9.764,75.664z"/>
		<path d="M16.204,10.255c0.184-0.016,0.3-0.076,0.316-0.227c0.012-0.118-0.084-0.158-0.188-0.159
			c-0.144-0.002-0.219,0.075-0.217,0.218C16.116,10.173,16.136,10.252,16.204,10.255z"/>
		<path d="M62.07,7.342c0.093-0.008,0.16-0.033,0.161-0.14c0.001-0.145-0.076-0.213-0.216-0.218
			c-0.102,0.009-0.2,0.042-0.185,0.161C61.846,7.27,61.922,7.355,62.07,7.342z"/>
		<path d="M7.41,87.499c-0.123,0.029-0.282,0.055-0.279,0.221c0.001,0.09,0.09,0.163,0.2,0.179
			c0.116-0.051,0.198-0.129,0.2-0.266C7.532,87.553,7.5,87.478,7.41,87.499z"/>
		<path d="M46.699,5.468c0.136,0.005,0.197-0.057,0.185-0.188c0.005-0.125-0.056-0.183-0.173-0.166
			c-0.126,0.019-0.234,0.089-0.229,0.223C46.486,5.453,46.6,5.464,46.699,5.468z"/>
		<path d="M108.288,31.448c0.003-0.092-0.097-0.146-0.183-0.149c-0.137-0.003-0.162,0.128-0.162,0.232
			c-0.001,0.11,0.078,0.175,0.192,0.158C108.249,31.673,108.287,31.588,108.288,31.448z"/>
		<path d="M106.964,29.545c-0.014,0.095,0.055,0.119,0.132,0.134c0.164-0.017,0.207-0.149,0.234-0.275
			c0.016-0.077-0.049-0.139-0.131-0.13C107.041,29.289,106.984,29.406,106.964,29.545z"/>
		<path d="M106.36,112.073c-0.134,0.019-0.166,0.122-0.154,0.24c0.009,0.092,0.055,0.156,0.16,0.161
			c0.097-0.051,0.19-0.116,0.185-0.238C106.547,112.127,106.474,112.057,106.36,112.073z"/>
		<path d="M8.25,89.609c0.005-0.11-0.031-0.173-0.139-0.173c-0.127,0-0.201,0.062-0.211,0.189
			c-0.008,0.097,0.031,0.161,0.139,0.161C8.166,89.786,8.237,89.723,8.25,89.609z"/>
		<path d="M109.011,33.388c0,0.109,0.027,0.189,0.157,0.184c0.109-0.004,0.177-0.057,0.195-0.168
			c-0.007-0.113-0.071-0.173-0.18-0.183C109.063,33.209,109.01,33.268,109.011,33.388z"/>
		<path d="M107.595,31.698c0.073-0.006,0.156-0.029,0.145-0.115c-0.017-0.134-0.09-0.265-0.229-0.279
			c-0.113-0.012-0.075,0.118-0.085,0.177C107.419,31.616,107.446,31.71,107.595,31.698z"/>
		<path d="M6.397,68.158c0.111,0.015,0.171-0.051,0.193-0.154c-0.004-0.113-0.061-0.181-0.17-0.186
			c-0.091-0.004-0.157,0.05-0.171,0.142C6.233,68.071,6.289,68.144,6.397,68.158z"/>
		<path d="M11.262,49.131c0.132-0.012,0.163-0.121,0.201-0.237c-0.03-0.085-0.099-0.112-0.19-0.106
			c-0.139,0.008-0.135,0.108-0.133,0.206C11.143,49.072,11.168,49.139,11.262,49.131z"/>
		<path d="M108.202,111.072c-0.087,0.04-0.178,0.093-0.176,0.196c0.002,0.119,0.103,0.144,0.205,0.14
			c0.111-0.005,0.133-0.08,0.125-0.172C108.347,111.145,108.304,111.081,108.202,111.072z"/>
		<path d="M9.404,61.501c0.004-0.114-0.033-0.174-0.141-0.172c-0.108,0.001-0.142,0.065-0.141,0.16
			c0.001,0.083-0.006,0.18,0.111,0.181C9.347,61.671,9.395,61.591,9.404,61.501z"/>
		<path d="M101.467,112.304c-0.109-0.011-0.205,0.042-0.279,0.15c0.027,0.069,0.079,0.11,0.156,0.109
			c0.09-0.001,0.206,0.037,0.232-0.099C101.591,112.387,101.542,112.311,101.467,112.304z"/>
		<path d="M14.307,107.025c-0.005-0.037,0.008-0.135-0.089-0.123c-0.094,0.012-0.162,0.093-0.183,0.19
			c-0.018,0.083,0.029,0.131,0.114,0.137C14.272,107.236,14.313,107.165,14.307,107.025z"/>
		<path d="M83.793,110.627c-0.102-0.003-0.148,0.049-0.145,0.148c0.002,0.085,0.049,0.125,0.131,0.128
			c0.102,0.004,0.149-0.048,0.145-0.148C83.921,110.671,83.875,110.63,83.793,110.627z"/>
		<path d="M44.268,9.222c0.127-0.086,0.136-0.186,0.023-0.294c-0.095,0-0.191,0-0.287,0
			c-0.118,0.103-0.094,0.214,0.002,0.309C44.089,9.321,44.185,9.278,44.268,9.222z"/>
		<path d="M81.278,9.935c0.079,0,0.169,0.013,0.19-0.1c-0.005-0.093-0.069-0.111-0.144-0.112
			c-0.093-0.002-0.214-0.014-0.228,0.101C81.086,9.922,81.194,9.936,81.278,9.935z"/>
		<path d="M91.913,9.475c0.12,0.001,0.079-0.115,0.091-0.189c-0.013-0.073,0.024-0.19-0.099-0.182
			c-0.09,0.006-0.118,0.1-0.116,0.188C91.791,9.382,91.822,9.474,91.913,9.475z"/>
		<path d="M93.077,111.144c-0.08,0.019-0.124,0.069-0.127,0.147c-0.004,0.119,0.083,0.126,0.168,0.118
			c0.07-0.007,0.153-0.03,0.133-0.119C93.233,111.208,93.166,111.153,93.077,111.144z"/>
		<path d="M46.499,8.975c0.081,0.02,0.13-0.032,0.153-0.109c0.002-0.069-0.04-0.115-0.097-0.129
			c-0.081-0.019-0.135,0.03-0.149,0.108C46.392,8.914,46.442,8.961,46.499,8.975z"/>
		<path d="M6.553,30.154c0.051,0.024,0.085,0.003,0.105-0.051c0.009-0.061-0.012-0.11-0.081-0.119
			c-0.045-0.006-0.094,0.004-0.096,0.066C6.479,30.101,6.51,30.134,6.553,30.154z"/>
		<path d="M115.309,86.884c-0.043-0.03-0.084,0.002-0.09,0.058c-0.007,0.057-0.012,0.114,0.049,0.15
			c0.063,0.006,0.081-0.04,0.08-0.085C115.346,86.964,115.337,86.904,115.309,86.884z"/>
		<path d="M16.478,10.788c-0.002,0.055-0.006,0.128,0.078,0.12c0.052-0.005,0.056-0.063,0.056-0.027
			c-0.003-0.129-0.003-0.181-0.063-0.186C16.485,10.688,16.48,10.744,16.478,10.788z"/>
		<path d="M14.573,110.27c-0.03,0.001-0.072,0.015-0.087,0.037c-0.02,0.031,0.002,0.063,0.052,0.076
			c0.021-0.013,0.057-0.024,0.075-0.048C14.641,110.297,14.609,110.27,14.573,110.27z"/>
		<path d="M102.634,88.053c0.134,0.026,0.239-0.035,0.246-0.184c0.008-0.184-0.103-0.277-0.295-0.316
			c-0.13,0.033-0.27,0.097-0.263,0.264C102.329,87.99,102.497,88.026,102.634,88.053z"/>
		<path d="M103.179,88.183c0.084-0.001,0.118-0.069,0.131-0.146c-0.006-0.091-0.04-0.17-0.143-0.169
			c-0.082,0.001-0.125,0.068-0.129,0.146C103.035,88.106,103.076,88.184,103.179,88.183z"/>
	</g>
</g>
</svg>
