<?xml version="1.0" encoding="utf-8"?>
<!-- Generator: Adobe Illustrator 27.5.0, SVG Export Plug-In . SVG Version: 6.00 Build 0)  -->
<svg version="1.1" xmlns="http://www.w3.org/2000/svg" xmlns:xlink="http://www.w3.org/1999/xlink" x="0px" y="0px"
	width="500" height="500" viewBox="35 25 430 430" xml:space="preserve" preserveAspectRatio="none" fill="#444e6c">
<g id="OBJECTS">
	<g>
		<g>
			<g>
				<g>
					<g>
						<path d="M47.209,79.367c-1.072,0-2.135-0.21-3.113-0.64c-2.783-1.224-4.509-3.945-4.86-7.661
							c-0.981-10.39,2.472-16.957,10.263-19.519c8.946-2.94,14.314,1.077,14.539,1.249c0.387,0.298,0.46,0.854,0.162,1.242
							c-0.297,0.387-0.851,0.459-1.239,0.164l0,0c-0.196-0.148-4.899-3.606-12.908-0.972c-6.998,2.3-9.96,8.081-9.054,17.67
							c0.288,3.049,1.641,5.254,3.81,6.207c2.03,0.894,4.552,0.556,6.422-0.86c2.061-1.561,2.02-3.976,0.934-5.454
							c-0.766-1.044-2.185-1.734-3.871-0.534c-0.398,0.284-0.951,0.19-1.235-0.208c-0.283-0.398-0.19-0.951,0.208-1.235
							c2.559-1.822,5.021-0.846,6.324,0.929c1.586,2.16,1.672,5.668-1.293,7.914C50.814,78.782,48.999,79.367,47.209,79.367z"/>
						<path d="M42.947,123.984c-0.513,0-1.01-0.139-1.466-0.418c-1.429-0.872-2.249-2.953-2.249-5.709
							c0-13.339,4.403-22.428,6.236-25.634c-1.198-0.308-2.082-1.124-2.472-2.339c-0.544-1.693,0.024-3.678,1.266-4.423
							c1.263-0.759,2.626-0.211,3.596,0.434c0.804-3.299,3.384-8.873,3.988-10.156c0.208-0.443,0.737-0.633,1.178-0.424
							c0.443,0.208,0.632,0.736,0.424,1.178c-1.625,3.452-4.165,9.502-4.059,11.036c0.026,0.374-0.187,0.724-0.531,0.873
							c-0.344,0.151-0.744,0.066-1-0.209c-0.553-0.589-1.939-1.664-2.685-1.215c-0.422,0.253-0.815,1.357-0.492,2.363
							c0.294,0.916,1.038,1.33,2.221,1.235c0.345-0.029,0.667,0.143,0.837,0.438c0.172,0.295,0.158,0.663-0.035,0.945
							c-0.067,0.098-6.703,9.991-6.703,25.897c0,2.467,0.755,3.803,1.401,4.198c0.36,0.22,0.761,0.211,1.224-0.028
							c0.691-0.355,1.075-0.997,0.978-1.635c-0.098-0.638-0.648-1.089-1.51-1.239c-0.482-0.084-0.805-0.543-0.721-1.024
							c0.084-0.481,0.538-0.802,1.024-0.721c1.611,0.281,2.744,1.321,2.957,2.717c0.214,1.403-0.539,2.767-1.918,3.477
							C43.942,123.857,43.437,123.984,42.947,123.984z"/>
						<path d="M40.117,118.743c-0.489,0-0.885-0.396-0.885-0.885V70.983c0-0.489,0.396-0.885,0.885-0.885
							c0.489,0,0.885,0.396,0.885,0.885v46.875C41.002,118.346,40.606,118.743,40.117,118.743z"/>
						<path d="M53.402,69.958c-2.077,0-4.256-1.529-5.299-3.718c-1.279-2.686-0.701-5.845,1.589-8.667
							c5.527-6.813,15.219-3.524,15.629-3.38c0.461,0.161,0.704,0.665,0.543,1.127c-0.161,0.461-0.667,0.704-1.127,0.545
							c-0.089-0.031-8.933-3.015-13.67,2.824c-2.521,3.108-1.937,5.588-1.365,6.79c0.748,1.57,2.304,2.709,3.701,2.709
							c1.391,0,2.269-0.963,2.39-1.868c0.058-0.437-0.016-1.216-1.171-1.531c-0.472-0.128-0.75-0.615-0.622-1.086
							c0.128-0.472,0.614-0.752,1.086-0.622c1.715,0.466,2.682,1.829,2.462,3.473C57.327,68.204,55.799,69.958,53.402,69.958z"/>
						<path d="M41.989,50.164c-0.734,0-1.491-0.156-2.272-0.552c-0.215-0.109-0.377-0.302-0.447-0.533
							c-0.07-0.231-0.043-0.48,0.076-0.691c0.105-0.186,2.608-4.568,6.515-5.04c3.705-0.45,10.05,2.336,10.318,2.454
							c0.426,0.188,0.63,0.673,0.476,1.105c1.728,0.651,2.82,1.37,2.911,1.431c0.406,0.271,0.514,0.82,0.244,1.226
							c-0.272,0.406-0.821,0.516-1.227,0.246c-0.041-0.027-4.167-2.724-9.059-2.106c-1.126,0.143-2.243,0.67-3.322,1.181
							C44.909,49.498,43.5,50.164,41.989,50.164z M41.492,48.352c1.273,0.205,2.536-0.396,3.952-1.066
							c1.205-0.57,2.451-1.159,3.857-1.337c0.608-0.077,1.2-0.11,1.783-0.108c-1.733-0.507-3.636-0.902-5.012-0.734
							C44.002,45.356,42.337,47.208,41.492,48.352z"/>
						<path d="M58.924,63.441c-0.138,0-0.274-0.007-0.409-0.021c-0.843-0.089-1.539-0.469-2.012-1.1
							c-0.739-0.985-0.831-2.109-0.248-3.007c0.603-0.928,1.812-1.395,2.937-1.137c0.477,0.109,0.775,0.584,0.665,1.06
							c-0.109,0.477-0.585,0.777-1.06,0.665c-0.403-0.09-0.858,0.07-1.057,0.377c-0.213,0.328-0.02,0.714,0.18,0.98
							c0.111,0.149,0.313,0.352,0.78,0.401c1.127,0.109,2.98-0.737,4.518-2.079c3.258-2.844,6.061-1.439,6.178-1.377
							c0.434,0.225,0.603,0.76,0.377,1.194c-0.223,0.431-0.753,0.599-1.184,0.382c-0.097-0.047-1.907-0.871-4.208,1.136
							C62.943,62.169,60.803,63.44,58.924,63.441z"/>
						<path d="M67.663,66.025c-0.501,0-1.003-0.191-1.385-0.573c-0.764-0.764-0.764-2.006,0-2.77l3.202-3.202
							c0.346-0.346,0.906-0.346,1.252,0c0.346,0.346,0.346,0.906,0,1.252l-3.202,3.202c-0.074,0.073-0.074,0.193,0,0.266
							c0.073,0.074,0.193,0.074,0.266,0l3.202-3.202c0.346-0.346,0.906-0.346,1.252,0c0.346,0.346,0.346,0.906,0,1.252l-3.202,3.202
							C68.667,65.835,68.165,66.025,67.663,66.025z"/>
						<path d="M58.178,76.467c-0.19,0-0.38-0.061-0.54-0.184c-0.337-0.259-0.442-0.721-0.251-1.1
							c0.088-0.174,2.215-4.284,7.878-5.932c4.876-1.42,6.492-6.819,6.508-6.873c0.136-0.47,0.629-0.741,1.097-0.604
							c0.469,0.136,0.74,0.627,0.604,1.097c-0.075,0.26-1.913,6.392-7.714,8.08c-1.358,0.396-2.484,0.956-3.403,1.561
							c2.2-0.612,5.088-0.851,8.513,0.142c0.054-0.722,0.262-1.556,0.863-2.102c0.392-0.355,1.095-0.717,2.223-0.427
							c1.215,0.314,1.723,0.998,1.934,1.517c0.195,0.479,0.209,0.973,0.143,1.416c1.853-0.123,5.305-0.083,9.379,1.238
							c0.465,0.15,0.72,0.65,0.569,1.115c-0.15,0.465-0.647,0.722-1.115,0.569c-5.536-1.794-9.92-1.026-9.964-1.02
							c-0.343,0.066-0.691-0.081-0.889-0.368c-0.198-0.287-0.209-0.663-0.029-0.961c0.154-0.261,0.426-0.934,0.265-1.324
							c-0.086-0.207-0.333-0.364-0.736-0.468c-0.2-0.052-0.465-0.09-0.589,0.022c-0.309,0.281-0.344,1.296-0.25,1.889
							c0.049,0.309-0.07,0.622-0.312,0.822c-0.242,0.199-0.573,0.255-0.866,0.148c-7.716-2.817-12.682,1.479-12.73,1.523
							C58.599,76.392,58.389,76.467,58.178,76.467z"/>
						<path d="M40.117,44.629c-0.076,0-0.153-0.01-0.229-0.03c-0.387-0.103-0.656-0.454-0.656-0.855V30.117
							c0-0.489,0.396-0.885,0.885-0.885c0.489,0,0.885,0.396,0.885,0.885v11.247c0.327-0.262,0.695-0.494,1.098-0.653
							c0.023-0.709,0.181-1.714,0.82-2.356c0.437-0.44,1.02-0.635,1.684-0.57c0.912,0.091,1.41,0.554,1.666,0.926
							c0.344,0.5,0.437,1.092,0.436,1.588c1.415,0.197,4.243,0.767,7.172,2.377c0.429,0.236,0.585,0.774,0.35,1.202
							c-0.236,0.428-0.776,0.584-1.202,0.35c-3.701-2.034-7.313-2.258-7.349-2.26c-0.266-0.015-0.513-0.15-0.669-0.366
							c-0.156-0.216-0.207-0.492-0.137-0.749c0.08-0.307,0.117-0.886-0.059-1.138c-0.027-0.038-0.097-0.14-0.384-0.168
							c-0.177-0.017-0.225,0.029-0.253,0.057c-0.271,0.273-0.344,1.173-0.29,1.69c0.051,0.484-0.299,0.918-0.783,0.971
							c-0.969,0.108-1.951,1.456-2.218,1.92C40.723,44.465,40.428,44.629,40.117,44.629z"/>
					</g>
					<g>
						<path d="M63.498,54.383c-0.265,0-0.528-0.119-0.702-0.345c-0.172-0.224-4.19-5.593-1.249-14.539
							c2.562-7.791,9.125-11.246,19.519-10.263c3.716,0.351,6.438,2.077,7.661,4.86c1.148,2.61,0.728,5.83-1.069,8.203
							c-2.246,2.964-5.753,2.879-7.914,1.293c-1.775-1.303-2.751-3.765-0.929-6.324c0.284-0.399,0.836-0.491,1.234-0.208
							c0.398,0.284,0.492,0.836,0.208,1.234c-1.199,1.685-0.51,3.104,0.534,3.871c1.477,1.086,3.893,1.126,5.454-0.934
							c1.416-1.87,1.754-4.391,0.86-6.422c-0.953-2.169-3.158-3.522-6.207-3.81c-9.59-0.908-15.369,2.056-17.67,9.054
							c-2.652,8.065,0.933,12.858,0.97,12.906c0.298,0.388,0.226,0.943-0.162,1.241C63.876,54.323,63.686,54.383,63.498,54.383z"/>
						<path d="M86.117,43.532c-0.332,0-0.65-0.188-0.801-0.508c-0.208-0.442-0.019-0.97,0.424-1.178
							c1.283-0.604,6.857-3.184,10.156-3.988c-0.645-0.97-1.193-2.332-0.434-3.596c0.746-1.243,2.73-1.812,4.423-1.266
							c1.215,0.39,2.031,1.274,2.339,2.472c3.205-1.833,12.294-6.236,25.634-6.236c2.756,0,4.837,0.82,5.709,2.249
							c0.544,0.892,0.557,1.942,0.035,2.956c-0.709,1.379-2.072,2.133-3.477,1.918c-1.395-0.213-2.436-1.346-2.717-2.957
							c-0.084-0.482,0.239-0.94,0.72-1.024c0.486-0.082,0.94,0.239,1.024,0.721c0.15,0.862,0.602,1.413,1.239,1.51
							c0.637,0.099,1.279-0.286,1.635-0.978c0.238-0.463,0.248-0.864,0.028-1.224c-0.394-0.647-1.73-1.401-4.198-1.401
							c-15.906,0-25.799,6.636-25.897,6.703c-0.28,0.192-0.648,0.207-0.944,0.035c-0.295-0.171-0.466-0.497-0.438-0.837
							c0.096-1.179-0.32-1.927-1.235-2.221c-1.006-0.322-2.11,0.07-2.363,0.492c-0.448,0.747,0.625,2.132,1.216,2.686
							c0.273,0.256,0.356,0.657,0.206,1c-0.15,0.344-0.502,0.553-0.872,0.53c-1.52-0.1-7.583,2.434-11.036,4.059
							C86.372,43.505,86.244,43.532,86.117,43.532z"/>
						<path d="M127.857,31.002H80.983c-0.489,0-0.885-0.396-0.885-0.885c0-0.489,0.396-0.885,0.885-0.885
							h46.875c0.489,0,0.885,0.396,0.885,0.885C128.743,30.606,128.346,31.002,127.857,31.002z"/>
						<path d="M65.028,55.914c-0.366,0-0.708-0.228-0.835-0.593c-0.144-0.41-3.433-10.101,3.38-15.629
							c2.822-2.289,5.982-2.868,8.667-1.589c2.189,1.043,3.718,3.222,3.718,5.299c0,2.397-1.754,3.925-3.404,4.145
							c-1.645,0.219-3.007-0.747-3.473-2.462c-0.128-0.472,0.15-0.958,0.622-1.086c0.472-0.129,0.958,0.15,1.086,0.622
							c0.314,1.156,1.095,1.232,1.531,1.171c0.906-0.121,1.868-0.999,1.868-2.39c0-1.396-1.139-2.953-2.709-3.701
							c-1.201-0.572-3.681-1.157-6.79,1.365c-5.839,4.738-2.855,13.582-2.824,13.67c0.16,0.462-0.083,0.966-0.545,1.127
							C65.223,55.898,65.125,55.914,65.028,55.914z"/>
						<path d="M59.074,49.959c-0.285,0-0.565-0.137-0.736-0.393c-0.061-0.091-0.78-1.183-1.431-2.911
							c-0.431,0.153-0.916-0.05-1.105-0.476c-0.118-0.268-2.902-6.613-2.454-10.318c0.472-3.907,4.853-6.411,5.04-6.515
							c0.21-0.118,0.46-0.145,0.691-0.076c0.231,0.07,0.423,0.232,0.532,0.447c1.212,2.39,0.183,4.565-0.725,6.485
							c-0.511,1.08-1.039,2.196-1.181,3.322c-0.62,4.89,2.078,9.018,2.105,9.059c0.27,0.407,0.16,0.956-0.246,1.227
							C59.414,49.911,59.243,49.959,59.074,49.959z M58.352,31.493c-1.144,0.845-2.996,2.51-3.246,4.58
							c-0.166,1.377,0.227,3.279,0.734,5.012c-0.002-0.579,0.031-1.174,0.108-1.783c0.178-1.406,0.768-2.652,1.337-3.857
							C57.956,34.028,58.553,32.765,58.352,31.493z"/>
						<path d="M68.989,59.874c-0.32,0-0.629-0.174-0.786-0.477c-0.061-0.118-1.465-2.92,1.377-6.178
							c1.342-1.538,2.197-3.397,2.079-4.518c-0.049-0.467-0.253-0.669-0.401-0.78c-0.267-0.2-0.653-0.393-0.98-0.18
							c-0.307,0.199-0.469,0.654-0.377,1.057c0.109,0.476-0.188,0.951-0.665,1.06c-0.472,0.113-0.951-0.188-1.06-0.665
							c-0.258-1.126,0.21-2.334,1.137-2.937c0.897-0.583,2.021-0.491,3.007,0.248c0.63,0.472,1.011,1.168,1.1,2.011
							c0.208,1.971-1.158,4.323-2.505,5.868c-2.058,2.359-1.15,4.18-1.14,4.198c0.226,0.434,0.057,0.968-0.377,1.193
							C69.266,59.842,69.127,59.874,68.989,59.874z"/>
						<path d="M71.625,62.51c-0.227,0-0.453-0.086-0.626-0.259c-0.346-0.346-0.346-0.906,0-1.252l3.202-3.202
							c0.073-0.074,0.073-0.193,0-0.266c-0.074-0.074-0.193-0.074-0.266,0l-3.202,3.202c-0.346,0.346-0.906,0.346-1.252,0
							c-0.346-0.346-0.346-0.906,0-1.252l3.202-3.202c0.763-0.764,2.007-0.764,2.77,0c0.764,0.764,0.764,2.006,0,2.77l-3.202,3.202
							C72.078,62.424,71.851,62.51,71.625,62.51z"/>
						<path d="M85.139,76.024c-0.373,0-0.721-0.238-0.842-0.613c-1.32-4.073-1.359-7.525-1.238-9.379
							c-0.444,0.066-0.938,0.052-1.417-0.143c-0.519-0.211-1.203-0.719-1.517-1.934c-0.291-1.129,0.071-1.832,0.427-2.223
							c0.546-0.6,1.38-0.809,2.102-0.863c-0.993-3.425-0.754-6.313-0.142-8.513c-0.605,0.919-1.165,2.045-1.561,3.403
							c-1.688,5.801-7.82,7.639-8.08,7.714c-0.47,0.137-0.958-0.134-1.095-0.603c-0.137-0.469,0.133-0.96,0.601-1.097
							c0.054-0.016,5.462-1.656,6.875-6.508c1.648-5.663,5.758-7.791,5.932-7.878c0.38-0.19,0.842-0.086,1.1,0.251
							c0.259,0.337,0.243,0.81-0.039,1.128c-0.176,0.201-4.323,5.058-1.523,12.73c0.108,0.295,0.051,0.624-0.148,0.866
							c-0.2,0.243-0.515,0.361-0.822,0.312c-0.595-0.091-1.612-0.055-1.889,0.251c-0.112,0.123-0.074,0.388-0.022,0.588
							c0.104,0.405,0.263,0.652,0.471,0.737c0.401,0.163,1.109-0.138,1.321-0.266c0.297-0.181,0.673-0.169,0.961,0.029
							c0.287,0.198,0.431,0.546,0.368,0.889c-0.008,0.043-0.774,4.426,1.02,9.964c0.151,0.465-0.104,0.964-0.569,1.115
							C85.321,76.01,85.229,76.024,85.139,76.024z"/>
						<path d="M53.453,44.337c-0.313,0-0.616-0.165-0.777-0.459c-1.61-2.929-2.181-5.756-2.377-7.172
							c-0.002,0-0.004,0-0.006,0c-0.494,0-1.084-0.093-1.582-0.436c-0.372-0.257-0.835-0.754-0.926-1.666
							c-0.066-0.664,0.131-1.246,0.57-1.684c0.642-0.639,1.647-0.798,2.356-0.82c0.16-0.403,0.392-0.771,0.654-1.098H40.117
							c-0.489,0-0.885-0.396-0.885-0.885c0-0.489,0.396-0.885,0.885-0.885h13.626c0.401,0,0.752,0.269,0.855,0.656
							c0.104,0.387-0.066,0.796-0.413,0.996c-0.463,0.27-1.813,1.258-1.92,2.218c-0.054,0.483-0.485,0.826-0.971,0.783
							c-0.534-0.051-1.419,0.019-1.691,0.291c-0.028,0.028-0.075,0.075-0.057,0.252c0.029,0.287,0.13,0.357,0.168,0.384
							c0.252,0.175,0.831,0.138,1.142,0.057c0.257-0.066,0.533-0.014,0.746,0.142c0.214,0.156,0.35,0.4,0.364,0.665
							c0.002,0.036,0.226,3.648,2.26,7.349c0.236,0.428,0.079,0.967-0.35,1.202C53.743,44.302,53.597,44.337,53.453,44.337z"/>
					</g>
				</g>
				<g>
					<g>
						<path d="M452.791,79.367c-1.79,0-3.605-0.585-5.089-1.709c-2.965-2.246-2.879-5.754-1.292-7.914
							c1.303-1.775,3.763-2.75,6.324-0.929c0.399,0.284,0.491,0.837,0.208,1.235c-0.283,0.398-0.836,0.491-1.235,0.208
							c-1.683-1.2-3.104-0.51-3.87,0.534c-1.086,1.479-1.127,3.893,0.935,5.454c1.868,1.415,4.389,1.753,6.422,0.86
							c2.168-0.954,3.521-3.158,3.81-6.207c0.905-9.59-2.056-15.369-9.053-17.67c-8.065-2.653-12.86,0.933-12.906,0.969
							c-0.387,0.299-0.943,0.226-1.242-0.162c-0.297-0.388-0.226-0.944,0.163-1.242c0.224-0.173,5.591-4.189,14.539-1.249
							c7.791,2.562,11.244,9.129,10.262,19.519c-0.351,3.717-2.077,6.438-4.859,7.661C454.926,79.157,453.863,79.367,452.791,79.367
							z"/>
						<path d="M457.053,123.984c-0.49,0-0.994-0.128-1.49-0.383c-1.38-0.709-2.133-2.074-1.918-3.477
							c0.213-1.395,1.346-2.436,2.957-2.717c0.483-0.082,0.939,0.239,1.024,0.721c0.084,0.481-0.239,0.94-0.721,1.024
							c-0.862,0.15-1.413,0.602-1.509,1.239c-0.098,0.638,0.286,1.28,0.977,1.636c0.464,0.238,0.865,0.247,1.223,0.028
							c0.647-0.395,1.401-1.73,1.401-4.198c0-15.906-6.634-25.799-6.702-25.897c-0.193-0.282-0.206-0.65-0.035-0.945
							c0.171-0.295,0.496-0.469,0.837-0.438c1.19,0.096,1.927-0.319,2.221-1.235c0.323-1.006-0.069-2.11-0.492-2.363
							c-0.746-0.445-2.132,0.625-2.686,1.215c-0.256,0.274-0.656,0.357-1,0.207c-0.343-0.15-0.555-0.498-0.53-0.872
							c0.106-1.535-2.433-7.584-4.058-11.036c-0.208-0.443-0.019-0.97,0.424-1.178c0.443-0.209,0.97-0.018,1.178,0.424
							c0.604,1.283,3.184,6.857,3.989,10.157c0.97-0.646,2.33-1.193,3.596-0.434c1.242,0.746,1.81,2.73,1.266,4.423
							c-0.391,1.215-1.274,2.031-2.472,2.339c1.833,3.205,6.236,12.293,6.236,25.634c0,2.756-0.819,4.837-2.249,5.709
							C458.063,123.845,457.566,123.984,457.053,123.984z"/>
						<path d="M459.882,118.743c-0.489,0-0.885-0.396-0.885-0.885V70.983c0-0.489,0.396-0.885,0.885-0.885
							c0.489,0,0.885,0.396,0.885,0.885v46.875C460.768,118.346,460.372,118.743,459.882,118.743z"/>
						<path d="M446.597,69.958c-2.397,0-3.925-1.754-4.145-3.404c-0.219-1.644,0.747-3.007,2.462-3.473
							c0.47-0.129,0.958,0.15,1.087,0.622c0.128,0.472-0.15,0.958-0.621,1.086c-1.156,0.314-1.23,1.094-1.172,1.531
							c0.121,0.906,1,1.868,2.39,1.868c1.396,0,2.952-1.139,3.7-2.709c0.572-1.202,1.157-3.682-1.365-6.79
							c-4.752-5.857-13.581-2.855-13.669-2.824c-0.462,0.163-0.966-0.082-1.128-0.543c-0.161-0.461,0.082-0.967,0.544-1.128
							c0.408-0.144,10.102-3.434,15.628,3.38c2.289,2.822,2.868,5.981,1.589,8.667C450.853,68.429,448.675,69.958,446.597,69.958z"
							/>
						<path d="M458.011,50.164c-1.511,0-2.919-0.666-4.212-1.277c-1.08-0.511-2.197-1.039-3.323-1.181
							c-4.889-0.622-9.018,2.078-9.059,2.106c-0.406,0.27-0.956,0.16-1.227-0.246c-0.272-0.406-0.163-0.955,0.244-1.226
							c0.091-0.061,1.184-0.78,2.912-1.431c-0.154-0.432,0.05-0.916,0.476-1.105c0.268-0.118,6.599-2.905,10.318-2.454
							c3.907,0.472,6.41,4.853,6.515,5.04c0.118,0.21,0.145,0.46,0.075,0.691c-0.07,0.231-0.232,0.423-0.447,0.532
							C459.502,50.007,458.745,50.164,458.011,50.164z M448.97,45.84c0.562,0,1.139,0.033,1.728,0.108
							c1.406,0.178,2.651,0.768,3.857,1.337c1.416,0.67,2.678,1.27,3.952,1.066c-0.845-1.144-2.509-2.996-4.58-3.246
							c-1.378-0.168-3.279,0.227-5.012,0.734C448.933,45.84,448.952,45.84,448.97,45.84z"/>
						<path d="M441.076,63.441c-1.879,0-4.019-1.271-5.458-2.527c-2.315-2.019-4.132-1.172-4.208-1.135
							c-0.435,0.212-0.965,0.037-1.183-0.396c-0.218-0.433-0.053-0.957,0.377-1.18c0.117-0.061,2.918-1.467,6.178,1.377
							c1.539,1.343,3.409,2.191,4.518,2.079c0.468-0.049,0.67-0.253,0.781-0.401c0.199-0.266,0.393-0.652,0.179-0.98
							c-0.2-0.308-0.659-0.467-1.056-0.377c-0.477,0.111-0.951-0.188-1.061-0.665c-0.109-0.476,0.188-0.951,0.665-1.06
							c1.128-0.258,2.334,0.209,2.937,1.137c0.583,0.898,0.492,2.022-0.247,3.007c-0.473,0.631-1.169,1.011-2.012,1.1
							C441.351,63.434,441.214,63.441,441.076,63.441z"/>
						<path d="M432.336,66.025c-0.501,0-1.003-0.191-1.385-0.573l-3.202-3.202
							c-0.346-0.346-0.346-0.906,0-1.252c0.346-0.346,0.906-0.346,1.252,0l3.202,3.202c0.074,0.074,0.192,0.074,0.266,0
							c0.073-0.073,0.073-0.193,0-0.266l-3.202-3.202c-0.346-0.346-0.346-0.906,0-1.252c0.346-0.346,0.906-0.346,1.252,0
							l3.202,3.202c0.763,0.764,0.763,2.006,0,2.77C433.339,65.835,432.838,66.025,432.336,66.025z"/>
						<path d="M441.822,76.467c-0.211,0-0.421-0.075-0.588-0.223c-0.201-0.176-5.056-4.322-12.731-1.523
							c-0.294,0.106-0.624,0.05-0.866-0.149c-0.242-0.199-0.36-0.512-0.311-0.822c0.092-0.595,0.055-1.611-0.251-1.889
							c-0.125-0.113-0.387-0.074-0.588-0.022c-0.405,0.105-0.653,0.263-0.737,0.471c-0.164,0.403,0.137,1.109,0.265,1.321
							c0.181,0.298,0.169,0.674-0.029,0.961c-0.197,0.287-0.546,0.435-0.888,0.368c-0.045-0.007-4.425-0.774-9.964,1.02
							c-0.469,0.151-0.965-0.104-1.115-0.569c-0.15-0.465,0.104-0.964,0.569-1.115c4.074-1.32,7.526-1.359,9.379-1.238
							c-0.067-0.443-0.053-0.937,0.143-1.416c0.212-0.519,0.718-1.204,1.935-1.518c1.128-0.289,1.832,0.072,2.222,0.426
							c0.601,0.546,0.809,1.38,0.863,2.102c3.423-0.993,6.314-0.755,8.514-0.142c-0.919-0.605-2.045-1.165-3.403-1.561
							c-5.802-1.688-7.639-7.82-7.715-8.08c-0.136-0.469,0.134-0.959,0.603-1.095c0.47-0.137,0.961,0.133,1.098,0.601
							c0.016,0.055,1.656,5.463,6.509,6.875c5.663,1.648,7.79,5.758,7.877,5.932c0.192,0.38,0.086,0.841-0.251,1.1
							C442.202,76.406,442.012,76.467,441.822,76.467z"/>
						<path d="M459.882,44.629c-0.31,0-0.606-0.164-0.767-0.443c-0.27-0.463-1.259-1.813-2.218-1.92
							c-0.484-0.054-0.833-0.488-0.782-0.971c0.053-0.533-0.019-1.419-0.291-1.69c-0.028-0.029-0.079-0.075-0.252-0.057
							c-0.287,0.028-0.357,0.13-0.384,0.168c-0.176,0.251-0.138,0.83-0.057,1.142c0.066,0.257,0.015,0.533-0.142,0.747
							c-0.156,0.214-0.401,0.35-0.666,0.364c-0.036,0.002-3.648,0.226-7.349,2.26c-0.427,0.236-0.967,0.079-1.202-0.349
							c-0.236-0.429-0.079-0.967,0.349-1.203c2.929-1.61,5.756-2.181,7.171-2.377c-0.001-0.495,0.092-1.088,0.436-1.587
							c0.257-0.373,0.755-0.836,1.667-0.927c0.664-0.065,1.246,0.131,1.683,0.57c0.64,0.642,0.798,1.647,0.82,2.356
							c0.403,0.16,0.771,0.392,1.098,0.653V30.117c0-0.489,0.396-0.885,0.885-0.885c0.489,0,0.885,0.396,0.885,0.885v13.626
							c0,0.401-0.269,0.752-0.656,0.855C460.035,44.619,459.958,44.629,459.882,44.629z"/>
					</g>
					<g>
						<path d="M436.502,54.383c-0.189,0-0.378-0.06-0.539-0.184c-0.387-0.297-0.46-0.851-0.164-1.238l0,0
							c0.149-0.196,3.606-4.897,0.972-12.909c-2.3-6.999-8.088-9.959-17.67-9.054c-3.049,0.288-5.254,1.641-6.207,3.81
							c-0.893,2.032-0.555,4.552,0.86,6.422c1.562,2.062,3.975,2.02,5.454,0.935c1.044-0.767,1.733-2.186,0.534-3.871
							c-0.284-0.398-0.191-0.951,0.207-1.235c0.399-0.283,0.953-0.19,1.234,0.208c1.822,2.56,0.846,5.022-0.928,6.325
							c-2.16,1.586-5.667,1.672-7.913-1.293c-1.797-2.373-2.217-5.593-1.07-8.203c1.224-2.783,3.945-4.509,7.662-4.86
							c10.384-0.976,16.957,2.471,19.518,10.263c2.941,8.946-1.076,14.314-1.248,14.539
							C437.03,54.264,436.767,54.383,436.502,54.383z"/>
						<path d="M413.882,43.532c-0.126,0-0.254-0.027-0.376-0.084c-3.452-1.625-9.46-4.169-11.036-4.059
							c-0.369,0.023-0.724-0.187-0.872-0.531c-0.15-0.344-0.066-0.745,0.208-1c0.589-0.553,1.663-1.938,1.215-2.685
							c-0.254-0.422-1.357-0.815-2.363-0.492c-0.916,0.294-1.331,1.042-1.235,2.221c0.028,0.34-0.143,0.666-0.438,0.837
							c-0.295,0.172-0.663,0.158-0.945-0.035c-0.098-0.067-9.991-6.703-25.897-6.703c-2.466,0-3.803,0.755-4.197,1.401
							c-0.22,0.361-0.211,0.761,0.028,1.225c0.354,0.691,0.999,1.072,1.635,0.977c0.638-0.097,1.089-0.648,1.24-1.51
							c0.084-0.481,0.536-0.802,1.024-0.721c0.482,0.084,0.804,0.542,0.72,1.024c-0.281,1.611-1.322,2.744-2.717,2.957
							c-1.4,0.215-2.767-0.539-3.477-1.918c-0.521-1.014-0.508-2.064,0.036-2.957c0.872-1.429,2.953-2.249,5.708-2.249
							c13.34,0,22.43,4.403,25.635,6.236c0.308-1.198,1.124-2.082,2.339-2.472c1.695-0.546,3.678,0.024,4.423,1.266
							c0.758,1.263,0.211,2.626-0.435,3.596c3.3,0.804,8.873,3.384,10.156,3.988c0.443,0.208,0.632,0.736,0.424,1.178
							C414.533,43.345,414.214,43.532,413.882,43.532z"/>
						<path d="M419.018,31.002h-46.876c-0.489,0-0.885-0.396-0.885-0.885c0-0.489,0.396-0.885,0.885-0.885
							h46.876c0.489,0,0.885,0.396,0.885,0.885C419.903,30.606,419.507,31.002,419.018,31.002z"/>
						<path d="M434.972,55.914c-0.097,0-0.195-0.016-0.292-0.05c-0.461-0.161-0.705-0.665-0.545-1.127
							c0.031-0.089,3.014-8.933-2.824-13.67c-3.108-2.521-5.588-1.937-6.79-1.365c-1.57,0.748-2.709,2.304-2.709,3.701
							c0,1.391,0.963,2.269,1.869,2.39c0.44,0.061,1.216-0.018,1.53-1.171c0.128-0.472,0.616-0.75,1.087-0.622
							c0.471,0.128,0.749,0.615,0.622,1.086c-0.465,1.716-1.84,2.685-3.472,2.462c-1.651-0.22-3.405-1.747-3.406-4.145
							c0-2.077,1.529-4.257,3.718-5.299c2.686-1.28,5.846-0.701,8.667,1.589c6.813,5.528,3.524,15.219,3.381,15.629
							C435.679,55.686,435.337,55.914,434.972,55.914z"/>
						<path d="M440.925,49.959c-0.169,0-0.34-0.048-0.491-0.149c-0.406-0.271-0.516-0.82-0.246-1.227
							c0.028-0.041,2.725-4.169,2.106-9.059c-0.143-1.126-0.671-2.243-1.181-3.322c-0.908-1.92-1.937-4.095-0.724-6.485
							c0.109-0.215,0.301-0.377,0.533-0.447c0.231-0.069,0.481-0.042,0.691,0.076c0.186,0.105,4.567,2.608,5.039,6.515
							c0.446,3.706-2.336,10.05-2.455,10.318c-0.189,0.427-0.675,0.629-1.105,0.476c-0.651,1.728-1.369,2.82-1.431,2.912
							C441.491,49.821,441.211,49.959,440.925,49.959z M441.648,31.493c-0.201,1.273,0.396,2.536,1.066,3.952
							c0.57,1.205,1.159,2.451,1.337,3.857c0.077,0.608,0.11,1.204,0.108,1.783c0.507-1.733,0.9-3.635,0.734-5.012
							C444.644,34.002,442.792,32.338,441.648,31.493z"/>
						<path d="M431.011,59.874c-0.137,0-0.277-0.032-0.407-0.1c-0.431-0.224-0.601-0.753-0.382-1.184
							c0.046-0.095,0.872-1.907-1.136-4.208c-1.347-1.545-2.713-3.897-2.505-5.868c0.089-0.843,0.469-1.539,1.1-2.011
							c0.985-0.74,2.109-0.832,3.008-0.248c0.928,0.603,1.395,1.811,1.137,2.937c-0.11,0.476-0.586,0.776-1.061,0.665
							c-0.476-0.109-0.775-0.584-0.665-1.061c0.092-0.403-0.069-0.857-0.376-1.057c-0.329-0.211-0.714-0.021-0.981,0.18
							c-0.148,0.111-0.351,0.313-0.4,0.78c-0.118,1.122,0.737,2.979,2.079,4.518c2.842,3.258,1.438,6.061,1.377,6.178
							C431.64,59.7,431.331,59.874,431.011,59.874z"/>
						<path d="M428.375,62.51c-0.227,0-0.453-0.086-0.626-0.259l-3.202-3.202
							c-0.763-0.764-0.763-2.006,0-2.77c0.764-0.764,2.006-0.764,2.77,0l3.202,3.202c0.346,0.346,0.346,0.906,0,1.252
							c-0.346,0.346-0.906,0.346-1.252,0l-3.202-3.202c-0.074-0.074-0.192-0.074-0.266,0c-0.074,0.074-0.074,0.193,0,0.266
							l3.202,3.202c0.346,0.346,0.346,0.906,0,1.252C428.828,62.424,428.602,62.51,428.375,62.51z"/>
						<path d="M414.861,76.024c-0.09,0-0.182-0.014-0.273-0.044c-0.465-0.15-0.719-0.65-0.569-1.115
							c1.794-5.538,1.028-9.92,1.02-9.964c-0.062-0.342,0.081-0.691,0.368-0.888c0.286-0.198,0.662-0.209,0.961-0.029
							c0.261,0.154,0.931,0.425,1.324,0.264c0.207-0.085,0.364-0.333,0.468-0.736c0.052-0.2,0.09-0.465-0.022-0.588
							c-0.276-0.306-1.292-0.342-1.891-0.251c-0.306,0.048-0.621-0.071-0.82-0.313c-0.198-0.242-0.255-0.571-0.148-0.865
							c2.816-7.717-1.479-12.681-1.523-12.73c-0.282-0.318-0.298-0.791-0.04-1.128c0.259-0.336,0.718-0.443,1.1-0.251
							c0.174,0.088,4.285,2.215,5.932,7.878c1.42,4.876,6.818,6.492,6.873,6.508c0.469,0.136,0.74,0.627,0.604,1.097
							c-0.136,0.469-0.626,0.739-1.097,0.604c-0.26-0.075-6.391-1.913-8.08-7.714c-0.395-1.358-0.956-2.484-1.56-3.402
							c0.612,2.199,0.85,5.088-0.143,8.513c0.722,0.054,1.555,0.262,2.102,0.863c0.355,0.391,0.718,1.094,0.427,2.222
							c-0.314,1.216-0.998,1.723-1.518,1.935c-0.478,0.195-0.973,0.208-1.416,0.143c0.121,1.854,0.081,5.306-1.238,9.379
							C415.582,75.786,415.235,76.024,414.861,76.024z"/>
						<path d="M446.547,44.337c-0.144,0-0.29-0.035-0.425-0.109c-0.429-0.236-0.585-0.774-0.349-1.202
							c2.033-3.701,2.257-7.313,2.26-7.349c0.015-0.267,0.149-0.513,0.366-0.669c0.216-0.156,0.491-0.207,0.749-0.138
							c0.308,0.08,0.886,0.118,1.138-0.059c0.038-0.027,0.14-0.097,0.169-0.384c0.018-0.177-0.029-0.224-0.057-0.252
							c-0.271-0.271-1.157-0.343-1.693-0.291c-0.493,0.039-0.916-0.301-0.97-0.784c-0.107-0.969-1.456-1.95-1.92-2.218
							c-0.347-0.2-0.516-0.609-0.412-0.996c0.104-0.387,0.454-0.656,0.855-0.656h13.626c0.489,0,0.885,0.396,0.885,0.885
							c0,0.489-0.396,0.885-0.885,0.885h-11.247c0.262,0.327,0.495,0.695,0.654,1.098c0.709,0.023,1.714,0.181,2.357,0.82
							c0.439,0.438,0.636,1.02,0.57,1.684c-0.092,0.912-0.554,1.41-0.927,1.666c-0.498,0.343-1.088,0.436-1.581,0.436
							c-0.003,0-0.004,0-0.006,0c-0.197,1.415-0.768,4.242-2.378,7.172C447.163,44.172,446.86,44.337,446.547,44.337z"/>
					</g>
				</g>
			</g>
			<g>
				<g>
					<g>
						<path d="M444.142,429.526c-5.082,0-8.015-2.195-8.179-2.321c-0.388-0.298-0.46-0.854-0.163-1.241
							c0.298-0.388,0.854-0.46,1.24-0.163c0.213,0.161,4.908,3.604,12.908,0.971c6.997-2.301,9.958-8.081,9.053-17.67
							c-0.289-3.049-1.642-5.254-3.811-6.207c-2.03-0.894-4.55-0.555-6.421,0.86c-2.062,1.561-2.02,3.976-0.935,5.454
							c0.767,1.045,2.187,1.733,3.87,0.534c0.399-0.283,0.952-0.189,1.235,0.207c0.284,0.399,0.191,0.951-0.208,1.235
							c-2.561,1.823-5.022,0.845-6.324-0.928c-1.586-2.16-1.673-5.668,1.292-7.913c2.374-1.799,5.594-2.217,8.203-1.07
							c2.783,1.223,4.508,3.945,4.859,7.662c0.982,10.389-2.471,16.956-10.262,19.518
							C448.118,429.236,445.988,429.526,444.142,429.526z"/>
						<path d="M447.352,404.768c-0.126,0-0.254-0.027-0.376-0.085c-0.443-0.208-0.632-0.736-0.424-1.178
							c1.625-3.452,4.164-9.501,4.058-11.035c-0.025-0.374,0.188-0.724,0.531-0.873c0.344-0.149,0.744-0.066,1.001,0.208
							c0.552,0.59,1.936,1.667,2.684,1.215c0.423-0.253,0.815-1.357,0.492-2.363c-0.294-0.916-1.039-1.334-2.221-1.234
							c-0.342,0.022-0.666-0.143-0.837-0.438s-0.158-0.663,0.035-0.944c0.067-0.098,6.702-9.992,6.702-25.898
							c0-2.467-0.755-3.803-1.401-4.197c-0.36-0.22-0.76-0.211-1.224,0.028c-0.691,0.355-1.075,0.997-0.977,1.635
							c0.097,0.638,0.647,1.089,1.51,1.24c0.482,0.084,0.804,0.542,0.72,1.025c-0.084,0.481-0.536,0.804-1.025,0.72
							c-1.611-0.281-2.744-1.322-2.957-2.717c-0.214-1.403,0.539-2.767,1.918-3.477c1.012-0.52,2.064-0.508,2.955,0.036
							c1.43,0.872,2.249,2.953,2.249,5.708c0,13.34-4.403,22.43-6.236,25.635c1.198,0.308,2.082,1.124,2.472,2.339
							c0.544,1.694-0.024,3.678-1.266,4.423c-1.263,0.757-2.626,0.21-3.596-0.434c-0.805,3.3-3.385,8.872-3.989,10.155
							C448.003,404.58,447.685,404.768,447.352,404.768z"/>
						<path d="M459.882,409.903c-0.489,0-0.885-0.396-0.885-0.885v-46.876c0-0.489,0.396-0.885,0.885-0.885
							c0.489,0,0.885,0.396,0.885,0.885v46.876C460.768,409.507,460.372,409.903,459.882,409.903z"/>
						<path d="M440.511,426.725c-3.136,0-5.629-0.847-5.832-0.918c-0.461-0.162-0.704-0.666-0.543-1.127
							c0.16-0.461,0.663-0.708,1.126-0.545c0.089,0.031,8.932,3.014,13.67-2.824c2.522-3.108,1.937-5.588,1.365-6.79
							c-0.748-1.57-2.304-2.709-3.7-2.709c-1.39,0-2.269,0.963-2.39,1.869c-0.058,0.437,0.017,1.216,1.172,1.53
							c0.471,0.128,0.749,0.615,0.621,1.087c-0.128,0.471-0.616,0.752-1.087,0.622c-1.714-0.466-2.681-1.828-2.462-3.472
							c0.22-1.651,1.748-3.405,4.145-3.406c2.077,0,4.256,1.529,5.299,3.718c1.279,2.686,0.701,5.845-1.589,8.667
							C447.526,425.855,443.688,426.725,440.511,426.725z"/>
						<path d="M453.274,436.7c-3.749,0-9.204-2.393-9.453-2.504c-0.427-0.188-0.63-0.673-0.476-1.105
							c-1.729-0.651-2.821-1.369-2.912-1.431c-0.406-0.272-0.515-0.82-0.244-1.227c0.271-0.405,0.82-0.516,1.227-0.245
							c0.042,0.027,4.17,2.728,9.059,2.106c1.126-0.143,2.243-0.671,3.323-1.181c1.919-0.908,4.096-1.936,6.484-0.724
							c0.215,0.109,0.377,0.301,0.447,0.533c0.07,0.231,0.042,0.48-0.075,0.691c-0.105,0.186-2.608,4.567-6.515,5.039
							C453.865,436.685,453.575,436.7,453.274,436.7z M448.916,434.159c1.732,0.507,3.636,0.903,5.011,0.734
							c2.082-0.251,3.742-2.102,4.583-3.245c-1.273-0.205-2.536,0.395-3.954,1.065c-1.205,0.57-2.451,1.159-3.857,1.337
							C450.09,434.128,449.479,434.166,448.916,434.159z"/>
						<path d="M432.53,422.198c-1.131,0-1.867-0.37-1.926-0.4c-0.434-0.226-0.603-0.761-0.378-1.194
							c0.224-0.431,0.752-0.601,1.185-0.382c0.094,0.045,1.905,0.874,4.207-1.136c1.544-1.347,3.886-2.71,5.868-2.505
							c0.843,0.089,1.539,0.469,2.012,1.099c0.739,0.986,0.832,2.111,0.247,3.009c-0.604,0.928-1.811,1.394-2.937,1.137
							c-0.476-0.109-0.775-0.584-0.665-1.061c0.11-0.476,0.583-0.776,1.061-0.665c0.4,0.092,0.857-0.07,1.056-0.376
							c0.214-0.328,0.02-0.715-0.179-0.981c-0.111-0.148-0.314-0.351-0.781-0.4c-1.122-0.122-2.981,0.737-4.519,2.079
							C435.16,421.835,433.651,422.198,432.53,422.198z"/>
						<path d="M429.893,420.779c-0.227,0-0.453-0.086-0.626-0.259c-0.346-0.346-0.346-0.906,0-1.252
							l3.202-3.202c0.073-0.073,0.073-0.193,0-0.266c-0.074-0.073-0.192-0.073-0.266,0l-3.202,3.202
							c-0.346,0.346-0.906,0.346-1.252,0c-0.346-0.346-0.346-0.906,0-1.252l3.202-3.202c0.764-0.764,2.006-0.764,2.77,0
							c0.763,0.763,0.763,2.007,0,2.77l-3.202,3.202C430.346,420.692,430.12,420.779,429.893,420.779z"/>
						<path d="M427.376,418.26c-0.082,0-0.165-0.011-0.248-0.035c-0.469-0.137-0.738-0.626-0.603-1.095
							c0.076-0.26,1.913-6.391,7.715-8.08c1.369-0.399,2.5-0.961,3.42-1.566c-2.203,0.614-5.096,0.857-8.531-0.137
							c-0.054,0.722-0.262,1.555-0.862,2.102c-0.392,0.355-1.091,0.718-2.223,0.427c-1.216-0.314-1.723-0.999-1.935-1.518
							c-0.195-0.478-0.209-0.973-0.143-1.416c-1.855,0.119-5.305,0.081-9.379-1.238c-0.465-0.15-0.719-0.65-0.569-1.115
							c0.15-0.464,0.647-0.719,1.115-0.569c5.539,1.795,9.921,1.028,9.964,1.02c0.342-0.061,0.691,0.082,0.888,0.368
							c0.198,0.287,0.21,0.663,0.029,0.961c-0.155,0.261-0.426,0.934-0.264,1.323c0.086,0.207,0.333,0.365,0.737,0.469
							c0.199,0.052,0.463,0.091,0.588-0.022c0.306-0.277,0.342-1.293,0.25-1.891c-0.048-0.309,0.072-0.622,0.314-0.82
							c0.241-0.198,0.568-0.255,0.865-0.148c7.716,2.815,12.682-1.479,12.731-1.523c0.316-0.282,0.791-0.299,1.127-0.04
							c0.337,0.259,0.443,0.721,0.251,1.1c-0.087,0.174-2.214,4.285-7.877,5.932c-4.853,1.413-6.492,6.82-6.509,6.875
							C428.112,418.009,427.759,418.26,427.376,418.26z"/>
						<path d="M459.882,450.768c-0.489,0-0.885-0.396-0.885-0.885v-11.247
							c-0.327,0.262-0.695,0.495-1.098,0.654c-0.023,0.709-0.181,1.714-0.82,2.357c-0.437,0.438-1.021,0.637-1.683,0.57
							c-0.912-0.092-1.41-0.555-1.667-0.927c-0.344-0.5-0.436-1.092-0.436-1.587c-1.415-0.197-4.242-0.768-7.171-2.377
							c-0.429-0.235-0.585-0.773-0.349-1.202c0.235-0.428,0.775-0.584,1.202-0.349c3.701,2.033,7.313,2.257,7.349,2.26
							c0.266,0.015,0.513,0.149,0.669,0.366c0.156,0.216,0.207,0.491,0.136,0.749c-0.079,0.308-0.117,0.886,0.059,1.138
							c0.027,0.039,0.098,0.14,0.384,0.169c0.176,0.018,0.224-0.028,0.252-0.057c0.272-0.271,0.343-1.158,0.29-1.693
							c-0.048-0.483,0.302-0.916,0.783-0.97c0.969-0.107,1.95-1.456,2.218-1.92c0.2-0.347,0.61-0.516,0.996-0.412
							c0.387,0.104,0.656,0.454,0.656,0.855v13.626C460.768,450.372,460.372,450.768,459.882,450.768z"/>
					</g>
					<g>
						<path d="M422.247,450.927c-1.057,0-2.16-0.054-3.312-0.163c-3.717-0.351-6.439-2.077-7.662-4.859
							c-1.147-2.61-0.727-5.829,1.07-8.203c2.244-2.964,5.753-2.88,7.913-1.292c1.776,1.303,2.751,3.764,0.928,6.324
							c-0.284,0.397-0.837,0.49-1.234,0.207c-0.399-0.284-0.491-0.836-0.207-1.235c1.199-1.684,0.51-3.104-0.534-3.87
							c-1.479-1.084-3.892-1.127-5.454,0.935c-1.415,1.869-1.753,4.39-0.86,6.421c0.954,2.169,3.158,3.522,6.207,3.811
							c9.588,0.9,15.369-2.056,17.67-9.053c2.652-8.065-0.933-12.859-0.97-12.906c-0.297-0.387-0.226-0.943,0.163-1.241
							c0.387-0.297,0.943-0.227,1.241,0.163c0.172,0.224,4.189,5.593,1.248,14.539C436.175,447.429,430.729,450.927,422.247,450.927
							z"/>
						<path d="M372.142,450.768c-2.755,0-4.836-0.82-5.708-2.25c-0.545-0.891-0.558-1.941-0.036-2.955
							c0.71-1.379,2.076-2.134,3.477-1.918c1.395,0.213,2.436,1.346,2.717,2.957c0.084,0.482-0.239,0.941-0.72,1.024
							c-0.489,0.083-0.941-0.239-1.024-0.72c-0.151-0.863-0.602-1.414-1.24-1.51c-0.635-0.102-1.28,0.285-1.635,0.977
							c-0.239,0.463-0.247,0.864-0.028,1.224c0.394,0.646,1.73,1.401,4.197,1.401c15.906,0,25.8-6.634,25.898-6.702
							c0.279-0.193,0.648-0.208,0.944-0.035c0.295,0.171,0.466,0.497,0.438,0.837c-0.097,1.179,0.319,1.927,1.235,2.221
							c1.004,0.322,2.109-0.069,2.363-0.492c0.448-0.746-0.647-2.156-1.215-2.684c-0.274-0.256-0.358-0.657-0.208-1.001
							c0.149-0.343,0.486-0.546,0.873-0.531c1.533,0.131,7.584-2.433,11.036-4.058c0.444-0.212,0.97-0.019,1.177,0.424
							c0.208,0.442,0.019,0.969-0.424,1.177c-1.283,0.604-6.856,3.184-10.155,3.989c0.645,0.969,1.192,2.332,0.434,3.596
							c-0.745,1.242-2.729,1.81-4.423,1.267c-1.215-0.391-2.031-1.274-2.339-2.473C394.572,446.365,385.482,450.768,372.142,450.768
							z"/>
						<path d="M419.018,450.768h-46.876c-0.489,0-0.885-0.396-0.885-0.885c0-0.489,0.396-0.885,0.885-0.885
							h46.876c0.489,0,0.885,0.396,0.885,0.885C419.903,450.372,419.507,450.768,419.018,450.768z"/>
						<path d="M426.711,442.563c-1.018,0-2.013-0.22-2.951-0.667c-2.189-1.043-3.718-3.222-3.718-5.299
							c0.001-2.397,1.755-3.925,3.406-4.145c1.631-0.217,3.006,0.747,3.472,2.462c0.128,0.472-0.15,0.959-0.622,1.087
							c-0.471,0.13-0.959-0.15-1.087-0.622c-0.314-1.155-1.092-1.223-1.53-1.172c-0.906,0.121-1.869,1-1.869,2.39
							c0,1.396,1.139,2.952,2.709,3.7c1.201,0.572,3.683,1.155,6.79-1.365c5.839-4.738,2.855-13.581,2.824-13.67
							c-0.16-0.462,0.084-0.966,0.545-1.126c0.462-0.16,0.966,0.082,1.127,0.543c0.143,0.41,3.432,10.101-3.381,15.628
							C430.59,441.797,428.61,442.563,426.711,442.563z"/>
						<path d="M441.179,450.768c-0.086,0-0.173-0.013-0.257-0.038c-0.232-0.07-0.424-0.232-0.533-0.447
							c-1.212-2.39-0.183-4.565,0.724-6.484c0.51-1.08,1.038-2.197,1.181-3.323c0.622-4.913-2.078-9.017-2.105-9.058
							c-0.272-0.406-0.163-0.956,0.244-1.228c0.405-0.272,0.956-0.164,1.228,0.244c0.061,0.091,0.78,1.183,1.431,2.912
							c0.43-0.154,0.916,0.048,1.105,0.476c0.119,0.268,2.901,6.612,2.455,10.318c-0.472,3.907-4.853,6.41-5.039,6.515
							C441.479,450.73,441.329,450.768,441.179,450.768z M444.159,438.916c0.002,0.578-0.031,1.174-0.108,1.783
							c-0.178,1.406-0.768,2.651-1.337,3.857c-0.67,1.417-1.267,2.679-1.066,3.952c1.144-0.845,2.996-2.509,3.245-4.58
							C445.059,442.551,444.666,440.648,444.159,438.916z"/>
						<path d="M429.414,434.125c-0.578,0-1.178-0.211-1.734-0.628c-0.631-0.473-1.011-1.169-1.1-2.012
							c-0.207-1.971,1.158-4.323,2.505-5.867c2.019-2.313,1.172-4.132,1.135-4.208c-0.211-0.436-0.036-0.966,0.397-1.183
							c0.431-0.217,0.955-0.053,1.18,0.377c0.061,0.118,1.465,2.919-1.377,6.178c-1.343,1.538-2.198,3.396-2.079,4.519
							c0.049,0.467,0.252,0.669,0.401,0.781c0.265,0.199,0.65,0.394,0.98,0.179c0.307-0.2,0.469-0.654,0.376-1.056
							c-0.11-0.476,0.188-0.952,0.665-1.061c0.475-0.112,0.951,0.188,1.061,0.665c0.259,1.126-0.209,2.333-1.137,2.937
							C430.297,434,429.862,434.125,429.414,434.125z"/>
						<path d="M425.932,424.294c-0.501,0-1.003-0.191-1.385-0.573c-0.763-0.763-0.763-2.007,0-2.77
							l3.202-3.202c0.346-0.346,0.906-0.346,1.252,0c0.346,0.346,0.346,0.906,0,1.252l-3.202,3.202
							c-0.074,0.073-0.074,0.193,0,0.266c0.074,0.073,0.192,0.073,0.266,0l3.202-3.202c0.346-0.346,0.906-0.346,1.252,0
							c0.346,0.346,0.346,0.906,0,1.252l-3.202,3.202C426.935,424.103,426.433,424.294,425.932,424.294z"/>
						<path d="M414.419,432.707c-0.268,0-0.53-0.122-0.703-0.346c-0.258-0.336-0.242-0.809,0.04-1.127
							c0.176-0.201,4.323-5.057,1.523-12.731c-0.107-0.295-0.051-0.624,0.149-0.866c0.199-0.242,0.508-0.363,0.822-0.311
							c0.596,0.09,1.611,0.055,1.888-0.251c0.112-0.124,0.074-0.388,0.022-0.588c-0.104-0.405-0.263-0.653-0.471-0.737
							c-0.402-0.166-1.109,0.137-1.321,0.265c-0.298,0.181-0.674,0.169-0.961-0.029c-0.287-0.197-0.43-0.546-0.368-0.888
							c0.008-0.044,0.774-4.426-1.02-9.964c-0.15-0.465,0.104-0.965,0.569-1.115c0.468-0.151,0.965,0.105,1.115,0.569
							c1.319,4.073,1.359,7.526,1.238,9.379c0.443-0.066,0.938-0.053,1.416,0.143c0.52,0.212,1.204,0.718,1.518,1.935
							c0.29,1.129-0.072,1.832-0.427,2.223c-0.546,0.6-1.38,0.808-2.102,0.862c0.993,3.426,0.755,6.314,0.142,8.514
							c0.605-0.919,1.166-2.045,1.561-3.403c1.688-5.802,7.819-7.639,8.08-7.715c0.469-0.134,0.959,0.134,1.095,0.603
							c0.137,0.469-0.132,0.961-0.601,1.098c-0.055,0.017-5.462,1.656-6.875,6.509c-1.648,5.663-5.759,7.79-5.932,7.877
							C414.69,432.676,414.553,432.707,414.419,432.707z"/>
						<path d="M459.882,450.768h-13.626c-0.401,0-0.751-0.269-0.855-0.656
							c-0.104-0.387,0.066-0.796,0.412-0.996c0.463-0.27,1.814-1.259,1.92-2.218c0.054-0.483,0.481-0.837,0.972-0.782
							c0.536,0.051,1.42-0.019,1.691-0.29c0.028-0.029,0.075-0.075,0.057-0.252c-0.029-0.286-0.13-0.357-0.169-0.384
							c-0.252-0.176-0.829-0.138-1.142-0.057c-0.253,0.067-0.532,0.015-0.746-0.142c-0.214-0.156-0.349-0.401-0.364-0.666
							c-0.003-0.036-0.227-3.648-2.26-7.349c-0.236-0.429-0.079-0.967,0.349-1.202c0.427-0.235,0.966-0.079,1.202,0.349
							c1.61,2.929,2.18,5.756,2.378,7.171c0.003,0,0.004,0,0.007,0c0.494,0,1.082,0.093,1.58,0.436
							c0.372,0.257,0.835,0.755,0.927,1.667c0.066,0.664-0.131,1.246-0.57,1.683c-0.642,0.64-1.648,0.798-2.357,0.82
							c-0.159,0.403-0.392,0.771-0.654,1.098h11.247c0.489,0,0.885,0.396,0.885,0.885
							C460.768,450.372,460.372,450.768,459.882,450.768z"/>
					</g>
				</g>
				<g>
					<g>
						<path d="M55.858,429.526c-1.846,0-3.975-0.29-6.359-1.073c-7.791-2.562-11.244-9.129-10.263-19.518
							c0.351-3.717,2.077-6.438,4.86-7.662c2.609-1.148,5.83-0.728,8.203,1.07c2.965,2.245,2.879,5.753,1.293,7.913
							c-1.303,1.776-3.763,2.751-6.325,0.928c-0.398-0.284-0.491-0.836-0.208-1.235c0.284-0.398,0.836-0.491,1.235-0.207
							c1.684,1.198,3.104,0.511,3.871-0.534c1.085-1.478,1.127-3.893-0.934-5.454c-1.87-1.415-4.391-1.754-6.422-0.86
							c-2.169,0.953-3.522,3.158-3.81,6.207c-0.906,9.589,2.056,15.369,9.054,17.67c8.064,2.651,12.857-0.934,12.905-0.97
							c0.388-0.297,0.944-0.227,1.242,0.163c0.298,0.387,0.226,0.943-0.162,1.241C63.873,427.331,60.94,429.526,55.858,429.526z"/>
						<path d="M52.647,404.768c-0.332,0-0.65-0.188-0.801-0.508c-0.604-1.283-3.184-6.857-3.988-10.156
							c-0.97,0.646-2.331,1.192-3.596,0.435c-1.242-0.745-1.81-2.729-1.266-4.423c0.39-1.215,1.274-2.031,2.472-2.339
							c-1.833-3.205-6.236-12.294-6.236-25.635c0-2.755,0.82-4.836,2.249-5.708c0.892-0.544,1.942-0.557,2.956-0.036
							c1.379,0.71,2.132,2.074,1.918,3.477c-0.213,1.395-1.346,2.436-2.957,2.717c-0.482,0.083-0.94-0.239-1.024-0.72
							c-0.084-0.482,0.239-0.941,0.721-1.025c0.862-0.15,1.413-0.602,1.51-1.24c0.097-0.638-0.287-1.279-0.978-1.635
							c-0.463-0.239-0.863-0.246-1.224-0.028c-0.646,0.394-1.401,1.731-1.401,4.197c0,15.906,6.636,25.8,6.703,25.897
							c0.192,0.282,0.206,0.65,0.035,0.945c-0.171,0.295-0.491,0.462-0.837,0.438c-1.177-0.099-1.927,0.319-2.221,1.234
							c-0.323,1.005,0.07,2.109,0.492,2.363c0.744,0.443,2.156-0.647,2.685-1.215c0.256-0.273,0.656-0.357,1-0.208
							c0.344,0.149,0.557,0.499,0.531,0.872c-0.106,1.536,2.433,7.584,4.059,11.036c0.208,0.442,0.019,0.969-0.424,1.178
							C52.902,404.741,52.774,404.768,52.647,404.768z"/>
						<path d="M40.117,409.903c-0.489,0-0.885-0.396-0.885-0.885v-46.876c0-0.489,0.396-0.885,0.885-0.885
							c0.489,0,0.885,0.396,0.885,0.885v46.876C41.002,409.507,40.606,409.903,40.117,409.903z"/>
						<path d="M59.489,426.725c-3.177,0-7.014-0.87-9.796-4.299c-2.29-2.822-2.868-5.981-1.589-8.667
							c1.043-2.189,3.222-3.718,5.299-3.718c2.398,0.001,3.925,1.755,4.145,3.406c0.219,1.643-0.747,3.006-2.462,3.472
							c-0.474,0.134-0.958-0.151-1.086-0.622c-0.128-0.472,0.15-0.959,0.622-1.087c1.155-0.314,1.23-1.094,1.171-1.53
							c-0.121-0.906-0.999-1.869-2.39-1.869c-1.396,0-2.952,1.139-3.7,2.709c-0.572,1.202-1.156,3.682,1.365,6.79
							c4.752,5.856,13.581,2.857,13.67,2.824c0.464-0.159,0.966,0.083,1.128,0.544c0.162,0.462-0.082,0.967-0.543,1.128
							C65.117,425.878,62.624,426.725,59.489,426.725z"/>
						<path d="M46.725,436.7c-0.3,0-0.59-0.016-0.865-0.048c-3.907-0.472-6.411-4.853-6.515-5.039
							c-0.118-0.211-0.146-0.46-0.076-0.691c0.07-0.232,0.232-0.424,0.447-0.533c2.39-1.211,4.565-0.183,6.485,0.724
							c1.08,0.51,2.196,1.038,3.322,1.181c4.89,0.62,9.018-2.079,9.059-2.106c0.406-0.271,0.955-0.16,1.227,0.245
							c0.271,0.406,0.162,0.955-0.244,1.227c-0.091,0.061-1.184,0.78-2.912,1.431c0.154,0.432-0.05,0.916-0.476,1.105
							C55.93,434.307,50.474,436.7,46.725,436.7z M41.492,431.648c0.845,1.144,2.51,2.995,4.581,3.245
							c1.374,0.169,3.279-0.227,5.011-0.734c-0.584-0.004-1.174-0.031-1.783-0.108c-1.406-0.178-2.652-0.768-3.857-1.337
							C44.028,432.044,42.765,431.448,41.492,431.648z"/>
						<path d="M67.469,422.198c-1.121,0-2.63-0.363-4.251-1.777c-1.538-1.343-3.398-2.204-4.518-2.079
							c-0.467,0.049-0.669,0.252-0.781,0.4c-0.2,0.266-0.393,0.653-0.18,0.981c0.199,0.306,0.652,0.467,1.057,0.376
							c0.477-0.11,0.952,0.189,1.061,0.665c0.109,0.476-0.188,0.952-0.665,1.061c-1.125,0.258-2.334-0.208-2.937-1.137
							c-0.583-0.898-0.491-2.022,0.248-3.008c0.472-0.63,1.168-1.011,2.011-1.1c1.972-0.203,4.323,1.158,5.868,2.505
							c2.36,2.058,4.179,1.151,4.198,1.14c0.434-0.225,0.967-0.056,1.194,0.378c0.226,0.434,0.057,0.968-0.377,1.194
							C69.338,421.828,68.601,422.198,67.469,422.198z"/>
						<path d="M70.107,420.779c-0.227,0-0.453-0.086-0.626-0.259l-3.202-3.202
							c-0.764-0.763-0.764-2.007,0-2.77c0.763-0.764,2.007-0.764,2.77,0l3.202,3.202c0.346,0.346,0.346,0.906,0,1.252
							s-0.906,0.346-1.252,0l-3.202-3.202c-0.074-0.073-0.193-0.073-0.266,0c-0.074,0.074-0.074,0.193,0,0.266l3.202,3.202
							c0.346,0.346,0.346,0.906,0,1.252C70.56,420.692,70.333,420.779,70.107,420.779z"/>
						<path d="M72.624,418.26c-0.383,0-0.737-0.251-0.85-0.636c-0.016-0.054-1.656-5.462-6.508-6.875
							c-5.663-1.648-7.791-5.758-7.878-5.932c-0.191-0.379-0.086-0.841,0.251-1.1c0.336-0.259,0.809-0.242,1.128,0.04
							c0.201,0.177,5.057,4.323,12.73,1.523c0.294-0.109,0.624-0.052,0.866,0.149c0.243,0.2,0.361,0.512,0.312,0.822
							c-0.092,0.595-0.055,1.611,0.251,1.888c0.124,0.112,0.389,0.075,0.589,0.022c0.404-0.104,0.652-0.263,0.737-0.47
							c0.164-0.403-0.137-1.11-0.266-1.322c-0.18-0.297-0.169-0.674,0.029-0.961c0.198-0.286,0.549-0.429,0.888-0.368
							c0.043,0.007,4.425,0.774,9.964-1.02c0.466-0.151,0.965,0.104,1.115,0.569c0.151,0.465-0.104,0.965-0.569,1.115
							c-4.072,1.32-7.522,1.359-9.379,1.238c0.066,0.444,0.052,0.938-0.143,1.416c-0.211,0.52-0.719,1.204-1.934,1.517
							c-1.128,0.294-1.832-0.071-2.223-0.426c-0.601-0.546-0.809-1.38-0.863-2.102c-3.426,0.992-6.314,0.754-8.512,0.143
							c0.918,0.604,2.044,1.165,3.402,1.561c5.801,1.688,7.639,7.819,7.714,8.08c0.136,0.47-0.134,0.959-0.603,1.095
							C72.789,418.249,72.706,418.26,72.624,418.26z"/>
						<path d="M40.117,450.768c-0.489,0-0.885-0.396-0.885-0.885v-13.626c0-0.401,0.269-0.751,0.656-0.855
							c0.387-0.104,0.796,0.066,0.996,0.412c0.27,0.463,1.258,1.814,2.218,1.92c0.484,0.054,0.834,0.488,0.783,0.972
							c-0.053,0.533,0.019,1.42,0.291,1.691c0.028,0.029,0.071,0.074,0.252,0.057c0.287-0.029,0.357-0.131,0.384-0.169
							c0.175-0.252,0.138-0.83,0.057-1.142c-0.066-0.257-0.014-0.532,0.142-0.746c0.157-0.214,0.4-0.349,0.665-0.364
							c0.036-0.003,3.648-0.227,7.349-2.26c0.429-0.234,0.967-0.079,1.202,0.349c0.236,0.429,0.079,0.967-0.35,1.202
							c-2.929,1.61-5.756,2.18-7.172,2.377c0,0.495-0.092,1.088-0.436,1.587c-0.257,0.373-0.754,0.835-1.666,0.927
							c-0.667,0.069-1.246-0.131-1.684-0.57c-0.639-0.642-0.798-1.648-0.82-2.357c-0.403-0.159-0.771-0.392-1.098-0.654v11.247
							C41.002,450.372,40.606,450.768,40.117,450.768z"/>
					</g>
					<g>
						<path d="M77.753,450.927c-8.484,0-13.928-3.497-16.206-10.425c-2.941-8.946,1.076-14.315,1.249-14.539
							c0.297-0.389,0.854-0.461,1.241-0.163c0.387,0.298,0.46,0.852,0.163,1.24c-0.159,0.211-3.601,4.91-0.971,12.908
							c2.3,6.997,8.079,9.955,17.67,9.053c3.05-0.289,5.254-1.642,6.207-3.81c0.893-2.032,0.556-4.552-0.86-6.422
							c-1.561-2.061-3.976-2.019-5.454-0.935c-1.044,0.767-1.733,2.186-0.534,3.87c0.283,0.399,0.19,0.951-0.208,1.235
							c-0.399,0.283-0.951,0.189-1.235-0.207c-1.822-2.56-0.846-5.021,0.929-6.324c2.161-1.586,5.668-1.672,7.914,1.292
							c1.797,2.373,2.217,5.593,1.069,8.203c-1.224,2.783-3.944,4.509-7.661,4.859C79.915,450.872,78.81,450.927,77.753,450.927z"/>
						<path d="M127.857,450.768c-13.341,0-22.429-4.403-25.634-6.236c-0.308,1.198-1.124,2.082-2.339,2.473
							c-1.694,0.543-3.678-0.023-4.423-1.267c-0.758-1.264-0.211-2.626,0.434-3.596c-3.3-0.805-8.873-3.384-10.157-3.989
							c-0.442-0.208-0.632-0.736-0.424-1.177c0.208-0.444,0.738-0.634,1.178-0.424c3.453,1.625,9.491,4.186,11.036,4.058
							c0.375-0.009,0.724,0.187,0.873,0.531c0.149,0.344,0.065,0.745-0.209,1c-0.589,0.553-1.662,1.938-1.215,2.685
							c0.254,0.423,1.359,0.816,2.363,0.492c0.916-0.294,1.331-1.042,1.235-2.221c-0.028-0.34,0.143-0.666,0.438-0.837
							c0.295-0.172,0.663-0.157,0.944,0.035c0.098,0.068,9.991,6.702,25.897,6.702c2.468,0,3.803-0.755,4.198-1.401
							c0.219-0.36,0.21-0.76-0.028-1.223c-0.356-0.691-0.992-1.076-1.636-0.977c-0.637,0.097-1.089,0.647-1.239,1.509
							c-0.083,0.482-0.539,0.804-1.024,0.721c-0.481-0.084-0.804-0.542-0.72-1.023c0.281-1.612,1.321-2.745,2.717-2.958
							c1.397-0.214,2.767,0.538,3.477,1.918c0.522,1.013,0.509,2.063-0.035,2.955C132.695,449.948,130.613,450.768,127.857,450.768z
							"/>
						<path d="M127.857,450.768H80.983c-0.489,0-0.885-0.396-0.885-0.885c0-0.489,0.396-0.885,0.885-0.885
							h46.875c0.489,0,0.885,0.396,0.885,0.885C128.743,450.372,128.346,450.768,127.857,450.768z"/>
						<path d="M73.289,442.563c-1.899,0-3.879-0.766-5.715-2.256c-6.813-5.527-3.524-15.218-3.38-15.628
							c0.162-0.462,0.664-0.704,1.127-0.543c0.461,0.161,0.705,0.665,0.545,1.126c-0.031,0.089-3.015,8.932,2.824,13.67
							c3.109,2.522,5.589,1.939,6.79,1.365c1.57-0.748,2.709-2.304,2.709-3.7c0-1.39-0.963-2.269-1.868-2.39
							c-0.435-0.052-1.216,0.017-1.531,1.172c-0.129,0.47-0.616,0.75-1.086,0.622c-0.472-0.128-0.75-0.615-0.622-1.087
							c0.466-1.715,1.833-2.678,3.473-2.462c1.65,0.22,3.404,1.748,3.404,4.145c0,2.077-1.529,4.256-3.718,5.299
							C75.303,442.343,74.307,442.563,73.289,442.563z"/>
						<path d="M58.822,450.768c-0.15,0-0.3-0.038-0.434-0.113c-0.186-0.105-4.568-2.608-5.04-6.515
							c-0.447-3.706,2.336-10.05,2.454-10.318c0.189-0.426,0.673-0.631,1.105-0.476c0.651-1.728,1.37-2.821,1.431-2.912
							c0.271-0.406,0.819-0.516,1.226-0.244c0.406,0.271,0.516,0.819,0.246,1.227c-0.027,0.041-2.725,4.169-2.105,9.059
							c0.143,1.127,0.67,2.243,1.181,3.323c0.908,1.919,1.937,4.094,0.725,6.484c-0.109,0.215-0.301,0.377-0.532,0.447
							C58.995,450.755,58.908,450.768,58.822,450.768z M55.84,438.915c-0.507,1.733-0.9,3.635-0.734,5.012
							c0.25,2.071,2.102,3.736,3.246,4.58c0.201-1.273-0.396-2.535-1.066-3.952c-0.57-1.205-1.159-2.451-1.337-3.857
							C55.871,440.09,55.838,439.494,55.84,438.915z"/>
						<path d="M70.585,434.125c-0.447,0-0.881-0.125-1.273-0.38c-0.927-0.603-1.395-1.81-1.137-2.937
							c0.109-0.476,0.585-0.776,1.06-0.665c0.477,0.109,0.775,0.583,0.665,1.061c-0.092,0.403,0.07,0.858,0.377,1.056
							c0.327,0.215,0.714,0.02,0.98-0.179c0.148-0.112,0.352-0.314,0.401-0.781c0.118-1.122-0.736-2.98-2.079-4.518
							c-2.843-3.259-1.438-6.06-1.377-6.178c0.225-0.434,0.759-0.603,1.194-0.378c0.431,0.224,0.6,0.753,0.382,1.185
							c-0.045,0.093-0.872,1.904,1.136,4.207c1.347,1.544,2.713,3.896,2.505,5.867c-0.089,0.843-0.469,1.539-1.1,2.012
							C71.763,433.914,71.163,434.125,70.585,434.125z"/>
						<path d="M74.068,424.294c-0.501,0-1.003-0.191-1.385-0.573l-3.202-3.202
							c-0.346-0.346-0.346-0.906,0-1.252c0.346-0.346,0.906-0.346,1.252,0l3.202,3.202c0.074,0.073,0.193,0.073,0.266,0
							c0.073-0.073,0.073-0.193,0-0.266l-3.202-3.202c-0.346-0.346-0.346-0.906,0-1.252c0.346-0.346,0.906-0.346,1.252,0
							l3.202,3.202c0.764,0.763,0.764,2.007,0,2.77C75.071,424.103,74.569,424.294,74.068,424.294z"/>
						<path d="M85.581,432.707c-0.135,0-0.271-0.031-0.398-0.095c-0.174-0.087-4.284-2.214-5.932-7.877
							c-1.42-4.877-6.819-6.492-6.873-6.508c-0.469-0.137-0.74-0.628-0.604-1.097c0.136-0.47,0.629-0.738,1.097-0.604
							c0.26,0.076,6.392,1.913,8.08,7.715c0.399,1.369,0.961,2.5,1.566,3.42c-0.616-2.202-0.858-5.096,0.137-8.531
							c-0.722-0.054-1.556-0.262-2.102-0.863c-0.355-0.391-0.718-1.093-0.426-2.222c0.314-1.216,0.999-1.723,1.518-1.935
							c0.479-0.195,0.973-0.209,1.416-0.143c-0.121-1.854-0.082-5.306,1.238-9.379c0.15-0.465,0.649-0.72,1.115-0.569
							c0.465,0.15,0.72,0.65,0.569,1.115c-1.794,5.537-1.027,9.919-1.02,9.964c0.063,0.342-0.082,0.691-0.368,0.888
							c-0.287,0.199-0.664,0.21-0.961,0.029c-0.262-0.154-0.935-0.424-1.324-0.265c-0.207,0.086-0.364,0.333-0.469,0.737
							c-0.052,0.201-0.09,0.465,0.022,0.588c0.277,0.305,1.293,0.343,1.891,0.25c0.31-0.046,0.623,0.072,0.82,0.314
							c0.198,0.242,0.256,0.571,0.148,0.865c-2.816,7.718,1.479,12.682,1.523,12.731c0.282,0.318,0.298,0.791,0.039,1.127
							C86.111,432.585,85.849,432.707,85.581,432.707z"/>
						<path d="M53.743,450.768H40.117c-0.489,0-0.885-0.396-0.885-0.885c0-0.489,0.396-0.885,0.885-0.885
							h11.247c-0.262-0.327-0.494-0.695-0.654-1.098c-0.709-0.022-1.714-0.181-2.356-0.82c-0.44-0.437-0.637-1.019-0.57-1.683
							c0.091-0.912,0.554-1.41,0.927-1.667c0.497-0.342,1.087-0.436,1.58-0.436c0.003,0,0.005,0,0.007,0
							c0.197-1.415,0.767-4.242,2.377-7.171c0.235-0.429,0.773-0.585,1.202-0.349c0.428,0.235,0.585,0.774,0.349,1.202
							c-2.034,3.701-2.258,7.313-2.26,7.349c-0.015,0.266-0.15,0.513-0.366,0.669c-0.217,0.155-0.492,0.206-0.75,0.137
							c-0.307-0.079-0.886-0.117-1.138,0.059c-0.038,0.027-0.14,0.097-0.168,0.384c-0.018,0.177,0.029,0.225,0.057,0.252
							c0.273,0.272,1.172,0.342,1.69,0.29c0.486-0.05,0.918,0.299,0.971,0.782c0.108,0.969,1.456,1.95,1.92,2.218
							c0.347,0.201,0.517,0.609,0.413,0.996C54.495,450.499,54.144,450.768,53.743,450.768z"/>
					</g>
				</g>
			</g>
		</g>
		<g>
			<g>
				<path d="M249.704,449.723c-0.36,0-0.698-0.22-0.83-0.577c-0.17-0.457,0.063-0.966,0.52-1.137l0,0
					c0.048-0.018,4.805-1.868,11.25-8.993c3.236-3.579,7.392-5.625,11.42-5.625c0.035,0,0.07,0,0.105,0.001
					c2.639,0.023,4.899,0.961,6.364,2.638c2.045,2.344,2.477,6.358,1.028,9.543c-1.199,2.638-3.48,4.151-6.257,4.151
					c-2.339,0-4.25-1.219-5.115-3.26c-0.913-2.157-0.482-4.683,1.074-6.288c1.87-1.929,4.013-1.821,5.281-1.139
					c1.384,0.743,2.067,2.188,1.74,3.68c-0.104,0.478-0.58,0.778-1.054,0.675c-0.477-0.105-0.78-0.577-0.675-1.054
					c0.185-0.848-0.317-1.456-0.849-1.741c-0.756-0.407-1.988-0.408-3.173,0.812c-1.049,1.083-1.344,2.878-0.714,4.365
					c0.345,0.814,1.255,2.179,3.484,2.179c2.81,0,4.117-1.95,4.646-3.113c1.156-2.542,0.833-5.83-0.751-7.647
					c-1.126-1.292-2.918-2.013-5.044-2.032c-0.029-0.001-0.057-0.001-0.085-0.001c-3.479,0-7.253,1.88-10.111,5.043
					c-6.773,7.488-11.736,9.388-11.945,9.465C249.91,449.706,249.806,449.723,249.704,449.723z"/>
				<path d="M296.548,449.723c-4.464,0-7.411-2.619-14.529-8.947l-0.273-0.243
					c-4.529-4.026-5.933-4.502-5.991-4.521c-0.45-0.143-0.726-0.62-0.605-1.076c0.122-0.457,0.564-0.749,1.024-0.643
					c0.268,0.057,1.854,0.565,6.748,4.917l0.273,0.243c6.763,6.011,9.562,8.499,13.353,8.499c3.83,0,5.429-1.563,6.042-2.495
					c0.586-0.891,0.742-1.93,0.405-2.711c-0.327-0.758-0.893-0.819-1.309-0.729c-0.575,0.118-1.043,0.571-1.043,1.009
					c0,1.131,0.813,1.34,0.847,1.349c0.475,0.114,0.768,0.593,0.653,1.068c-0.115,0.475-0.599,0.772-1.068,0.653
					c-0.763-0.183-2.203-1.062-2.203-3.069c0-1.295,1.032-2.449,2.454-2.743c1.414-0.29,2.704,0.399,3.293,1.761
					c0.579,1.342,0.374,2.982-0.551,4.387C303.261,447.661,301.209,449.723,296.548,449.723z"/>
				<path d="M296.548,449.723h-11.69c-0.348,0-0.665-0.205-0.807-0.523c-0.131-0.29-0.094-0.627,0.09-0.881
					c0.013-0.204-0.175-0.791-0.583-1.147c-0.262-0.229-0.397-0.176-0.443-0.16c-0.112,0.042-0.138,0.086-0.159,0.135
					c-0.137,0.327,0.057,1.04,0.187,1.331c0.122,0.274,0.096,0.59-0.067,0.842c-0.163,0.252-0.443,0.403-0.743,0.403h-9.032
					c-0.489,0-0.885-0.396-0.885-0.885c0-0.489,0.396-0.885,0.885-0.885h7.875c-0.064-0.471-0.056-1.009,0.148-1.494
					c0.22-0.52,0.627-0.903,1.176-1.107c0.992-0.367,2.063,0.067,2.791,1.133c0.29,0.424,0.517,0.95,0.591,1.467h10.666
					c0.489,0,0.885,0.396,0.885,0.885C297.433,449.327,297.037,449.723,296.548,449.723z M284.197,448.25L284.197,448.25
					L284.197,448.25z"/>
				<path d="M318.435,449.748c-4.849,0.001-8.937-0.001-11.327-0.007c-2.98-0.006-2.98-0.006-3.126-0.721
					c-0.085-0.412,0.134-0.828,0.522-0.992c4.992-2.112,4.655-7.109,4.637-7.321c-0.028-0.349,0.154-0.683,0.462-0.85
					c0.308-0.167,0.686-0.137,0.963,0.077c1.08,0.836,4.242,3.124,5.874,3.668c0.436,0.145,0.688,0.599,0.581,1.046
					c-0.12,0.513-0.15,1.497,0.22,1.62c0.376,0.132,1.133-0.695,1.478-1.32c0.213-0.386,0.679-0.556,1.088-0.401
					c0.091,0.034,9.146,3.411,16.451,3.411c0.054,0,0.108,0.005,0.16,0.015c7.57-0.004,15.143-0.009,20.983-0.015h0.001
					c0.488,0,0.885,0.396,0.885,0.884c0,0.489-0.396,0.886-0.884,0.886c0,0-13.136,0.011-26.273,0.016
					C326.734,449.747,322.338,449.748,318.435,449.748z M304.849,448.842h0.009H304.849z M317.909,447.977
					c2.154,0,4.489,0,6.93-0.001c-2.255-0.602-4.06-1.205-4.987-1.531C319.442,447,318.763,447.736,317.909,447.977z
					 M307.89,447.972c2.105,0.004,5.197,0.005,8.885,0.005c-0.031-0.009-0.063-0.019-0.094-0.029
					c-1.327-0.442-1.586-1.834-1.501-2.946c-1.405-0.638-3.176-1.831-4.369-2.684C310.586,443.872,309.901,446.168,307.89,447.972z"
					/>
				<path d="M249.999,446.398c-0.133,0-0.268-0.03-0.395-0.093c-0.437-0.219-0.614-0.75-0.396-1.188
					c0.156-0.313,3.588-7.09,8.36-9.831c-2.252-1.809-7.102-6.057-8.409-10.037c-0.153-0.465,0.1-0.965,0.565-1.118
					c0.466-0.152,0.964,0.1,1.117,0.564c1.508,4.591,8.851,9.999,8.924,10.053c0.262,0.192,0.399,0.512,0.355,0.833
					c-0.043,0.322-0.259,0.594-0.563,0.709c-4.821,1.834-8.728,9.541-8.767,9.619C250.636,446.219,250.324,446.398,249.999,446.398z
					"/>
			</g>
			<g>
				<path d="M250.296,449.723c-0.102,0-0.206-0.017-0.307-0.055c-0.208-0.077-5.172-1.976-11.944-9.465
					c-2.859-3.162-6.633-5.043-10.111-5.043c-0.028,0-0.057,0-0.086,0.001c-2.126,0.019-3.917,0.74-5.044,2.032
					c-1.584,1.816-1.907,5.104-0.75,7.647c0.529,1.163,1.835,3.113,4.646,3.113c2.228,0,3.139-1.366,3.484-2.18
					c0.629-1.487,0.335-3.281-0.715-4.364c-1.183-1.219-2.414-1.218-3.172-0.813c-0.533,0.286-1.035,0.894-0.849,1.742
					c0.104,0.478-0.198,0.949-0.676,1.054c-0.479,0.105-0.949-0.197-1.054-0.675c-0.326-1.492,0.357-2.937,1.742-3.68
					c1.266-0.681,3.409-0.79,5.28,1.139c1.555,1.604,1.987,4.131,1.075,6.288c-0.864,2.041-2.776,3.26-5.114,3.26
					c-2.777,0-5.058-1.513-6.258-4.151c-1.448-3.186-1.016-7.199,1.028-9.543c1.464-1.678,3.723-2.615,6.363-2.638
					c0.035-0.001,0.07-0.001,0.105-0.001c4.027,0,8.184,2.046,11.42,5.625c6.444,7.125,11.201,8.975,11.249,8.993
					c0.456,0.172,0.689,0.682,0.517,1.139C250.991,449.504,250.654,449.723,250.296,449.723z"/>
				<path d="M203.452,449.723c-4.661,0-6.713-2.064-7.522-3.293c-0.923-1.405-1.129-3.044-0.549-4.386
					c0.588-1.362,1.878-2.052,3.292-1.761c1.423,0.294,2.455,1.447,2.455,2.743c0,2.007-1.441,2.886-2.202,3.069
					c-0.477,0.118-0.954-0.177-1.069-0.653c-0.115-0.475,0.178-0.954,0.653-1.068c0.129-0.037,0.848-0.293,0.848-1.349
					c0-0.437-0.468-0.89-1.043-1.009c-0.418-0.091-0.981-0.03-1.308,0.729c-0.337,0.781-0.182,1.82,0.404,2.711
					c1.043,1.586,3.245,2.495,6.042,2.495c3.791,0,6.591-2.488,13.353-8.499l0.273-0.243c4.896-4.353,6.481-4.86,6.749-4.917
					c0.482-0.105,0.949,0.202,1.051,0.68c0.1,0.464-0.185,0.922-0.639,1.042c-0.116,0.039-1.557,0.582-5.985,4.519l-0.273,0.243
					C210.863,447.104,207.916,449.723,203.452,449.723z"/>
				<path d="M226.698,449.723h-9.032c-0.3,0-0.579-0.151-0.742-0.403c-0.163-0.252-0.188-0.568-0.067-0.842
					c0.159-0.365,0.313-1.034,0.186-1.332c-0.021-0.049-0.047-0.092-0.158-0.134c-0.044-0.016-0.182-0.068-0.443,0.16
					c-0.408,0.356-0.595,0.943-0.583,1.147c0.184,0.254,0.221,0.59,0.09,0.881c-0.143,0.318-0.459,0.523-0.807,0.523h-11.69
					c-0.489,0-0.885-0.396-0.885-0.885c0-0.489,0.396-0.885,0.885-0.885h10.665c0.075-0.517,0.301-1.042,0.591-1.467
					c0.728-1.068,1.798-1.502,2.792-1.133c0.549,0.203,0.955,0.586,1.175,1.107c0.204,0.485,0.212,1.023,0.147,1.494h7.876
					c0.489,0,0.885,0.396,0.885,0.885C227.583,449.327,227.187,449.723,226.698,449.723z M215.803,448.25
					C215.804,448.25,215.804,448.25,215.803,448.25C215.804,448.25,215.804,448.25,215.803,448.25z"/>
				<path d="M181.565,449.748c-3.904,0-8.299-0.001-12.695-0.003c-13.137-0.005-26.273-0.016-26.273-0.016
					c-0.489,0-0.885-0.397-0.884-0.886c0-0.488,0.397-0.884,0.885-0.884c0,0,0,0,0,0c5.841,0.005,13.414,0.01,20.983,0.015
					c0.052-0.009,0.105-0.015,0.16-0.015c7.313,0,16.361-3.377,16.451-3.411c0.414-0.157,0.875,0.017,1.088,0.401
					c0.347,0.622,1.097,1.449,1.479,1.321c0.369-0.124,0.339-1.108,0.219-1.624c-0.104-0.445,0.148-0.899,0.581-1.043
					c1.632-0.545,4.794-2.832,5.874-3.668c0.278-0.216,0.656-0.245,0.965-0.077c0.309,0.169,0.488,0.503,0.458,0.853
					c-0.017,0.208-0.353,5.205,4.638,7.317c0.389,0.164,0.607,0.58,0.522,0.993c-0.147,0.714-0.147,0.714-3.126,0.72
					C190.502,449.746,186.412,449.748,181.565,449.748z M175.161,447.976c2.44,0.001,4.776,0.001,6.929,0.001
					c-0.853-0.241-1.532-0.977-1.942-1.532C179.22,446.771,177.416,447.375,175.161,447.976z M184.82,445.001
					c0.086,1.113-0.173,2.504-1.501,2.947c-0.031,0.01-0.063,0.02-0.094,0.029c3.688,0,6.78-0.002,8.885-0.005
					c-2.012-1.804-2.696-4.099-2.922-5.655C187.996,443.17,186.225,444.363,184.82,445.001z"/>
				<path d="M250.001,446.398c-0.325,0-0.637-0.179-0.792-0.489c-0.039-0.077-3.946-7.785-8.767-9.619
					c-0.303-0.115-0.519-0.387-0.562-0.709c-0.044-0.322,0.093-0.642,0.355-0.833c0.074-0.054,7.419-5.467,8.925-10.053
					c0.152-0.464,0.653-0.718,1.117-0.564c0.465,0.153,0.717,0.653,0.565,1.118c-1.308,3.98-6.157,8.228-8.409,10.037
					c4.772,2.741,8.203,9.518,8.36,9.831c0.219,0.437,0.042,0.968-0.396,1.188C250.269,446.367,250.134,446.398,250.001,446.398z"/>
			</g>
		</g>
		<g>
			<g>
				<path d="M227.938,45.431c-0.036,0-0.07,0-0.105,0c-2.639-0.023-4.899-0.96-6.363-2.639
					c-2.045-2.344-2.477-6.357-1.028-9.542c1.2-2.638,3.481-4.151,6.258-4.151c2.339,0,4.25,1.219,5.114,3.26
					c0.913,2.157,0.481,4.683-1.075,6.287c-1.872,1.928-4.013,1.82-5.28,1.139c-1.384-0.743-2.068-2.188-1.742-3.68
					c0.105-0.477,0.575-0.779,1.054-0.676c0.478,0.105,0.78,0.577,0.676,1.054c-0.186,0.849,0.317,1.456,0.849,1.742
					c0.757,0.405,1.989,0.407,3.172-0.813c1.05-1.083,1.344-2.878,0.715-4.364c-0.345-0.814-1.255-2.18-3.484-2.18
					c-2.811,0-4.118,1.95-4.646,3.113c-1.156,2.542-0.833,5.83,0.751,7.646c1.127,1.292,2.919,2.013,5.045,2.032
					c0.029,0,0.057,0,0.086,0c3.478,0,7.252-1.88,10.111-5.042c6.772-7.489,11.736-9.388,11.944-9.465
					c0.456-0.169,0.967,0.063,1.138,0.522c0.169,0.458-0.064,0.967-0.521,1.137c-0.087,0.033-4.832,1.898-11.248,8.993
					C236.121,43.385,231.964,45.431,227.938,45.431z"/>
				<path d="M224.01,44.548c-0.06,0-0.121-0.007-0.183-0.02c-0.268-0.057-1.853-0.565-6.749-4.917
					l-0.273-0.243c-6.762-6.011-9.562-8.499-13.353-8.499c-2.798,0-5,0.909-6.043,2.495c-0.586,0.891-0.741,1.93-0.403,2.71
					c0.328,0.758,0.891,0.815,1.308,0.729c0.575-0.119,1.043-0.571,1.043-1.009c0-1.131-0.813-1.34-0.848-1.348
					c-0.475-0.115-0.767-0.593-0.653-1.068c0.115-0.476,0.594-0.766,1.069-0.653c0.762,0.184,2.202,1.063,2.202,3.069
					c0,1.295-1.032,2.449-2.455,2.743c-1.414,0.293-2.705-0.4-3.292-1.761c-0.579-1.341-0.374-2.98,0.549-4.385
					c0.808-1.23,2.861-3.293,7.522-3.293c4.464,0,7.411,2.619,14.529,8.947l0.273,0.243c4.529,4.026,5.933,4.503,5.991,4.521
					c0.45,0.143,0.726,0.62,0.605,1.076C224.745,44.28,224.4,44.548,224.01,44.548z"/>
				<path d="M216.792,33.597c-0.769,0-1.526-0.446-2.084-1.262c-0.29-0.425-0.517-0.95-0.591-1.467h-10.665
					c-0.489,0-0.885-0.396-0.885-0.885c0-0.489,0.396-0.885,0.885-0.885h11.69c0.349,0,0.665,0.204,0.807,0.523
					c0.131,0.291,0.094,0.627-0.09,0.881c-0.012,0.204,0.175,0.791,0.583,1.147c0.259,0.227,0.398,0.176,0.443,0.16
					c0.111-0.042,0.137-0.086,0.158-0.135c0.137-0.327-0.057-1.04-0.186-1.331c-0.122-0.274-0.097-0.591,0.067-0.842
					c0.163-0.251,0.443-0.403,0.742-0.403h9.032c0.489,0,0.885,0.396,0.885,0.885c0,0.489-0.396,0.885-0.885,0.885h-7.876
					c0.064,0.471,0.057,1.008-0.147,1.493c-0.219,0.521-0.626,0.904-1.175,1.107C217.267,33.555,217.029,33.597,216.792,33.597z
					 M215.804,30.57C215.804,30.571,215.804,30.571,215.804,30.57C215.804,30.571,215.804,30.571,215.804,30.57z"/>
				<path d="M189.976,39.072c-0.192,0-0.383-0.063-0.542-0.185c-1.081-0.836-4.243-3.124-5.874-3.667
					c-0.436-0.145-0.688-0.6-0.581-1.046c0.119-0.514,0.149-1.498-0.219-1.621c-0.39-0.125-1.135,0.696-1.479,1.321
					c-0.213,0.385-0.676,0.557-1.088,0.402c-0.09-0.034-9.145-3.411-16.451-3.411c-0.054,0-0.108-0.005-0.16-0.014
					c-7.57,0.004-15.143,0.01-20.983,0.014h-0.001c-0.488,0-0.885-0.396-0.885-0.884c0-0.489,0.396-0.886,0.884-0.886
					c0,0,13.136-0.011,26.273-0.017c6.569-0.003,13.138-0.003,18.065-0.002c2.464,0.001,4.518,0.003,5.956,0.006
					c2.98,0.007,2.98,0.007,3.126,0.722c0.084,0.413-0.134,0.828-0.523,0.992c-5.024,2.126-4.643,7.266-4.638,7.318
					c0.03,0.35-0.15,0.685-0.458,0.853C190.267,39.036,190.121,39.072,189.976,39.072z M184.82,33.82
					c1.405,0.638,3.176,1.831,4.369,2.684c0.226-1.555,0.911-3.851,2.922-5.655c-2.105-0.003-5.197-0.005-8.885-0.006
					c0.031,0.009,0.062,0.019,0.093,0.029C184.647,31.315,184.906,32.707,184.82,33.82z M175.161,30.844
					c2.255,0.602,4.059,1.205,4.987,1.531c0.41-0.556,1.09-1.291,1.943-1.532C179.94,30.845,177.603,30.844,175.161,30.844z"/>
				<path d="M250,54.735c-0.372,0-0.719-0.237-0.841-0.61c-1.506-4.586-8.851-9.999-8.925-10.053
					c-0.262-0.191-0.398-0.511-0.355-0.833c0.043-0.322,0.259-0.593,0.562-0.709c4.83-1.837,8.727-9.541,8.766-9.619
					c0.219-0.436,0.75-0.615,1.188-0.396c0.438,0.219,0.615,0.75,0.396,1.188c-0.156,0.313-3.588,7.09-8.36,9.832
					c2.252,1.809,7.102,6.056,8.409,10.038c0.152,0.465-0.1,0.965-0.565,1.117C250.184,54.721,250.091,54.735,250,54.735z"/>
			</g>
			<g>
				<path d="M272.062,45.431c-4.027,0-8.184-2.046-11.42-5.625c-6.444-7.126-11.201-8.976-11.249-8.993
					c-0.456-0.172-0.689-0.682-0.517-1.139c0.17-0.457,0.678-0.69,1.136-0.52c0.208,0.077,5.171,1.976,11.944,9.465
					c2.883,3.188,6.685,5.066,10.197,5.042c2.127-0.019,3.918-0.74,5.044-2.032c1.585-1.816,1.907-5.103,0.751-7.646
					c-0.528-1.163-1.835-3.114-4.646-3.114c-2.229,0-3.139,1.365-3.484,2.18c-0.629,1.487-0.335,3.281,0.714,4.364
					c1.184,1.22,2.415,1.219,3.173,0.812c0.532-0.286,1.034-0.893,0.849-1.742c-0.105-0.478,0.198-0.95,0.675-1.054
					c0.475-0.105,0.95,0.198,1.054,0.676c0.327,1.493-0.356,2.937-1.74,3.68c-1.268,0.68-3.411,0.789-5.281-1.139
					c-1.555-1.604-1.987-4.131-1.074-6.287c0.865-2.042,2.776-3.26,5.115-3.26c2.778,0,5.058,1.513,6.257,4.151
					c1.449,3.186,1.017,7.199-1.028,9.542c-1.465,1.679-3.724,2.616-6.364,2.639C272.133,45.43,272.098,45.431,272.062,45.431z"/>
				<path d="M275.986,44.548c-0.408,0-0.776-0.284-0.865-0.699c-0.1-0.464,0.184-0.922,0.639-1.042
					c0.115-0.039,1.555-0.582,5.985-4.519l0.273-0.243c7.118-6.328,10.065-8.947,14.529-8.947c4.661,0,6.713,2.063,7.522,3.293
					c0.923,1.404,1.129,3.044,0.55,4.385c-0.589,1.362-1.879,2.055-3.293,1.761c-1.422-0.294-2.454-1.448-2.454-2.743
					c0-2.007,1.44-2.885,2.203-3.069c0.469-0.114,0.953,0.177,1.068,0.653c0.115,0.475-0.177,0.954-0.653,1.068
					c-0.129,0.037-0.847,0.293-0.847,1.348c0,0.438,0.468,0.89,1.043,1.009c0.416,0.086,0.982,0.028,1.309-0.729
					c0.337-0.781,0.181-1.819-0.405-2.711c-1.043-1.585-3.245-2.495-6.042-2.495c-3.792,0-6.59,2.488-13.353,8.499l-0.273,0.243
					c-4.895,4.352-6.48,4.859-6.748,4.917C276.111,44.541,276.048,44.548,275.986,44.548z"/>
				<path d="M283.208,33.597c-0.237,0-0.475-0.042-0.708-0.129c-0.549-0.203-0.955-0.586-1.175-1.107
					c-0.204-0.485-0.212-1.022-0.148-1.493h-7.875c-0.489,0-0.885-0.396-0.885-0.885c0-0.489,0.396-0.885,0.885-0.885h9.032
					c0.3,0,0.579,0.152,0.743,0.403c0.163,0.251,0.188,0.568,0.067,0.842c-0.159,0.365-0.313,1.033-0.186,1.332
					c0.021,0.049,0.047,0.092,0.157,0.134c0.048,0.018,0.184,0.069,0.444-0.159c0.408-0.356,0.596-0.943,0.583-1.147
					c-0.184-0.255-0.22-0.59-0.09-0.881c0.143-0.318,0.459-0.523,0.807-0.523h11.69c0.489,0,0.885,0.396,0.885,0.885
					c0,0.489-0.396,0.885-0.885,0.885h-10.666c-0.074,0.517-0.301,1.043-0.591,1.468C284.734,33.152,283.977,33.597,283.208,33.597z
					 M284.196,30.57C284.196,30.571,284.197,30.571,284.196,30.57C284.197,30.571,284.196,30.571,284.196,30.57z"/>
				<path d="M310.024,39.072c-0.145,0-0.291-0.036-0.424-0.108c-0.309-0.168-0.488-0.503-0.458-0.853
					c0.016-0.209,0.353-5.205-4.638-7.317c-0.388-0.164-0.607-0.579-0.523-0.991c0.145-0.716,0.145-0.716,3.127-0.722
					c1.438-0.003,3.492-0.005,5.956-0.006c4.93-0.001,11.497,0,18.066,0.002c13.137,0.006,26.273,0.017,26.273,0.017
					c0.488,0,0.884,0.397,0.884,0.886c0,0.489-0.397,0.884-0.885,0.884h-0.001c-5.841-0.005-13.415-0.01-20.984-0.014
					c-0.051,0.01-0.105,0.014-0.159,0.014c-7.313,0-16.36,3.377-16.451,3.411c-0.41,0.156-0.875-0.015-1.088-0.401
					c-0.346-0.622-1.088-1.455-1.478-1.321c-0.396,0.132-0.317,1.213-0.22,1.621c0.107,0.447-0.145,0.901-0.581,1.046
					c-1.632,0.544-4.795,2.832-5.875,3.667C310.407,39.009,310.216,39.072,310.024,39.072z M307.89,30.849
					c2.012,1.804,2.696,4.099,2.921,5.655c1.193-0.853,2.964-2.046,4.369-2.684c-0.086-1.113,0.174-2.505,1.501-2.947
					c0.031-0.01,0.062-0.02,0.093-0.029C313.086,30.844,309.995,30.846,307.89,30.849z M317.91,30.844
					c0.852,0.242,1.532,0.977,1.943,1.532c0.928-0.326,2.732-0.93,4.987-1.531C322.397,30.844,320.063,30.844,317.91,30.844z"/>
				<path d="M250,54.735c-0.091,0-0.185-0.015-0.276-0.045c-0.465-0.153-0.717-0.653-0.565-1.117
					c1.308-3.981,6.157-8.229,8.409-10.038c-4.772-2.741-8.203-9.519-8.36-9.832c-0.218-0.437-0.041-0.969,0.396-1.187
					c0.436-0.22,0.968-0.042,1.187,0.395c0.039,0.078,3.945,7.786,8.767,9.619c0.303,0.116,0.52,0.387,0.563,0.709
					c0.043,0.322-0.093,0.642-0.355,0.833c-0.074,0.054-7.418,5.467-8.924,10.053C250.719,54.499,250.372,54.735,250,54.735z"/>
			</g>
		</g>
		<g>
			<g>
				<path d="M459.428,240.592c-0.359,0-0.697-0.22-0.829-0.576c-0.033-0.085-1.897-4.83-8.994-11.248
					c-3.61-3.265-5.66-7.466-5.624-11.526c0.023-2.639,0.96-4.899,2.638-6.362c2.344-2.044,6.356-2.477,9.543-1.029
					c2.638,1.199,4.151,3.48,4.151,6.258c0,2.338-1.219,4.25-3.26,5.115c-2.159,0.913-4.684,0.48-6.288-1.074
					c-1.93-1.871-1.82-4.014-1.139-5.281c0.743-1.384,2.19-2.066,3.68-1.741c0.477,0.105,0.78,0.577,0.675,1.054
					c-0.104,0.477-0.578,0.778-1.054,0.676c-0.849-0.188-1.456,0.317-1.741,0.849c-0.407,0.758-0.408,1.99,0.812,3.172
					c1.082,1.049,2.877,1.343,4.364,0.715c0.814-0.345,2.18-1.256,2.18-3.484c0-2.811-1.95-4.117-3.113-4.646
					c-2.541-1.158-5.829-0.834-7.647,0.751c-1.292,1.127-2.013,2.918-2.032,5.044c-0.031,3.502,1.853,7.314,5.041,10.197
					c7.489,6.772,9.389,11.736,9.466,11.944c0.17,0.458-0.064,0.968-0.522,1.138C459.634,240.574,459.53,240.592,459.428,240.592z"
					/>
				<path d="M445.744,214.289c-0.073,0-0.146-0.01-0.22-0.029c-0.457-0.121-0.742-0.562-0.642-1.024
					c0.058-0.268,0.566-1.853,4.918-6.748l0.24-0.27c6.013-6.764,8.502-9.564,8.502-13.356c0-2.798-0.909-5-2.495-6.042
					c-0.891-0.587-1.932-0.74-2.711-0.404c-0.758,0.328-0.815,0.893-0.729,1.309c0.118,0.575,0.571,1.043,1.009,1.043
					c1.131,0,1.34-0.813,1.349-0.848c0.115-0.476,0.6-0.767,1.068-0.653c0.475,0.115,0.768,0.593,0.653,1.069
					c-0.183,0.762-1.062,2.202-3.069,2.202c-1.295,0-2.449-1.032-2.743-2.454c-0.292-1.412,0.4-2.705,1.761-3.293
					c1.342-0.579,2.982-0.373,4.386,0.55c1.23,0.809,3.293,2.861,3.293,7.522c0,4.465-2.62,7.412-8.949,14.533l-0.24,0.27
					c-4.027,4.53-4.503,5.933-4.521,5.991C446.481,214.034,446.125,214.289,445.744,214.289z"/>
				<path d="M459.428,216.994c-0.489,0-0.885-0.396-0.885-0.885v-7.876c-0.47,0.065-1.008,0.058-1.494-0.147
					c-0.521-0.22-0.903-0.626-1.107-1.175c-0.368-0.993,0.067-2.063,1.133-2.792c0.425-0.29,0.951-0.516,1.468-0.592v-10.665
					c0-0.489,0.396-0.885,0.885-0.885c0.489,0,0.885,0.396,0.885,0.885v11.69c0,0.348-0.205,0.665-0.522,0.807
					c-0.292,0.131-0.627,0.093-0.882-0.09c-0.189-0.004-0.791,0.175-1.147,0.583c-0.227,0.26-0.176,0.398-0.16,0.443
					c0.041,0.111,0.085,0.137,0.135,0.158c0.328,0.137,1.04-0.057,1.331-0.187c0.274-0.122,0.59-0.095,0.842,0.067
					c0.252,0.163,0.403,0.443,0.403,0.742v9.032C460.313,216.598,459.917,216.994,459.428,216.994z M458.84,205.214
					C458.84,205.214,458.84,205.214,458.84,205.214C458.84,205.214,458.84,205.214,458.84,205.214z"/>
				<path d="M459.432,185.447c-0.35,0-0.674-0.208-0.815-0.541c-2.127-5.026-7.266-4.641-7.317-4.638
					c-0.359,0.04-0.686-0.15-0.853-0.458c-0.169-0.308-0.138-0.687,0.077-0.965c0.835-1.081,3.123-4.243,3.667-5.874
					c0.146-0.436,0.604-0.685,1.046-0.581c0.513,0.12,1.499,0.15,1.621-0.219c0.13-0.388-0.696-1.135-1.321-1.479
					c-0.385-0.212-0.557-0.676-0.401-1.088c0.034-0.091,3.411-9.145,3.411-16.451c0-0.055,0.005-0.108,0.015-0.16
					c-0.004-7.569-0.009-15.142-0.015-20.983c0-0.489,0.396-0.886,0.884-0.886h0.001c0.488,0,0.885,0.396,0.885,0.884
					c0,0,0.011,13.136,0.016,26.273c0.004,6.569,0.004,13.138,0.003,18.065c-0.001,2.464-0.003,4.518-0.006,5.956
					c-0.006,2.979-0.006,2.979-0.72,3.126C459.55,185.441,459.491,185.447,459.432,185.447z M459.432,184.561h0.009H459.432z
					 M452.907,178.599c1.555,0.225,3.85,0.91,5.655,2.922c0.003-2.106,0.005-5.197,0.005-8.885
					c-0.009,0.032-0.018,0.063-0.029,0.094c-0.442,1.327-1.837,1.586-2.947,1.5C454.952,175.635,453.759,177.406,452.907,178.599z
					 M457.034,169.558c0.556,0.41,1.292,1.09,1.533,1.943c0-2.155,0-4.489-0.001-6.931
					C457.964,166.825,457.361,168.63,457.034,169.558z"/>
				<path d="M435.561,240.296c-0.373,0-0.718-0.236-0.841-0.61c-0.152-0.465,0.1-0.965,0.565-1.117
					c4.591-1.508,9.998-8.85,10.052-8.924c0.193-0.262,0.509-0.395,0.833-0.355c0.322,0.043,0.594,0.259,0.709,0.563
					c1.835,4.821,9.542,8.728,9.62,8.767c0.437,0.219,0.615,0.75,0.396,1.187c-0.22,0.437-0.75,0.615-1.188,0.396
					c-0.313-0.156-7.09-3.587-9.832-8.36c-1.809,2.252-6.056,7.101-10.036,8.409C435.745,240.281,435.653,240.296,435.561,240.296z"
					/>
			</g>
			<g>
				<path d="M452.141,269.823c-2.083,0-4.106-0.647-5.522-1.881c-1.678-1.465-2.615-3.724-2.638-6.363
					c-0.036-4.061,2.013-8.261,5.624-11.527c7.126-6.443,8.976-11.201,8.994-11.249c0.172-0.457,0.681-0.69,1.139-0.517
					c0.457,0.171,0.69,0.678,0.52,1.135c-0.077,0.208-1.976,5.172-9.466,11.945c-3.188,2.882-5.072,6.694-5.041,10.196
					c0.019,2.127,0.74,3.918,2.032,5.044c1.817,1.586,5.104,1.907,7.647,0.751c1.163-0.529,3.113-1.835,3.113-4.646
					c0-2.229-1.366-3.139-2.179-3.484c-1.488-0.628-3.283-0.335-4.365,0.714c-1.22,1.183-1.219,2.414-0.812,3.173
					c0.285,0.532,0.892,1.033,1.741,0.849c0.477-0.103,0.95,0.197,1.054,0.675c0.105,0.477-0.198,0.949-0.675,1.054
					c-1.49,0.328-2.937-0.357-3.68-1.74c-0.68-1.267-0.79-3.41,1.139-5.281c1.605-1.555,4.132-1.985,6.288-1.074
					c2.041,0.865,3.26,2.776,3.26,5.115c0,2.778-1.513,5.058-4.151,6.257C454.899,269.544,453.507,269.823,452.141,269.823z"/>
				<path d="M454.241,294.355c-0.559,0-1.104-0.107-1.607-0.324c-1.362-0.588-2.053-1.88-1.761-3.293
					c0.294-1.422,1.448-2.454,2.743-2.454c2.007,0,2.886,1.44,3.069,2.203c0.115,0.475-0.177,0.954-0.653,1.068
					c-0.468,0.119-0.953-0.176-1.068-0.653c-0.037-0.129-0.293-0.847-1.349-0.847c-0.437,0-0.89,0.468-1.009,1.043
					c-0.086,0.416-0.029,0.981,0.729,1.309c0.781,0.336,1.821,0.182,2.711-0.405c0.932-0.613,2.495-2.212,2.495-6.042
					c0-3.792-2.488-6.59-8.499-13.353l-0.243-0.273c-4.352-4.895-4.86-6.48-4.918-6.747c-0.103-0.478,0.201-0.949,0.679-1.052
					c0.468-0.105,0.922,0.184,1.043,0.639c0.039,0.115,0.582,1.555,4.52,5.985l0.243,0.273c6.327,7.118,8.947,10.065,8.947,14.529
					c0,4.661-2.063,6.713-3.292,7.521C456.143,294.057,455.173,294.355,454.241,294.355z"/>
				<path d="M459.428,286.844c-0.489,0-0.885-0.396-0.885-0.885v-10.665
					c-0.517-0.074-1.042-0.301-1.467-0.591c-1.067-0.729-1.502-1.798-1.133-2.792c0.203-0.548,0.586-0.955,1.107-1.175
					c0.485-0.204,1.024-0.211,1.494-0.148v-7.875c0-0.489,0.396-0.885,0.885-0.885c0.489,0,0.885,0.396,0.885,0.885v9.031
					c0,0.3-0.151,0.579-0.403,0.743c-0.252,0.163-0.568,0.188-0.842,0.066c-0.365-0.158-1.031-0.313-1.332-0.186
					c-0.049,0.021-0.092,0.047-0.134,0.157c-0.017,0.046-0.068,0.183,0.16,0.444c0.356,0.408,0.955,0.619,1.147,0.583
					c0.255-0.184,0.591-0.221,0.881-0.09c0.318,0.143,0.523,0.459,0.523,0.807v11.69
					C460.313,286.448,459.917,286.844,459.428,286.844z M458.84,273.606L458.84,273.606L458.84,273.606z"/>
				<path d="M459.432,347.698L459.432,347.698c-0.489,0-0.885-0.397-0.885-0.886
					c0.005-5.841,0.01-13.414,0.015-20.984c-0.009-0.052-0.015-0.105-0.015-0.16c0-7.305-3.378-16.36-3.411-16.451
					c-0.156-0.411,0.016-0.875,0.401-1.088c0.623-0.347,1.449-1.096,1.322-1.478c-0.132-0.395-1.213-0.316-1.622-0.22
					c-0.443,0.105-0.901-0.144-1.046-0.581c-0.545-1.634-2.832-4.795-3.667-5.875c-0.215-0.277-0.246-0.656-0.077-0.965
					c0.168-0.309,0.49-0.498,0.853-0.458c0.205,0.014,5.205,0.354,7.317-4.638c0.165-0.388,0.582-0.605,0.994-0.522
					c0.713,0.147,0.713,0.147,0.719,3.126c0.003,1.438,0.005,3.492,0.006,5.956c0.002,4.928,0.001,11.497-0.003,18.066
					c-0.005,13.137-0.016,26.273-0.016,26.273C460.317,347.302,459.92,347.698,459.432,347.698z M457.034,309.263
					c0.327,0.928,0.93,2.733,1.532,4.988c0.001-2.442,0.001-4.776,0.001-6.931C458.325,308.173,457.59,308.853,457.034,309.263z
					 M455.971,304.576c1.031,0,2.173,0.336,2.567,1.515c0.01,0.032,0.02,0.063,0.029,0.094c0-3.688-0.002-6.78-0.005-8.885
					c-1.804,2.012-4.1,2.696-5.655,2.921c0.852,1.193,2.045,2.965,2.683,4.369C455.715,304.581,455.843,304.576,455.971,304.576z"/>
				<path d="M446.051,249.539c-0.28,0-0.546-0.133-0.715-0.363c-0.054-0.074-5.466-7.418-10.052-8.924
					c-0.464-0.153-0.717-0.653-0.565-1.117c0.153-0.464,0.65-0.717,1.118-0.565c3.98,1.307,8.228,6.157,10.036,8.409
					c2.742-4.772,9.519-8.203,9.832-8.36c0.437-0.219,0.968-0.042,1.188,0.396c0.219,0.437,0.041,0.969-0.396,1.187
					c-0.078,0.039-7.785,3.945-9.62,8.767c-0.115,0.303-0.387,0.52-0.709,0.563C446.13,249.536,446.09,249.539,446.051,249.539z"/>
			</g>
		</g>
		<g>
			<g>
				<path d="M47.86,269.823c-1.367,0-2.759-0.279-4.021-0.853c-2.638-1.199-4.151-3.48-4.151-6.257
					c0-2.339,1.218-4.25,3.26-5.115c2.156-0.912,4.683-0.482,6.287,1.074c1.929,1.871,1.819,4.014,1.139,5.281
					c-0.743,1.385-2.188,2.07-3.681,1.741c-0.478-0.105-0.78-0.576-0.676-1.054c0.105-0.478,0.574-0.778,1.054-0.675
					c0.845,0.182,1.456-0.317,1.742-0.849c0.407-0.758,0.408-1.99-0.812-3.173c-1.083-1.05-2.877-1.343-4.364-0.714
					c-0.814,0.345-2.18,1.255-2.18,3.484c0,2.811,1.951,4.118,3.114,4.646c2.544,1.158,5.83,0.834,7.646-0.751
					c1.292-1.126,2.013-2.918,2.032-5.044c0.031-3.502-1.854-7.314-5.042-10.196c-7.489-6.773-9.388-11.737-9.465-11.945
					c-0.17-0.458,0.063-0.968,0.522-1.138c0.456-0.169,0.966,0.063,1.137,0.52c0.028,0.074,1.887,4.823,8.993,11.248
					c3.61,3.265,5.66,7.466,5.625,11.526c-0.023,2.639-0.96,4.899-2.639,6.364C51.966,269.176,49.942,269.822,47.86,269.823z"/>
				<path d="M45.759,294.355c-0.932,0-1.901-0.297-2.779-0.874c-1.229-0.809-3.292-2.862-3.292-7.522
					c0-4.465,2.62-7.412,8.949-14.533l0.24-0.27c4.027-4.53,4.503-5.933,4.521-5.991c0.143-0.45,0.62-0.725,1.076-0.605
					c0.456,0.122,0.742,0.562,0.643,1.024c-0.057,0.268-0.565,1.854-4.917,6.748l-0.24,0.27c-6.014,6.765-8.503,9.565-8.503,13.357
					c0,2.798,0.91,5,2.495,6.043c0.892,0.586,1.931,0.74,2.71,0.404c0.759-0.328,0.816-0.893,0.73-1.309
					c-0.119-0.575-0.572-1.043-1.009-1.043c-1.131,0-1.34,0.813-1.348,0.847c-0.115,0.476-0.594,0.772-1.069,0.653
					c-0.475-0.114-0.767-0.593-0.653-1.068c0.184-0.763,1.062-2.203,3.069-2.203c1.295,0,2.449,1.032,2.743,2.454
					c0.292,1.413-0.399,2.705-1.762,3.293C46.862,294.247,46.317,294.355,45.759,294.355z"/>
				<path d="M40.573,286.844c-0.489,0-0.885-0.396-0.885-0.885v-11.69c0-0.348,0.204-0.665,0.523-0.807
					c0.29-0.132,0.627-0.094,0.881,0.09c0.195,0.016,0.791-0.175,1.147-0.583c0.227-0.26,0.176-0.398,0.16-0.443
					c-0.042-0.112-0.085-0.138-0.134-0.158c-0.299-0.127-0.968,0.027-1.335,0.187c-0.273,0.119-0.59,0.094-0.84-0.07
					c-0.249-0.163-0.401-0.442-0.401-0.74v-9.031c0-0.489,0.396-0.885,0.885-0.885c0.489,0,0.885,0.396,0.885,0.885v7.875
					c0.472-0.062,1.009-0.056,1.493,0.148c0.521,0.22,0.904,0.626,1.108,1.176c0.368,0.993-0.066,2.062-1.133,2.791
					c-0.425,0.29-0.951,0.517-1.468,0.591v10.665C41.458,286.448,41.061,286.844,40.573,286.844z M41.16,273.606
					C41.16,273.606,41.16,273.607,41.16,273.606C41.16,273.607,41.16,273.606,41.16,273.606z"/>
				<path d="M40.568,347.698c-0.488,0-0.885-0.396-0.885-0.884c0,0-0.011-13.136-0.017-26.273
					c-0.003-6.569-0.004-13.138-0.002-18.066c0.001-2.464,0.003-4.518,0.006-5.956c0.006-2.981,0.006-2.981,0.721-3.126
					c0.413-0.085,0.828,0.134,0.992,0.522c2.112,4.991,7.111,4.658,7.32,4.637c0.343-0.026,0.683,0.154,0.85,0.462
					c0.167,0.308,0.137,0.686-0.077,0.962c-0.836,1.081-3.123,4.243-3.667,5.875c-0.145,0.436-0.601,0.686-1.047,0.581
					c-0.514-0.119-1.499-0.15-1.621,0.22c-0.127,0.382,0.699,1.132,1.323,1.479c0.383,0.213,0.554,0.676,0.4,1.087
					c-0.034,0.091-3.411,9.146-3.411,16.451c0,0.055-0.005,0.108-0.014,0.159c0.004,7.57,0.009,15.144,0.014,20.984
					C41.454,347.301,41.058,347.698,40.568,347.698C40.568,347.698,40.568,347.698,40.568,347.698z M41.433,307.321
					c0,2.154,0,4.488,0.001,6.928c0.602-2.255,1.205-4.059,1.532-4.987C42.411,308.853,41.675,308.174,41.433,307.321z
					 M41.439,297.3c-0.004,2.105-0.005,5.197-0.006,8.883c0.009-0.03,0.018-0.06,0.028-0.092c0.443-1.328,1.834-1.585,2.948-1.501
					c0.638-1.405,1.831-3.176,2.684-4.369C45.538,299.996,43.243,299.312,41.439,297.3z"/>
				<path d="M53.948,249.539c-0.039,0-0.079-0.003-0.118-0.008c-0.322-0.043-0.594-0.259-0.709-0.563
					c-1.834-4.821-9.542-8.728-9.619-8.767c-0.437-0.219-0.614-0.75-0.395-1.187c0.219-0.438,0.75-0.614,1.187-0.396
					c0.313,0.157,7.09,3.588,9.832,8.36c1.809-2.252,6.056-7.102,10.037-8.409c0.466-0.152,0.966,0.101,1.117,0.565
					c0.153,0.465-0.1,0.965-0.565,1.117c-4.586,1.506-9.998,8.851-10.053,8.924C54.495,249.406,54.228,249.539,53.948,249.539z"/>
			</g>
			<g>
				<path d="M40.572,240.591c-0.103,0-0.208-0.018-0.31-0.057c-0.457-0.171-0.69-0.678-0.52-1.135
					c0.077-0.208,1.976-5.172,9.465-11.944c3.188-2.883,5.073-6.694,5.042-10.196c-0.019-2.126-0.74-3.918-2.032-5.045
					c-1.817-1.584-5.102-1.906-7.646-0.751c-1.163,0.529-3.114,1.835-3.114,4.646c0,2.228,1.366,3.139,2.18,3.484
					c1.487,0.628,3.281,0.335,4.364-0.715c1.22-1.183,1.219-2.414,0.812-3.172c-0.286-0.533-0.895-1.035-1.742-0.849
					c-0.48,0.103-0.95-0.198-1.054-0.676c-0.104-0.478,0.198-0.95,0.676-1.054c1.492-0.325,2.937,0.357,3.681,1.742
					c0.68,1.266,0.79,3.41-1.139,5.281c-1.604,1.556-4.13,1.987-6.287,1.074c-2.041-0.864-3.26-2.776-3.26-5.115
					c0-2.778,1.513-5.058,4.151-6.258c3.185-1.449,7.199-1.016,9.543,1.029c1.678,1.464,2.616,3.724,2.639,6.363
					c0.036,4.059-2.014,8.26-5.625,11.525c-7.126,6.444-8.976,11.201-8.994,11.249C41.268,240.371,40.93,240.591,40.572,240.591z"/>
				<path d="M54.251,214.308c-0.395,0-0.751-0.265-0.855-0.659c-0.039-0.115-0.582-1.556-4.519-5.985
					l-0.237-0.267c-6.332-7.122-8.952-10.07-8.952-14.535c0-4.661,2.063-6.713,3.293-7.522c1.404-0.923,3.043-1.129,4.385-0.549
					c1.362,0.588,2.053,1.881,1.762,3.293c-0.294,1.422-1.448,2.454-2.743,2.454c-2.007,0-2.885-1.441-3.069-2.202
					c-0.115-0.475,0.178-0.954,0.653-1.069c0.477-0.115,0.954,0.177,1.069,0.653c0.037,0.129,0.293,0.848,1.348,0.848
					c0.437,0,0.89-0.468,1.009-1.043c0.086-0.416,0.029-0.981-0.73-1.309c-0.781-0.338-1.82-0.182-2.71,0.404
					c-1.586,1.043-2.495,3.245-2.495,6.043c0,3.793,2.49,6.593,8.505,13.359l0.237,0.267c4.352,4.896,4.859,6.48,4.917,6.749
					c0.103,0.478-0.201,0.948-0.68,1.051C54.375,214.302,54.313,214.308,54.251,214.308z"/>
				<path d="M40.573,216.994c-0.489,0-0.885-0.396-0.885-0.885v-9.032c0-0.299,0.152-0.579,0.403-0.742
					c0.252-0.164,0.569-0.189,0.842-0.066c0.364,0.159,1.033,0.313,1.332,0.186c0.049-0.021,0.093-0.047,0.133-0.158
					c0.017-0.045,0.068-0.183-0.159-0.443c-0.356-0.408-0.925-0.589-1.148-0.583c-0.255,0.184-0.592,0.22-0.881,0.09
					c-0.318-0.143-0.523-0.459-0.523-0.807v-11.69c0-0.489,0.396-0.885,0.885-0.885c0.489,0,0.885,0.396,0.885,0.885v10.665
					c0.517,0.075,1.043,0.301,1.468,0.592c1.066,0.729,1.5,1.798,1.132,2.791c-0.203,0.549-0.586,0.955-1.107,1.175
					c-0.485,0.204-1.024,0.211-1.493,0.147v7.876C41.458,216.598,41.061,216.994,40.573,216.994z M41.16,205.214L41.16,205.214
					L41.16,205.214z"/>
				<path d="M40.568,185.447c-0.058,0-0.118-0.006-0.177-0.018c-0.715-0.146-0.715-0.146-0.721-3.126
					c-0.003-1.438-0.005-3.492-0.006-5.956c-0.002-4.927,0-11.497,0.002-18.065c0.006-13.137,0.017-26.273,0.017-26.273
					c0-0.488,0.397-0.884,0.885-0.884c0,0,0,0,0.001,0c0.489,0.001,0.885,0.397,0.884,0.886c-0.005,5.841-0.01,13.414-0.014,20.983
					c0.009,0.052,0.014,0.105,0.014,0.16c0,7.306,3.377,16.361,3.411,16.451c0.155,0.412-0.016,0.875-0.401,1.088
					c-0.623,0.347-1.449,1.097-1.322,1.479c0.132,0.395,1.214,0.317,1.621,0.22c0.446-0.11,0.901,0.145,1.047,0.581
					c0.545,1.634,2.832,4.794,3.667,5.874c0.215,0.278,0.245,0.657,0.077,0.965c-0.169,0.309-0.505,0.492-0.853,0.458
					c-0.21-0.013-5.206-0.352-7.318,4.638C41.243,185.239,40.918,185.447,40.568,185.447z M41.433,172.638
					c0,3.687,0.002,6.778,0.006,8.883c1.804-2.011,4.099-2.696,5.655-2.922c-0.853-1.193-2.046-2.964-2.684-4.369
					c-1.113,0.091-2.505-0.173-2.948-1.5C41.451,172.699,41.442,172.669,41.433,172.638z M41.434,164.572
					c0,2.44-0.001,4.775-0.001,6.929c0.242-0.852,0.977-1.532,1.532-1.942C42.639,168.63,42.036,166.826,41.434,164.572z"/>
				<path d="M64.439,240.296c-0.091,0-0.185-0.015-0.276-0.045c-3.981-1.308-8.229-6.157-10.037-8.409
					c-2.741,4.772-9.519,8.203-9.832,8.36c-0.438,0.22-0.969,0.042-1.187-0.396c-0.219-0.437-0.042-0.969,0.395-1.187
					c0.078-0.039,7.786-3.945,9.619-8.767c0.115-0.303,0.387-0.519,0.709-0.562c0.324-0.044,0.642,0.092,0.833,0.354
					c0.054,0.074,5.467,7.419,10.053,8.925c0.465,0.153,0.718,0.653,0.565,1.117C65.158,240.059,64.811,240.296,64.439,240.296z"/>
			</g>
		</g>
	</g>
</g>
</svg>
